<?xml version="1.0" encoding="utf-8"?>
<!-- Generator: Adobe Illustrator 23.0.0, SVG Export Plug-In . SVG Version: 6.00 Build 0)  -->
<svg version="1.1" id="Layer_1" xmlns="http://www.w3.org/2000/svg" xmlns:xlink="http://www.w3.org/1999/xlink" x="0px" y="0px"
	 viewBox="0 0 187 55" style="enable-background:new 0 0 187 55;" xml:space="preserve">
<style type="text/css">
	.st0{fill:#FFFFFF;}
</style>
<path class="st0" d="M17,28.8l-0.1,3.3l0.7,0l0.1-3.3L17,28.8z"/>
<path class="st0" d="M17.2,23.8l-0.9,3.2l0.6,0.2l0.9-3.2L17.2,23.8z"/>
<path class="st0" d="M18.5,32.8L17.8,33l0.7,3.2l0.6-0.1L18.5,32.8z"/>
<path class="st0" d="M18.7,19.1L17.1,22l0.6,0.3l1.6-2.8L18.7,19.1z"/>
<path class="st0" d="M20.1,36.9l-0.6,0.3l1.3,3l0.6-0.3L20.1,36.9z"/>
<path class="st0" d="M22.1,14l-2.4,2.3l0.5,0.5l2.4-2.3L22.1,14z"/>
<path class="st0" d="M23.1,40.6L22.6,41l2,2.6l0.5-0.4L23.1,40.6z"/>
<path class="st0" d="M21.7,28l-0.5,3.2l0.6,0.1l0.5-3.2L21.7,28z"/>
<path class="st0" d="M23.5,34l-0.6,0.3l1.3,3l0.6-0.3L23.5,34z"/>
<path class="st0" d="M27.1,10.1l-2.9,1.4l0.3,0.6l2.9-1.4L27.1,10.1z"/>
<path class="st0" d="M26.4,43.3L26,43.8l2.5,2.1l0.4-0.5L26.4,43.3z"/>
<path class="st0" d="M24.2,20.3l-0.6,0.2l0.8,3.2l0.6-0.2L24.2,20.3z"/>
<path class="st0" d="M27.3,39.4l-0.5,0.4l2,2.6l0.5-0.4L27.3,39.4z"/>
<path class="st0" d="M26.9,30.4l-0.6,0.1l0.6,3.2l0.6-0.1L26.9,30.4z"/>
<path class="st0" d="M29.5,44.8l-0.3,0.6l2.9,1.5l0.3-0.6L29.5,44.8z"/>
<path class="st0" d="M29,35.1l-0.6,0.3l1.3,3l0.6-0.3L29,35.1z"/>
<path class="st0" d="M33.3,8.3l-3.3,0L30,9l3.3,0L33.3,8.3z"/>
<path class="st0" d="M28.5,24.8l-1.4,3l0.6,0.3l1.4-3L28.5,24.8z"/>
<path class="st0" d="M31.2,41.6l-0.3,0.6l2.9,1.5l0.3-0.6L31.2,41.6z"/>
<path class="st0" d="M32.8,45.8l-0.2,0.6l3.1,1l0.2-0.6L32.8,45.8z"/>
<path class="st0" d="M32.4,16.3l-2.9,1.5l0.3,0.6l2.9-1.5L32.4,16.3z"/>
<path class="st0" d="M34.5,37.7l-0.1,0.6l3.2,0.7l0.1-0.6L34.5,37.7z"/>
<path class="st0" d="M40.1,40.1l-0.1,0.6l3.2,0.7l0.1-0.6L40.1,40.1z"/>
<path class="st0" d="M36.4,46.1l-0.1,0.7l3.2,0.4l0.1-0.7L36.4,46.1z"/>
<path class="st0" d="M34.8,30.9l-0.3,0.6l2.9,1.6l0.3-0.6L34.8,30.9z"/>
<path class="st0" d="M42,33.9l-3.2,0.6l0.1,0.6l3.2-0.6L42,33.9z"/>
<path class="st0" d="M36.4,42.3l-0.3,0.6l2.9,1.4l0.3-0.6L36.4,42.3z"/>
<path class="st0" d="M35.8,24.6l-2.4,2.3l0.5,0.5l2.4-2.3L35.8,24.6z"/>
<path class="st0" d="M40.8,7.6l-3,1.2l0.2,0.6l3-1.2L40.8,7.6z"/>
<path class="st0" d="M43.8,44.8l-3.1,1l0.2,0.6l3.1-1L43.8,44.8z"/>
<path class="st0" d="M39.7,18.5l-0.5,0.4l2.1,2.5l0.5-0.4L39.7,18.5z"/>
<path class="st0" d="M42.2,27.9l-2.5,2l0.4,0.5l2.5-2L42.2,27.9z"/>
<path class="st0" d="M46,37.6l-3.3,0l0,0.7l3.3,0L46,37.6z"/>
<path class="st0" d="M47.3,43l-3.1,1.1l0.2,0.6l3.1-1.1L47.3,43z"/>
<path class="st0" d="M48.3,10.8l-3.2,0.6l0.1,0.6l3.2-0.6L48.3,10.8z"/>
<path class="st0" d="M50.8,41.1l-3.2,0.5l0.1,0.6l3.2-0.5L50.8,41.1z"/>
<path class="st0" d="M46,24.7L45.8,28l0.7,0l0.1-3.3L46,24.7z"/>
<path class="st0" d="M46.9,31.4l-0.6,0.1l0.5,3.2l0.6-0.1L46.9,31.4z"/>
<path class="st0" d="M53.1,37.4l-2.9,1.4l0.3,0.6l2.9-1.4L53.1,37.4z"/>
<path class="st0" d="M51.2,15l-0.6,0.4l1.8,2.8l0.6-0.4L51.2,15z"/>
<path class="st0" d="M54.3,21l-0.6,0.2l1.1,3.1l0.6-0.2L54.3,21z"/>
<path class="st0" d="M54.7,31.5l-1.3,3l0.6,0.3l1.3-3L54.7,31.5z"/>
<path class="st0" d="M55.3,26.4l-0.7,3.2l0.6,0.1l0.7-3.2L55.3,26.4z"/>
<path class="st0" d="M26.9,14.2L24.1,16l0.3,0.6l2.8-1.7L26.9,14.2z"/>
<path class="st0" d="M36.3,11.6L33,12.1l0.1,0.6l3.2-0.5L36.3,11.6z"/>
<path class="st0" d="M65.3,14.9h2.2c0.5-0.1,1,0,1.5,0.2c0.5,0.2,0.9,0.4,1.3,0.8c0.4,0.3,0.6,0.8,0.8,1.2s0.3,1,0.2,1.5
	c0,0.5-0.1,1-0.2,1.5c-0.2,0.5-0.5,0.9-0.8,1.2c-0.4,0.3-0.8,0.6-1.3,0.8c-0.5,0.2-1,0.2-1.5,0.2h-2.2V14.9z M66.5,15.9v5.3h1
	c0.3,0,0.7,0,1-0.2c0.3-0.1,0.6-0.3,0.9-0.6c0.2-0.3,0.4-0.6,0.5-0.9c0.1-0.3,0.2-0.7,0.1-1c0-0.3,0-0.7-0.1-1
	c-0.1-0.3-0.3-0.6-0.5-0.9c-0.2-0.3-0.5-0.4-0.9-0.6c-0.3-0.1-0.7-0.2-1-0.2H66.5z"/>
<path class="st0" d="M74.7,22.3c-0.4,0-0.7-0.1-1-0.2c-0.3-0.1-0.6-0.4-0.9-0.6c-0.2-0.3-0.4-0.6-0.5-0.9c-0.1-0.3-0.2-0.7-0.1-1.1
	c0-0.4,0-0.7,0.1-1.1c0.1-0.3,0.3-0.7,0.5-0.9c0.2-0.3,0.5-0.5,0.9-0.6c0.3-0.1,0.7-0.2,1.1-0.2c0.4,0,0.7,0.1,1.1,0.2
	c0.3,0.1,0.6,0.4,0.9,0.6c0.2,0.3,0.4,0.6,0.5,0.9c0.1,0.3,0.2,0.7,0.1,1.1c0,0.4,0,0.7-0.1,1.1c-0.1,0.3-0.3,0.7-0.5,0.9
	c-0.2,0.3-0.5,0.5-0.9,0.6C75.4,22.2,75.1,22.3,74.7,22.3z M74.7,21.5c0.9,0,1.4-0.8,1.4-1.9c0-1.1-0.5-1.9-1.4-1.9
	c-0.9,0-1.4,0.8-1.4,1.9C73.4,20.7,73.8,21.5,74.7,21.5z"/>
<path class="st0" d="M83.1,17l0.9,4.9l1.1-4.9h1.1l-1.1,5.2h-2.1l-0.9-4.9l-0.9,4.9h-2.1L77.9,17H79l1,4.9L81,17H83.1z"/>
<path class="st0" d="M87.3,22.2V17h1.1v1c0.1-0.4,0.3-0.7,0.6-0.9c0.3-0.2,0.7-0.3,1.1-0.3c1.2,0,1.7,0.8,1.7,1.9v3.4h-1.2v-3.1
	c0-1-0.3-1.4-1-1.4c-0.7,0-1.1,0.5-1.1,1.3v3.2H87.3z"/>
<path class="st0" d="M93.1,14.9h1.1v7.3h-1.1V14.9z"/>
<path class="st0" d="M97.9,22.3c-0.4,0-0.7-0.1-1-0.2c-0.3-0.1-0.6-0.4-0.9-0.6c-0.2-0.3-0.4-0.6-0.5-0.9c-0.1-0.3-0.2-0.7-0.1-1.1
	c0-0.7,0.3-1.3,0.8-1.8c0.5-0.5,1.1-0.8,1.8-0.8c0.7,0,1.3,0.3,1.8,0.8c0.5,0.5,0.8,1.1,0.8,1.8c0,0.4,0,0.7-0.1,1.1
	c-0.1,0.3-0.3,0.7-0.5,0.9c-0.2,0.3-0.5,0.5-0.9,0.6S98.3,22.3,97.9,22.3z M97.9,21.5c0.9,0,1.4-0.8,1.4-1.9c0-1.1-0.5-1.9-1.4-1.9
	c-0.9,0-1.4,0.8-1.4,1.9C96.5,20.7,97,21.5,97.9,21.5z"/>
<path class="st0" d="M103.1,22.3c-0.2,0-0.5,0-0.7-0.1s-0.4-0.2-0.6-0.3c-0.2-0.2-0.3-0.3-0.4-0.6c-0.1-0.2-0.2-0.4-0.2-0.7
	c0-1.1,0.9-1.5,2.1-1.6l1.3-0.1v-0.1c0-0.1,0-0.3,0-0.4c0-0.1-0.1-0.3-0.2-0.4c-0.1-0.1-0.2-0.2-0.4-0.2c-0.1,0-0.3-0.1-0.4-0.1
	c-0.1,0-0.3,0-0.4,0c-0.1,0-0.2,0.1-0.3,0.2c-0.1,0.1-0.2,0.2-0.2,0.3c-0.1,0.1-0.1,0.3-0.1,0.4h-1.1c0-0.3,0.1-0.5,0.2-0.8
	c0.1-0.2,0.3-0.4,0.5-0.6c0.2-0.2,0.4-0.3,0.7-0.4c0.3-0.1,0.5-0.1,0.8,0c0.3,0,0.6,0,0.9,0.1s0.5,0.3,0.7,0.5s0.4,0.5,0.5,0.7
	s0.1,0.6,0.1,0.9v3.2h-1.1v-1c-0.1,0.3-0.3,0.6-0.6,0.8C103.8,22.2,103.5,22.3,103.1,22.3z M103.4,21.5c0.8,0,1.3-0.6,1.3-1.6v-0.2
	l-1.1,0.1c-0.7,0-1.1,0.3-1.1,0.8c0,0.1,0,0.2,0.1,0.3c0.1,0.1,0.1,0.2,0.2,0.3c0.1,0.1,0.2,0.1,0.3,0.2
	C103.2,21.5,103.3,21.5,103.4,21.5z"/>
<path class="st0" d="M109.1,22.3c-1.4,0-2.2-1.3-2.2-2.8c0-1.5,0.8-2.8,2.2-2.8c0.4,0,0.7,0.1,1,0.3c0.3,0.2,0.5,0.5,0.6,0.9v-3.1
	h1.1v7.3h-1.1v-1.1c-0.1,0.4-0.3,0.7-0.6,0.9C109.9,22.2,109.5,22.3,109.1,22.3z M109.5,21.5c0.9,0,1.4-0.8,1.4-1.9
	c0-1.1-0.5-1.9-1.4-1.9s-1.4,0.8-1.4,1.9C108.1,20.7,108.7,21.5,109.5,21.5z"/>
<path class="st0" d="M117.5,22.2c-0.8,0-1.2-0.4-1.2-1.1v-3.3h-0.9V17h0.9v-1.2h1.1V17h1.3v0.9h-1.3v2.9c0,0.4,0.1,0.6,0.6,0.6h0.7
	v0.9H117.5z"/>
<path class="st0" d="M119.6,22.2v-7.3h1.1V18c0.1-0.3,0.3-0.6,0.6-0.8c0.3-0.2,0.6-0.3,1-0.3c0.3,0,0.5,0,0.7,0.1
	c0.2,0.1,0.4,0.2,0.6,0.4c0.2,0.2,0.3,0.4,0.4,0.6c0.1,0.2,0.1,0.5,0.1,0.7v3.4h-1.2v-3.1c0-1-0.3-1.4-1-1.4c-0.7,0-1,0.5-1,1.3v3.2
	H119.6z"/>
<path class="st0" d="M127.5,22.3c-0.3,0-0.7-0.1-1-0.2c-0.3-0.1-0.6-0.3-0.8-0.6c-0.2-0.3-0.4-0.6-0.5-0.9c-0.1-0.3-0.1-0.7-0.1-1
	c0-0.3,0-0.7,0.1-1c0.1-0.3,0.3-0.6,0.5-0.9c0.2-0.3,0.5-0.5,0.8-0.6c0.3-0.1,0.7-0.2,1-0.2c0.4,0,0.7,0.1,1.1,0.3
	c0.3,0.2,0.6,0.4,0.9,0.7c0.2,0.3,0.4,0.6,0.5,1c0.1,0.4,0.1,0.7,0,1.1h-3.8c0,0.2,0,0.4,0.1,0.6c0.1,0.2,0.2,0.4,0.3,0.5
	c0.1,0.1,0.3,0.3,0.5,0.3c0.2,0.1,0.4,0.1,0.6,0.1c0.3,0,0.5-0.1,0.7-0.3c0.2-0.2,0.3-0.4,0.4-0.6h1.1c-0.1,0.5-0.4,1-0.8,1.3
	C128.6,22.2,128.1,22.4,127.5,22.3z M126.2,19.1h2.6c0-0.9-0.5-1.4-1.3-1.4C126.7,17.7,126.3,18.2,126.2,19.1z"/>
<path class="st0" d="M133.9,14.9h2.2c0.5-0.1,1,0,1.5,0.2c0.5,0.2,0.9,0.4,1.3,0.8c0.4,0.3,0.6,0.8,0.8,1.2c0.2,0.5,0.3,1,0.2,1.5
	c0,0.5-0.1,1-0.2,1.5c-0.2,0.5-0.5,0.9-0.8,1.2c-0.4,0.3-0.8,0.6-1.3,0.8c-0.5,0.2-1,0.2-1.5,0.2h-2.2V14.9z M135,15.9v5.3h1
	c0.3,0,0.7-0.1,1-0.2c0.3-0.1,0.6-0.3,0.8-0.6c0.2-0.2,0.4-0.5,0.5-0.9c0.1-0.3,0.1-0.7,0.1-1c0-0.3,0-0.7-0.1-1
	c-0.1-0.3-0.3-0.6-0.5-0.9c-0.2-0.2-0.5-0.4-0.8-0.6c-0.3-0.1-0.6-0.2-1-0.2H135z"/>
<path class="st0" d="M142.5,14.9h2.3l2.4,7.3H146l-0.7-2H142l-0.7,2h-1.2L142.5,14.9z M142.3,19.2h2.7l-1.4-4L142.3,19.2z"/>
<path class="st0" d="M147.9,24v-7h1.1v1.1c0.1-0.4,0.3-0.7,0.6-0.9c0.3-0.2,0.7-0.3,1-0.3c1.4,0,2.2,1.3,2.2,2.8
	c0,1.5-0.8,2.8-2.2,2.8c-0.4,0-0.7-0.1-1-0.3c-0.3-0.2-0.5-0.5-0.6-0.9V24H147.9z M150.4,21.6c0.9,0,1.4-0.8,1.4-1.9
	c0-1.1-0.5-1.9-1.4-1.9c-0.9,0-1.4,0.8-1.4,1.9C149,20.8,149.5,21.5,150.4,21.6L150.4,21.6z"/>
<path class="st0" d="M154.1,24v-7h1.1v1.1c0.1-0.4,0.3-0.7,0.6-0.9c0.3-0.2,0.7-0.3,1-0.3c1.4,0,2.2,1.3,2.2,2.8
	c0,1.5-0.8,2.8-2.2,2.8c-0.4,0-0.7-0.1-1-0.3c-0.3-0.2-0.5-0.5-0.6-0.9V24H154.1z M156.5,21.6c0.9,0,1.4-0.8,1.4-1.9
	c0-1.1-0.5-1.9-1.4-1.9c-0.9,0-1.4,0.8-1.4,1.9C155.2,20.8,155.8,21.5,156.5,21.6L156.5,21.6z"/>
<path class="st0" d="M69.6,38.5c-0.6,0-1.2-0.1-1.8-0.4c-0.6-0.2-1.1-0.6-1.5-1c-0.4-0.4-0.7-1-1-1.5c-0.2-0.6-0.3-1.2-0.3-1.8
	c0-0.6,0.1-1.2,0.3-1.7c0.2-0.5,0.6-1,1-1.5c0.4-0.4,0.9-0.7,1.5-1c0.5-0.2,1.1-0.3,1.7-0.3c0.6,0,1.2,0.1,1.7,0.3
	c0.5,0.2,1,0.6,1.5,1c0.4,0.4,0.7,0.9,1,1.5c0.2,0.5,0.3,1.1,0.3,1.7c0,0.6-0.1,1.2-0.3,1.8c-0.2,0.6-0.5,1.1-1,1.5
	c-0.4,0.4-0.9,0.8-1.5,1C70.8,38.4,70.2,38.5,69.6,38.5z M69.6,37.1c1.5,0,2.4-1.3,2.4-3.3c0-1.9-0.9-3.3-2.4-3.3
	c-1.6,0-2.4,1.3-2.4,3.3S68.1,37.1,69.6,37.1z"/>
<path class="st0" d="M76,38.4v-9.2h1.9V31c0.1-0.6,0.5-1.1,1-1.5c0.5-0.4,1.1-0.5,1.7-0.5c2,0,3,1.4,3,3.4v5.9h-2V33
	c0-1.7-0.6-2.4-1.8-2.4c-1.2,0-1.8,0.8-1.8,2.4v5.5L76,38.4z"/>
<path class="st0" d="M96.8,31.8c2,0.2,3.1,1.2,3.1,2.9c0,2.3-1.6,3.6-4.7,3.6h-4.6V25.8h4.1c3.1,0,4.6,1.1,4.6,3.4
	c0,0.7-0.3,1.3-0.7,1.8C98.1,31.4,97.4,31.7,96.8,31.8z M92.6,27.5V31h2c1.7,0,2.4-0.7,2.4-1.8c0-1.1-0.6-1.8-2.4-1.8H92.6z
	 M92.6,32.7v4h2.6c1.8,0,2.4-0.8,2.4-2c0-1.2-0.8-2-2.7-2H92.6z"/>
<path class="st0" d="M101.8,38.4v-9.2h1.9V31c0.2-0.6,0.5-1.1,1-1.5c0.5-0.4,1.1-0.5,1.7-0.5v2h-0.3c-1.7,0-2.4,0.5-2.4,2.1v5.2
	L101.8,38.4z"/>
<path class="st0" d="M111.6,38.5c-0.6,0-1.2-0.1-1.7-0.4c-0.5-0.2-1-0.6-1.4-1c-0.4-0.4-0.7-1-0.9-1.5s-0.3-1.2-0.2-1.8
	c-0.1-0.6,0-1.3,0.2-1.9s0.5-1.2,1-1.6c0.4-0.5,1-0.8,1.6-1c0.6-0.2,1.2-0.3,1.9-0.3c0.6,0,1.3,0.2,1.8,0.5c0.6,0.3,1,0.7,1.4,1.3
	c0.4,0.5,0.6,1.1,0.7,1.7c0.1,0.6,0.1,1.3-0.1,1.9h-6.5c0,0.3,0,0.7,0.1,1c0.1,0.3,0.3,0.6,0.5,0.9c0.2,0.2,0.5,0.4,0.8,0.6
	c0.3,0.1,0.6,0.2,1,0.2c0.4,0,0.9-0.1,1.2-0.4c0.4-0.3,0.6-0.7,0.7-1.1h2c-0.2,0.9-0.7,1.7-1.5,2.3
	C113.5,38.4,112.6,38.6,111.6,38.5z M109.3,33h4.5c-0.1-1.5-0.9-2.4-2.2-2.4C110.3,30.5,109.5,31.5,109.3,33z"/>
<path class="st0" d="M120.4,38.5c-0.4,0-0.8,0-1.2-0.1c-0.4-0.1-0.7-0.3-1-0.6c-0.3-0.3-0.5-0.6-0.7-1c-0.2-0.4-0.3-0.8-0.3-1.2
	c0-1.9,1.7-2.6,3.7-2.8l2.4-0.2v-0.3c0-0.2,0-0.5-0.1-0.7c-0.1-0.2-0.2-0.5-0.4-0.6c-0.2-0.2-0.4-0.3-0.6-0.4
	c-0.2-0.1-0.5-0.1-0.7-0.1c-0.2,0-0.5,0-0.7,0.1c-0.2,0.1-0.4,0.2-0.6,0.3c-0.2,0.1-0.3,0.3-0.4,0.5c-0.1,0.2-0.1,0.4-0.1,0.7h-2
	c0-1.8,1.5-3.1,3.8-3.1c0.5-0.1,1,0,1.5,0.2c0.5,0.2,0.9,0.4,1.3,0.8c0.4,0.4,0.6,0.8,0.8,1.3c0.2,0.5,0.2,1,0.2,1.5v5.6h-1.9v-1.8
	c-0.2,0.6-0.5,1.2-1.1,1.6C121.7,38.5,121.1,38.6,120.4,38.5z M120.9,37.1c1.4,0,2.2-1,2.2-2.7v-0.3l-2,0.2
	c-1.2,0.1-1.9,0.6-1.9,1.4C119.3,36.6,120.1,37.1,120.9,37.1z"/>
<path class="st0" d="M129.5,33.6v4.7h-2V25.8h2v7.3l3.7-3.9h2.4l-4,4l4.2,5.1h-2.4L129.5,33.6z"/>
<path class="st0" d="M140.5,38.5c-0.6,0-1.2-0.2-1.7-0.4c-0.5-0.3-1-0.6-1.4-1.1c-0.4-0.4-0.7-1-0.9-1.5c-0.2-0.6-0.3-1.2-0.2-1.8
	c-0.1-0.6,0-1.2,0.2-1.8c0.2-0.6,0.5-1.1,0.9-1.6c0.4-0.5,0.9-0.8,1.4-1.1c0.6-0.3,1.2-0.4,1.8-0.4c0.7,0,1.3,0.2,1.9,0.5
	c0.6,0.3,1.1,0.7,1.5,1.2c0.4,0.5,0.7,1.1,0.8,1.8c0.1,0.6,0.1,1.3,0,1.9h-6.6c0,0.3,0,0.7,0.1,1c0.1,0.3,0.3,0.6,0.5,0.9
	c0.2,0.2,0.5,0.4,0.8,0.6c0.3,0.1,0.6,0.2,1,0.2c0.4,0,0.9-0.1,1.2-0.4c0.4-0.3,0.6-0.7,0.7-1.1h2c-0.2,0.9-0.7,1.8-1.4,2.3
	C142.4,38.3,141.5,38.6,140.5,38.5z M138.1,33h4.5c-0.1-1.5-0.9-2.4-2.3-2.4c-1.3,0-2,0.9-2.1,2.4H138.1z"/>
<path class="st0" d="M146.6,38.4v-9.2h1.9V31c0.2-0.6,0.5-1.1,1-1.5c0.5-0.4,1.1-0.5,1.7-0.5v2H151c-1.7,0-2.4,0.5-2.4,2.1v5.2
	L146.6,38.4z"/>
<path class="st0" d="M151.7,38.4v-2h2.1v2H151.7z"/>
<path class="st0" d="M156.1,27.8v-2h2v2H156.1z M156.1,38.4v-9.2h2v9.1L156.1,38.4z"/>
<path class="st0" d="M164.6,38.5c-0.6,0-1.2-0.1-1.8-0.4c-0.6-0.2-1.1-0.6-1.5-1c-0.4-0.4-0.7-1-1-1.5c-0.2-0.6-0.3-1.2-0.3-1.8
	c0-0.6,0-1.2,0.2-1.8c0.2-0.6,0.5-1.1,0.9-1.6c0.4-0.5,0.9-0.8,1.5-1.1c0.6-0.2,1.2-0.4,1.8-0.4c0.6,0,1.2,0.1,1.8,0.4
	c0.6,0.2,1.1,0.6,1.5,1.1c0.4,0.5,0.7,1,0.9,1.6c0.2,0.6,0.3,1.2,0.2,1.8c0,0.6-0.1,1.2-0.3,1.8c-0.2,0.6-0.5,1.1-0.9,1.5
	c-0.4,0.4-0.9,0.8-1.5,1C165.8,38.4,165.2,38.5,164.6,38.5z M164.6,37.1c1.5,0,2.4-1.3,2.4-3.3c0-1.9-0.9-3.3-2.4-3.3
	s-2.4,1.3-2.4,3.3C162.2,35.8,163.1,37.1,164.6,37.1z"/>
</svg>
