<svg width="107" height="107" viewBox="0 0 107 107" fill="none" xmlns="http://www.w3.org/2000/svg">
<g filter="url(#filter0_d)">
<path fill-rule="evenodd" clip-rule="evenodd" d="M53.4635 18.0723C73.0096 18.0723 88.8549 33.9174 88.8549 53.4634C88.8549 73.0096 73.0096 88.8549 53.4635 88.8549C33.9174 88.8549 18.0723 73.0096 18.0723 53.4634C18.0723 33.9174 33.9174 18.0723 53.4635 18.0723ZM53.4635 24.2389C69.6039 24.2389 82.6882 37.3232 82.6882 53.4634C82.6882 69.6039 69.6039 82.6882 53.4635 82.6882C37.3232 82.6882 24.2389 69.6039 24.2389 53.4634C24.2389 37.3232 37.3232 24.2389 53.4635 24.2389Z" fill="white"/>
</g>
<g filter="url(#filter1_d)">
<path fill-rule="evenodd" clip-rule="evenodd" d="M69.9771 39.9417C66.0782 35.1673 60.1452 32.1191 53.5002 32.1191C41.7576 32.1191 32.2383 41.638 32.2383 53.3807C32.2383 65.1233 41.7576 74.6426 53.5002 74.6426C60.1451 74.6426 66.0781 71.5944 69.977 66.8199L61.2929 58.1353C59.6894 60.758 56.7993 62.5083 53.5002 62.5083C48.4593 62.5083 44.3731 58.4218 44.3731 53.3807C44.3731 48.34 48.4593 44.2535 53.5002 44.2535C56.7994 44.2535 59.6896 46.0039 61.2931 48.6266L69.9771 39.9417ZM74.762 53.281V53.4804C74.7621 53.4472 74.7622 53.4139 74.7622 53.3807C74.7622 53.3474 74.7621 53.3142 74.762 53.281Z" fill="white"/>
</g>
<defs>
<filter id="filter0_d" x="0.0722656" y="0.0722656" width="106.783" height="106.783" filterUnits="userSpaceOnUse" color-interpolation-filters="sRGB">
<feFlood flood-opacity="0" result="BackgroundImageFix"/>
<feColorMatrix in="SourceAlpha" type="matrix" values="0 0 0 0 0 0 0 0 0 0 0 0 0 0 0 0 0 0 127 0"/>
<feOffset/>
<feGaussianBlur stdDeviation="9"/>
<feColorMatrix type="matrix" values="0 0 0 0 1 0 0 0 0 1 0 0 0 0 1 0 0 0 0.3 0"/>
<feBlend mode="normal" in2="BackgroundImageFix" result="effect1_dropShadow"/>
<feBlend mode="normal" in="SourceGraphic" in2="effect1_dropShadow" result="shape"/>
</filter>
<filter id="filter1_d" x="14.2383" y="14.1191" width="78.5239" height="78.5235" filterUnits="userSpaceOnUse" color-interpolation-filters="sRGB">
<feFlood flood-opacity="0" result="BackgroundImageFix"/>
<feColorMatrix in="SourceAlpha" type="matrix" values="0 0 0 0 0 0 0 0 0 0 0 0 0 0 0 0 0 0 127 0"/>
<feOffset/>
<feGaussianBlur stdDeviation="9"/>
<feColorMatrix type="matrix" values="0 0 0 0 1 0 0 0 0 1 0 0 0 0 1 0 0 0 0.33 0"/>
<feBlend mode="normal" in2="BackgroundImageFix" result="effect1_dropShadow"/>
<feBlend mode="normal" in="SourceGraphic" in2="effect1_dropShadow" result="shape"/>
</filter>
</defs>
</svg>
