<?xml version="1.0" encoding="utf-8"?>
<!-- Generator: Adobe Illustrator 23.0.0, SVG Export Plug-In . SVG Version: 6.00 Build 0)  -->
<svg version="1.1" id="Layer_1" xmlns="http://www.w3.org/2000/svg" xmlns:xlink="http://www.w3.org/1999/xlink" x="0px" y="0px"
	 viewBox="0 0 120 53" style="enable-background:new 0 0 120 53;" xml:space="preserve">
<style type="text/css">
	.st0{fill:#FFFFFF;}
</style>
<path class="st0" d="M1.1,28.2L1,32.4l0.9,0L2,28.2L1.1,28.2z"/>
<path class="st0" d="M1.5,21.7l-1.1,4.1L1.1,26l1.1-4.1L1.5,21.7z"/>
<path class="st0" d="M3.1,33.4l-0.8,0.2l0.9,4.2L4,37.6L3.1,33.4z"/>
<path class="st0" d="M3.4,15.7l-2.1,3.7l0.7,0.4l2.1-3.7L3.4,15.7z"/>
<path class="st0" d="M5.2,38.6L4.4,39l1.7,3.9l0.8-0.3L5.2,38.6z"/>
<path class="st0" d="M7.8,9l-3.1,2.9l0.6,0.6l3.1-2.9L7.8,9z"/>
<path class="st0" d="M9.1,43.5l-0.7,0.5l2.6,3.4l0.7-0.5L9.1,43.5z"/>
<path class="st0" d="M7.3,27.1l-0.7,4.2l0.8,0.1l0.7-4.2L7.3,27.1z"/>
<path class="st0" d="M9.6,34.9l-0.8,0.3l1.7,3.9l0.8-0.3L9.6,34.9z"/>
<path class="st0" d="M14.3,4l-3.8,1.8l0.4,0.8l3.8-1.8L14.3,4z"/>
<path class="st0" d="M13.4,47l-0.5,0.7l3.2,2.7l0.5-0.7L13.4,47z"/>
<path class="st0" d="M10.6,17.2l-0.8,0.2l1.1,4.1l0.8-0.2L10.6,17.2z"/>
<path class="st0" d="M14.6,42l-0.7,0.5l2.5,3.4l0.7-0.5L14.6,42z"/>
<path class="st0" d="M14,30.3l-0.8,0.2l0.8,4.2l0.8-0.2L14,30.3z"/>
<path class="st0" d="M17.4,48.9L17,49.7l3.7,2l0.4-0.8L17.4,48.9z"/>
<path class="st0" d="M16.8,36.3L16,36.7l1.7,3.9l0.8-0.3L16.8,36.3z"/>
<path class="st0" d="M22.3,1.7l-4.2,0l0,0.9l4.2,0L22.3,1.7z"/>
<path class="st0" d="M16.2,23.1L14.4,27l0.8,0.4l1.8-3.9L16.2,23.1z"/>
<path class="st0" d="M19.7,44.8l-0.4,0.8l3.7,2l0.4-0.8L19.7,44.8z"/>
<path class="st0" d="M21.6,50.2L21.4,51l4,1.3l0.3-0.8L21.6,50.2z"/>
<path class="st0" d="M21.2,12.1l-3.7,2l0.4,0.8l3.7-2L21.2,12.1z"/>
<path class="st0" d="M31.1,42.9l-0.2,0.8l4.1,0.9l0.2-0.8L31.1,42.9z"/>
<path class="st0" d="M26.3,50.6l-0.1,0.8l4.2,0.5l0.1-0.8L26.3,50.6z"/>
<path class="st0" d="M26.3,45.7L26,46.5l3.8,1.8l0.4-0.8L26.3,45.7z"/>
<path class="st0" d="M25.6,22.7l-3.1,2.9l0.6,0.6l3.1-2.9L25.6,22.7z"/>
<path class="st0" d="M32.1,0.7l-3.9,1.6L28.5,3l3.9-1.6L32.1,0.7z"/>
<path class="st0" d="M36,48.9l-4,1.3l0.3,0.8l4-1.3L36,48.9z"/>
<path class="st0" d="M30.6,14.9L30,15.4l2.7,3.2l0.7-0.5L30.6,14.9z"/>
<path class="st0" d="M33.9,27.1l-3.3,2.6l0.5,0.7l3.3-2.6L33.9,27.1z"/>
<path class="st0" d="M40.5,46.6l-4,1.4l0.3,0.8l4-1.4L40.5,46.6z"/>
<path class="st0" d="M41.8,4.8l-4.1,0.8l0.2,0.8l4.1-0.8L41.8,4.8z"/>
<path class="st0" d="M45,44.1l-4.2,0.7l0.1,0.8l4.2-0.7L45,44.1z"/>
<path class="st0" d="M38.8,22.9l-0.2,4.3l0.9,0l0.2-4.3L38.8,22.9z"/>
<path class="st0" d="M45.6,10.4l-0.7,0.5l2.3,3.6l0.7-0.5L45.6,10.4z"/>
<path class="st0" d="M49.6,18.1l-0.8,0.3l1.4,4l0.8-0.3L49.6,18.1z"/>
<path class="st0" d="M50.8,25.1l-0.9,4.2l0.8,0.2l0.9-4.2L50.8,25.1z"/>
<path class="st0" d="M14,9.3l-3.6,2.3l0.5,0.7l3.6-2.3L14,9.3z"/>
<path class="st0" d="M26.2,5.9L22,6.5l0.1,0.8l4.2-0.6L26.2,5.9z"/>
<g>
	<path class="st0" d="M21.3,31.6h9c2.5,0,3.7,0.7,3.7,2.7c0,1.7-0.6,2.1-1.5,2.3v0c1.4,0.2,1.9,0.9,1.9,2.4c0,2.2-1.3,2.7-3.1,2.7
		h-9.9V31.6z M24.4,35.6h5.5c0.6,0,0.9-0.2,0.9-0.8c0-0.6-0.3-0.8-0.9-0.8h-5.5V35.6z M24.4,39.3h5.6c0.7,0,1.1-0.2,1.1-0.7
		c0-0.7-0.4-0.8-1.1-0.8h-5.6V39.3z"/>
	<path class="st0" d="M35.7,31.6h9.4c2.4,0,3,1.2,3,3v0.6c0,1.4-0.3,2.2-1.7,2.5v0c0.9,0.2,1.7,0.6,1.7,2.2v1.7H45v-1.2
		c0-1.1-0.3-1.4-1.3-1.4h-4.9v2.6h-3.1V31.6z M38.8,36.5H44c0.8,0,1.1-0.3,1.1-1.1v-0.3c0-0.9-0.4-1.1-1.4-1.1h-4.9V36.5z"/>
	<path class="st0" d="M49.8,31.6h11.1v2.4h-8v1.6h7.6v2.1h-7.6v1.6h8.2v2.4H49.8V31.6z"/>
	<path class="st0" d="M67,31.6h4l5.6,10.1h-3.5l-1-1.8h-6.3L65,41.7h-3.5L67,31.6z M67.1,37.7h4l-2-3.8L67.1,37.7z"/>
	<path class="st0" d="M77.3,31.6h3.1v3.7h1.5l3.9-3.7H90l-5.5,5l6.1,5.2h-4.4l-4.5-3.9h-1.4v3.9h-3.1V31.6z"/>
	<path class="st0" d="M91.4,31.6h11.1v2.4h-8v1.6h7.6v2.1h-7.6v1.6h8.2v2.4H91.4V31.6z"/>
	<path class="st0" d="M104.1,31.6h9.4c2.4,0,3,1.2,3,3v0.6c0,1.4-0.3,2.2-1.7,2.5v0c0.9,0.2,1.7,0.6,1.7,2.2v1.7h-3.1v-1.2
		c0-1.1-0.3-1.4-1.3-1.4h-4.9v2.6h-3.1V31.6z M107.3,36.5h5.1c0.8,0,1.1-0.3,1.1-1.1v-0.3c0-0.9-0.4-1.1-1.4-1.1h-4.9V36.5z"/>
</g>
</svg>
