<?xml version="1.0" encoding="utf-8"?>
<!-- Generator: Adobe Illustrator 23.0.0, SVG Export Plug-In . SVG Version: 6.00 Build 0)  -->
<svg version="1.1" id="Layer_1" xmlns="http://www.w3.org/2000/svg" xmlns:xlink="http://www.w3.org/1999/xlink" x="0px" y="0px"
	 viewBox="0 0 246 109" style="enable-background:new 0 0 246 109;" xml:space="preserve">
<style type="text/css">
	.st0{fill:#440099;}
</style>
<path class="st0" d="M1.8,57.7l-1.8,1L0.1,59l1.8-1L1.8,57.7z"/>
<path class="st0" d="M0.8,49.2l-0.2,0.2L2,51l0.2-0.2L0.8,49.2z"/>
<path class="st0" d="M0.7,44.2l-0.2,0.2L1.9,46l0.2-0.2L0.7,44.2z"/>
<path class="st0" d="M1.1,61.7l-0.5,2.1l0.3,0.1l0.5-2.1L1.1,61.7z"/>
<path class="st0" d="M2.8,67.3l-0.3,0l0.1,2.1l0.3,0L2.8,67.3z"/>
<path class="st0" d="M3.4,39.7l-0.3,0l0.3,2.1l0.3,0L3.4,39.7z"/>
<path class="st0" d="M3.8,71.1l-0.3,0l0.3,2.1l0.3,0L3.8,71.1z"/>
<path class="st0" d="M5,36l-0.2,2.1l0.3,0l0.2-2.1L5,36z"/>
<path class="st0" d="M3.5,52.5l-0.1,0.3l2,0.5L5.5,53L3.5,52.5z"/>
<path class="st0" d="M5.2,73.8l-0.3,0.1l0.6,2l0.3-0.1L5.2,73.8z"/>
<path class="st0" d="M7.3,34.7l0-0.3l-2.1,0.1l0,0.3L7.3,34.7z"/>
<path class="st0" d="M6,76.6l-0.2,0.1l0.7,2l0.2-0.1L6,76.6z"/>
<path class="st0" d="M6.4,64.9l-1,1.9l0.2,0.1l1-1.9L6.4,64.9z"/>
<path class="st0" d="M7.5,59.1L5.4,59l0,0.3l2.1,0.1L7.5,59.1z"/>
<path class="st0" d="M6.7,31.5l-0.2,0.2l1.2,1.7l0.2-0.2L6.7,31.5z"/>
<path class="st0" d="M7.6,78.6l-0.3,0l0.3,2.1l0.3,0L7.6,78.6z"/>
<path class="st0" d="M8.3,42.8l-1-1.9L7.1,41l0.9,1.9L8.3,42.8z"/>
<path class="st0" d="M9.3,30.4l-2.1,0.1l0,0.3l2.1-0.1L9.3,30.4z"/>
<path class="st0" d="M8.3,80.6L8,80.7L9,82.6l0.2-0.1L8.3,80.6z"/>
<path class="st0" d="M8.3,69.5l-0.3,0l0.1,2.1l0.3,0L8.3,69.5z"/>
<path class="st0" d="M9.7,29.7l-1-1.9L8.4,28l1,1.9L9.7,29.7z"/>
<path class="st0" d="M9.1,74.6l-0.3,0l0.4,2.1l0.3,0L9.1,74.6z"/>
<path class="st0" d="M9.5,82.5l-0.3,2.1l0.3,0l0.3-2.1L9.5,82.5z"/>
<path class="st0" d="M9.1,27.1l0,0.3l2,0.4l0-0.3L9.1,27.1z"/>
<path class="st0" d="M10,39.4l0.9-1.9l-0.2-0.1l-0.9,1.9L10,39.4z"/>
<path class="st0" d="M10.3,34.3L10,36.5l0.3,0l0.3-2.1L10.3,34.3z"/>
<path class="st0" d="M9,48.8l1.7,1.2l0.2-0.2l-1.7-1.2L9,48.8z"/>
<path class="st0" d="M9.6,43.8L9.4,44l1.7,1.3l0.2-0.2L9.6,43.8z"/>
<path class="st0" d="M11.1,32l-0.9,1.9l0.2,0.1l0.9-1.9L11.1,32z"/>
<path class="st0" d="M11.5,85.7l-1-1.9L10.3,84l1,1.9L11.5,85.7z"/>
<path class="st0" d="M10.3,25.7l0,0.3l2.1,0.2l0-0.3L10.3,25.7z"/>
<path class="st0" d="M10.6,86.3l-0.1,0.3l2,0.6l0.1-0.3L10.6,86.3z"/>
<path class="st0" d="M11.6,65.6l-0.3,2.1l0.3,0l0.3-2.1L11.6,65.6z"/>
<path class="st0" d="M11.5,79.1l-0.3,0.1l0.6,2.1l0.3-0.1L11.5,79.1z"/>
<path class="st0" d="M11.2,76.6L11,76.8l1.4,1.5l0.2-0.2L11.2,76.6z"/>
<path class="st0" d="M12.1,29.8l-1.1,1.8l0.2,0.1l1.1-1.8L12.1,29.8z"/>
<path class="st0" d="M10.9,54.6l-0.1,0.2l1.9,0.8l0.1-0.2L10.9,54.6z"/>
<path class="st0" d="M12.8,25l-1.3-1.6l-0.2,0.2l1.3,1.6L12.8,25z"/>
<path class="st0" d="M12.2,72.6l-0.3,0l-0.1,2.1l0.3,0L12.2,72.6z"/>
<path class="st0" d="M13.4,28.3l-1.8,1.1l0.1,0.2l1.8-1.1L13.4,28.3z"/>
<path class="st0" d="M12.9,87.1l-0.2,2.1l0.3,0l0.2-2.1L12.9,87.1z"/>
<path class="st0" d="M11.3,61l0,0.3l2.1,0.3l0-0.3L11.3,61z"/>
<path class="st0" d="M12.9,21.6l-0.3,0.1l0.5,2.1l0.3-0.1L12.9,21.6z"/>
<path class="st0" d="M12.7,81.4l-0.2,0.1l1.1,1.8l0.2-0.1L12.7,81.4z"/>
<path class="st0" d="M14.1,36.3L13,38.1l0.2,0.1l1.1-1.8L14.1,36.3z"/>
<path class="st0" d="M14.5,85.9l-1.1-1.8l-0.2,0.1l1.1,1.8L14.5,85.9z"/>
<path class="st0" d="M15.1,90.1l-1.6-1.4l-0.2,0.2l1.6,1.4L15.1,90.1z"/>
<path class="st0" d="M14.5,31.2L13.4,33l0.2,0.1l1.1-1.8L14.5,31.2z"/>
<path class="st0" d="M14.6,24.9l-1,1.9l0.2,0.1l1-1.9L14.6,24.9z"/>
<path class="st0" d="M15.4,20.5l-2,0.5l0.1,0.3l2-0.5L15.4,20.5z"/>
<path class="st0" d="M15.3,27.2l-1.5,1.5l0.2,0.2l1.5-1.5L15.3,27.2z"/>
<path class="st0" d="M14.1,35.3l0.2,0.1l0.9-1.9L15,33.4L14.1,35.3z"/>
<path class="st0" d="M14.5,90.4l-0.2,0.2l1.2,1.7l0.2-0.2L14.5,90.4z"/>
<path class="st0" d="M14.8,68.7l-0.2,2.1l0.3,0l0.2-2.1L14.8,68.7z"/>
<path class="st0" d="M14.7,75l-0.2,0.2l1.5,1.5l0.2-0.2L14.7,75z"/>
<path class="st0" d="M13.9,44.8l0,0.3l2.1,0.3l0-0.3L13.9,44.8z"/>
<path class="st0" d="M15.7,39l-0.8,2l0.2,0.1l0.8-2L15.7,39z"/>
<path class="st0" d="M16.3,22.7l-1.7,1.2l0.2,0.2l1.7-1.2L16.3,22.7z"/>
<path class="st0" d="M15.5,80.4l-0.3,0.1l0.7,2l0.3-0.1L15.5,80.4z"/>
<path class="st0" d="M16.9,19.7l-2.1-0.3l0,0.3l2.1,0.3L16.9,19.7z"/>
<path class="st0" d="M16.7,29.6l-1.8,1.1l0.1,0.2l1.8-1.1L16.7,29.6z"/>
<path class="st0" d="M15.8,85l-0.2,0.1l1,1.9l0.2-0.1L15.8,85z"/>
<path class="st0" d="M16.6,91.4l-0.3,0.1l0.4,2.1l0.3-0.1L16.6,91.4z"/>
<path class="st0" d="M16,87.3l-0.2,0.2l1.4,1.6l0.2-0.2L16,87.3z"/>
<path class="st0" d="M16,26.2l1.8-1.1l-0.1-0.2L15.9,26L16,26.2z"/>
<path class="st0" d="M16.3,77.9L16.1,78l1,1.9l0.2-0.1L16.3,77.9z"/>
<path class="st0" d="M17.8,51l-1.2-1.7l-0.2,0.2l1.2,1.7L17.8,51z"/>
<path class="st0" d="M18.1,17.7l-0.1-0.2l-1.8,1l0.1,0.2L18.1,17.7z"/>
<path class="st0" d="M16.8,83l-0.2,0.2l1.3,1.7l0.2-0.2L16.8,83z"/>
<path class="st0" d="M18.4,27.2L18.2,27l-1.6,1.4l0.2,0.2L18.4,27.2z"/>
<path class="st0" d="M17.9,33.2L16.7,35l0.2,0.1l1.1-1.8L17.9,33.2z"/>
<path class="st0" d="M17.6,93l-0.3,0.1l0.7,2l0.3-0.1L17.6,93z"/>
<path class="st0" d="M18.2,20.9L17,22.6l0.2,0.2l1.2-1.7L18.2,20.9z"/>
<path class="st0" d="M18.3,30.2L17.1,32l0.2,0.1l1.1-1.8L18.3,30.2z"/>
<path class="st0" d="M18,88.9l-0.3,0l0.3,2.1l0.3,0L18,88.9z"/>
<path class="st0" d="M18.5,61.1l-1.7,1.2l0.1,0.2l1.7-1.2L18.5,61.1z"/>
<path class="st0" d="M18.1,36.8l-0.2,2.1l0.3,0l0.2-2.1L18.1,36.8z"/>
<path class="st0" d="M19.5,23.5l-1.9,1l0.1,0.2l1.9-1L19.5,23.5z"/>
<path class="st0" d="M18.6,15.4l-0.3,2.1l0.3,0l0.3-2.1L18.6,15.4z"/>
<path class="st0" d="M19.4,55.2l-2,0.4l0,0.3l2-0.4L19.4,55.2z"/>
<path class="st0" d="M19.9,19.3l-1.7,1.2l0.2,0.2l1.7-1.2L19.9,19.3z"/>
<path class="st0" d="M19,72.1l-0.3,0.1l0.7,2l0.3-0.1L19,72.1z"/>
<path class="st0" d="M18.6,28.1l0.1,0.2l1.8-1l-0.1-0.2L18.6,28.1z"/>
<path class="st0" d="M18.7,95l-0.1,0.2l1.9,0.9l0.1-0.2L18.7,95z"/>
<path class="st0" d="M19.1,90.7l-0.2,0.2l1.4,1.6l0.2-0.2L19.1,90.7z"/>
<path class="st0" d="M19.1,86.8l-0.2,0.2l1.4,1.6l0.2-0.2L19.1,86.8z"/>
<path class="st0" d="M18.6,41.4l-0.2,0.1l1.1,1.8l0.2-0.1L18.6,41.4z"/>
<path class="st0" d="M19.7,67.2l-0.6,2.1l0.3,0.1l0.6-2.1L19.7,67.2z"/>
<path class="st0" d="M19.8,34.2l-0.4,2.1l0.3,0l0.4-2.1L19.8,34.2z"/>
<path class="st0" d="M19.2,76.5l1.1,1.8l0.2-0.1l-1.1-1.8L19.2,76.5z"/>
<path class="st0" d="M19.5,85l-0.2,0.2l1.3,1.6l0.2-0.2L19.5,85z"/>
<path class="st0" d="M20.8,14.4L19,15.5l0.1,0.2l1.8-1.1L20.8,14.4z"/>
<path class="st0" d="M20.8,84.1l-1.2-1.8l-0.2,0.1l1.2,1.8L20.8,84.1z"/>
<path class="st0" d="M20.4,30l-1.2,1.8l0.2,0.1l1.2-1.8L20.4,30z"/>
<path class="st0" d="M21.2,24.9l-2,0.7l0.1,0.2l2-0.7L21.2,24.9z"/>
<path class="st0" d="M20.1,79.8l-0.2,0.1l0.8,2l0.2-0.1L20.1,79.8z"/>
<path class="st0" d="M21.5,17.8L19.8,19l0.2,0.2l1.7-1.2L21.5,17.8z"/>
<path class="st0" d="M20.3,92.7l-0.2,0.2l1.5,1.5l0.2-0.2L20.3,92.7z"/>
<path class="st0" d="M21.5,21.4l-1.7,1.3l0.2,0.2l1.7-1.3L21.5,21.4z"/>
<path class="st0" d="M20.6,96.6l-0.2,0.2l1.5,1.5l0.2-0.2L20.6,96.6z"/>
<path class="st0" d="M22.1,28.4l-1.8,1.1l0.1,0.2l1.8-1.1L22.1,28.4z"/>
<path class="st0" d="M23,14.1l-2.1,0.1l0,0.3l2.1-0.1L23,14.1z"/>
<path class="st0" d="M21.1,88.7l-0.2,0.2l1.4,1.6l0.2-0.2L21.1,88.7z"/>
<path class="st0" d="M22.3,32l-1.6,1.4l0.2,0.2l1.6-1.4L22.3,32z"/>
<path class="st0" d="M22.1,36.1l-0.3,0l0.3,2.1l0.3,0L22.1,36.1z"/>
<path class="st0" d="M23,24.7l-1.9,0.9l0.1,0.2l1.9-0.9L23,24.7z"/>
<path class="st0" d="M21.2,45.8L21,46l1.4,1.6l0.2-0.2L21.2,45.8z"/>
<path class="st0" d="M21.5,17.5l0.2,0.2l1.4-1.6L23,15.9L21.5,17.5z"/>
<path class="st0" d="M21.7,21.1l0.2,0.2l1.6-1.4l-0.2-0.2L21.7,21.1z"/>
<path class="st0" d="M22.3,84.6l-0.2,0.2l1.4,1.5l0.2-0.2L22.3,84.6z"/>
<path class="st0" d="M23.8,92.2l-1.4-1.6l-0.2,0.2l1.4,1.6L23.8,92.2z"/>
<path class="st0" d="M22.5,93.5l-0.2,0.2l1.5,1.5L24,95L22.5,93.5z"/>
<path class="st0" d="M22.2,23.6l0.2,0.2l1.7-1.2l-0.2-0.2L22.2,23.6z"/>
<path class="st0" d="M23.3,11.3l-0.6,2l0.3,0.1l0.6-2L23.3,11.3z"/>
<path class="st0" d="M22.7,95.7l-0.2,0.2l1.5,1.5l0.2-0.2L22.7,95.7z"/>
<path class="st0" d="M24.1,28.2l-1.6,1.3l0.2,0.2l1.6-1.3L24.1,28.2z"/>
<path class="st0" d="M23.1,78.2l-0.3,0.1l0.6,2.1l0.3-0.1L23.1,78.2z"/>
<path class="st0" d="M24.3,88.5l-1.4-1.6l-0.2,0.2l1.4,1.6L24.3,88.5z"/>
<path class="st0" d="M23,98.5l-0.2,0.2l1.6,1.4l0.2-0.2L23,98.5z"/>
<path class="st0" d="M22.8,40.1l-0.2,0.2l1.4,1.5l0.2-0.2L22.8,40.1z"/>
<path class="st0" d="M24.5,59l-2.1-0.3l0,0.3l2.1,0.3L24.5,59z"/>
<path class="st0" d="M24.8,26.1l-1.9,0.9l0.1,0.2l1.9-0.9L24.8,26.1z"/>
<path class="st0" d="M22.8,64.2l-0.1,0.2l1.7,1.2l0.1-0.2L22.8,64.2z"/>
<path class="st0" d="M23.5,82.5l-0.2,0.2l1.4,1.6l0.2-0.2L23.5,82.5z"/>
<path class="st0" d="M24.3,74.6l-1.1,1.8l0.2,0.1l1.1-1.8L24.3,74.6z"/>
<path class="st0" d="M23,70.5l-0.1,0.2l1.9,1l0.1-0.2L23,70.5z"/>
<path class="st0" d="M24.4,17.6l-0.8,2l0.2,0.1l0.8-2L24.4,17.6z"/>
<path class="st0" d="M25,14.3l-0.2-0.1l-1.2,1.8l0.2,0.1L25,14.3z"/>
<path class="st0" d="M24.5,30.9l-0.9,1.9l0.2,0.1l0.9-1.9L24.5,30.9z"/>
<path class="st0" d="M24,49.8l-0.2,0.1l0.9,1.9l0.2-0.1L24,49.8z"/>
<path class="st0" d="M24.7,33.3l-0.3,0.1l0.6,2l0.3-0.1L24.7,33.3z"/>
<path class="st0" d="M25.8,10.9l-2,0.6l0.1,0.3l2-0.6L25.8,10.9z"/>
<path class="st0" d="M25.7,92.3l-0.8-2l-0.2,0.1l0.8,2L25.7,92.3z"/>
<path class="st0" d="M25.9,22.5l-1.6,1.4l0.2,0.2l1.6-1.4L25.9,22.5z"/>
<path class="st0" d="M26.1,28.7l-1.4,1.6l0.2,0.2l1.4-1.6L26.1,28.7z"/>
<path class="st0" d="M24.8,21.4l1.6-1.4l-0.2-0.2l-1.6,1.4L24.8,21.4z"/>
<path class="st0" d="M26,24.6l-1,1.9l0.2,0.1l1-1.9L26,24.6z"/>
<path class="st0" d="M25,79.8L24.8,80l1.4,1.6l0.2-0.2L25,79.8z"/>
<path class="st0" d="M25.2,93.2L25,93.3l1.5,1.5l0.2-0.2L25.2,93.2z"/>
<path class="st0" d="M25.2,88.2L25,88.3l1.3,1.6l0.2-0.2L25.2,88.2z"/>
<path class="st0" d="M25.3,98l-0.2,0.2l1.6,1.3l0.2-0.2L25.3,98z"/>
<path class="st0" d="M26.6,16.3L25,17.7l0.2,0.2l1.6-1.4L26.6,16.3z"/>
<path class="st0" d="M25.5,95.6l-0.2,0.2l1.5,1.4l0.2-0.2L25.5,95.6z"/>
<path class="st0" d="M25.8,100.5l-0.2,0.2l1.7,1.3l0.2-0.2L25.8,100.5z"/>
<path class="st0" d="M27,12.8l-1.6,1.3l0.2,0.2l1.6-1.3L27,12.8z"/>
<path class="st0" d="M26.1,83.9L25.8,84l1.2,1.7l0.2-0.1L26.1,83.9z"/>
<path class="st0" d="M27.4,9.7l-2,0.5l0.1,0.3l2-0.5L27.4,9.7z"/>
<path class="st0" d="M26.2,86.6L26,86.8l1.4,1.6l0.2-0.2L26.2,86.6z"/>
<path class="st0" d="M25.7,36.7l-0.2,0.2l1.5,1.5l0.2-0.2L25.7,36.7z"/>
<path class="st0" d="M27.7,21.5l-1.2,1.8l0.2,0.1l1.2-1.8L27.7,21.5z"/>
<path class="st0" d="M27.2,73.4l-0.3,0l0.3,2.1l0.3,0L27.2,73.4z"/>
<path class="st0" d="M28,27.4l-0.9,1.9l0.2,0.1l0.9-1.9L28,27.4z"/>
<path class="st0" d="M28.3,18.4l-1.7,1.2l0.2,0.2l1.7-1.2L28.3,18.4z"/>
<path class="st0" d="M28,44.4l0.2-0.1l-0.9-1.9l-0.2,0.1L28,44.4z"/>
<path class="st0" d="M26.9,16.1l1.9-0.9L28.6,15l-1.9,0.9L26.9,16.1z"/>
<path class="st0" d="M28.6,25.5L27,26.8l0.2,0.2l1.6-1.3L28.6,25.5z"/>
<path class="st0" d="M27.4,90.1l-0.2,0.2l1.5,1.5l0.2-0.2L27.4,90.1z"/>
<path class="st0" d="M29.1,93.9l-1.6-1.3l-0.2,0.2l1.6,1.3L29.1,93.9z"/>
<path class="st0" d="M29.3,8.8l-2.1,0.1l0,0.3L29.3,9L29.3,8.8z"/>
<path class="st0" d="M27.6,30.3l-0.2,0.2l1.5,1.4l0.2-0.2L27.6,30.3z"/>
<path class="st0" d="M26.9,55.5l0,0.3l2.1,0.3l0-0.3L26.9,55.5z"/>
<path class="st0" d="M29.5,11.8l-2.1,0.3l0,0.3l2.1-0.3L29.5,11.8z"/>
<path class="st0" d="M29,67.6l-0.2-0.1l-1.1,1.8l0.2,0.1L29,67.6z"/>
<path class="st0" d="M28,95.8L27.8,96l1.8,1.1l0.1-0.2L28,95.8z"/>
<path class="st0" d="M28,98.7l-0.1,0.2l1.8,1.1l0.1-0.2L28,98.7z"/>
<path class="st0" d="M28.1,25.2l1.4-1.6l-0.2-0.2l-1.4,1.6L28.1,25.2z"/>
<path class="st0" d="M28.6,79.4l-0.3,0l0.4,2.1l0.3,0L28.6,79.4z"/>
<path class="st0" d="M28.3,102l-0.1,0.2l1.8,1.1l0.1-0.2L28.3,102z"/>
<path class="st0" d="M28.7,82.3l-0.2,0.2l1.2,1.7l0.2-0.2L28.7,82.3z"/>
<path class="st0" d="M30,20.4l-1.8,1.1l0.1,0.2l1.8-1.1L30,20.4z"/>
<path class="st0" d="M28.3,17.3l0,0.3l2,0.4l0-0.3L28.3,17.3z"/>
<path class="st0" d="M29.3,76.2l-0.3,0l0.4,2.1l0.3,0L29.3,76.2z"/>
<path class="st0" d="M29.5,34.5l-0.3-2.1l-0.3,0l0.3,2.1L29.5,34.5z"/>
<path class="st0" d="M30.5,88.2l-1.4-1.6l-0.2,0.2l1.4,1.6L30.5,88.2z"/>
<path class="st0" d="M30.5,13.3l-1.5,1.5l0.2,0.2l1.5-1.5L30.5,13.3z"/>
<path class="st0" d="M30.7,90.5l-1.4-1.6l-0.2,0.2l1.4,1.6L30.7,90.5z"/>
<path class="st0" d="M30.5,93l-0.3,0l-0.1,2.1l0.3,0L30.5,93z"/>
<path class="st0" d="M30.5,6.8l-1,1.9l0.2,0.1l1-1.9L30.5,6.8z"/>
<path class="st0" d="M30.9,62.4l-2.1,0.1l0,0.3l2.1-0.1L30.9,62.4z"/>
<path class="st0" d="M30.1,84.5l-0.2,0.2l1.3,1.6l0.2-0.2L30.1,84.5z"/>
<path class="st0" d="M30.7,27l-0.1,2.1l0.3,0l0.1-2.1L30.7,27z"/>
<path class="st0" d="M31.6,10.1l-1.9,1l0.1,0.2l1.9-1L31.6,10.1z"/>
<path class="st0" d="M31.7,23l-1.9,0.7l0.1,0.2l1.9-0.7L31.7,23z"/>
<path class="st0" d="M31,18.8l-0.3,2.1l0.3,0l0.3-2.1L31,18.8z"/>
<path class="st0" d="M30.2,37.5l-0.2,0.1l1.1,1.8l0.2-0.1L30.2,37.5z"/>
<path class="st0" d="M30.4,97.1l-0.1,0.2l1.8,1l0.1-0.2L30.4,97.1z"/>
<path class="st0" d="M29.4,47.4l-0.2,0.2l1.7,1.2l0.2-0.2L29.4,47.4z"/>
<path class="st0" d="M31.9,15.5l-1.6,1.4l0.2,0.2l1.6-1.4L31.9,15.5z"/>
<path class="st0" d="M30.6,100.3l-0.1,0.2l1.8,1l0.1-0.2L30.6,100.3z"/>
<path class="st0" d="M30.7,91.1l-0.1,0.2l1.8,1l0.1-0.2L30.7,91.1z"/>
<path class="st0" d="M32.4,25.2l-1.7,1.3l0.2,0.2l1.7-1.3L32.4,25.2z"/>
<path class="st0" d="M31,103.7l1.8,1l0.1-0.2l-1.8-1L31,103.7z"/>
<path class="st0" d="M31,13.6l1.8-1.1l-0.1-0.2l-1.8,1.1L31,13.6z"/>
<path class="st0" d="M32.4,72.1L31,73.7l0.2,0.2l1.4-1.6L32.4,72.1z"/>
<path class="st0" d="M31.5,94.7l-0.1,0.2l1.8,1l0.1-0.2L31.5,94.7z"/>
<path class="st0" d="M33.1,6.4l-2,0.5l0.1,0.3l2-0.5L33.1,6.4z"/>
<path class="st0" d="M33.4,17.9l-1.7,1.2l0.1,0.2l1.7-1.2L33.4,17.9z"/>
<path class="st0" d="M32.1,22.7l0.2,0.1l0.9-1.9l-0.2-0.1L32.1,22.7z"/>
<path class="st0" d="M32.4,77.9l-0.3,0l0.4,2.1l0.3,0L32.4,77.9z"/>
<path class="st0" d="M31.8,88.4l1.8,1l0.1-0.2l-1.8-1L31.8,88.4z"/>
<path class="st0" d="M32.3,81l-0.2,0.2l1.3,1.7l0.2-0.2L32.3,81z"/>
<path class="st0" d="M32.3,32.7l-0.2,0.1l1.2,1.8l0.2-0.1L32.3,32.7z"/>
<path class="st0" d="M31.7,54.6l-0.1,0.2l1.9,0.9l0.1-0.2L31.7,54.6z"/>
<path class="st0" d="M33.9,9l-2,0.6L32,9.9l2-0.6L33.9,9z"/>
<path class="st0" d="M33,28.4l-0.1,2.1l0.3,0l0.1-2.1L33,28.4z"/>
<path class="st0" d="M32.1,15.6l0.1,0.2l1.9-0.8L34,14.7L32.1,15.6z"/>
<path class="st0" d="M32.3,67.1l-0.2,0.2l1.7,1.3l0.2-0.2L32.3,67.1z"/>
<path class="st0" d="M32.7,85.9l-0.1,0.2l1.8,1l0.1-0.2L32.7,85.9z"/>
<path class="st0" d="M32.9,83.3l-0.2,0.2l1.7,1.2l0.2-0.2L32.9,83.3z"/>
<path class="st0" d="M34.5,91.7l-1.6,1.4l0.2,0.2l1.6-1.4L34.5,91.7z"/>
<path class="st0" d="M32.8,98.6l-0.1,0.3l2,0.5l0.1-0.3L32.8,98.6z"/>
<path class="st0" d="M34.1,10.7l-0.4,2.1l0.3,0l0.4-2.1L34.1,10.7z"/>
<path class="st0" d="M34.4,23.7l-0.9,1.9l0.2,0.1l0.9-1.9L34.4,23.7z"/>
<path class="st0" d="M35.3,102.4l-1.9-0.9l-0.1,0.2l1.9,0.9L35.3,102.4z"/>
<path class="st0" d="M35.1,5.2l-1.8,1.1l0.1,0.2l1.8-1.1L35.1,5.2z"/>
<path class="st0" d="M34.6,95l-0.3,0l0.2,2.1l0.3,0L34.6,95z"/>
<path class="st0" d="M34.9,16.8l-1.1,1.8l0.2,0.1l1.1-1.8L34.9,16.8z"/>
<path class="st0" d="M34,104.8l-0.1,0.2l1.9,0.9l0.1-0.2L34,104.8z"/>
<path class="st0" d="M33.6,22l0.1,0.2l2-0.7l-0.1-0.2L33.6,22z"/>
<path class="st0" d="M36,89.4l-2,0.7l0.1,0.2l2-0.7L36,89.4z"/>
<path class="st0" d="M35.5,13.2L34.3,15l0.2,0.1l1.2-1.8L35.5,13.2z"/>
<path class="st0" d="M34,40.7l-0.2,0.2l1.4,1.6l0.2-0.2L34,40.7z"/>
<path class="st0" d="M34.1,74.5L34,74.7l1.9,0.9l0.1-0.2L34.1,74.5z"/>
<path class="st0" d="M35.9,7.5l-1.4,1.6l0.2,0.2l1.4-1.6L35.9,7.5z"/>
<path class="st0" d="M36.6,92.7L35,94l0.2,0.2l1.6-1.4L36.6,92.7z"/>
<path class="st0" d="M35.2,77.6L35,77.8l1.4,1.6l0.2-0.2L35.2,77.6z"/>
<path class="st0" d="M36,27.4l0.2-2.1l-0.3,0l-0.2,2.1L36,27.4z"/>
<path class="st0" d="M34.9,60.8L34.7,61l1.5,1.5l0.2-0.2L34.9,60.8z"/>
<path class="st0" d="M37.2,86.5l-2,0.7l0.1,0.2l2-0.7L37.2,86.5z"/>
<path class="st0" d="M35.8,20.7l0.3,0.1l0.6-2.1l-0.3-0.1L35.8,20.7z"/>
<path class="st0" d="M36.8,9.9l-1.3,1.7l0.2,0.2l1.3-1.7L36.8,9.9z"/>
<path class="st0" d="M36.5,96.1l-0.3,0.1l0.4,2.1l0.3-0.1L36.5,96.1z"/>
<path class="st0" d="M36,99.1l-0.2,0.2l1.3,1.7l0.2-0.2L36,99.1z"/>
<path class="st0" d="M37,15l-1.2,1.7l0.2,0.1l1.2-1.7L37,15z"/>
<path class="st0" d="M34.9,46.8l1.4,1.6l0.2-0.2l-1.4-1.6L34.9,46.8z"/>
<path class="st0" d="M37.5,83.5l-1.9,0.8l0.1,0.2l1.9-0.8L37.5,83.5z"/>
<path class="st0" d="M37.5,4.4l-0.1-0.2l-1.8,1.1l0.1,0.2L37.5,4.4z"/>
<path class="st0" d="M36.7,30.9l0.2-0.1l-0.7-2L36,28.9L36.7,30.9z"/>
<path class="st0" d="M36.5,80.4l-0.2,0.1l0.8,2l0.2-0.1L36.5,80.4z"/>
<path class="st0" d="M37.9,89.9l-1.6,1.4l0.2,0.2l1.6-1.4L37.9,89.9z"/>
<path class="st0" d="M36.4,102.6l-0.1,0.2l1.9,0.8l0.1-0.2L36.4,102.6z"/>
<path class="st0" d="M37.8,12.4l-1.5,1.5l0.2,0.2l1.5-1.5L37.8,12.4z"/>
<path class="st0" d="M36.5,34.2l-0.2,0.2l1.4,1.6l0.2-0.2L36.5,34.2z"/>
<path class="st0" d="M38.2,6.6l-1.7,1.3l0.2,0.2l1.7-1.3L38.2,6.6z"/>
<path class="st0" d="M38.3,95.4l-0.4-2.1l-0.3,0.1l0.4,2.1L38.3,95.4z"/>
<path class="st0" d="M37.1,105.9l-0.1,0.2l1.9,0.8l0.1-0.2L37.1,105.9z"/>
<path class="st0" d="M38.5,20.8L37,22.2l0.2,0.2l1.6-1.4L38.5,20.8z"/>
<path class="st0" d="M38.7,17.2l-2,0.4l0.1,0.3l2-0.4L38.7,17.2z"/>
<path class="st0" d="M38.8,70.2l-2,0.6l0.1,0.3l2-0.6L38.8,70.2z"/>
<path class="st0" d="M39.5,87.8l-2.1-0.3l0,0.3l2.1,0.3L39.5,87.8z"/>
<path class="st0" d="M37.4,9.6l0,0.3l2.1,0.2l0-0.3L37.4,9.6z"/>
<path class="st0" d="M38.4,23.2l-0.3,0.1l0.7,2l0.3-0.1L38.4,23.2z"/>
<path class="st0" d="M39.7,3.5l-1.9,0.8l0.1,0.2l1.9-0.8L39.7,3.5z"/>
<path class="st0" d="M38.7,96.3l-0.2,0.1l1.1,1.8l0.2-0.1L38.7,96.3z"/>
<path class="st0" d="M38.1,73.8L37.9,74l1.5,1.5l0.2-0.2L38.1,73.8z"/>
<path class="st0" d="M38.3,52.2l-0.3,0.1l0.6,2l0.3-0.1L38.3,52.2z"/>
<path class="st0" d="M38.4,78.2l-0.2,0.2l1.7,1.2l0.2-0.2L38.4,78.2z"/>
<path class="st0" d="M39.8,13.5l-1.5,1.5l0.2,0.2l1.5-1.5L39.8,13.5z"/>
<path class="st0" d="M40.4,91.3l-2.1,0.3l0,0.3l2.1-0.3L40.4,91.3z"/>
<path class="st0" d="M40.4,100.3l-2.1,0.2l0,0.3l2.1-0.2L40.4,100.3z"/>
<path class="st0" d="M40.2,84.1l-1.8,1.1l0.1,0.2l1.8-1.1L40.2,84.1z"/>
<path class="st0" d="M40,10.8l-1,1.9l0.2,0.1l1-1.9L40,10.8z"/>
<path class="st0" d="M39.6,80.9l-0.1,2.1l0.3,0l0.1-2.1L39.6,80.9z"/>
<path class="st0" d="M40.1,66.3l-1.8-1.1l-0.1,0.2l1.8,1.1L40.1,66.3z"/>
<path class="st0" d="M39.8,5.3l-0.2,2.1l0.3,0L40,5.3L39.8,5.3z"/>
<path class="st0" d="M40.4,17l-1.2,1.8l0.2,0.1l1.2-1.8L40.4,17z"/>
<path class="st0" d="M41.3,104.1l-2-0.7l-0.1,0.2l2,0.7L41.3,104.1z"/>
<path class="st0" d="M39.6,88.3l-0.1,0.3l2,0.5l0.1-0.3L39.6,88.3z"/>
<path class="st0" d="M41.1,95.3l-0.6-2.1l-0.3,0.1l0.6,2.1L41.1,95.3z"/>
<path class="st0" d="M40,14.8l-0.2,0.2l1.4,1.6l0.2-0.2L40,14.8z"/>
<path class="st0" d="M41.6,8.2l-1.8,1l0.1,0.2l1.8-1L41.6,8.2z"/>
<path class="st0" d="M40.7,40l0.2-0.1L40.1,38l-0.2,0.1L40.7,40z"/>
<path class="st0" d="M41.1,76.2l-1.2,1.7l0.2,0.2l1.2-1.7L41.1,76.2z"/>
<path class="st0" d="M40.2,106.9l-0.1,0.3l2,0.7l0.1-0.3L40.2,106.9z"/>
<path class="st0" d="M40.9,19.1l0,2.1l0.3,0l0-2.1L40.9,19.1z"/>
<path class="st0" d="M41.8,2.4L40.4,4l0.2,0.2L42,2.6L41.8,2.4z"/>
<path class="st0" d="M40.8,28.1l0.3,2.1l0.3,0l-0.3-2.1L40.8,28.1z"/>
<path class="st0" d="M40.5,97.4l-0.1,0.3l2,0.5l0.1-0.3L40.5,97.4z"/>
<path class="st0" d="M40.3,58.2L40,58.3l1.2,1.7l0.2-0.1L40.3,58.2z"/>
<path class="st0" d="M40.6,85.1l-0.1,0.3l2,0.4l0.1-0.3L40.6,85.1z"/>
<path class="st0" d="M40.6,81.2l0,0.3l2.1,0.3l0-0.3L40.6,81.2z"/>
<path class="st0" d="M40.8,11.3l-0.1,0.2l1.9,0.9l0.1-0.2L40.8,11.3z"/>
<path class="st0" d="M41.6,24.1l-0.2,0.1l0.8,2l0.2-0.1L41.6,24.1z"/>
<path class="st0" d="M41.2,5.1L41,5.3l1.5,1.5l0.2-0.2L41.2,5.1z"/>
<path class="st0" d="M42.4,71.7l-1.1-1.8L41.1,70l1.1,1.8L42.4,71.7z"/>
<path class="st0" d="M41.6,100.3l-0.2,0.2l1.5,1.5l0.2-0.2L41.6,100.3z"/>
<path class="st0" d="M42.2,92.3h0.3l0-2.1h-0.3L42.2,92.3z"/>
<path class="st0" d="M41.2,44.5L41,44.6l0.8,2l0.2-0.1L41.2,44.5z"/>
<path class="st0" d="M42.3,8.3l0.4,2.1l0.3-0.1l-0.4-2.1L42.3,8.3z"/>
<path class="st0" d="M42.6,16.7l0.3,0l0.2-2.1l-0.3,0L42.6,16.7z"/>
<path class="st0" d="M44,94.3L42.1,95l0.1,0.2l1.9-0.8L44,94.3z"/>
<path class="st0" d="M42.2,88.1l0.1,0.2l1.9-0.9L44,87.2L42.2,88.1z"/>
<path class="st0" d="M42.1,13.6l2-0.5L44,12.9l-2,0.5L42.1,13.6z"/>
<path class="st0" d="M42.3,104.1l-0.1,0.3l2,0.6l0.1-0.3L42.3,104.1z"/>
<path class="st0" d="M43.5,1.7l-0.3,2.1l0.3,0l0.3-2.1L43.5,1.7z"/>
<path class="st0" d="M43.3,32.3L43,32.4l0.6,2.1l0.3-0.1L43.3,32.3z"/>
<path class="st0" d="M43.8,97.1l-0.2,0.1l1,1.9l0.2-0.1L43.8,97.1z"/>
<path class="st0" d="M44.2,6.6l0.2-0.1l-0.7-2l-0.2,0.1L44.2,6.6z"/>
<path class="st0" d="M43.4,107.6l-0.1,0.3l2,0.5l0.1-0.3L43.4,107.6z"/>
<path class="st0" d="M44,20.5l-0.2,0.1l0.8,2l0.2-0.1L44,20.5z"/>
<path class="st0" d="M43.9,92.7l1.8-1l-0.1-0.2l-1.8,1L43.9,92.7z"/>
<path class="st0" d="M45.3,7.4l-1.8,1.1l0.1,0.2l1.8-1.1L45.3,7.4z"/>
<path class="st0" d="M44,17l-0.2,0.2l1.5,1.5l0.2-0.2L44,17z"/>
<path class="st0" d="M46,100.8l-1.8,1.1l0.1,0.2l1.8-1.1L46,100.8z"/>
<path class="st0" d="M44,10.1l-0.2,0.2l1.6,1.3l0.2-0.2L44,10.1z"/>
<path class="st0" d="M44.2,50.8L44,50.9l0.9,1.9l0.2-0.1L44.2,50.8z"/>
<path class="st0" d="M44.4,89.1l2.1,0.3l0-0.3l-2.1-0.3L44.4,89.1z"/>
<path class="st0" d="M44.9,94.6l1.8,1.1l0.1-0.2L45,94.4L44.9,94.6z"/>
<path class="st0" d="M45.8,1.2h-0.3l0,2.1h0.3L45.8,1.2z"/>
<path class="st0" d="M46,12l-0.3,0l0.1,2.1l0.3,0L46,12z"/>
<path class="st0" d="M47.4,105l-2-0.4l-0.1,0.3l2,0.4L47.4,105z"/>
<path class="st0" d="M47.3,4.9l0-0.3l-2.1,0.3l0,0.3L47.3,4.9z"/>
<path class="st0" d="M45.3,57.7l-0.2,0.1l0.9,1.9l0.2-0.1L45.3,57.7z"/>
<path class="st0" d="M46,98L46,98.2l2,0.4l0.1-0.3L46,98z"/>
<path class="st0" d="M46.7,6.4l-0.3,0.1l0.6,2.1l0.3-0.1L46.7,6.4z"/>
<path class="st0" d="M47.2,14.2l-0.3,0l0.2,2.1l0.3,0L47.2,14.2z"/>
<path class="st0" d="M47.3,26.4l-0.3,0l0.2,2.1l0.3,0L47.3,26.4z"/>
<path class="st0" d="M46.6,91.5l0,0.3l2.1,0.2l0-0.3L46.6,91.5z"/>
<path class="st0" d="M47.5,40.8l0.3-0.1l-0.5-2.1l-0.3,0.1L47.5,40.8z"/>
<path class="st0" d="M47.1,9l0.2,2.1l0.3,0L47.4,9L47.1,9z"/>
<path class="st0" d="M46.8,108.1l0,0.3l2,0.4l0-0.3L46.8,108.1z"/>
<path class="st0" d="M47.1,101.4l0,0.3l2.1,0.3l0-0.3L47.1,101.4z"/>
<path class="st0" d="M49.1,1.9l-2-0.5L47,1.7l2,0.5L49.1,1.9z"/>
<path class="st0" d="M47.2,88.5l2.1,0.1l0-0.3l-2.1-0.1L47.2,88.5z"/>
<path class="st0" d="M47.5,94.9l2.1,0.3l0-0.3l-2.1-0.3L47.5,94.9z"/>
<path class="st0" d="M48.5,20.1l-0.3,0l0.2,2.1l0.3,0L48.5,20.1z"/>
<path class="st0" d="M47.5,4.1l1.9,0.8l0.1-0.2l-1.9-0.8L47.5,4.1z"/>
<path class="st0" d="M47.9,45.1l0.5,2.1l0.3-0.1l-0.5-2.1L47.9,45.1z"/>
<path class="st0" d="M48.2,104.7l0,0.3l2.1,0.2l0-0.3L48.2,104.7z"/>
<path class="st0" d="M48.6,10.2l-0.2,0.2l1.7,1.3l0.2-0.2L48.6,10.2z"/>
<path class="st0" d="M49.4,6l-0.3,0l0.3,2.1l0.3,0L49.4,6z"/>
<path class="st0" d="M50.8,97.6l-1.8,1l0.1,0.2l1.8-1L50.8,97.6z"/>
<path class="st0" d="M49.5,31.6l-0.3,0.1l0.5,2.1l0.3-0.1L49.5,31.6z"/>
<path class="st0" d="M50.4,15.2l-0.3,2.1l0.3,0l0.3-2.1L50.4,15.2z"/>
<path class="st0" d="M51.7,91h-2.1v0.3h2.1V91z"/>
<path class="st0" d="M49.9,53.5l-0.3,0.1l0.6,2l0.3-0.1L49.9,53.5z"/>
<path class="st0" d="M49.9,0.7l-0.2,0.2l1.7,1.2L51.6,2L49.9,0.7z"/>
<path class="st0" d="M51.9,3.9l-2-0.5l-0.1,0.3l2,0.5L51.9,3.9z"/>
<path class="st0" d="M50.2,108.4l0,0.3l2.1,0.2l0-0.3L50.2,108.4z"/>
<path class="st0" d="M52.1,101.1l-2,0.7l0.1,0.3l2-0.7L52.1,101.1z"/>
<path class="st0" d="M50.9,11.9l-0.3,0l0.1,2.1l0.3,0L50.9,11.9z"/>
<path class="st0" d="M52.3,94.3l-2.1,0.1l0,0.3l2.1-0.1L52.3,94.3z"/>
<path class="st0" d="M52,87.1l-1.7,1.2l0.2,0.2l1.7-1.2L52,87.1z"/>
<path class="st0" d="M50.1,60l-0.2,0.1l0.8,2l0.2-0.1L50.1,60z"/>
<path class="st0" d="M50.8,8.3l-0.2,0.2l1.3,1.6l0.2-0.2L50.8,8.3z"/>
<path class="st0" d="M51.6,4.5l-0.2,0.1l0.9,1.9l0.2-0.1L51.6,4.5z"/>
<path class="st0" d="M54,104.6l-2.1,0.1l0,0.3l2.1-0.1L54,104.6z"/>
<path class="st0" d="M53.8,97.3l-2,0.4l0.1,0.3l2-0.4L53.8,97.3z"/>
<path class="st0" d="M52.1,23.9l-0.3,0.1l0.5,2.1l0.3-0.1L52.1,23.9z"/>
<path class="st0" d="M52.6,49.2l-0.3,0.1l0.5,2.1l0.3-0.1L52.6,49.2z"/>
<path class="st0" d="M53.5,0.5l-0.3-0.1l-0.4,2.1l0.3,0L53.5,0.5z"/>
<path class="st0" d="M52.7,6.5l-0.2,0.1l1.1,1.8l0.2-0.1L52.7,6.5z"/>
<path class="st0" d="M54.7,89.5l-1.8,1.1l0.1,0.2l1.8-1.1L54.7,89.5z"/>
<path class="st0" d="M54.8,93l-1.6,1.3l0.2,0.2l1.6-1.3L54.8,93z"/>
<path class="st0" d="M53.4,100.4l-0.1,0.2l1.9,0.7l0.1-0.2L53.4,100.4z"/>
<path class="st0" d="M53.1,3.9l0,0.3l2.1,0.1l0-0.3L53.1,3.9z"/>
<path class="st0" d="M53.6,40L53.3,40l0.6,2.1l0.3-0.1L53.6,40z"/>
<path class="st0" d="M55.7,107.8l-2.1,0.3l0,0.3l2.1-0.3L55.7,107.8z"/>
<path class="st0" d="M55.1,19.1l-0.5,2.1l0.3,0.1l0.5-2.1L55.1,19.1z"/>
<path class="st0" d="M54.6,10.6l-0.4,2.1l0.3,0.1l0.4-2.1L54.6,10.6z"/>
<path class="st0" d="M53.9,60l-0.2,0.1l0.7,2l0.2-0.1L53.9,60z"/>
<path class="st0" d="M55.5,13.8l-0.3,0l0,2.1l0.3,0L55.5,13.8z"/>
<path class="st0" d="M55.4,7.8l-0.3,0l0.1,2.1l0.3,0L55.4,7.8z"/>
<path class="st0" d="M54.5,1l-0.1,0.3l2,0.5l0.1-0.3L54.5,1z"/>
<path class="st0" d="M56.6,96.4l-1.7,1.2l0.1,0.2l1.7-1.2L56.6,96.4z"/>
<path class="st0" d="M55.1,54.9L54.8,55l0.6,2l0.3-0.1L55.1,54.9z"/>
<path class="st0" d="M55.7,34.8l-0.3,0l0.4,2.1l0.3,0L55.7,34.8z"/>
<path class="st0" d="M56,4.1l-0.3,0l0.1,2.1l0.3,0L56,4.1z"/>
<path class="st0" d="M57.3,103.7l-2,0.5l0.1,0.3l2-0.5L57.3,103.7z"/>
<path class="st0" d="M57.7,92.8l-1.5,1.5l0.2,0.2l1.5-1.5L57.7,92.8z"/>
<path class="st0" d="M57.5,28.2l-0.3,2.1l0.3,0l0.3-2.1L57.5,28.2z"/>
<path class="st0" d="M57.3,45.3l0,2.1l0.3,0l0-2.1L57.3,45.3z"/>
<path class="st0" d="M58.2,99.8l-1.7,1.2l0.1,0.2l1.7-1.2L58.2,99.8z"/>
<path class="st0" d="M57,1.2l-0.2,0.1l1,1.9L58,3L57,1.2z"/>
<path class="st0" d="M57.1,7.4l-0.2,0.2l1.3,1.7L58.4,9L57.1,7.4z"/>
<path class="st0" d="M57.3,60.8l-0.3,0.1l0.5,2.1l0.3-0.1L57.3,60.8z"/>
<path class="st0" d="M59.3,107.3l-2,0.4l0,0.3l2-0.4L59.3,107.3z"/>
<path class="st0" d="M58.1,89.2l-0.3,0.1l0.5,2.1l0.3-0.1L58.1,89.2z"/>
<path class="st0" d="M58.1,4.3l-0.2,0.1l0.9,1.9L59,6.2L58.1,4.3z"/>
<path class="st0" d="M59.7,96.3l-1.5,1.5l0.2,0.2l1.5-1.5L59.7,96.3z"/>
<path class="st0" d="M60.1,0.8l-1.8,1l0.1,0.2l1.8-1L60.1,0.8z"/>
<path class="st0" d="M59.6,51.5l-0.3,0l0.2,2.1l0.3,0L59.6,51.5z"/>
<path class="st0" d="M58.8,104.5l0.1,0.2l1.9-0.8l-0.1-0.2L58.8,104.5z"/>
<path class="st0" d="M59.5,8.9L59.2,9l0.9,1.9l0.2-0.1L59.5,8.9z"/>
<path class="st0" d="M59.2,56.4L59,56.5l0.7,2l0.3-0.1L59.2,56.4z"/>
<path class="st0" d="M60.5,94.6l0.3-0.1l-0.6-2.1L60,92.5L60.5,94.6z"/>
<path class="st0" d="M60.2,17.1l0,2.1l0.3,0l0-2.1L60.2,17.1z"/>
<path class="st0" d="M61.5,99.9l-1.8,1l0.1,0.2l1.8-1L61.5,99.9z"/>
<path class="st0" d="M60.8,60.1l-0.3,0l0.2,2.1l0.3,0L60.8,60.1z"/>
<path class="st0" d="M61.1,12.2l-0.7,2l0.2,0.1l0.7-2L61.1,12.2z"/>
<path class="st0" d="M60.1,4.5L60,4.7l1.9,1l0.1-0.2L60.1,4.5z"/>
<path class="st0" d="M60.9,1.3l-0.2,0.2l1.7,1.3l0.2-0.2L60.9,1.3z"/>
<path class="st0" d="M61.8,34.1l0.3,0l0.1-2.1l-0.3,0L61.8,34.1z"/>
<path class="st0" d="M61.4,89l-0.2,0.1l1,1.9l0.2-0.1L61.4,89z"/>
<path class="st0" d="M61.8,23.7l0,2.1l0.3,0l0-2.1L61.8,23.7z"/>
<path class="st0" d="M62.7,46.4l-0.3,0l0.3,2.1l0.3,0L62.7,46.4z"/>
<path class="st0" d="M62.1,96l-0.2,0.1l0.8,2l0.2-0.1L62.1,96z"/>
<path class="st0" d="M62.4,40.3l-0.3,0l0,2.1l0.3,0L62.4,40.3z"/>
<path class="st0" d="M62.3,103.9L62,104l0.8,2l0.2-0.1L62.3,103.9z"/>
<path class="st0" d="M62.2,6.2l-0.1,0.2L64,7.3L64.1,7L62.2,6.2z"/>
<path class="st0" d="M63.3,61.8l-0.3,0.1l0.5,2.1l0.3-0.1L63.3,61.8z"/>
<path class="st0" d="M63.2,58.8L63,58.9l0.8,2l0.2-0.1L63.2,58.8z"/>
<path class="st0" d="M63.8,55.4l-0.3,0l0.1,2.1l0.3,0L63.8,55.4z"/>
<path class="st0" d="M63.2,9.4L63,9.6l1.6,1.3l0.2-0.2L63.2,9.4z"/>
<path class="st0" d="M62.7,93l-0.1,0.3l2,0.6l0.1-0.3L62.7,93z"/>
<path class="st0" d="M63.4,1.3l-0.2,0.2l1.4,1.6l0.2-0.2L63.4,1.3z"/>
<path class="st0" d="M65.1,101.2l-1.4-1.6l-0.2,0.2l1.4,1.6L65.1,101.2z"/>
<path class="st0" d="M64.2,51L64,51.1l0.6,2l0.3-0.1L64.2,51z"/>
<path class="st0" d="M65.2,4.5L65,4.7l1.5,1.5L66.7,6L65.2,4.5z"/>
<path class="st0" d="M66.9,64.1l0.2-0.2l-1.3-1.7l-0.2,0.2L66.9,64.1z"/>
<path class="st0" d="M66.7,96.7l-2.1,0.3l0,0.3l2.1-0.3L66.7,96.7z"/>
<path class="st0" d="M67.3,27.7l-0.6,2l0.3,0.1l0.6-2L67.3,27.7z"/>
<path class="st0" d="M65.8,59.7l-0.2,0.2l1.4,1.6l0.2-0.2L65.8,59.7z"/>
<path class="st0" d="M66,16.7l0.3,0.1l0.6-2l-0.3-0.1L66,16.7z"/>
<path class="st0" d="M65.2,103.6l0,0.3l2.1-0.3l0-0.3L65.2,103.6z"/>
<path class="st0" d="M66.9,106.2l-2,0.6l0.1,0.3l2-0.6L66.9,106.2z"/>
<path class="st0" d="M66.7,19.7l-0.1,2.1l0.3,0l0.1-2.1L66.7,19.7z"/>
<path class="st0" d="M66.6,56.7l0.2,2.1l0.3,0l-0.2-2.1L66.6,56.7z"/>
<path class="st0" d="M67.5,38.6l-0.3-0.1l-0.4,2.1l0.3,0.1L67.5,38.6z"/>
<path class="st0" d="M66.6,1.7l-0.2,0.1l0.8,2l0.2-0.1L66.6,1.7z"/>
<path class="st0" d="M65.9,90.2l0,0.3l2.1,0.1l0-0.3L65.9,90.2z"/>
<path class="st0" d="M68.5,10.3l-0.9,1.9l0.2,0.1l0.9-1.9L68.5,10.3z"/>
<path class="st0" d="M67.6,52.4l1.4-1.6l-0.2-0.2l-1.4,1.6L67.6,52.4z"/>
<path class="st0" d="M67.1,7.3l-0.1,0.3l2,0.4l0.1-0.3L67.1,7.3z"/>
<path class="st0" d="M68.5,54.9L68.3,55l0.4,2.1L69,57L68.5,54.9z"/>
<path class="st0" d="M68.1,60.1l-0.1,0.2l1.8,1l0.1-0.2L68.1,60.1z"/>
<path class="st0" d="M68.6,64.3l-0.2,0.2l1.2,1.7l0.2-0.2L68.6,64.3z"/>
<path class="st0" d="M70.1,63.3l-2-0.6L68,62.9l2,0.6L70.1,63.3z"/>
<path class="st0" d="M69.7,2.5l-0.3,0l0.3,2.1l0.3,0L69.7,2.5z"/>
<path class="st0" d="M69.6,58.1l-0.2,0.2l1.6,1.3l0.2-0.2L69.6,58.1z"/>
<path class="st0" d="M70.3,45.3l0.3,0.1l0.6-2l-0.3-0.1L70.3,45.3z"/>
<path class="st0" d="M71.7,5.3l-1.9,0.9l0.1,0.2l1.9-0.9L71.7,5.3z"/>
<path class="st0" d="M71.3,101.8l-2.1,0.2l0,0.3l2.1-0.2L71.3,101.8z"/>
<path class="st0" d="M71.4,52l-0.7,2l0.3,0.1l0.7-2L71.4,52z"/>
<path class="st0" d="M71,91.1l-1.4,1.6l0.2,0.2l1.4-1.6L71,91.1z"/>
<path class="st0" d="M71.5,96.2L71.3,96l-1.6,1.3l0.2,0.2L71.5,96.2z"/>
<path class="st0" d="M72.4,37.1l-1,1.8l0.2,0.1l1-1.8L72.4,37.1z"/>
<path class="st0" d="M72.1,81.2l-0.8,0.7c0-0.3,0-0.6,0-0.9c0-1.6-0.3-2.9-0.9-3.7l-0.2-0.2c-0.6-0.6-1.4-1-2.2-1.2v0l-0.3,0
	c-0.1,0-0.2,0-0.4-0.1v-0.1c1.2-0.3,2.2-0.8,2.7-2h0.1v-0.1c0.3-0.9,0.5-1.9,0.4-2.9c0-0.7-0.1-1.4-0.3-2.1l1-0.3l-0.1-0.3l-1,0.3
	c-0.6-1.7-1.9-2.6-4.1-3.1l-0.6-1.1l-0.2,0.1l0.5,1c-1-0.2-2.1-0.2-3.1-0.2h-0.3l-0.2-0.9l-0.3,0.1l0.2,0.9h-1.9l-0.4-1.3l-0.3,0.1
	l0.4,1.2h-3.8L55.9,64l-0.3,0.1l0.2,1h-5.4L50.1,64l-0.2,0.1l0.3,1H45l0.2-0.1l-1-1.9L44,63.3l0.9,1.9h-1.4v8.6l-1.5,1l0.1,0.2
	l1.4-0.9v2.4l-0.1-0.2l-0.2,0.1l0.3,0.6v2.6h-1.3v0.2h1.3v3.8l-1.1,0.1V84l1.1-0.1v2.8h10.2l-0.1,0.7l0.3,0l0.1-0.7H56l0.1,2.1h0.3
	l-0.1-2.1h2.9l0.5,1l0.2-0.1l-0.4-0.9h4.4l1.1,1.6l0.2-0.1l-1-1.4h0.5c3.4,0,6.1-0.8,6.6-4.5l1-0.8L72.1,81.2z M50.2,70.3H62
	c1.2,0,2,0.4,2,1.7s-0.7,1.7-2,1.7H50.2V70.3z M62.1,81.6H50.2v-3.4h11.9c1.4,0,2.4,0.3,2.4,1.8C64.5,81.2,63.5,81.6,62.1,81.6
	L62.1,81.6z"/>
<path class="st0" d="M72.5,63.3l-2.1,0.2l0,0.3l2.1-0.2L72.5,63.3z"/>
<path class="st0" d="M72.6,66.2l-2,0.4l0,0.3l2-0.4L72.6,66.2z"/>
<path class="st0" d="M72.4,24.5l-0.8,2l0.2,0.1l0.8-2L72.4,24.5z"/>
<path class="st0" d="M72.2,16.7l-1,1.9l0.2,0.1l1-1.9L72.2,16.7z"/>
<path class="st0" d="M71.4,10.6l-0.2,0.1l1.1,1.8l0.2-0.1L71.4,10.6z"/>
<path class="st0" d="M72.9,55.9l-0.1-0.2l-2,0.7l0.1,0.2L72.9,55.9z"/>
<path class="st0" d="M72.4,46.8l-0.5,2.1l0.3,0.1l0.5-2.1L72.4,46.8z"/>
<path class="st0" d="M72.3,73.7l-1.2,1.7l0.2,0.2l1.2-1.7L72.3,73.7z"/>
<path class="st0" d="M72.4,70.4l-1.3,1.7l0.2,0.2l1.3-1.7L72.4,70.4z"/>
<path class="st0" d="M73.1,60.6l-2,0.7l0.1,0.2l2-0.7L73.1,60.6z"/>
<path class="st0" d="M73.4,57.1l-0.7,2l0.2,0.1l0.7-2L73.4,57.1z"/>
<path class="st0" d="M70.9,106l0.1,0.2l1.7-1.2l-0.1-0.2L70.9,106z"/>
<path class="st0" d="M74.2,31.8l-1,1.9l0.2,0.1l1-1.9L74.2,31.8z"/>
<path class="st0" d="M72.5,7.9l-0.1,0.2l2,0.7l0.1-0.2L72.5,7.9z"/>
<path class="st0" d="M73.1,52.7l-0.2,0.1l1.2,1.7l0.2-0.1L73.1,52.7z"/>
<path class="st0" d="M73.7,3.6l-0.2,2.1l0.3,0l0.2-2.1L73.7,3.6z"/>
<path class="st0" d="M73.9,67.6l-0.8,2l0.2,0.1l0.8-2L73.9,67.6z"/>
<path class="st0" d="M74.3,64.1L73,65.8l0.2,0.2l1.3-1.6L74.3,64.1z"/>
<path class="st0" d="M74.4,61.4l-0.7,2l0.3,0.1l0.7-2L74.4,61.4z"/>
<path class="st0" d="M74.2,88.2l-1,1.9l0.2,0.1l1-1.9L74.2,88.2z"/>
<path class="st0" d="M75,60.3l0.3,0l-0.2-2.1l-0.3,0L75,60.3z"/>
<path class="st0" d="M74.3,50.5l-0.1,0.2l2,0.7l0.1-0.2L74.3,50.5z"/>
<path class="st0" d="M75.5,54L75,56.1l0.3,0.1l0.4-2.1L75.5,54z"/>
<path class="st0" d="M76.8,14.8l-1.6,1.3l0.2,0.2L77,15L76.8,14.8z"/>
<path class="st0" d="M75.1,45.2l0,0.3l2.1,0l0-0.3L75.1,45.2z"/>
<path class="st0" d="M75.5,9.9l-0.2,0.1l1,1.9l0.2-0.1L75.5,9.9z"/>
<path class="st0" d="M76,60.7l-0.2,2.1l0.3,0l0.2-2.1L76,60.7z"/>
<path class="st0" d="M76.6,56.1l-1,1.9l0.2,0.1l1-1.9L76.6,56.1z"/>
<path class="st0" d="M74.3,103.2l0.1,0.2l1.8-1l-0.1-0.2L74.3,103.2z"/>
<path class="st0" d="M77.5,6.3l-2-0.5L75.4,6l2,0.5L77.5,6.3z"/>
<path class="st0" d="M76.4,95.6l-1,1.9l0.2,0.1l1-1.9L76.4,95.6z"/>
<path class="st0" d="M76.2,20.1l-0.1,0.2l2,0.7l0.1-0.2L76.2,20.1z"/>
<path class="st0" d="M76.8,51l-0.2,0.2l1.5,1.5l0.2-0.2L76.8,51z"/>
<path class="st0" d="M78.8,26.4l-2.1,0.3l0,0.3l2.1-0.3L78.8,26.4z"/>
<path class="st0" d="M78,59.4l-0.5,2.1l0.3,0.1l0.5-2.1L78,59.4z"/>
<path class="st0" d="M80.1,34.5L78,34.7l0,0.3l2.1-0.2L80.1,34.5z"/>
<path class="st0" d="M78.6,55.2l-0.3-2.1l-0.3,0l0.3,2.1L78.6,55.2z"/>
<path class="st0" d="M78,41.6l0,0.3l2,0.4l0-0.3L78,41.6z"/>
<path class="st0" d="M78.2,6.3L78,6.4l1.2,1.7L79.5,8L78.2,6.3z"/>
<path class="st0" d="M77.9,10.6l-0.1,0.2l1.7,1.2l0.1-0.2L77.9,10.6z"/>
<path class="st0" d="M79.3,57.5l-0.3-0.1l-0.7,2l0.2,0.1L79.3,57.5z"/>
<path class="st0" d="M78.6,48.4l-0.2,0.2l1.4,1.6l0.2-0.2L78.6,48.4z"/>
<path class="st0" d="M78.5,46.5l0,0.3l2.1,0.3l0-0.3L78.5,46.5z"/>
<path class="st0" d="M79.4,55.1l-0.3,2.1l0.3,0l0.3-2.1L79.4,55.1z"/>
<path class="st0" d="M79.9,61.6l-0.3-0.1l-0.5,2.1l0.3,0.1L79.9,61.6z"/>
<path class="st0" d="M77.9,101.9l0.2,0.2l1.6-1.4l-0.2-0.2L77.9,101.9z"/>
<path class="st0" d="M80.5,50.8l-0.3,0l0,2.1l0.3,0L80.5,50.8z"/>
<path class="st0" d="M81,7.4l-0.2,0.1l0.8,2l0.2-0.1L81,7.4z"/>
<path class="st0" d="M80.6,16.1l-0.1,0.2l1.9,0.8l0.1-0.2L80.6,16.1z"/>
<path class="st0" d="M80.5,88.5l-0.7,2l0.2,0.1l0.7-2L80.5,88.5z"/>
<path class="st0" d="M81.8,59.6l-0.3,2.1l0.3,0l0.3-2.1L81.8,59.6z"/>
<path class="st0" d="M82,54.5l-0.4,2.1l0.3,0.1l0.4-2.1L82,54.5z"/>
<path class="st0" d="M81.6,13.8l0.8-2l-0.2-0.1l-0.8,2L81.6,13.8z"/>
<path class="st0" d="M83.4,22l-1.7,1.2l0.2,0.2l1.7-1.2L83.4,22z"/>
<path class="st0" d="M82.2,46.8l-0.2,0.1l1.1,1.8l0.2-0.1L82.2,46.8z"/>
<path class="st0" d="M82.9,52l-0.1,2.1l0.3,0l0.1-2.1L82.9,52z"/>
<path class="st0" d="M82.2,37.9l-0.1,0.3l2,0.5l0.1-0.3L82.2,37.9z"/>
<path class="st0" d="M82.1,30.2L82,30.5l2,0.4l0.1-0.3L82.1,30.2z"/>
<path class="st0" d="M83.3,57.1l-0.7,2l0.2,0.1l0.7-2L83.3,57.1z"/>
<path class="st0" d="M83,42.3l-0.2,0.1l0.8,2l0.2-0.1L83,42.3z"/>
<path class="st0" d="M83.7,62.5l-0.4,2.1l0.3,0l0.4-2.1L83.7,62.5z"/>
<path class="st0" d="M83.7,49.3l-0.3,0.1l0.5,2.1l0.3-0.1L83.7,49.3z"/>
<path class="st0" d="M83.7,72.6l-0.4,2.1l0.3,0.1l0.4-2.1L83.7,72.6z"/>
<path class="st0" d="M85.2,9.7l-1.8,1l0.1,0.2l1.8-1L85.2,9.7z"/>
<path class="st0" d="M84.3,98.4l-1.1,1.8l0.2,0.1l1.1-1.8L84.3,98.4z"/>
<path class="st0" d="M84.6,93.6l-0.8,2l0.2,0.1l0.8-2L84.6,93.6z"/>
<path class="st0" d="M86.5,15.9l-1.7,1.2l0.2,0.2l1.7-1.2L86.5,15.9z"/>
<path class="st0" d="M86,53.8l0,2.1l0.3,0l0-2.1L86,53.8z"/>
<path class="st0" d="M86.1,44.3l-0.3,0l0.2,2.1l0.3,0L86.1,44.3z"/>
<path class="st0" d="M86.4,56.9L86.1,59l0.3,0l0.3-2.1L86.4,56.9z"/>
<path class="st0" d="M86.6,48.4l-0.3,0l0.2,2.1l0.3,0L86.6,48.4z"/>
<path class="st0" d="M87.6,11.9l-0.2-0.2l-1.7,1.2l0.2,0.2L87.6,11.9z"/>
<path class="st0" d="M85.8,83l-0.6,2l0.3,0.1l0.6-2L85.8,83z"/>
<path class="st0" d="M86.7,37.5l-0.2,0.2l1.5,1.5l0.2-0.2L86.7,37.5z"/>
<path class="st0" d="M86.4,21l-0.1,0.2l2,0.7l0.1-0.2L86.4,21z"/>
<path class="st0" d="M86.5,26.2l1.9,0.9l0.1-0.2L86.6,26L86.5,26.2z"/>
<path class="st0" d="M87.3,60.5l-0.5,2.1l0.3,0.1l0.5-2.1L87.3,60.5z"/>
<path class="st0" d="M88,51.4l-0.2,2.1l0.3,0l0.2-2.1L88,51.4z"/>
<path class="st0" d="M87.7,30.7l-0.2,0.2l1.3,1.6l0.2-0.2L87.7,30.7z"/>
<path class="st0" d="M90.2,14.6l0-0.3l-2.1,0.2l0,0.3L90.2,14.6z"/>
<path class="st0" d="M89.4,46.9l0.1-2.1l-0.3,0l-0.1,2.1L89.4,46.9z"/>
<path class="st0" d="M89.7,39.8l0.6,2l0.3-0.1l-0.6-2L89.7,39.8z"/>
<path class="st0" d="M90.8,47.4l-0.1,2.1l0.3,0l0.1-2.1L90.8,47.4z"/>
<path class="st0" d="M90.3,19.4l-0.2,0.2l1.6,1.3l0.2-0.2L90.3,19.4z"/>
<path class="st0" d="M91.5,56.3l-0.3,0l0.2,2.1l0.3,0L91.5,56.3z"/>
<path class="st0" d="M91.6,51.4l-0.4,2.1l0.3,0.1l0.4-2.1L91.6,51.4z"/>
<path class="st0" d="M91.6,33.2l-0.3,0l0.3,2.1l0.3,0L91.6,33.2z"/>
<path class="st0" d="M92.6,15.4l-1.2,1.7l0.2,0.2l1.2-1.7L92.6,15.4z"/>
<path class="st0" d="M92.2,26.1L92,26.2l1.3,1.7l0.2-0.2L92.2,26.1z"/>
<path class="st0" d="M92.6,41.3l0.5,2.1l0.3-0.1l-0.5-2.1L92.6,41.3z"/>
<path class="st0" d="M93.5,60.7l-0.3,0l0,2.1l0.3,0L93.5,60.7z"/>
<path class="st0" d="M92.5,91.7l-0.9,1.9l0.2,0.1l0.9-1.9L92.5,91.7z"/>
<path class="st0" d="M96.3,23l-2,0.4l0.1,0.3l2-0.4L96.3,23z"/>
<path class="st0" d="M94.2,19.6l-0.1,0.3l2,0.4l0.1-0.3L94.2,19.6z"/>
<path class="st0" d="M95.1,34.5l-0.3,0.1l0.6,2.1l0.3-0.1L95.1,34.5z"/>
<path class="st0" d="M95.3,44.2l-0.3,0l0.2,2.1l0.3,0L95.3,44.2z"/>
<path class="st0" d="M95.7,47.8L95.6,50l0.3,0l0.1-2.1L95.7,47.8z"/>
<path class="st0" d="M95.9,29.6l-0.3,0.1l0.6,2l0.3-0.1L95.9,29.6z"/>
<path class="st0" d="M95.9,52.9L95.8,55l0.3,0l0.2-2.1L95.9,52.9z"/>
<path class="st0" d="M97.7,38.3l-0.2,2.1l0.3,0l0.2-2.1L97.7,38.3z"/>
<path class="st0" d="M97.7,23.7l-0.1,0.2l1.9,1l0.1-0.2L97.7,23.7z"/>
<path class="st0" d="M99.2,34.8L98.9,35l0.9,1.9l0.2-0.1L99.2,34.8z"/>
<path class="st0" d="M99.3,26.7l0.5,2.1l0.3-0.1l-0.5-2.1L99.3,26.7z"/>
<path class="st0" d="M100,55.3l-0.2,0.1l0.7,2l0.3-0.1L100,55.3z"/>
<path class="st0" d="M100.5,41.2l-0.3,0l0.3,2.1l0.3,0L100.5,41.2z"/>
<path class="st0" d="M101.1,45.2l-0.3,0l-0.2,2.1l0.3,0L101.1,45.2z"/>
<path class="st0" d="M102.9,30.3l-2.1-0.3l0,0.3l2.1,0.3L102.9,30.3z"/>
<path class="st0" d="M102.1,61.9l-0.3,0.1l0.4,2.1l0.3-0.1L102.1,61.9z"/>
<path class="st0" d="M102.4,50.4l-0.3,0l0.2,2.1l0.3,0L102.4,50.4z"/>
<path class="st0" d="M102.2,33.4l0,0.3l2.1,0.3l0-0.3L102.2,33.4z"/>
<path class="st0" d="M103.5,76.5l-0.6,2l0.3,0.1l0.6-2L103.5,76.5z"/>
<path class="st0" d="M105.5,38l-1.2-1.8l-0.2,0.1l1.2,1.8L105.5,38z"/>
<path class="st0" d="M104.6,40.6l0,0.3l2.1,0.1l0-0.3L104.6,40.6z"/>
<path class="st0" d="M106.4,44.1l-0.2,0.2l1.6,1.4l0.2-0.2L106.4,44.1z"/>
<path class="st0" d="M107.6,49.1l-0.2,0.1l1.1,1.8l0.2-0.1L107.6,49.1z"/>
<path class="st0" d="M108,61.6l-0.3,0l0.2,2.1l0.3,0L108,61.6z"/>
<path class="st0" d="M108.1,54.5l-0.3,0l0.2,2.1l0.3,0L108.1,54.5z"/>
<path class="st0" d="M94.6,65.1H81.1L80.9,65l0,0.1h-3.2l0.3-1.3l-0.3-0.1l-0.3,1.3h-2.9v10.2v0v2.5l-0.1-0.1l-1.3,1.6l0.2,0.2
	l1.2-1.5v8.7h6.7v-5.6h10.5c0.6,0,1.2,0.1,1.7,0.3l-0.1,2h0.3l0.1-1.8c0.5,0.5,0.8,1.2,0.8,2.5v2.6h6.7v-3.7c0-3.6-1.7-4.4-3.6-4.8
	v-0.1c3.1-0.7,3.7-2.4,3.7-5.3v-1.4C101.1,67.6,99.8,65.1,94.6,65.1z M94.7,73.5c0,1.6-0.7,2.3-2.5,2.3h-11v-5.3h10.4
	c2.1,0,3.1,0.4,3.1,2.3L94.7,73.5z"/>
<path class="st0" d="M104.2,86.8H128v-5.2h-17.1v-3.5h16.2v-4.5h-16.2v-3.5H128v-5h-23.8V86.8z"/>
<path class="st0" d="M192.1,86.8h23.8v-5.2h-17.1v-3.5h16.2v-4.5h-16.2v-3.5h17.1v-5h-23.8V86.8z"/>
<path class="st0" d="M141.2,65.1l-11.8,21.6h7.4l1.9-3.8h13.5l2.1,3.8h7.4l-11.9-21.6H141.2z M141.3,78.3l4.2-8.1l4.3,8.1H141.3z"/>
<path class="st0" d="M181.5,65.1l-8.4,8H170v-8h-6.7v21.6h6.7v-8.3h3.1l8.4,8.3h9.1l-11.8-11.1l11.8-10.6H181.5z"/>
<path class="st0" d="M245.6,72.9v-1.4c0-3.9-1.4-6.4-6.5-6.4H219v21.6h6.7v-5.6h10.5c2.1,0,2.7,0.7,2.7,3v2.6h6.7v-3.7
	c0-3.6-1.7-4.4-3.6-4.8v-0.1C245,77.5,245.6,75.8,245.6,72.9z M239.2,73.5c0,1.6-0.7,2.3-2.5,2.3h-11v-5.3h10.4
	c2.1,0,3.1,0.4,3.1,2.3V73.5z"/>
</svg>
