<?xml version="1.0" encoding="utf-8"?>
<!-- Generator: Adobe Illustrator 23.0.0, SVG Export Plug-In . SVG Version: 6.00 Build 0)  -->
<svg version="1.1" id="Layer_1" xmlns="http://www.w3.org/2000/svg" xmlns:xlink="http://www.w3.org/1999/xlink" x="0px" y="0px"
	 viewBox="0 0 100 82.9" style="enable-background:new 0 0 100 82.9;" xml:space="preserve">
<style type="text/css">
	.st0{opacity:0.1;}
	.st1{fill:#FFFFFF;}
</style>
<g class="st0">
	<path class="st1" d="M83.6,78.2l-1.7-6.9l19.3-3.3v-0.1l-19.3,3.3l-4.4-18c0.3,0,0.6-0.2,0.9-0.4l22.8,10.9v-0.2L78.5,52.6
		c0.1-0.2,0.2-0.4,0.2-0.6l22.5-1.1v-0.1l-22.5,1.1c0-0.4-0.1-0.8-0.5-1.1c-0.2-0.2-0.4-0.3-0.6-0.3l7.4-25.1l16.1,16.7v-0.2
		l-16-16.6l2.6-1.6l3.4-2.1l10,16v-0.2l-9.8-15.6l9.8,5.3v-0.2l-9.4-5.1l9.4,2.5v-0.1l-9.3-2.5l9.3,0.5V22l-9.9-0.5l1.9-5.6
		c0.3,0.1,0.6,0,0.8-0.3c0.1-0.1,0.1-0.1,0.1-0.2l7.1,2.5v-0.1l-7-2.5c0.1-0.2,0-0.4-0.1-0.6l7.1-2.3v-0.1l-7.2,2.3
		c0,0-0.1-0.1-0.1-0.1c-0.2-0.2-0.4-0.2-0.7-0.2l-4-14.8h-0.1l4,14.8c-0.1,0-0.2,0.1-0.3,0.2c-0.1,0.1-0.1,0.2-0.2,0.3l-23.6-3.4
		c0.1-0.4-0.1-0.8-0.4-1.1l9.4-10.8h-0.2l-9.3,10.7c-0.6-0.4-1.3-0.4-1.8,0.2c-0.1,0.2-0.2,0.3-0.3,0.5L49.7,6.3
		c0.1-0.2,0.1-0.4,0-0.6L64-0.5h-0.4l-14,6.1c0,0,0-0.1-0.1-0.1l6.5-5.9h-0.2l-6.4,5.9c0,0,0,0,0,0c-0.1-0.1-0.3-0.2-0.4-0.2
		l1.4-5.6h-0.1l-1.4,5.6c-0.2,0-0.4,0.1-0.6,0.3c-0.1,0.1-0.2,0.3-0.2,0.5L24.9,10c0-0.1-0.1-0.2-0.1-0.3L37.7-0.5h-0.2L24.7,9.7
		c0,0,0,0,0-0.1c-0.1-0.1-0.1-0.1-0.2-0.1l4.1-10h-0.2l-4,9.9c-0.3-0.1-0.6,0-0.8,0.3c0,0,0,0,0,0L11.8-0.5h-0.2L23.4,9.8
		c-0.1,0.1-0.1,0.3-0.1,0.4c0,0.2,0.1,0.4,0.3,0.5c0,0,0,0,0.1,0l-11,21.4c-0.1-0.1-0.3-0.1-0.5-0.1c-0.1,0-0.1,0-0.2,0L3-0.5H2.9
		l9,32.7c-0.5,0.1-0.8,0.6-0.8,1.1c0,0.6,0.5,1.1,1.1,1.1c0.5,0,1-0.4,1.1-0.8l22.9,5.4c0,0.4,0.2,0.7,0.5,1c0,0,0,0,0.1,0.1
		l0.1,0.1c0.4,0.2,0.8,0.2,1.2,0.1l5.8,21.3c-0.3,0.2-0.4,0.5-0.4,0.8c0,0.5,0.4,1,1,1c0.4,0,0.7-0.2,0.8-0.5l37.6,16.4
		c-0.1,0.4,0.1,0.9,0.4,1.2c0.2,0.2,0.4,0.3,0.7,0.3H84c0.2,0,0.4,0,0.6-0.1c0.5-0.2,0.8-0.7,0.7-1.3c0-0.1,0-0.3-0.1-0.4l15.9-8.5
		v-0.2l-16,8.6c-0.2-0.3-0.4-0.5-0.8-0.6C84.2,78.1,83.9,78.1,83.6,78.2z M38.1,40.1c0.1-0.1,0.3-0.2,0.4-0.3
		c0.1-0.1,0.2-0.3,0.3-0.5l37.4,12.5c0,0,0,0.1,0,0.1c0,0.1,0,0.3,0.1,0.4l-30.9,9.5c-0.2-0.3-0.5-0.6-0.9-0.6c-0.2,0-0.3,0-0.4,0.1
		L38.1,40.1z M38,37.7l2.4-12c0.2,0,0.4,0,0.5-0.1c0.1,0,0.2-0.1,0.2-0.2l35,25.9c0,0.1,0,0.2-0.1,0.2L38.8,39.2
		c0.1-0.4-0.1-0.9-0.4-1.2C38.3,37.8,38.2,37.7,38,37.7z M37.1,37.6c-0.2,0.1-0.4,0.2-0.6,0.4c-0.2,0.2-0.3,0.5-0.3,0.7l-22.9-5.4
		c0,0,0-0.1,0-0.1c0-0.4-0.2-0.7-0.5-0.9l11-21.4c0.2,0.1,0.3,0.1,0.5,0.1L37.1,37.6z M40,24.5c-0.3,0.3-0.2,0.8,0.1,1.1
		c0.1,0.1,0.1,0.1,0.2,0.1l-2.4,11.9c-0.2-0.1-0.5-0.1-0.7,0L24.4,10.9c0.1,0,0.1-0.1,0.2-0.1L40,24.5z M48.5,6.6L41,24.3
		c0,0-0.1-0.1-0.1-0.1c-0.3-0.1-0.6,0-0.8,0.2L24.7,10.8c0,0,0,0,0,0c0.1-0.2,0.2-0.4,0.2-0.5L48.2,6C48.2,6.2,48.3,6.4,48.5,6.6
		C48.5,6.5,48.5,6.5,48.5,6.6z M66.5,11.8L41.3,24.6c-0.1-0.1-0.1-0.2-0.2-0.2l7.5-17.7c0.3,0.2,0.7,0.1,1-0.2c0,0,0,0,0-0.1
		L66.4,11C66.4,11.3,66.4,11.5,66.5,11.8z M67.9,12.5l8.9,38.1c-0.1,0.1-0.3,0.2-0.4,0.3c-0.1,0.1-0.1,0.2-0.2,0.3l-35-25.9
		c0.1-0.1,0.1-0.3,0.1-0.5c0-0.1,0-0.1,0-0.2l25.3-12.8c0.1,0.1,0.2,0.2,0.3,0.3C67.2,12.5,67.6,12.6,67.9,12.5z M85.1,25.2
		L68.8,12.1c0.1-0.2,0.2-0.3,0.3-0.5L92.7,15c0,0.1,0,0.1,0,0.2c0,0.2,0.1,0.4,0.3,0.5c0.1,0.1,0.1,0.1,0.2,0.1l-1.9,5.7L85.1,25.2z
		 M76.9,50.6L68,12.5c0.2-0.1,0.5-0.2,0.6-0.4L85,25.3l-7.4,25.2C77.4,50.5,77.1,50.5,76.9,50.6z M81.8,71.2l-0.2,0l-36.2-8.7
		c0-0.1,0-0.2,0-0.2c0-0.1,0-0.2,0-0.3l30.9-9.6c0.1,0.1,0.2,0.3,0.3,0.4c0.2,0.2,0.5,0.3,0.8,0.3L81.8,71.2z M83.5,78.3
		c-0.2,0.1-0.3,0.2-0.4,0.3c-0.1,0.2-0.2,0.3-0.3,0.5L45.3,62.7c0,0,0,0,0-0.1l36.2,8.7h0c0,0,0,0,0,0l0.2,0L83.5,78.3z"/>
	<polygon class="st1" points="96.6,-0.5 101.2,4 101.2,4.2 96.4,-0.5 	"/>
</g>
</svg>
