<?xml version="1.0" encoding="utf-8"?>
<!-- Generator: Adobe Illustrator 23.0.0, SVG Export Plug-In . SVG Version: 6.00 Build 0)  -->
<svg version="1.1" id="Layer_1" xmlns="http://www.w3.org/2000/svg" xmlns:xlink="http://www.w3.org/1999/xlink" x="0px" y="0px"
	 viewBox="0 0 1920 912" style="enable-background:new 0 0 1920 912;" xml:space="preserve">
<style type="text/css">
	.st0{fill:#CAC9D5;}
</style>
<g>
	<g>
		<polygon class="st0" points="36.2,913.1 0.1,838.6 0.1,840.8 35.2,913.1 		"/>
		<polygon class="st0" points="0.1,836.5 77.9,913.1 79.3,913.1 0.1,835.1 		"/>
		<path class="st0" d="M813.4,764.8c-0.1,0-0.1-0.1-0.2-0.1s-0.3,0-0.4,0c-0.1,0.1-0.2,0.2-0.2,0.3l-45.1,148.1h1.1l45-147.7
			c0.1-0.1,0-0.3,0-0.4C813.5,764.9,813.5,764.8,813.4,764.8z"/>
		<path class="st0" d="M0.1,420.8l146.4-78.6c1.1,2.1,3,3.7,5.3,4.5c2.1,0.7,4.2,0.6,6.2-0.1l11.8,48.8L0.1,424.7v1L170,396.4
			l30.8,126.9c-2.3,0.2-4.5,1.2-6.2,2.9L0,433.2v1.1L194,527c-0.9,1.2-1.5,2.5-1.7,3.9L0.1,540v1l192.1-9.1
			c-0.2,2.9,0.8,5.8,3.2,7.8c1.2,1.1,2.6,1.7,4.1,2.1l-52.3,177L0.1,565.8v1.5l146.5,152.3l-18.2,11.2l-24.1,14.8L0.1,579.1v1.7
			l102.7,164L0.1,689.1v1.2l100.2,54.3L0.1,717.9v1l99.5,26.5l-99.5-5v0.9l103.4,5.3l-13.4,39.7c-2-0.5-4.1,0.1-5.5,1.8
			c-0.3,0.4-0.6,0.8-0.8,1.2L0.1,760.1v1l83.3,29.1c-0.4,1.4-0.3,2.9,0.4,4.2L0.1,821.2v1l84.2-27c0.2,0.3,0.5,0.6,0.8,0.8
			c1.3,1.1,3,1.5,4.6,1.3l31.4,115.8h1L90.7,797c0.9-0.3,1.7-0.8,2.3-1.6c0.5-0.6,0.9-1.4,1.1-2.1l166.5,24.1
			c-0.4,2.9,0.5,5.9,2.8,8.1L187,913.1h1.3l75.9-86.9c3.9,3,9.5,2.5,12.8-1.3c1-1.1,1.6-2.4,2-3.7l118.1,32.6
			c-0.6,1.3-0.7,2.7-0.3,4.1l-127.4,55.2h2.5l125.4-54.3c0.1,0.3,0.3,0.5,0.5,0.8l-58.6,53.5h1.3l57.9-52.8c0.1,0,0.1,0.1,0.1,0.2
			c0.8,0.7,1.8,1.2,2.9,1.3l-13,51.4h1l13.1-51.3c1.5-0.1,2.9-0.7,4-1.9c0.8-1,1.3-2.2,1.3-3.4L572,827.4c0.1,0.7,0.4,1.4,0.8,2
			l-105.7,83.7h1.5l104.8-83.2c0.1,0.1,0.2,0.3,0.4,0.4c0.5,0.4,1,0.7,1.5,0.9L542,913.1h1.1l33.1-81.6c1.9,0.4,4-0.2,5.4-1.8
			c0.1-0.1,0.1-0.2,0.2-0.3l95.9,83.7h1.5l-96.8-84.4c0.5-0.9,0.7-1.9,0.6-3c-0.1-1.5-0.8-2.9-1.9-3.8c-0.1-0.1-0.3-0.2-0.4-0.3
			L661,665.2l68.3,247.9h1l-68.7-249.3l-0.1-0.1l-0.1-0.1l0,0l0,0l0,0l0,0c0,0,0,0-0.1,0h-0.1l-168.7-39.8c0-2.6-1.1-5.2-3.2-7
			c-0.2-0.1-0.3-0.3-0.5-0.4l41.2-82.6c0.1-0.2,0-0.5-0.2-0.7c-0.2-0.1-0.5,0-0.7,0.2l-41.2,82.5c-2.6-1.6-5.7-1.7-8.4-0.6
			l-42.8-156.3h-0.1c0-0.1-0.1-0.1-0.2-0.2h-0.1L163.8,339.8c0.6-3.1-0.5-6.5-3-8.7c-1.4-1.2-3.1-2-4.9-2.2L146.7,191
			c0-0.3-0.3-0.5-0.5-0.4c-0.3,0-0.5,0.2-0.4,0.5l9.2,137.8c-1.5,0-3,0.3-4.4,1c-3.4,1.7-5.4,5.2-5.2,9c0.1,1,0.3,2,0.7,2.9
			l-146,78.3L0.1,420.8L0.1,420.8z M260.8,816.6L94.3,792.5c0-0.4,0.1-0.7,0-1.1c-0.1-1.5-0.8-2.9-1.9-3.8c-0.4-0.4-0.9-0.7-1.4-0.9
			l13.5-40.1l42.8-26.4l115.3,92.7C261.7,814.1,261.1,815.3,260.8,816.6z M263.3,812.2l-115.4-92.7l52.5-177.7
			c1.6,0.2,3.2,0,4.7-0.7l62.7,268.6C266.1,810.1,264.5,810.9,263.3,812.2z M276,811.7c-2.1-1.8-4.7-2.5-7.3-2.2l-62.8-268.8
			c0.9-0.5,1.8-1.2,2.6-2.1c0.6-0.7,1.1-1.4,1.4-2.3l246.7,182.8c-0.6,1-0.9,2.1-0.8,3.3c0,0.4,0.1,0.9,0.3,1.3L278,814.1
			C277.4,813.2,276.8,812.4,276,811.7z M398,852.5c-0.1,0.1-0.2,0.3-0.3,0.5l-118.6-32.7c0.3-1.8,0.1-3.8-0.7-5.5l178-90.3
			c0.3,0.6,0.8,1.2,1.4,1.7l-53,125C402.5,850.1,399.7,850.5,398,852.5z M573.2,822.4c-0.9,1.1-1.4,2.4-1.4,3.8l-164.1,29.2
			c-0.2-1.3-0.8-2.6-1.9-3.5c-0.1-0.1-0.2-0.1-0.3-0.2l53-124.9c0.3,0.2,0.7,0.3,1,0.5c2,0.6,4.1,0.1,5.6-1.3l108.2,96.2
			C573.4,822.2,573.3,822.3,573.2,822.4z M490.2,629.8c1.3-1.5,2-3.3,2.2-5.2l167.9,39.6l-80.4,156.9c-1.2-0.6-2.5-0.7-3.7-0.4
			l-90.1-188.1C487.6,632,489.1,631.1,490.2,629.8z M480.3,632.5c1.6,0.5,3.3,0.6,4.9,0.2l90.1,188.2c-0.4,0.2-0.8,0.4-1.1,0.6
			l-108.4-96.2c1.7-2.3,1.4-5.6-0.8-7.6c-0.5-0.4-1-0.7-1.5-0.9L480.3,632.5z M462.6,716.5c-1.2-0.3-2.6-0.1-3.7,0.5
			c-0.7,0.3-1.2,0.8-1.7,1.3L210.4,535.5c0.2-0.5,0.3-1.1,0.4-1.7L474,621.9c-0.6,3.2,0.4,6.6,3,8.8c0.7,0.6,1.5,1.1,2.4,1.5
			L462.6,716.5z M478.7,615.4c-1,0.5-1.9,1.2-2.6,2.1c-0.9,1-1.5,2.2-1.9,3.4l-263.4-88.1c0-0.3,0-0.6,0-0.9c-0.1-1-0.3-1.9-0.6-2.8
			L436,459.4L478.7,615.4z M209.8,528.2c-0.5-1-1.3-1.9-2.1-2.7c-1.7-1.5-3.7-2.2-5.8-2.3l-30.9-127l1.4-0.2l262.1,62.9L209.8,528.2
			z M161.8,344c0.9-1.1,1.6-2.3,1.9-3.6L431.1,457l-258.6-62.1h-0.1c-0.1,0-0.1,0-0.1,0l0,0l-1.6,0.3l-11.9-49
			C160,345.7,161,344.9,161.8,344z"/>
	</g>
</g>
<g>
	<g>
		<path class="st0" d="M1803.4,341.1c-1.4-0.7-2.9-1-4.4-1l9.2-137.8c0-0.3-0.2-0.5-0.4-0.5c-0.3,0-0.5,0.2-0.5,0.4l-9.2,137.9
			c-1.8,0.2-3.5,1-4.9,2.2c-2.6,2.2-3.6,5.6-3,8.7l-272.7,119.1h-0.1c-0.1,0-0.2,0.1-0.2,0.2h-0.1l-42.8,156.3
			c-2.7-1.1-5.8-1-8.4,0.6l-41.1-82.5c-0.1-0.2-0.4-0.3-0.7-0.2c-0.2,0.1-0.3,0.4-0.2,0.7l41.2,82.6c-0.2,0.1-0.3,0.3-0.5,0.4
			c-2.1,1.8-3.2,4.4-3.2,7L1292.7,675h-0.1c0,0,0,0-0.1,0l0,0l0,0l0,0l0,0l-0.1,0.1l-0.1,0.1l-65.5,237.9h1l65.1-236.3l80.3,156.4
			c-0.1,0.1-0.3,0.2-0.4,0.3c-1.1,1-1.8,2.4-1.9,3.8c-0.1,1,0.2,2.1,0.6,3l-83.5,72.8h1.5l82.6-72c0.1,0.1,0.1,0.2,0.2,0.3
			c1.4,1.6,3.5,2.2,5.4,1.8l28.4,69.9h1.1l-28.6-70.3c0.5-0.2,1.1-0.5,1.5-0.9c0.1-0.1,0.2-0.2,0.3-0.4l90.3,71.6h1.5l-91.1-72.3
			c0.4-0.6,0.7-1.3,0.8-2l164.3,29.2c0.1,1.3,0.5,2.5,1.3,3.4c1.1,1.2,2.5,1.8,4,1.9l10.1,39.8h1l-10.1-39.8c1-0.1,2-0.6,2.9-1.3
			c0.1,0,0.1-0.1,0.1-0.2l45.2,41.3h1.4l-45.9-41.9c0.2-0.2,0.3-0.5,0.5-0.8l98.6,42.7h2.5l-100.7-43.6c0.4-1.3,0.3-2.8-0.3-4.1
			l118.2-32.6c0.4,1.3,1,2.6,2,3.7c3.3,3.8,8.9,4.3,12.8,1.3l65.7,75.3h1.3l-66.3-76c2.3-2.2,3.2-5.2,2.8-8.1l166.5-24.1
			c0.2,0.8,0.6,1.5,1.1,2.1c0.6,0.7,1.5,1.3,2.3,1.6L1835,913.1h1l28.2-104.2c1.6,0.3,3.3-0.1,4.6-1.3c0.3-0.2,0.5-0.5,0.8-0.8
			l50.5,16.2v-1l-50-16c0.7-1.3,0.8-2.8,0.4-4.2l49.6-17.3v-1l-49.9,17.4c-0.2-0.4-0.4-0.8-0.8-1.2c-1.4-1.6-3.6-2.2-5.5-1.8
			l-13.4-39.7l69.6-3.5v-0.9l-65.7,3.3l65.7-17.5v-1l-66.4,17.7l66.4-36v-1.2l-68.9,37.4l68.9-110.2v-1.7l-70.4,112.5l-24.1-14.8
			l-18.2-11.2L1920.1,614v-1.5l-113.3,117.8l-52.3-177c1.5-0.3,2.9-1,4.1-2.1c2.3-2,3.4-5,3.2-7.8l158.3,7.5v-1l-158.5-7.5
			c-0.3-1.4-0.8-2.7-1.7-3.9l160.2-76.5v-1.1l-160.9,76.9c-1.7-1.8-3.9-2.8-6.2-2.9l30.8-126.9l136.3,23.4v-1l-136-23.4l11.8-48.8
			c2,0.7,4.1,0.8,6.2,0.1c2.3-0.8,4.2-2.4,5.3-4.5l112.7,60.5v-1.1L1807.8,353c0.4-0.9,0.6-1.9,0.7-2.9
			C1808.8,346.3,1806.8,342.8,1803.4,341.1z M1517.9,471l225.8,69.7c-0.4,0.9-0.6,1.8-0.6,2.8c0,0.3,0,0.6,0,0.9l-263.4,88.1
			c-0.4-1.2-1-2.4-1.9-3.4c-0.8-0.9-1.7-1.6-2.6-2.1L1517.9,471z M1476.9,642.3c2.6-2.3,3.6-5.7,3-8.8l263.2-88.1
			c0.1,0.6,0.2,1.1,0.4,1.7l-246.8,182.8c-0.5-0.5-1-1-1.7-1.3c-1.2-0.6-2.5-0.7-3.7-0.5l-16.8-84.3
			C1475.4,643.4,1476.2,642.9,1476.9,642.3z M1374.1,832.7l-80.5-156.8l167.9-39.6c0.2,1.8,0.9,3.7,2.2,5.2c1.1,1.3,2.6,2.2,4.1,2.7
			l-90.1,188.1C1376.5,832,1375.2,832.1,1374.1,832.7z M1379.7,833.1c-0.4-0.2-0.7-0.4-1.1-0.6l90.1-188.2c1.6,0.4,3.3,0.3,4.9-0.2
			l16.8,84.2c-0.5,0.2-1.1,0.5-1.5,0.9c-2.2,1.9-2.6,5.2-0.8,7.6L1379.7,833.1z M1548.1,863.5c-1,0.9-1.7,2.1-1.9,3.5l-164.1-29.2
			c0-1.3-0.4-2.7-1.3-3.8c-0.1-0.1-0.2-0.2-0.3-0.3l108.2-96.1c1.5,1.4,3.6,1.9,5.6,1.3c0.4-0.1,0.7-0.3,1-0.5l53,124.9
			C1548.3,863.4,1548.2,863.5,1548.1,863.5z M1674.8,831.9l-118.5,32.7c-0.1-0.2-0.2-0.3-0.3-0.5c-1.7-2-4.5-2.5-6.8-1.3l-53-125
			c0.6-0.5,1-1,1.4-1.7l178,90.3C1674.8,828.2,1674.5,830.1,1674.8,831.9z M1677.9,823.3c-0.8,0.7-1.4,1.4-1.9,2.3l-178.1-90.4
			c0.1-0.4,0.2-0.8,0.3-1.3c0.1-1.2-0.2-2.3-0.8-3.3L1743.9,548c0.4,0.8,0.9,1.6,1.4,2.3c0.7,0.9,1.6,1.5,2.6,2.1l-62.7,268.7
			C1682.7,820.8,1680,821.5,1677.9,823.3z M1849.5,758.2l13.5,40.1c-0.5,0.2-1,0.5-1.4,0.9c-1.1,1-1.8,2.4-1.9,3.8
			c0,0.4,0,0.7,0,1.1l-166.6,24.1c-0.3-1.3-0.9-2.6-1.8-3.7l115.3-92.7L1849.5,758.2z M1753.5,553.4l52.5,177.7l-115.4,92.7
			c-1.3-1.3-2.8-2.1-4.5-2.5l62.7-268.5C1750.3,553.4,1751.9,553.6,1753.5,553.4z M1752.1,534.8c-2.1,0.1-4.1,0.8-5.8,2.3
			c-0.9,0.8-1.6,1.7-2.1,2.7l-224.8-69.4l262.2-62.9l1.4,0.2L1752.1,534.8z M1783.1,406.8l-1.6-0.3l0,0c0,0,0,0-0.1,0h-0.1
			l-258.6,62.1L1790.2,352c0.4,1.3,1,2.5,1.9,3.6c0.8,0.9,1.8,1.7,2.9,2.2L1783.1,406.8z"/>
		<path class="st0" d="M1141.3,776.6c0-0.1-0.1-0.2-0.2-0.3c-0.1-0.1-0.2-0.1-0.4,0c-0.1,0-0.1,0-0.2,0.1c-0.1,0-0.1,0.1-0.2,0.2
			c-0.1,0.1-0.1,0.3,0,0.4l41.5,136.1h1.1L1141.3,776.6z"/>
		<polygon class="st0" points="1887.8,913.1 1920.1,881.3 1920.1,879.9 1886.4,913.1 		"/>
	</g>
</g>
</svg>
