<svg width="1170" height="900" viewBox="0 0 1170 900" fill="none" xmlns="http://www.w3.org/2000/svg">
<g opacity="0.556548">
<g opacity="0.31">
<path opacity="0.4" fill-rule="evenodd" clip-rule="evenodd" d="M1854.66 -348.801C1854.71 -348.801 1854.77 -348.792 1854.82 -348.773C1854.98 -348.75 1855.13 -348.654 1855.21 -348.513C1855.29 -348.372 1855.3 -348.202 1855.25 -348.05L1783.9 -113.907L1785.45 -112.564C1785.62 -112.418 1785.68 -112.182 1785.6 -111.972L1785.47 -111.82C1785.37 -111.709 1785.23 -111.643 1785.08 -111.635L1783.15 -111.548L1782.64 -109.887C1782.61 -109.82 1782.56 -109.762 1782.5 -109.718C1782.36 -109.557 1782.14 -109.492 1781.94 -109.552C1781.65 -109.643 1781.49 -109.946 1781.58 -110.232L1781.97 -111.536L1519.5 -99.7876L1632.73 87.5748C1632.83 87.749 1632.83 87.9641 1632.73 88.1353C1632.7 88.1728 1632.68 88.2069 1632.64 88.2372C1632.62 88.2607 1632.6 88.2818 1632.57 88.3003C1632.47 88.3673 1632.35 88.4018 1632.23 88.395L1394.35 71.8301L1401.07 163.132L1536.19 221.156C1536.46 221.273 1536.59 221.587 1536.47 221.857C1536.44 221.906 1536.4 221.949 1536.36 221.984C1536.21 222.159 1535.96 222.217 1535.74 222.13L1401.12 164.389L1413.9 337.938C1413.9 338.026 1413.88 338.113 1413.85 338.195L1393.82 385.995L1392.82 385.573L1412.67 338.143L1182.61 184.375L1393.79 380.565C1393.99 380.733 1394.03 381.011 1393.91 381.232C1393.78 381.454 1393.52 381.557 1393.28 381.481L1153.44 314.431L1270.71 511.968C1270.85 512.197 1270.79 512.495 1270.58 512.659C1270.38 512.827 1270.08 512.821 1269.88 512.644L1122.61 380.92L1089.47 373.249L1122.93 520.582L1275.19 514.755C1275.48 514.74 1275.74 514.96 1275.76 515.254C1275.77 515.391 1275.72 515.526 1275.63 515.628C1275.54 515.741 1275.4 515.808 1275.25 515.813L1123.16 521.668L1159.41 645.662C1159.44 645.754 1159.44 645.854 1159.41 645.947L1159.38 645.989C1159.34 646.04 1159.3 646.086 1159.26 646.125L1159.21 646.175L1159.16 646.234L942.107 762.561L988.247 850.113C988.352 850.31 988.325 850.552 988.178 850.72C988.145 850.775 988.103 850.823 988.053 850.864L808.402 947.756L808.314 947.754C808.26 947.781 808.203 947.801 808.144 947.814L808.093 947.77L808.043 947.726C808.016 947.711 807.993 947.691 807.975 947.667C807.905 947.636 807.847 947.585 807.806 947.52C807.783 947.508 807.763 947.49 807.747 947.469L711.98 739.364L715.565 883.373C715.571 883.496 715.537 883.617 715.47 883.72C715.37 883.834 715.23 883.904 715.079 883.914C714.781 883.928 714.525 883.705 714.497 883.408L710.883 737.847L617.613 798.891C617.459 798.988 617.268 799.004 617.1 798.935C616.931 798.865 616.811 798.711 616.787 798.529L573.586 546.524L422.673 629.774C422.508 629.865 422.307 629.864 422.142 629.772C421.976 629.679 421.873 629.505 421.872 629.315L420.223 495.526L261.705 459.033C261.662 459.002 261.623 458.968 261.587 458.93L261.536 458.886L49.6727 299.912C49.619 299.844 49.5739 299.77 49.5384 299.692C49.5571 299.619 49.5064 299.575 49.5064 299.575C49.5039 299.462 49.5378 299.351 49.6033 299.259C49.6859 299.16 49.804 299.098 49.9321 299.085L279.794 243.943L219.967 49.2353C219.949 49.1434 219.95 49.0488 219.971 48.9575L220.015 48.9069L220.081 48.8309C220.125 48.7469 220.188 48.6746 220.265 48.6199L220.309 48.5692L220.346 48.527L488.64 14.4327L347.658 -121.831L347.599 -121.882L347.532 -121.941C347.488 -122.028 347.47 -122.126 347.48 -122.223C347.526 -122.327 347.603 -122.416 347.7 -122.476L347.752 -122.535C347.8 -122.569 347.855 -122.592 347.914 -122.602L514.761 -145.046L761.629 -165.47L540.894 -325.575L514.894 -148.932C514.877 -148.831 514.831 -148.737 514.762 -148.661C514.686 -148.564 514.573 -148.501 514.449 -148.489C514.217 -148.442 513.983 -148.56 513.882 -148.774L466.853 -241.116C466.766 -241.287 466.777 -241.492 466.881 -241.652C466.986 -241.813 467.168 -241.906 467.36 -241.896C467.551 -241.886 467.723 -241.774 467.81 -241.603L514.076 -150.77L539.862 -326.28L539.935 -326.364C539.838 -326.517 539.831 -326.71 539.916 -326.87C540.037 -327.111 540.323 -327.218 540.572 -327.114L763.575 -240.776L583.64 -375.789C583.409 -375.963 583.359 -376.289 583.525 -376.526L658.036 -485.818C658.099 -485.899 658.186 -485.958 658.286 -485.986C658.346 -486.022 658.389 -485.985 658.389 -485.985C658.445 -486.002 658.503 -486.012 658.561 -486.013L817.324 -452.376L743.007 -554.669C742.98 -554.723 742.96 -554.781 742.947 -554.84L742.905 -554.876C742.888 -554.97 742.895 -555.066 742.925 -555.155L742.977 -555.214C743.049 -555.314 743.153 -555.385 743.272 -555.417L917.355 -598.783L823.97 -682.926C823.756 -683.128 823.739 -683.463 823.933 -683.685C824.133 -683.906 824.473 -683.926 824.699 -683.73L918.042 -599.624L930.055 -726.235L930.058 -726.243L930.06 -726.247C930.062 -726.25 930.063 -726.254 930.065 -726.257L930.069 -726.263C930.075 -726.271 930.082 -726.278 930.09 -726.284L930.098 -726.289L930.106 -726.294L930.15 -726.344C930.179 -726.402 930.222 -726.452 930.275 -726.488L930.327 -726.547L1119.21 -827.907L1108.31 -990.725C1108.29 -991.022 1108.51 -991.279 1108.81 -991.299C1109.11 -991.32 1109.36 -991.097 1109.38 -990.8L1120.28 -827.958L1433.42 -691.319L1433.48 -691.268C1433.58 -691.221 1433.66 -691.15 1433.72 -691.062L1433.78 -691.011L1484.31 -506.365L1591.81 -281.812L1683.88 -461.152L1487.76 -507.446C1487.6 -507.489 1487.47 -507.602 1487.4 -507.754C1487.33 -507.905 1487.33 -508.079 1487.4 -508.23L1537.07 -607.799C1537.21 -608.06 1537.53 -608.166 1537.8 -608.041C1538.06 -607.904 1538.17 -607.58 1538.04 -607.312L1488.68 -508.351L1684.81 -462.058L1684.87 -462.007C1684.95 -461.966 1685.02 -461.906 1685.07 -461.831L1685.16 -461.757L1685.22 -461.699L1780.18 -117.143L1782.92 -114.758L1854.15 -348.425C1854.19 -348.562 1854.29 -348.677 1854.41 -348.742C1854.46 -348.768 1854.51 -348.785 1854.57 -348.794C1854.6 -348.799 1854.63 -348.801 1854.66 -348.801ZM1778.71 -118.436L1684.58 -460.068L1592.54 -280.817L1778.71 -118.436ZM1590.24 -282.844L1462.45 -396.301L1484.1 -504.605L1590.24 -282.844ZM1175.57 -608.87L1461.5 -397.043L1483.25 -505.925L1175.57 -608.87ZM1357.42 -95.374L1132.79 -6.24377L1395.45 -246.14L1395.34 -246.014C1395.26 -245.834 1395.29 -245.622 1395.42 -245.472C1395.44 -245.446 1395.47 -245.424 1395.5 -245.406L1357.42 -95.374ZM1517.49 -99.6705L1358.51 -94.42L1394.01 69.9909L1517.49 -99.6705ZM985.312 580.702L860.217 561.984L821.574 543.599L877.667 360.449L985.905 578.297L985.312 580.702ZM987.235 580.995L986.644 579.8L986.377 580.857L987.235 580.995ZM398.664 361.711L549.763 352.968L421.135 493.947L398.664 361.711ZM396.172 360.775L397.396 360.697L397.273 359.969L396.172 360.775ZM398.485 360.637L398.243 359.211L495.207 262.397L550.096 351.834L398.485 360.637ZM879.707 -420.794L888.714 -462.66L871.643 -471.987L879.707 -420.794ZM871.538 -473.145L916.385 -591.445L888.976 -463.796L871.538 -473.145ZM1057.4 -371.117L889.666 -462.085L880.288 -418.273L1057.4 -371.117ZM1110 -398.458L1245.67 -289.413L1047.51 -318.113L1045.23 -318.897L1062.08 -368.972L1110 -398.458ZM921.673 -594.17L1061.87 -370.154L1088.83 -386.732L1109.18 -399.233L921.673 -594.17ZM1110.66 -399.312L1172.42 -608.27L1246.7 -290.017L1110.66 -399.312ZM912.611 152.037L912.552 151.986L912.509 151.949L729.312 -102.159L871.196 179.768L914.593 157.258L917.387 156.056L912.611 152.037ZM1001.88 333.537L888.636 355.741L877.982 357.922L862.097 249.152L871.287 182.322L924.903 296.649C924.961 296.743 925.046 296.818 925.148 296.862L1001.88 333.537ZM858.901 562.56L821.225 544.63L803.004 595.102L858.901 562.56ZM801.75 595.419L753.577 557.071L820.072 544.576L801.75 595.419ZM752.111 556.404C752.146 556.342 752.193 556.287 752.251 556.244L820.248 543.469L776.603 382.008L751.973 556.121C751.961 556.204 751.928 556.282 751.878 556.349L715.76 600.66L717.184 604.136L800.667 595.915L752.057 557.217C752.007 557.173 751.972 557.128 751.966 557.049C751.961 556.97 751.868 556.889 751.868 556.889C751.872 556.817 751.888 556.746 751.917 556.68C751.918 556.66 751.92 556.64 751.924 556.62C751.932 556.574 751.946 556.529 751.966 556.486C752.008 556.448 752.058 556.42 752.111 556.404ZM717.606 605.185L801.205 596.932L760.908 711.362L717.606 605.185ZM715.616 603.144L715.577 604.296L716.108 604.283L715.616 603.144ZM623.161 342.012L598.324 282.938L647.754 248.835L803.879 264.366L623.161 342.012ZM776.066 378.636L805.222 264.97L624.58 342.578L776.066 378.636ZM622.102 342.292L551.295 351.735L549.21 348.337L597.522 283.827L622.102 342.292ZM775.855 379.697L622.845 343.278L552.138 352.69L751.058 554.837L775.855 379.697ZM777.131 379.695L876.904 359.282L820.995 541.895L777.131 379.695ZM806.257 265.262L777.196 378.58L876.343 358.29L806.257 265.262ZM806.923 264.359L861.043 249.837L876.737 357.002L806.923 264.359ZM861.109 248.175L870.38 180.808L653.336 81.9221L861.109 248.175ZM650.311 79.3668L725.809 -106.687L869.795 179.35L650.311 79.3668ZM914.28 158.675L871.683 180.725L924.63 293.536L914.28 158.675ZM918.661 152.85L921.49 153.16L920.007 154.968L919.268 155.29L918.661 152.85ZM914.619 152.404L918.207 155.419L917.541 152.707L914.619 152.404ZM922.782 153.276L923.685 153.379L922.176 154.024L922.782 153.276ZM841.851 -158.637L918.409 151.727L922.266 152.13L1063.08 -20.0841L841.851 -158.637ZM836.047 -163.519L834.977 -164.197L837.42 -164.178L836.047 -163.519ZM840.118 -160.973L839.387 -163.951L837.108 -162.864L840.118 -160.973ZM841.436 -160.154L840.482 -164.051L1008.25 -133.882L1062.58 -21.6744L841.436 -160.154ZM1009.51 -133.654L1063.76 -21.6141L1097.95 -117.754L1009.51 -133.654ZM1098.67 -116.338L1129.51 -5.37956L1064.6 -20.6025L1098.67 -116.338ZM943.207 -270.545L1008.98 -134.813L1097.09 -118.994L943.207 -270.545ZM941.854 -273.455L937.712 -282.005L1044.51 -316.215L1097.66 -119.93L941.854 -273.455ZM1007.66 -135.086L940.934 -272.772L934.668 -279.049L840.797 -165.096L1007.66 -135.086ZM1065.47 -19.2681L1129.78 -4.19355L1138.21 59.7628L1065.47 -19.2681ZM1200.61 16.6962L1130.91 -3.87634L1139.38 60.4418L1200.61 16.6962ZM1099.39 -117.823L1392.45 -244.78L1130.55 -5.5713L1099.39 -117.823ZM1047.48 -317.16L1045.57 -316.542L1099.01 -119.295L1246.56 -288.358L1047.48 -317.16ZM1045.28 -317.592L1045.19 -317.919L1045.73 -317.735L1045.28 -317.592ZM875.048 -378.423L1044.23 -319.398L1060.97 -368.973L875.048 -378.423ZM1056.61 -370.293L872.018 -379.575L880.075 -417.228L1056.61 -370.293ZM1044.25 -317.29L1043.97 -318.349L872.61 -378.141L935.014 -280.231L939.568 -275.753L936.474 -282.133C936.404 -282.274 936.401 -282.44 936.467 -282.584C936.53 -282.723 936.65 -282.829 936.795 -282.877L1044.25 -317.29ZM933.739 -280.197L768.374 -239.717L871.289 -378.207L933.739 -280.197ZM839.753 -165.514L933.145 -278.95L768.093 -238.524L839.753 -165.514ZM838.503 -165.252L763.694 -165.646L767.538 -237.613L838.503 -165.252ZM917.243 151.618L840.534 -159.44L835.928 -162.274L729.231 -111.374C729.223 -111.276 729.191 -111.182 729.14 -111.098C729.053 -110.999 728.934 -110.934 728.804 -110.916L728.23 -110.836L726.375 -108.003L913.185 151.172L917.243 151.618ZM725.487 -108.567L718.93 -109.702L726.877 -110.694L725.487 -108.567ZM490.764 13.8481L724.08 -107.715L715.259 -109.247L526.512 -85.5797L490.764 13.8481ZM724.697 -106.823L649.313 78.9292L491.076 14.9045L724.697 -106.823ZM806.271 263.422L860.376 248.916L653.703 83.5456L806.271 263.422ZM804.745 263.37L648.17 247.759L650.138 81.0835L804.745 263.37ZM500.081 256.704L646.656 247.762L490.402 16.8387L500.081 256.704ZM645.695 248.868L597.507 282.139L496.365 261.166L499.76 257.773L645.695 248.868ZM548.576 347.326L596.692 283.076L496.388 262.283L548.576 347.326ZM750.688 555.997L714.671 600.173L714.627 600.224C714.571 600.298 714.536 600.385 714.526 600.477L714.415 604.338L711.045 604.669L574.488 545.248L551.734 353.821L750.688 555.997ZM760.259 712.62L716.437 605.251L715.559 605.392L711.976 736.011L760.259 712.62ZM802.079 597.513L881.048 725.09L761.67 712.395L802.079 597.513ZM859.615 563.358L802.694 596.447L881.209 723.303L859.615 563.358ZM860.636 563.104L985.001 581.707L983.805 586.595L882.389 724.315L860.636 563.104ZM987.164 582.031L986.075 581.869L985.469 584.322L987.164 582.031ZM986.987 578.127L988.078 573.666L987.715 579.59L986.987 578.127ZM878.119 358.975L986.24 576.633L987.771 570.627C987.844 570.377 988.089 570.218 988.348 570.254L1002.88 334.466L888.758 356.795L878.119 358.975ZM925.909 296.071L915.508 160.484L1002.36 332.623L925.909 296.071ZM918.237 156.868L915.473 158.053L1003.84 333.178L1107.78 316.373L918.237 156.868ZM919.851 156.819L920.694 155.848L925.875 153.622L1176.48 180.626L1108.86 315.893L919.851 156.819ZM1090 370.564L1150.77 314.173L1109.46 317.223L1090 370.564ZM923.583 152.252L1063.93 -19.4219L1138.06 61.1364L925.709 152.5L923.583 152.252ZM1386.32 71.4568L1139.71 61.917L1177.49 178.97L1178.66 178.88L1391.65 71.678L1388.28 71.5492L1388.17 71.6758C1388.04 71.8364 1387.82 71.9015 1387.61 71.8418L1386.32 71.4568ZM1140.59 60.904L1201.9 17.0423L1382.11 70.229L1140.59 60.904ZM1353.94 -92.8551L1131.91 -4.73092L1201.73 15.8727L1353.94 -92.8551ZM1396.64 -245.343L1589.85 -279.764L1358.77 -96.4201L1396.64 -245.343ZM1395.64 -246.795L1395.66 -246.63L1395.96 -247.326L1247.81 -288.151L1100.71 -119.596L1394.91 -247.07C1394.94 -247.087 1394.97 -247.09 1394.99 -247.087C1395.02 -247.081 1395.04 -247.063 1395.04 -247.063C1395.1 -247.081 1395.17 -247.083 1395.24 -247.069C1395.3 -247.054 1395.36 -247.026 1395.42 -246.986L1395.5 -246.913L1395.56 -246.861L1395.64 -246.795ZM1249.06 -288.857L1458.68 -395.213L1396.35 -248.28L1249.06 -288.857ZM1173.35 -609.151L1247.96 -289.502L1459.51 -396.848C1459.52 -396.856 1459.54 -396.863 1459.55 -396.869C1459.58 -396.877 1459.6 -396.884 1459.62 -396.888C1459.7 -396.905 1459.78 -396.903 1459.86 -396.881L1173.35 -609.151ZM1483.08 -507.126L1174.24 -610.442L1432.95 -690.295L1483.08 -507.126ZM1136.5 -761.003L1172.89 -611.156L1431.29 -690.9L1138.07 -761.28L1136.5 -761.003ZM1427.49 -692.918L1138.21 -762.352L1138.1 -762.337C1138.08 -762.333 1138.07 -762.334 1138.05 -762.337C1138.03 -762.345 1138.03 -762.364 1138.03 -762.38C1138.03 -762.39 1138.03 -762.398 1138.03 -762.403L1136.28 -762.098L1120.59 -826.711L1427.49 -692.918ZM1135.19 -761.879L1119.42 -826.796L933.773 -727.153L1135.19 -761.879ZM1135.44 -760.826L1171.74 -611.432L932.36 -725.817L1135.44 -760.826ZM1170.37 -610.885L931.094 -725.213L919.079 -598.959L1170.37 -610.885ZM919.709 -597.893L1171.79 -609.89L1109.82 -400.245L919.709 -597.893ZM889.957 -463.255L1060.18 -370.955L918.743 -596.954L889.957 -463.255ZM917.62 -597.605L870.704 -473.737L744.698 -554.637L917.62 -597.605ZM869.759 -473.076L745.48 -552.86L818.755 -452.198L869.759 -473.076ZM819.427 -451.318L870.501 -472.208L879.108 -417.905L871.045 -380.45L819.427 -451.318ZM869.582 -380.625L818.271 -451.078L662.463 -484.074L869.582 -380.625ZM870.522 -378.978L767.163 -239.91L659.534 -484.337L870.522 -378.978ZM658.351 -484.373L584.703 -376.347L765.726 -240.507L658.351 -484.373ZM544.07 -324.608L766.479 -238.474L762.608 -166.102L544.07 -324.608ZM832.946 -164.214L763.39 -164.547L729.446 -112.729L834.869 -163.016L832.946 -164.214ZM762.042 -164.445L727.658 -111.882L715.286 -110.335L519.093 -144.318L762.042 -164.445ZM526.938 -86.6323L711.633 -109.865L515.534 -143.752L527.078 -87.2367C527.097 -87.1403 527.087 -87.0404 527.05 -86.9494L526.938 -86.6323ZM514.447 -143.866L525.983 -87.2394L525.746 -86.5568L525.51 -86.5244L351.232 -121.97L514.447 -143.866ZM525.338 -85.4737L349.702 -121.181L489.554 14.012L525.338 -85.4737ZM491.191 16.1016L649.062 79.9854L647.107 246.51L491.191 16.1016ZM448.169 226.459L489.092 15.5666L221.735 49.4684L448.169 226.459ZM493.069 258.123L286.926 244.229L448.395 227.989L493.069 258.123ZM447.139 227.03L221.473 50.5888L280.866 243.749L447.139 227.03ZM281.953 245.005L495 259.327C495.168 259.344 495.332 259.276 495.439 259.146C495.491 259.103 495.536 259.051 495.571 258.994C495.654 258.761 495.567 258.502 495.361 258.366L449.149 227.207L489.464 19.6396L499.012 257.064L397.679 358.291L281.953 245.005ZM396.082 358.236L280.357 244.966L52.7376 299.523L396.082 358.236ZM52.1652 300.523L396.31 359.338L261.936 457.914L52.1652 300.523ZM394.578 362.013L263.257 458.321L420.109 494.463L397.578 361.834L394.578 362.013ZM422.951 628.415L421.316 495.854L572.682 545.842L422.951 628.415ZM550.638 353.565L421.73 494.849L573.425 544.902L550.638 353.565ZM575.626 547.008L710.839 605.809C710.926 605.844 711.019 605.859 711.112 605.854L714.489 605.514L710.926 735.276L575.626 547.008ZM574.961 547.926L617.708 797.537L710.63 736.723L574.961 547.926ZM712.148 737.109L760.562 713.669L806.796 942.818L712.148 737.109ZM881.364 726.21L761.62 713.492L808.363 945.158L881.364 726.21ZM987.153 850.126L809.2 946.138L882.396 726.574L941.049 762.738L987.153 850.126ZM983.188 589.35L882.867 725.589L941.067 761.524L983.188 589.35ZM942.217 761.308L984.837 587.078L988.517 582.095L991.575 580.707L991.466 580.953C991.404 581.091 991.4 581.249 991.457 581.39C991.518 581.524 991.635 581.626 991.777 581.668L1157.66 645.832L942.217 761.308ZM992.707 580.906L1158.1 644.881L1122.19 521.902L993.099 580.046L992.707 580.906ZM1121.86 520.807L993.795 578.546L1088.56 374.17L1121.86 520.807ZM988.768 580.817L992.297 579.23L1088.07 372.737L1004.04 334.614L988.768 580.817ZM1005.38 334.029L1108.23 317.436L1088.44 371.791L1005.38 334.029ZM1123.2 379.991L1267.95 509.473L1152.2 314.366L1089.85 372.216L1122.96 379.873C1123.05 379.891 1123.13 379.931 1123.2 379.991ZM1151.81 313.03L1109.94 316.159L1176.01 183.886L1151.81 313.03ZM1152.9 313.144L1391.41 379.828L1177.7 181.27L1152.9 313.144ZM1176.38 179.103C1176.3 179.145 1176.24 179.206 1176.19 179.279C1176.17 179.311 1176.15 179.345 1176.14 179.382C1176.14 179.382 1176.12 179.395 1176.12 179.418C1176.12 179.437 1176.12 179.462 1176.13 179.493L927.868 152.761L1138.6 62.0659L1176.38 179.103ZM1178.36 180.233L1412.7 336.856L1400.06 164.147L1178.94 179.938L1178.36 180.233ZM1399.95 163.044L1181.44 178.67L1393.26 72.0652L1399.95 163.044ZM1203.03 16.2578L1386.48 70.4145L1393.06 70.6516L1357.47 -94.0378L1203.03 16.2578ZM1631.23 87.204L1394.74 70.7481L1518.55 -99.3489L1631.23 87.204ZM1359.45 -95.5795L1518.15 -100.843L1590.57 -278.974L1359.45 -95.5795ZM1783.57 -112.726L1783.37 -112.712L1783.41 -112.866L1783.57 -112.726ZM1782.23 -112.664L1782.52 -113.644L1780.64 -115.288L1781.38 -112.62L1782.23 -112.664ZM1779.14 -116.579L1780.28 -112.623L1519.39 -100.874L1592.08 -279.778L1779.14 -116.579ZM1396.95 -246.555L1590.59 -281.045L1461.54 -395.674L1460.23 -396.63C1460.29 -396.557 1460.32 -396.475 1460.33 -396.39C1460.34 -396.307 1460.33 -396.223 1460.3 -396.143L1397.2 -247.539L1396.95 -246.555Z" fill="#D8D8D8"/>
<g opacity="0.954125">
<path fill-rule="evenodd" clip-rule="evenodd" d="M494.566 10.7199C491.377 7.94791 486.832 7.36998 483.05 9.25559C479.269 11.1412 476.995 15.119 477.29 19.3341C477.584 23.5493 480.389 27.1717 484.396 28.5122C488.403 29.8527 492.823 28.6474 495.595 25.4583C499.381 21.1035 498.92 14.5049 494.566 10.7199Z" fill="#D8D8D8"/>
<path fill-rule="evenodd" clip-rule="evenodd" d="M932.804 288.77C929.618 285.994 925.072 285.412 921.288 287.295C917.504 289.178 915.228 293.155 915.52 297.371C915.812 301.588 918.616 305.212 922.624 306.554C926.631 307.896 931.053 306.691 933.826 303.501C937.608 299.15 937.151 292.557 932.804 288.77Z" fill="#D8D8D8"/>
<path fill-rule="evenodd" clip-rule="evenodd" d="M722.824 596.13C719.637 593.353 715.09 592.772 711.305 594.656C707.521 596.541 705.245 600.52 705.54 604.737C705.834 608.954 708.642 612.578 712.651 613.917C716.661 615.256 721.082 614.046 723.853 610.853C727.628 606.501 727.168 599.914 722.824 596.13Z" fill="#D8D8D8"/>
<path fill-rule="evenodd" clip-rule="evenodd" d="M833.144 669.367C829.958 666.591 825.412 666.009 821.628 667.892C817.844 669.775 815.567 673.752 815.86 677.969C816.152 682.185 818.956 685.81 822.964 687.152C826.971 688.493 831.393 687.288 834.166 684.099C837.948 679.747 837.491 673.154 833.144 669.367Z" fill="#D8D8D8"/>
<path fill-rule="evenodd" clip-rule="evenodd" d="M888.948 718.781C884.594 714.996 877.995 715.458 874.21 719.813C870.424 724.167 870.885 730.766 875.239 734.551C879.594 738.336 886.192 737.874 889.978 733.52C891.796 731.428 892.708 728.701 892.515 725.937C892.322 723.173 891.039 720.599 888.948 718.781Z" fill="#D8D8D8"/>
<path fill-rule="evenodd" clip-rule="evenodd" d="M650.327 243.335C647.711 241.062 643.748 241.339 641.474 243.955C639.201 246.57 639.478 250.534 642.093 252.807C644.708 255.081 648.672 254.803 650.945 252.188C653.219 249.572 652.942 245.609 650.327 243.335Z" fill="#D8D8D8"/>
<path fill-rule="evenodd" clip-rule="evenodd" d="M284.642 238.878C282.73 237.216 280.005 236.87 277.738 238C275.47 239.131 274.107 241.516 274.284 244.043C274.46 246.57 276.142 248.742 278.544 249.546C280.947 250.35 283.597 249.627 285.259 247.715C287.529 245.104 287.252 241.148 284.642 238.878Z" fill="#D8D8D8"/>
<path fill-rule="evenodd" clip-rule="evenodd" d="M653.991 75.2878C651.381 73.0184 647.424 73.2952 645.155 75.9062C642.885 78.5172 643.161 82.4735 645.772 84.7429C648.383 87.0123 652.339 86.7355 654.609 84.1245C656.878 81.5135 656.602 77.5572 653.991 75.2878Z" fill="#D8D8D8"/>
<path fill-rule="evenodd" clip-rule="evenodd" d="M424.333 490.814C422.421 489.152 419.696 488.805 417.429 489.936C415.162 491.067 413.799 493.451 413.975 495.979C414.152 498.506 415.833 500.678 418.236 501.482C420.638 502.285 423.288 501.563 424.951 499.651C427.22 497.04 426.944 493.083 424.333 490.814Z" fill="#D8D8D8"/>
<path fill-rule="evenodd" clip-rule="evenodd" d="M400.737 354.295C398.127 352.026 394.17 352.303 391.901 354.914C389.631 357.525 389.907 361.481 392.518 363.75C395.129 366.02 399.085 365.743 401.355 363.132C402.445 361.878 402.992 360.243 402.876 358.585C402.76 356.928 401.991 355.385 400.737 354.295Z" fill="#D8D8D8"/>
<path fill-rule="evenodd" clip-rule="evenodd" d="M717.968 667.216C716.056 665.554 713.331 665.208 711.064 666.338C708.797 667.469 707.433 669.854 707.61 672.381C707.787 674.908 709.468 677.08 711.871 677.884C714.273 678.688 716.923 677.965 718.585 676.053C720.855 673.442 720.579 669.486 717.968 667.216Z" fill="#D8D8D8"/>
<path fill-rule="evenodd" clip-rule="evenodd" d="M715.587 732.214C712.976 729.945 709.02 730.221 706.75 732.832C704.481 735.443 704.757 739.4 707.368 741.669C709.978 743.939 713.935 743.662 716.204 741.051C718.474 738.44 718.198 734.483 715.587 732.214Z" fill="#D8D8D8"/>
<path fill-rule="evenodd" clip-rule="evenodd" d="M1125.72 515.978C1123.11 513.709 1119.15 513.986 1116.89 516.597C1114.62 519.208 1114.89 523.164 1117.5 525.433C1120.11 527.703 1124.07 527.426 1126.34 524.815C1128.6 522.202 1128.33 518.251 1125.72 515.978Z" fill="#D8D8D8"/>
<path fill-rule="evenodd" clip-rule="evenodd" d="M1112.48 312.548C1109.87 310.278 1105.92 310.555 1103.65 313.166C1101.38 315.777 1101.65 319.733 1104.26 322.003C1106.87 324.272 1110.83 323.995 1113.1 321.384C1115.37 318.773 1115.09 314.817 1112.48 312.548Z" fill="#D8D8D8"/>
<path fill-rule="evenodd" clip-rule="evenodd" d="M1006.62 329.074C1004.01 326.81 1000.05 327.093 997.786 329.706C995.521 332.318 995.801 336.272 998.411 338.539C1001.02 340.806 1004.98 340.528 1007.25 337.918C1008.34 336.663 1008.88 335.025 1008.77 333.366C1008.65 331.707 1007.88 330.163 1006.62 329.074Z" fill="#D8D8D8"/>
<path fill-rule="evenodd" clip-rule="evenodd" d="M577.466 539.64C575.553 537.971 572.823 537.62 570.549 538.75C568.275 539.88 566.906 542.268 567.081 544.801C567.256 547.334 568.94 549.512 571.347 550.319C573.754 551.125 576.411 550.402 578.076 548.485C579.17 547.232 579.72 545.595 579.606 543.936C579.491 542.277 578.722 540.731 577.466 539.64Z" fill="#D8D8D8"/>
<path fill-rule="evenodd" clip-rule="evenodd" d="M554.294 348.028C551.683 345.759 547.727 346.036 545.457 348.647C543.188 351.258 543.464 355.214 546.075 357.483C548.685 359.753 552.642 359.476 554.911 356.865C557.181 354.254 556.905 350.298 554.294 348.028Z" fill="#D8D8D8"/>
<path fill-rule="evenodd" clip-rule="evenodd" d="M823.317 540.535C820.707 538.266 816.75 538.543 814.481 541.154C812.211 543.765 812.487 547.721 815.098 549.99C817.709 552.26 821.665 551.983 823.935 549.372C826.204 546.761 825.928 542.805 823.317 540.535Z" fill="#D8D8D8"/>
<path fill-rule="evenodd" clip-rule="evenodd" d="M754.343 550.207C752.429 548.537 749.698 548.186 747.423 549.317C745.149 550.449 743.781 552.84 743.958 555.373C744.135 557.907 745.822 560.084 748.232 560.888C750.641 561.692 753.298 560.963 754.961 559.043C756.051 557.79 756.598 556.154 756.482 554.497C756.366 552.84 755.597 551.296 754.343 550.207Z" fill="#D8D8D8"/>
<path fill-rule="evenodd" clip-rule="evenodd" d="M995.203 572.136C992.016 569.36 987.471 568.778 983.687 570.661C979.903 572.544 977.626 576.521 977.918 580.738C978.211 584.954 981.015 588.579 985.022 589.921C989.03 591.263 993.451 590.057 996.224 586.868C1000.01 582.516 999.55 575.923 995.203 572.136Z" fill="#D8D8D8"/>
<path fill-rule="evenodd" clip-rule="evenodd" d="M631.277 333.475C628.091 330.699 623.545 330.117 619.761 332C615.977 333.883 613.7 337.86 613.993 342.077C614.285 346.293 617.089 349.918 621.096 351.259C625.104 352.601 629.526 351.396 632.298 348.206C636.081 343.855 635.624 337.262 631.277 333.475Z" fill="#D8D8D8"/>
<path fill-rule="evenodd" clip-rule="evenodd" d="M510.405 266.717C517.453 258.609 516.595 246.323 508.488 239.276C500.381 232.228 488.095 233.088 481.047 241.196C473.999 249.304 474.857 261.59 482.964 268.637C491.071 275.685 503.357 274.825 510.405 266.717Z" fill="#D8D8D8"/>
<path fill-rule="evenodd" clip-rule="evenodd" d="M1142.39 -17.1113C1137.05 -21.7601 1129.43 -22.7329 1123.09 -19.576C1116.75 -16.4191 1112.94 -9.75434 1113.43 -2.69032C1113.92 4.37371 1118.62 10.4455 1125.34 12.6931C1132.05 14.9406 1139.46 12.9213 1144.11 7.57678C1150.45 0.283369 1149.68 -10.7673 1142.39 -17.1113Z" fill="#D8D8D8"/>
<path fill-rule="evenodd" clip-rule="evenodd" d="M1184.79 170.245C1180.38 166.403 1174.08 165.599 1168.85 168.208C1163.61 170.817 1160.46 176.326 1160.87 182.163C1161.27 188 1165.16 193.016 1170.71 194.87C1176.26 196.725 1182.38 195.052 1186.21 190.632C1191.44 184.606 1190.81 175.484 1184.79 170.245Z" fill="#D8D8D8"/>
<path fill-rule="evenodd" clip-rule="evenodd" d="M924.436 150.044C920.483 146.608 914.492 147.027 911.055 150.981C907.618 154.934 908.037 160.925 911.99 164.362C915.943 167.798 921.934 167.379 925.371 163.425C928.808 159.472 928.39 153.481 924.436 150.044Z" fill="#D8D8D8"/>
</g>
</g>
</g>
</svg>
