<svg width="1134" height="1751" viewBox="0 0 1134 1751" fill="none" xmlns="http://www.w3.org/2000/svg">
<g opacity="0.556548">
<g opacity="0.31">
<path opacity="0.4" fill-rule="evenodd" clip-rule="evenodd" d="M1861.49 611.17C1861.61 611.104 1861.76 611.093 1861.9 611.139C1862.06 611.163 1862.2 611.258 1862.28 611.399C1862.36 611.539 1862.38 611.71 1862.32 611.862L1790.84 846.036L1792.38 847.378C1792.55 847.524 1792.61 847.76 1792.53 847.97L1792.4 848.122C1792.3 848.233 1792.16 848.3 1792.02 848.307L1790.09 848.396L1789.58 850.057C1789.54 850.124 1789.49 850.182 1789.43 850.226C1789.29 850.387 1789.07 850.452 1788.87 850.393C1788.59 850.301 1788.43 849.999 1788.52 849.712L1788.91 848.408L1526.47 860.351L1639.57 1047.61C1639.67 1047.79 1639.66 1048 1639.56 1048.17C1639.45 1048.34 1639.26 1048.44 1639.06 1048.43L1401.24 1032.05L1407.9 1123.33L1542.96 1181.25C1543.23 1181.37 1543.35 1181.68 1543.24 1181.95C1543.21 1182 1543.17 1182.05 1543.13 1182.08C1542.97 1182.26 1542.72 1182.31 1542.51 1182.23L1407.94 1124.59L1420.61 1298.12C1420.61 1298.15 1420.61 1298.18 1420.6 1298.22C1420.6 1298.27 1420.58 1298.32 1420.56 1298.37L1400.5 1346.18L1399.51 1345.76L1419.38 1298.32L1189.46 1144.74L1400.48 1340.75C1400.67 1340.92 1400.72 1341.2 1400.6 1341.42C1400.47 1341.64 1400.21 1341.75 1399.97 1341.67L1160.21 1274.8L1277.33 1472.24C1277.47 1472.46 1277.42 1472.76 1277.21 1472.93C1277 1473.09 1276.7 1473.09 1276.51 1472.91L1129.35 1341.31L1096.22 1333.66L1129.58 1480.96L1281.81 1475.02C1282.11 1475 1282.36 1475.22 1282.39 1475.52C1282.39 1475.65 1282.35 1475.79 1282.25 1475.89C1282.16 1476 1282.02 1476.07 1281.87 1476.08L1129.81 1482.04L1165.97 1606C1166 1606.09 1166 1606.19 1165.97 1606.28L1165.94 1606.33C1165.92 1606.35 1165.9 1606.37 1165.89 1606.39C1165.88 1606.41 1165.87 1606.42 1165.86 1606.43C1165.84 1606.44 1165.83 1606.45 1165.82 1606.46L1165.77 1606.51L1165.72 1606.57L948.63 1723.05L994.706 1810.56C994.812 1810.76 994.785 1811 994.637 1811.17C994.604 1811.22 994.562 1811.27 994.513 1811.31L814.83 1908.33L814.743 1908.33C814.689 1908.35 814.632 1908.37 814.573 1908.38L814.522 1908.34L814.471 1908.3C814.445 1908.28 814.422 1908.26 814.404 1908.24C814.334 1908.21 814.275 1908.16 814.235 1908.09C814.212 1908.08 814.192 1908.06 814.176 1908.04L718.557 1700.03L722.05 1844.02C722.056 1844.14 722.022 1844.26 721.955 1844.37C721.855 1844.48 721.715 1844.55 721.564 1844.56C721.266 1844.57 721.01 1844.35 720.982 1844.05L717.461 1698.51L624.168 1759.62C624.014 1759.71 623.823 1759.73 623.656 1759.66C623.486 1759.59 623.367 1759.44 623.342 1759.26L580.309 1507.31L429.369 1590.66C429.203 1590.75 429.003 1590.75 428.838 1590.66C428.672 1590.57 428.569 1590.39 428.568 1590.2L427.004 1456.43L268.536 1420.05C268.494 1420.02 268.454 1419.99 268.418 1419.95L268.368 1419.91L56.641 1261.11C56.5874 1261.04 56.5423 1260.96 56.5068 1260.89C56.5256 1260.81 56.475 1260.77 56.475 1260.77C56.4725 1260.66 56.5065 1260.54 56.572 1260.45C56.6547 1260.35 56.7728 1260.29 56.9008 1260.28L286.759 1204.97L227.065 1010.33C227.047 1010.23 227.049 1010.14 227.07 1010.05L227.114 1010L227.18 1009.92C227.223 1009.84 227.286 1009.76 227.363 1009.71L227.408 1009.66L227.444 1009.62L495.715 975.326L354.843 839.18L354.784 839.128L354.717 839.07C354.673 838.983 354.655 838.885 354.666 838.788C354.712 838.683 354.789 838.595 354.886 838.534L354.937 838.475C354.986 838.442 355.041 838.419 355.099 838.408L521.933 815.843L768.772 795.237L548.176 635.311L522.068 811.957C522.051 812.058 522.005 812.152 521.936 812.228C521.859 812.325 521.746 812.388 521.623 812.401C521.391 812.447 521.157 812.33 521.056 812.116L474.093 719.817C474.006 719.646 474.017 719.441 474.122 719.281C474.227 719.12 474.409 719.027 474.6 719.037C474.792 719.047 474.964 719.158 475.05 719.329L521.251 810.12L547.144 634.607L547.217 634.522C547.12 634.369 547.113 634.176 547.198 634.016C547.319 633.775 547.606 633.668 547.855 633.772L770.764 719.936L590.946 585.07C590.716 584.895 590.665 584.569 590.832 584.333L665.399 474.995C665.462 474.914 665.55 474.855 665.649 474.827C665.71 474.791 665.752 474.828 665.752 474.828C665.808 474.811 665.866 474.801 665.924 474.8L824.639 508.316L750.399 406.087C750.389 406.066 750.379 406.044 750.371 406.022C750.362 406 750.355 405.978 750.349 405.955L750.345 405.94L750.343 405.931L750.34 405.917L750.298 405.88C750.281 405.787 750.288 405.691 750.318 405.601L750.369 405.542C750.442 405.443 750.546 405.371 750.664 405.339L924.746 361.848L831.43 277.782C831.216 277.58 831.2 277.246 831.393 277.024C831.594 276.802 831.934 276.782 832.159 276.977L925.433 361.007L937.525 234.399C937.533 234.373 937.551 234.351 937.576 234.339L937.62 234.289C937.628 234.272 937.638 234.255 937.649 234.24C937.66 234.224 937.672 234.209 937.686 234.195C937.693 234.188 937.7 234.181 937.707 234.174C937.719 234.164 937.732 234.154 937.745 234.145L937.796 234.086L1126.71 132.595L1115.92 -30.2001C1115.9 -30.4964 1116.12 -30.7535 1116.42 -30.7745C1116.71 -30.7955 1116.97 -30.5723 1116.99 -30.276L1127.78 132.543L1440.78 268.938L1440.84 268.989C1440.94 269.035 1441.02 269.106 1441.08 269.194L1441.14 269.245L1491.55 453.837L1598.88 678.289L1691.05 498.897L1494.99 452.753C1494.83 452.711 1494.7 452.597 1494.64 452.445C1494.57 452.295 1494.57 452.121 1494.64 451.97L1544.36 352.373C1544.5 352.112 1544.82 352.006 1545.09 352.131C1545.35 352.267 1545.46 352.591 1545.33 352.859L1495.91 451.848L1691.98 497.991L1692.04 498.042C1692.13 498.082 1692.19 498.143 1692.25 498.218L1692.33 498.291L1692.4 498.35L1787.12 842.803L1789.86 845.186L1861.22 611.488C1861.26 611.351 1861.36 611.236 1861.49 611.17ZM1785.6 842.095L1691.68 500.463L1599.52 679.819L1785.6 842.095ZM1597.18 677.687L1469.44 564.284L1491.16 455.926L1597.18 677.687ZM1182.57 351.761L1468.44 563.465L1490.26 454.521L1182.57 351.761ZM1364.39 865.105L1139.79 954.373L1402.5 714.359L1402.39 714.486C1402.31 714.666 1402.34 714.878 1402.47 715.027C1402.49 715.053 1402.52 715.075 1402.55 715.093L1364.39 865.105ZM1524.5 860.787L1365.55 866.155L1400.93 1030.52L1524.5 860.787ZM992.263 1541.19L867.176 1522.56L828.543 1504.2L884.755 1320.98L992.858 1538.78L992.263 1541.19ZM994.234 1541.53L993.644 1540.33L993.376 1541.39L994.234 1541.53ZM405.692 1322.28L556.763 1313.43L428.075 1454.48L405.692 1322.28ZM403.172 1321.31L404.395 1321.23L404.273 1320.5L403.172 1321.31ZM405.485 1321.23L405.243 1319.81L502.256 1222.92L557.084 1312.32L405.485 1321.23ZM886.69 539.737L895.723 497.861L878.658 488.547L886.69 539.737ZM878.512 487.399L923.422 369.087L895.939 496.733L878.512 487.399ZM1064.4 589.354L896.69 498.478L887.282 542.311L1064.4 589.354ZM1117.06 562.071L1252.67 671.043L1054.5 642.483L1052.22 641.7L1069.11 591.6L1117.06 562.071ZM928.724 366.362L1068.82 590.382L1095.8 573.776L1116.16 561.254L928.724 366.362ZM1117.62 561.298L1179.52 352.261L1253.6 670.51L1117.62 561.298ZM919.567 1112.53L919.508 1112.48L919.466 1112.44L736.387 858.372L878.125 1140.3L921.546 1117.75L924.342 1116.55L919.567 1112.53ZM1008.87 1294L895.597 1316.3L884.94 1318.49L869.123 1209.7L878.356 1142.85L931.904 1257.16C931.962 1257.26 932.047 1257.33 932.149 1257.38L1008.87 1294ZM865.901 1523.07L828.243 1505.17L809.993 1555.65L865.901 1523.07ZM808.726 1555.95L760.577 1517.63L827.08 1505.09L808.726 1555.95ZM759.085 1516.95C759.12 1516.88 759.167 1516.83 759.225 1516.79L827.222 1503.96L783.684 1342.54L758.947 1516.66C758.941 1516.7 758.932 1516.74 758.918 1516.77C758.902 1516.81 758.879 1516.85 758.851 1516.89L722.71 1561.23L724.132 1564.7L807.609 1556.42L759.03 1517.76C758.98 1517.71 758.945 1517.67 758.939 1517.59C758.934 1517.51 758.841 1517.43 758.841 1517.43C758.843 1517.39 758.849 1517.36 758.858 1517.32C758.866 1517.29 758.877 1517.25 758.89 1517.22C758.895 1517.15 758.911 1517.09 758.94 1517.03C758.982 1516.99 759.031 1516.96 759.085 1516.95ZM724.628 1565.75L808.226 1557.43L767.86 1671.89L724.628 1565.75ZM722.616 1563.67L722.577 1564.83L723.107 1564.81L722.616 1563.67ZM630.132 1302.59L605.335 1243.54L654.781 1209.4L810.879 1224.81L630.132 1302.59ZM783.025 1339.13L812.248 1225.45L631.579 1303.19L783.025 1339.13ZM629.091 1302.8L558.289 1312.29L556.207 1308.9L604.552 1244.36L629.091 1302.8ZM782.884 1340.16L629.874 1303.84L559.151 1313.31L757.972 1515.37L782.884 1340.16ZM784.169 1340.26L883.943 1319.78L827.924 1502.43L784.169 1340.26ZM813.305 1225.79L784.174 1339.14L883.331 1318.78L813.305 1225.79ZM813.936 1224.92L868.07 1210.36L883.698 1317.53L813.936 1224.92ZM868.07 1208.7L877.386 1141.29L660.336 1042.51L868.07 1208.7ZM657.288 1039.99L732.911 853.844L876.729 1139.84L657.288 1039.99ZM921.318 1119.2L878.707 1141.28L931.584 1254.07L921.318 1119.2ZM925.662 1113.38L928.49 1113.69L927.006 1115.5L926.267 1115.82L925.662 1113.38ZM921.618 1112.94L925.206 1115.95L924.541 1113.24L921.618 1112.94ZM929.782 1113.81L930.685 1113.91L929.176 1114.56L929.782 1113.81ZM848.94 801.918L925.301 1112.26L929.158 1112.66L1070.08 940.322L848.94 801.918ZM843.047 797.013L841.977 796.335L844.42 796.353L843.047 797.013ZM847.117 799.558L846.387 796.58L844.107 797.669L847.117 799.558ZM848.435 800.449L847.483 796.551L1015.27 826.608L1069.55 938.824L848.435 800.449ZM1016.54 826.904L1070.71 938.917L1104.96 842.741L1016.54 826.904ZM1105.72 844.194L1136.48 955.135L1071.58 939.959L1105.72 844.194ZM950.246 689.987L1015.96 825.736L1104.08 841.499L950.246 689.987ZM948.859 687.145L944.722 678.595L1051.56 644.295L1104.6 840.601L948.859 687.145ZM1014.63 825.399L947.996 687.754L941.735 681.482L847.795 795.511L1014.63 825.399ZM1072.47 941.287L1136.79 956.32L1145.18 1020.29L1072.47 941.287ZM1207.61 977.191L1137.93 956.67L1146.36 1020.98L1207.61 977.191ZM1106.4 842.791L1399.45 715.649L1137.48 954.99L1106.4 842.791ZM1054.53 643.419L1052.61 644.038L1105.92 841.237L1253.56 672.072L1054.53 643.419ZM1052.28 642.938L1052.19 642.612L1052.73 642.795L1052.28 642.938ZM882.048 582.181L1051.2 641.091L1067.98 591.494L882.048 582.181ZM1063.61 590.166L879.011 581.02L887.093 543.354L1063.61 590.166ZM1051.25 643.175L1050.97 642.116L879.628 582.435L941.977 680.323L946.53 684.799L943.439 678.42C943.369 678.278 943.366 678.112 943.432 677.968C943.496 677.829 943.615 677.723 943.761 677.675L1051.25 643.175ZM940.728 680.277L775.366 720.876L878.351 582.323L940.728 680.277ZM846.698 795.017L940.146 681.522L775.095 722.066L846.698 795.017ZM845.498 795.246L770.68 794.907L774.569 722.919L845.498 795.246ZM924.141 1112.15L847.62 801.07L843.015 798.239L736.274 849.23C736.265 849.328 736.234 849.423 736.182 849.506C736.095 849.605 735.976 849.67 735.846 849.689L735.272 849.769L733.415 852.604L920.082 1111.7L924.141 1112.15ZM732.486 851.962L725.93 850.832L733.877 849.834L732.486 851.962ZM497.741 974.443L731.08 852.726L722.262 851.201L533.543 875.005L497.741 974.443ZM731.733 853.648L656.244 1039.44L498.075 975.537L731.733 853.648ZM813.241 1223.96L867.376 1209.4L660.728 1044.09L813.241 1223.96ZM811.724 1223.84L655.137 1208.34L657.21 1041.61L811.724 1223.84ZM507.024 1217.28L653.617 1208.23L497.496 977.37L507.024 1217.28ZM652.694 1209.34L604.488 1242.65L503.365 1221.75L506.761 1218.36L652.694 1209.34ZM555.538 1307.86L603.694 1243.56L503.402 1222.84L555.538 1307.86ZM757.675 1516.45L721.624 1560.67L721.58 1560.72C721.523 1560.79 721.488 1560.88 721.478 1560.97L721.365 1564.83L717.994 1565.17L581.449 1505.83L558.812 1314.35L757.675 1516.45ZM767.235 1673.13L723.482 1565.78L722.604 1565.92L718.939 1696.55L767.235 1673.13ZM809.134 1558.05L888.026 1685.58L768.653 1672.97L809.134 1558.05ZM866.661 1523.88L809.716 1557.02L888.155 1683.83L866.661 1523.88ZM867.676 1523.66L992.01 1542.17L990.81 1547.06L889.323 1684.85L867.676 1523.66ZM994.164 1542.56L993.075 1542.4L992.469 1544.85L994.164 1542.56ZM993.986 1538.66L995.08 1534.2L994.713 1540.12L993.986 1538.66ZM885.164 1319.56L993.147 1537.16L994.682 1531.16C994.755 1530.91 995 1530.75 995.258 1530.78L1009.94 1294.96L895.803 1317.38L885.164 1319.56ZM932.88 1256.63L922.562 1121.02L1009.32 1293.14L932.88 1256.63ZM925.286 1117.4L922.521 1118.59L1010.8 1293.73L1114.78 1276.84L925.286 1117.4ZM926.85 1117.45L927.695 1116.48L932.877 1114.25L1183.49 1141.07L1115.78 1276.42L926.85 1117.45ZM1096.99 1331.1L1157.77 1274.68L1116.47 1277.76L1096.99 1331.1ZM930.579 1112.85L1070.99 941.109L1145.06 1021.6L932.704 1113.1L930.579 1112.85ZM1393.32 1031.88L1146.74 1022.53L1184.44 1139.55L1185.61 1139.46L1398.65 1032.1L1395.28 1031.97L1395.17 1032.1C1395.04 1032.26 1394.82 1032.33 1394.61 1032.27L1393.32 1031.88ZM1147.59 1021.52L1208.93 977.611L1389.11 1030.67L1147.59 1021.52ZM1360.94 867.602L1138.91 955.875L1208.7 976.423L1360.94 867.602ZM1403.68 715.234L1596.85 680.678L1365.73 864.15L1403.68 715.234ZM1402.64 713.639L1402.66 713.804L1402.96 713.109L1254.87 672.401L1107.71 841.032L1401.91 713.365C1401.94 713.345 1401.97 713.345 1401.99 713.35C1402.02 713.357 1402.04 713.372 1402.04 713.372C1402.1 713.354 1402.17 713.352 1402.24 713.366C1402.3 713.381 1402.36 713.409 1402.42 713.449L1402.5 713.522L1402.56 713.573L1402.64 713.639ZM1256.06 671.761L1465.7 565.262L1403.3 712.224L1256.06 671.761ZM1180.46 351.398L1254.87 671.066L1466.51 563.537C1466.62 563.484 1466.74 563.472 1466.86 563.504L1180.46 351.398ZM1490.03 453.329L1181.24 350.227L1440.01 270.17L1490.03 453.329ZM1143.54 199.608L1179.84 349.444L1438.29 269.499L1145.12 199.33L1143.54 199.608ZM1434.49 267.509L1145.19 198.265L1145.09 198.28C1145.07 198.283 1145.06 198.283 1145.05 198.281C1145.04 198.279 1145.03 198.275 1145.03 198.269C1145.02 198.26 1145.02 198.248 1145.02 198.237C1145.02 198.227 1145.02 198.218 1145.01 198.214L1143.27 198.52L1127.61 133.896L1434.49 267.509ZM1142.17 198.587L1126.45 133.688L940.773 233.459L1142.17 198.587ZM1142.49 199.651L1178.69 349.052L939.36 234.819L1142.49 199.651ZM1177.37 349.536L938.148 235.363L926.052 361.65L1177.37 349.536ZM926.721 362.745L1178.82 350.559L1116.72 560.286L926.721 362.745ZM896.938 497.342L1067.13 589.545L925.815 363.577L896.938 497.342ZM924.64 362.873L877.647 486.783L751.698 405.971L924.64 362.873ZM876.759 487.416L752.498 407.688L825.729 508.34L876.759 487.416ZM826.436 509.242L877.525 488.312L886.098 542.615L878.012 580.082L826.436 509.242ZM876.57 579.86L825.289 509.414L669.462 476.519L876.57 579.86ZM877.527 581.451L774.073 720.621L666.593 476.23L877.527 581.451ZM665.425 476.158L591.698 584.269L772.661 720.013L665.425 476.158ZM551.069 635.991L773.487 722.001L769.57 794.41L551.069 635.991ZM839.947 796.283L770.409 796L736.441 847.834L841.869 797.478L839.947 796.283ZM769.045 795.998L734.629 848.589L722.258 850.145L526.093 816.306L769.045 795.998ZM533.919 873.958L718.632 850.585L522.551 816.839L534.059 873.353C534.078 873.45 534.069 873.55 534.032 873.641L533.919 873.958ZM521.465 816.614L532.966 873.239L532.728 873.922L532.492 873.955L358.232 838.634L521.465 816.614ZM532.349 875.001L356.707 839.413L496.497 974.543L532.349 875.001ZM498.233 976.673L656.092 1040.46L654.032 1207.04L498.233 976.673ZM455.072 1186.98L496.131 976.019L228.735 1010.13L455.072 1186.98ZM500.068 1218.58L293.925 1204.84L455.412 1188.47L500.068 1218.58ZM454.139 1187.47L228.538 1011.13L287.822 1204.32L454.139 1187.47ZM288.956 1205.65L501.943 1219.81C502.111 1219.83 502.276 1219.76 502.383 1219.63C502.435 1219.58 502.479 1219.53 502.515 1219.48C502.597 1219.24 502.511 1218.98 502.305 1218.85L456.124 1187.73L496.561 980.165L505.956 1217.54L404.583 1318.83L288.956 1205.65ZM403.077 1318.65L287.413 1205.44L59.7374 1260.18L403.077 1318.65ZM59.165 1261.17L403.309 1319.75L268.859 1418.45L59.165 1261.17ZM401.628 1322.52L270.257 1418.93L427.073 1454.96L404.628 1322.34L401.628 1322.52ZM429.909 1588.98L428.359 1456.42L579.682 1506.29L429.909 1588.98ZM557.71 1314.09L428.729 1455.47L580.374 1505.41L557.71 1314.09ZM582.658 1507.57L717.86 1566.3C717.947 1566.33 718.04 1566.34 718.133 1566.34L721.511 1566L717.865 1695.81L582.658 1507.57ZM582.044 1508.46L624.636 1758.08L717.602 1697.19L582.044 1508.46ZM719.196 1697.67L767.629 1674.19L813.721 1903.35L719.196 1697.67ZM888.406 1686.69L768.681 1674.06L815.273 1905.69L888.406 1686.69ZM994.14 1810.57L816.153 1906.71L889.477 1687.11L948.097 1723.23L994.14 1810.57ZM990.238 1549.88L889.858 1686.17L948.02 1722.05L990.238 1549.88ZM949.174 1721.89L991.898 1547.64L995.581 1542.65L998.64 1541.26L998.53 1541.51C998.468 1541.65 998.464 1541.81 998.52 1541.95C998.582 1542.08 998.699 1542.18 998.841 1542.23L1164.66 1606.26L949.174 1721.89ZM999.707 1541.51L1165.07 1605.38L1129.23 1482.41L1000.1 1540.65L999.707 1541.51ZM1128.83 1481.29L1000.76 1539.12L1095.63 1334.7L1128.83 1481.29ZM995.687 1541.35L999.216 1539.76L1095.1 1333.21L1011.11 1295.16L995.687 1541.35ZM1012.38 1294.6L1115.24 1277.93L1095.42 1332.31L1012.38 1294.6ZM1130.2 1340.57L1274.91 1469.99L1159.25 1274.9L1096.85 1332.81L1129.96 1340.45C1130.05 1340.47 1130.13 1340.51 1130.2 1340.57ZM1158.78 1273.55L1116.91 1276.71L1183.06 1144.42L1158.78 1273.55ZM1159.88 1273.74L1398.41 1340.28L1184.77 1141.8L1159.88 1273.74ZM1183.35 1139.56C1183.24 1139.62 1183.15 1139.72 1183.11 1139.84C1183.11 1139.84 1183.09 1139.85 1183.09 1139.88C1183.09 1139.9 1183.09 1139.92 1183.1 1139.95L934.868 1113.4L1145.65 1022.54L1183.35 1139.56ZM1185.36 1140.87L1419.63 1297.36L1407.1 1124.62L1185.94 1140.58L1185.36 1140.87ZM1406.92 1123.51L1188.44 1139.29L1400.29 1032.54L1406.92 1123.51ZM1210.02 976.884L1393.44 1030.91L1400.02 1031.14L1364.53 866.47L1210.02 976.884ZM1638.2 1047.66L1401.74 1031.38L1525.65 861.182L1638.2 1047.66ZM1366.45 865.036L1525.1 859.656L1597.61 681.517L1366.45 865.036ZM1790.57 847.804L1790.37 847.818L1790.41 847.665L1790.57 847.804ZM1789.23 847.867L1789.52 846.887L1787.64 845.243L1788.37 847.911L1789.23 847.867ZM1786.14 843.842L1787.28 847.797L1526.37 859.742L1599.18 680.753L1786.14 843.842ZM1403.93 714.038L1597.59 679.4L1468.61 564.856L1467.31 563.901C1467.41 564.044 1467.43 564.225 1467.37 564.388L1404.18 713.053L1403.93 714.038Z" fill="#D8D8D8"/>
<g opacity="0.954125">
<path fill-rule="evenodd" clip-rule="evenodd" d="M742.13 841.553C737.717 837.711 731.423 836.907 726.185 839.516C720.947 842.125 717.797 847.634 718.205 853.471C718.613 859.308 722.498 864.324 728.048 866.179C733.598 868.033 739.718 866.36 743.554 861.94C748.784 855.915 748.147 846.792 742.13 841.553Z" fill="#D8D8D8"/>
<path fill-rule="evenodd" clip-rule="evenodd" d="M501.566 971.251C498.377 968.479 493.832 967.901 490.05 969.786C486.269 971.672 483.995 975.65 484.29 979.865C484.584 984.08 487.389 987.702 491.396 989.043C495.403 990.383 499.823 989.178 502.595 985.989C506.381 981.634 505.92 975.036 501.566 971.251Z" fill="#D8D8D8"/>
<path fill-rule="evenodd" clip-rule="evenodd" d="M774.808 718.158C772.631 716.266 769.332 716.496 767.439 718.674C765.546 720.851 765.777 724.15 767.954 726.043C770.131 727.935 773.43 727.705 775.323 725.527C777.216 723.35 776.985 720.051 774.808 718.158Z" fill="#D8D8D8"/>
<path fill-rule="evenodd" clip-rule="evenodd" d="M939.804 1249.3C936.618 1246.52 932.072 1245.94 928.288 1247.83C924.504 1249.71 922.228 1253.69 922.52 1257.9C922.812 1262.12 925.616 1265.74 929.624 1267.09C933.631 1268.43 938.053 1267.22 940.826 1264.03C944.608 1259.68 944.151 1253.09 939.804 1249.3Z" fill="#D8D8D8"/>
<path fill-rule="evenodd" clip-rule="evenodd" d="M1132.19 126.465C1129 123.689 1124.46 123.107 1120.67 124.99C1116.89 126.873 1114.61 130.85 1114.9 135.066C1115.2 139.283 1118 142.907 1122.01 144.249C1126.01 145.591 1130.44 144.386 1133.21 141.196C1136.99 136.845 1136.53 130.252 1132.19 126.465Z" fill="#D8D8D8"/>
<path fill-rule="evenodd" clip-rule="evenodd" d="M932.263 353.297C929.077 350.521 924.531 349.939 920.747 351.822C916.963 353.705 914.687 357.683 914.979 361.899C915.271 366.115 918.075 369.74 922.083 371.082C926.09 372.424 930.512 371.218 933.285 368.029C937.067 363.677 936.61 357.084 932.263 353.297Z" fill="#D8D8D8"/>
<path fill-rule="evenodd" clip-rule="evenodd" d="M729.824 1556.66C726.637 1553.88 722.09 1553.3 718.305 1555.19C714.521 1557.07 712.245 1561.05 712.54 1565.27C712.834 1569.49 715.642 1573.11 719.651 1574.45C723.661 1575.79 728.082 1574.58 730.853 1571.38C734.628 1567.03 734.168 1560.45 729.824 1556.66Z" fill="#D8D8D8"/>
<path fill-rule="evenodd" clip-rule="evenodd" d="M840.144 1629.9C836.958 1627.12 832.412 1626.54 828.628 1628.42C824.844 1630.31 822.567 1634.28 822.86 1638.5C823.152 1642.72 825.956 1646.34 829.964 1647.68C833.971 1649.02 838.393 1647.82 841.166 1644.63C844.948 1640.28 844.491 1633.69 840.144 1629.9Z" fill="#D8D8D8"/>
<path fill-rule="evenodd" clip-rule="evenodd" d="M895.948 1679.31C891.594 1675.53 884.995 1675.99 881.21 1680.34C877.424 1684.7 877.885 1691.3 882.239 1695.08C886.594 1698.87 893.192 1698.41 896.978 1694.05C898.796 1691.96 899.708 1689.23 899.515 1686.47C899.322 1683.7 898.039 1681.13 895.948 1679.31Z" fill="#D8D8D8"/>
<path fill-rule="evenodd" clip-rule="evenodd" d="M1055.62 637.345C1053 635.082 1049.05 635.364 1046.78 637.977C1044.52 640.589 1044.8 644.543 1047.41 646.81C1050.02 649.077 1053.97 648.799 1056.24 646.189C1057.33 644.934 1057.88 643.296 1057.76 641.637C1057.65 639.978 1056.87 638.434 1055.62 637.345Z" fill="#D8D8D8"/>
<path fill-rule="evenodd" clip-rule="evenodd" d="M657.327 1203.87C654.711 1201.59 650.748 1201.87 648.474 1204.49C646.201 1207.1 646.478 1211.06 649.093 1213.34C651.708 1215.61 655.672 1215.33 657.945 1212.72C660.219 1210.1 659.942 1206.14 657.327 1203.87Z" fill="#D8D8D8"/>
<path fill-rule="evenodd" clip-rule="evenodd" d="M291.642 1199.41C289.73 1197.75 287.005 1197.4 284.738 1198.53C282.47 1199.66 281.107 1202.05 281.284 1204.57C281.46 1207.1 283.142 1209.27 285.544 1210.08C287.947 1210.88 290.597 1210.16 292.259 1208.25C294.529 1205.63 294.252 1201.68 291.642 1199.41Z" fill="#D8D8D8"/>
<path fill-rule="evenodd" clip-rule="evenodd" d="M660.991 1035.82C658.381 1033.55 654.424 1033.83 652.155 1036.44C649.885 1039.05 650.161 1043 652.772 1045.27C655.383 1047.54 659.339 1047.27 661.609 1044.66C663.878 1042.04 663.602 1038.09 660.991 1035.82Z" fill="#D8D8D8"/>
<path fill-rule="evenodd" clip-rule="evenodd" d="M534.95 870.926C532.339 868.657 528.383 868.933 526.114 871.544C523.844 874.155 524.12 878.112 526.731 880.381C529.342 882.651 533.298 882.374 535.568 879.763C537.837 877.152 537.561 873.195 534.95 870.926Z" fill="#D8D8D8"/>
<path fill-rule="evenodd" clip-rule="evenodd" d="M431.333 1451.34C429.421 1449.68 426.696 1449.34 424.429 1450.47C422.162 1451.6 420.799 1453.98 420.975 1456.51C421.152 1459.04 422.833 1461.21 425.236 1462.01C427.638 1462.82 430.288 1462.09 431.951 1460.18C434.22 1457.57 433.944 1453.61 431.333 1451.34Z" fill="#D8D8D8"/>
<path fill-rule="evenodd" clip-rule="evenodd" d="M407.737 1314.83C405.127 1312.56 401.17 1312.83 398.901 1315.44C396.631 1318.06 396.907 1322.01 399.518 1324.28C402.129 1326.55 406.085 1326.27 408.355 1323.66C409.445 1322.41 409.992 1320.77 409.876 1319.12C409.76 1317.46 408.991 1315.92 407.737 1314.83Z" fill="#D8D8D8"/>
<path fill-rule="evenodd" clip-rule="evenodd" d="M724.968 1627.75C723.056 1626.08 720.331 1625.74 718.064 1626.87C715.797 1628 714.433 1630.38 714.61 1632.91C714.787 1635.44 716.468 1637.61 718.871 1638.41C721.273 1639.22 723.923 1638.5 725.585 1636.58C727.855 1633.97 727.579 1630.02 724.968 1627.75Z" fill="#D8D8D8"/>
<path fill-rule="evenodd" clip-rule="evenodd" d="M722.587 1692.74C719.976 1690.48 716.02 1690.75 713.75 1693.36C711.481 1695.97 711.757 1699.93 714.368 1702.2C716.978 1704.47 720.935 1704.19 723.204 1701.58C725.474 1698.97 725.198 1695.01 722.587 1692.74Z" fill="#D8D8D8"/>
<path fill-rule="evenodd" clip-rule="evenodd" d="M1132.72 1476.51C1130.11 1474.24 1126.15 1474.52 1123.89 1477.13C1121.62 1479.74 1121.89 1483.69 1124.5 1485.96C1127.11 1488.23 1131.07 1487.96 1133.34 1485.35C1135.6 1482.73 1135.33 1478.78 1132.72 1476.51Z" fill="#D8D8D8"/>
<path fill-rule="evenodd" clip-rule="evenodd" d="M1119.48 1273.08C1116.87 1270.81 1112.92 1271.09 1110.65 1273.7C1108.38 1276.31 1108.65 1280.26 1111.26 1282.53C1113.87 1284.8 1117.83 1284.53 1120.1 1281.92C1122.37 1279.3 1122.09 1275.35 1119.48 1273.08Z" fill="#D8D8D8"/>
<path fill-rule="evenodd" clip-rule="evenodd" d="M1013.62 1289.61C1011.01 1287.34 1007.05 1287.62 1004.79 1290.24C1002.52 1292.85 1002.8 1296.8 1005.41 1299.07C1008.02 1301.34 1011.98 1301.06 1014.25 1298.45C1015.34 1297.19 1015.88 1295.56 1015.77 1293.9C1015.65 1292.24 1014.88 1290.69 1013.62 1289.61Z" fill="#D8D8D8"/>
<path fill-rule="evenodd" clip-rule="evenodd" d="M584.466 1500.17C582.553 1498.5 579.823 1498.15 577.549 1499.28C575.275 1500.41 573.906 1502.8 574.081 1505.33C574.256 1507.86 575.94 1510.04 578.347 1510.85C580.754 1511.66 583.411 1510.93 585.076 1509.02C586.17 1507.76 586.72 1506.13 586.606 1504.47C586.491 1502.81 585.722 1501.26 584.466 1500.17Z" fill="#D8D8D8"/>
<path fill-rule="evenodd" clip-rule="evenodd" d="M561.294 1308.56C558.683 1306.29 554.727 1306.57 552.457 1309.18C550.188 1311.79 550.464 1315.75 553.075 1318.01C555.685 1320.28 559.642 1320.01 561.911 1317.4C564.181 1314.79 563.905 1310.83 561.294 1308.56Z" fill="#D8D8D8"/>
<path fill-rule="evenodd" clip-rule="evenodd" d="M830.317 1501.07C827.707 1498.8 823.75 1499.07 821.481 1501.68C819.211 1504.3 819.487 1508.25 822.098 1510.52C824.709 1512.79 828.665 1512.51 830.935 1509.9C833.204 1507.29 832.928 1503.34 830.317 1501.07Z" fill="#D8D8D8"/>
<path fill-rule="evenodd" clip-rule="evenodd" d="M761.343 1510.74C759.429 1509.07 756.698 1508.72 754.423 1509.85C752.149 1510.98 750.781 1513.37 750.958 1515.9C751.135 1518.44 752.822 1520.62 755.232 1521.42C757.641 1522.22 760.298 1521.49 761.961 1519.57C763.051 1518.32 763.598 1516.69 763.482 1515.03C763.366 1513.37 762.597 1511.83 761.343 1510.74Z" fill="#D8D8D8"/>
<path fill-rule="evenodd" clip-rule="evenodd" d="M943.95 678.175C941.339 675.905 937.383 676.182 935.114 678.793C932.844 681.404 933.12 685.36 935.731 687.63C938.342 689.899 942.298 689.622 944.568 687.011C945.658 685.757 946.205 684.122 946.089 682.465C945.973 680.808 945.204 679.264 943.95 678.175Z" fill="#D8D8D8"/>
<path fill-rule="evenodd" clip-rule="evenodd" d="M848.825 789.274C846.214 787.005 842.258 787.282 839.989 789.893C837.719 792.504 837.995 796.46 840.606 798.729C843.217 800.999 847.173 800.722 849.443 798.111C851.712 795.5 851.436 791.544 848.825 789.274Z" fill="#D8D8D8"/>
<path fill-rule="evenodd" clip-rule="evenodd" d="M770.272 786.232C768.355 784.566 765.623 784.22 763.351 785.355C761.079 786.491 759.715 788.884 759.897 791.418C760.078 793.951 761.769 796.125 764.18 796.924C766.591 797.724 769.246 796.991 770.906 795.068C773.164 792.451 772.881 788.5 770.272 786.232Z" fill="#D8D8D8"/>
<path fill-rule="evenodd" clip-rule="evenodd" d="M1002.2 1532.67C999.016 1529.89 994.471 1529.31 990.687 1531.19C986.903 1533.08 984.626 1537.05 984.918 1541.27C985.211 1545.49 988.015 1549.11 992.022 1550.45C996.03 1551.79 1000.45 1550.59 1003.22 1547.4C1007.01 1543.05 1006.55 1536.45 1002.2 1532.67Z" fill="#D8D8D8"/>
<path fill-rule="evenodd" clip-rule="evenodd" d="M638.277 1294.01C635.091 1291.23 630.545 1290.65 626.761 1292.53C622.977 1294.41 620.7 1298.39 620.993 1302.61C621.285 1306.82 624.089 1310.45 628.096 1311.79C632.104 1313.13 636.526 1311.93 639.298 1308.74C643.081 1304.39 642.624 1297.79 638.277 1294.01Z" fill="#D8D8D8"/>
<path fill-rule="evenodd" clip-rule="evenodd" d="M517.405 1227.25C524.453 1219.14 523.595 1206.85 515.488 1199.81C507.381 1192.76 495.095 1193.62 488.047 1201.73C480.999 1209.83 481.857 1222.12 489.964 1229.17C498.071 1236.22 510.357 1235.36 517.405 1227.25Z" fill="#D8D8D8"/>
<path fill-rule="evenodd" clip-rule="evenodd" d="M1149.39 943.42C1144.05 938.771 1136.43 937.798 1130.09 940.955C1123.75 944.112 1119.94 950.777 1120.43 957.841C1120.92 964.905 1125.62 970.977 1132.34 973.224C1139.05 975.472 1146.46 973.452 1151.11 968.108C1157.45 960.814 1156.68 949.764 1149.39 943.42Z" fill="#D8D8D8"/>
<path fill-rule="evenodd" clip-rule="evenodd" d="M531.714 800.66C525.778 795.494 517.314 794.414 510.271 797.924C503.227 801.433 498.992 808.841 499.54 816.691C500.089 824.542 505.313 831.287 512.776 833.782C520.239 836.276 528.471 834.028 533.63 828.085C540.668 819.98 539.81 807.706 531.714 800.66Z" fill="#D8D8D8"/>
<path fill-rule="evenodd" clip-rule="evenodd" d="M885.283 570.988C880.868 567.15 874.575 566.35 869.34 568.962C864.104 571.574 860.958 577.083 861.368 582.919C861.778 588.755 865.663 593.769 871.213 595.622C876.762 597.475 882.881 595.802 886.716 591.383C889.232 588.489 890.495 584.713 890.226 580.888C889.957 577.063 888.179 573.501 885.283 570.988Z" fill="#D8D8D8"/>
<path fill-rule="evenodd" clip-rule="evenodd" d="M931.436 1110.58C927.483 1107.14 921.492 1107.56 918.055 1111.51C914.618 1115.47 915.037 1121.46 918.99 1124.89C922.943 1128.33 928.934 1127.91 932.371 1123.96C935.808 1120 935.39 1114.01 931.436 1110.58Z" fill="#D8D8D8"/>
</g>
</g>
</g>
</svg>
