<?xml version="1.0" encoding="utf-8"?>
<!-- Generator: Adobe Illustrator 23.0.0, SVG Export Plug-In . SVG Version: 6.00 Build 0)  -->
<svg version="1.1" id="Layer_1" xmlns="http://www.w3.org/2000/svg" xmlns:xlink="http://www.w3.org/1999/xlink" x="0px" y="0px"
	 viewBox="0 0 1920 912" style="enable-background:new 0 0 1920 912;" xml:space="preserve">
<style type="text/css">
	.st0{fill:#FFFFFF;}
	.st1{opacity:0.31;}
	.st2{opacity:0.4;fill-rule:evenodd;clip-rule:evenodd;fill:#0C053A;enable-background:new    ;}
	.st3{opacity:0.7;}
	.st4{fill-rule:evenodd;clip-rule:evenodd;fill:#0C053A;}
</style>
<rect class="st0" width="1920" height="912"/>
<g>
	<g class="st1">
		<path class="st2" d="M779,136.7c0.1,0.1,0.2,0.1,0.4,0c0.1,0,0.1,0,0.2-0.1c0.1,0,0.1-0.1,0.2-0.2c0.1-0.1,0.1-0.3,0-0.4L716-73.2
			l1.4-1.2c0.2-0.1,0.2-0.3,0.1-0.5l-0.1-0.1c0,0-0.1-0.1-0.2-0.1h-0.1c0,0,0,0-0.1,0l-1.7-0.1l-0.5-1.5c0-0.1-0.1-0.1-0.1-0.2
			c-0.1-0.1-0.3-0.2-0.5-0.1c-0.3,0.1-0.4,0.4-0.3,0.6l0.4,1.2L479.6-85.8l101.2-167.5c0-0.1,0.1-0.2,0.1-0.2c0-0.1,0-0.2-0.1-0.3
			c-0.1-0.2-0.3-0.2-0.4-0.2l-212.7,14.8l6-81.6l120.8-51.9c0.2-0.1,0.4-0.4,0.3-0.6l-0.1-0.1c-0.1-0.2-0.4-0.2-0.6-0.1L373.8-322
			l11.4-155.2c0-0.1,0-0.2,0-0.2l-17.9-42.7l-0.9,0.4l17.7,42.4L178.4-339.8l188.8-175.4c0.2-0.1,0.2-0.4,0.1-0.6
			c-0.1-0.2-0.3-0.3-0.6-0.2l-214.4,60l104.9-176.6c0.1-0.2,0.1-0.5-0.1-0.6s-0.4-0.1-0.6,0L124.8-515.6l-29.6,6.9l29.9-131.7
			l136.1,5.2c0.3,0,0.5-0.2,0.5-0.4c0-0.1,0-0.2-0.1-0.3s-0.2-0.2-0.3-0.2l-136-5.2l32.4-110.9c0-0.1,0-0.2,0-0.3l0,0l-0.1-0.1l0,0
			v-0.1l-194.1-104L4.7-935c0.1-0.2,0.1-0.4-0.1-0.5l-0.1-0.1l-160.6-86.6h-0.1c0,0-0.1,0-0.2,0l0,0l0,0c0,0,0,0-0.1,0.1
			c-0.1,0-0.1,0.1-0.2,0.1l0,0l0,0l0,0l-85.6,186l3.2-128.7c0-0.1,0-0.2-0.1-0.3s-0.2-0.2-0.3-0.2c-0.3,0-0.5,0.2-0.5,0.5
			l-3.2,130.1l-83.4-54.6c-0.1-0.1-0.3-0.1-0.5,0s-0.3,0.2-0.3,0.4L-366-663.5L-501-738c-0.1-0.1-0.3-0.1-0.5,0
			c-0.1,0.1-0.2,0.2-0.2,0.4l-1.5,119.6l-141.7,32.6l-0.1,0.1l0,0l-189.4,142.1c0,0.1-0.1,0.1-0.1,0.2s0,0.1,0,0.1
			c0,0.1,0,0.2,0.1,0.3c0.1,0.1,0.2,0.1,0.3,0.2l205.5,49.3L-682.2-219c0,0.1,0,0.2,0,0.2l0,0l0.1,0.1c0,0.1,0.1,0.1,0.2,0.2l0,0
			l0,0L-442-188L-568.1-66h-0.1l-0.1,0.1c0,0.1-0.1,0.2,0,0.3c0,0.1,0.1,0.2,0.2,0.2v0.1l0.1,0.1l149.2,20.1l220.8,18L-395.4,116
			l-23.2-157.9c0-0.1-0.1-0.2-0.1-0.2c-0.1-0.1-0.2-0.1-0.3-0.2c-0.2,0-0.4,0.1-0.5,0.3l-42.1,82.6c-0.1,0.2-0.1,0.3,0,0.5
			s0.3,0.2,0.4,0.2c0.2,0,0.3-0.1,0.4-0.3l41.4-81.2l23,156.9l0.1,0.1c-0.1,0.1-0.1,0.3,0,0.5s0.4,0.3,0.6,0.2l199.4-77.2
			L-357.1,161c-0.2,0.2-0.3,0.4-0.1,0.7l66.6,97.7c0.1,0.1,0.1,0.1,0.2,0.2c0.1,0,0.1,0,0.1,0s0.1,0,0.2,0l141.9-30.1l-66.4,91.5
			c0,0,0,0.1-0.1,0.2l0,0c0,0.1,0,0.2,0,0.2v0.1c0.1,0.1,0.2,0.2,0.3,0.2l155.6,38.8l-83.5,75.2c-0.2,0.2-0.2,0.5,0,0.7
			s0.5,0.2,0.7,0l83.5-75.2l10.7,113.2l0,0l0,0l0,0l0,0l0,0c0,0.1,0.1,0.1,0.1,0.1v0.1l168.9,90.6l-9.8,145.6c0,0.3,0.2,0.5,0.4,0.5
			c0.3,0,0.5-0.2,0.5-0.4l9.7-145.6l280-122.2h0.1c0.1,0,0.2-0.1,0.2-0.2h0.1L448,277.8L544.1,77l82.3,160.3l-175.3,41.4
			c-0.1,0-0.2,0.1-0.2,0.1l-0.1,0.1c-0.1,0.1-0.1,0.3,0,0.4l44.4,89c0.1,0.2,0.4,0.3,0.7,0.2c0.2-0.1,0.3-0.4,0.2-0.7L452,279.5
			l175.4-41.4h0.1c0,0,0,0,0.1,0l0,0l0,0l0,0l0,0l0.1-0.1l0.1-0.1l84.9-308l2.5-2.1l63.7,208.9C778.8,136.6,778.9,136.7,779,136.7z
			 M711.3-69.2l-84.2,305.4L544.9,76L711.3-69.2z M542.8,77.8L428.6,179.3l19.4,96.8L542.8,77.8z M172.1,369.3l255.6-189.4
			l19.4,97.3L172.1,369.3z M334.7-89.8l-200.8-79.7L368.7,45l-0.1-0.1c-0.1-0.2,0-0.4,0.1-0.5c0,0,0,0,0.1-0.1L334.7-89.8z
			 M477.8-85.9l-142.1-4.7l31.7-147L477.8-85.9z M2-694.2l-111.8,16.7l-34.5,16.4l50.1,163.7L2.6-692L2-694.2z M3.8-694.4l-0.5,1.1
			l-0.3-1L3.8-694.4z M-522.5-498.4l135.1,7.8l-115-126L-522.5-498.4z M-524.7-497.5l1.1,0.1l-0.1,0.7L-524.7-497.5z M-522.6-497.4
			l-0.2,1.3l86.7,86.5l49.1-80L-522.6-497.4z M-92.4,201.2l8.1,37.4l-15.3,8.3L-92.4,201.2z M-99.7,248l40.1,105.8l-24.5-114.1
			L-99.7,248z M66.4,156.8l-150,81.3l-8.4-39.2L66.4,156.8z M113.5,181.2l121.3-97.5L57.6,109.4l-2,0.7l15.1,44.8L113.5,181.2z
			 M-54.9,356.2L70.4,155.9l24.1,14.8l18.2,11.2L-54.9,356.2z M114.1,182l55.2,186.8l66.4-284.5L114.1,182z M-63-310.9L-63-310.9
			L-63-310.9L-226.9-83.7l126.9-252l38.8,20.1l2.5,1.1L-63-310.9z M16.8-473.2L-84.4-493l-9.5-1.9l-14.2,97.2l8.2,59.7L-52-440.2
			c0.1-0.1,0.1-0.2,0.2-0.2L16.8-473.2z M-111-677.9l-33.7,16L-161-707L-111-677.9z M-162.1-707.3l-43.1,34.3l59.4,11.2
			L-162.1-707.3z M-206.4-672.4c0,0.1,0.1,0.1,0.1,0.1l60.8,11.4l-39,144.4l-22-155.7v-0.1l0,0l0,0l-32.3-39.6l1.3-3.1l74.6,7.3
			l-43.5,34.6c0,0-0.1,0.1-0.1,0.2l0,0l0,0l0,0l0,0l0,0l0,0c0,0.1,0,0.1,0,0.2c0,0.1,0,0.1,0,0.2
			C-206.6-672.5-206.6-672.5-206.4-672.4L-206.4-672.4C-206.5-672.5-206.5-672.5-206.4-672.4C-206.5-672.4-206.5-672.4-206.4-672.4
			C-206.5-672.4-206.5-672.4-206.4-672.4z M-237.3-716l74.7,7.4l-36-102.3L-237.3-716z M-239.1-714.2v-1h0.5L-239.1-714.2z
			 M-321.7-480.8l-22.2,52.8l44.2,30.5l139.6-13.9L-321.7-480.8z M-185-513.5l26.1,101.6l-161.5-69.4L-185-513.5z M-322.7-481
			l-63.3-8.4l-1.9,3l43.2,57.7L-322.7-481z M-185.2-514.4L-322-481.9l-63.2-8.4L-207.4-671L-185.2-514.4z M-184.1-514.4l89.2,18.2
			l-50-163.3L-184.1-514.4z M-158.1-412.1l-26-101.3l88.6,18.1L-158.1-412.1z M-157.5-411.3l48.4,13l14-95.8L-157.5-411.3z
			 M-109-396.9l8.3,60.2l-194.1,88.4L-109-396.9z M-297.5-245.9L-230-79.6l128.7-255.7L-297.5-245.9z M-61.5-316.9l-38.1-19.7
			l47.3-100.9L-61.5-316.9z M-57.6-311.6l2.5-0.3l-1.3-1.6l-0.7-0.3L-57.6-311.6z M-61.2-311.3l3.2-2.7l-0.6,2.4L-61.2-311.3z
			 M-53.9-312l0.8-0.1l-1.3-0.6L-53.9-312z M-126.3-33.2l68.5-277.5l3.4-0.4L71.5-157L-126.3-33.2z M-131.4-28.8l-1,0.6h2.2
			L-131.4-28.8z M-127.8-31.1l-0.7,2.7l-2-1L-127.8-31.1z M-126.6-31.8l-0.9,3.5l150-27l48.6-100.3L-126.6-31.8z M23.6-55.5
			l48.5-100.2l30.6,85.9L23.6-55.5z M103.4-71l27.6-99.2l-58,13.6L103.4-71z M-35.6,66.9L23.2-54.5L102-68.6L-35.6,66.9z
			 M-36.9,69.5l-3.7,7.6l95.5,30.6l47.5-175.5L-36.9,69.5z M22-54.2L-37.7,68.9l-5.6,5.6l-83.9-101.9L22-54.2z M73.7-157.8
			l57.5-13.5l7.5-57.2L73.7-157.8z M194.5-189.9l-62.3,18.4l7.6-57.5L194.5-189.9z M104-69.7L366,43.8L131.9-170L104-69.7z
			 M57.6,108.5l-1.7-0.6l47.8-176.3L235.6,82.8L57.6,108.5z M55.6,108.9l-0.1,0.3L56,109L55.6,108.9z M-96.6,163.3l151.3-52.8
			l15,44.3L-96.6,163.3z M65.7,156l-165,8.3l7.2,33.7L65.7,156z M54.7,108.7l-0.3,0.9l-153.2,53.5L-43,75.5l4.1-4l-2.8,5.7
			c-0.1,0.1-0.1,0.3,0,0.4s0.2,0.2,0.3,0.3L54.7,108.7z M-44.1,75.5l-147.8-36.2l92,123.8L-44.1,75.5z M-128.1-27l83.5,101.4
			l-147.6-36.1L-128.1-27z M-129.2-27.3l-66.9,0.4l3.4,64.3L-129.2-27.3z M-58.8-310.5l-68.6,278.1l-4.1,2.5l-95.4-45.5v-0.1
			c0,0,0-0.1-0.1-0.1c-0.1-0.1-0.2-0.1-0.3-0.2l-0.5-0.1l-1.7-2.5l167-231.7L-58.8-310.5z M-230.3-77.9l-5.9,1l7.1,0.9L-230.3-77.9z
			 M-440.1-187.4l208.6,108.7l-7.9,1.4l-168.7-21.1L-440.1-187.4z M-231-79.5l-67.4-166.1l-141.5,57.2L-231-79.5z M-158-410.5
			l48.4,13l-184.8,147.9L-158-410.5z M-159.4-410.5l-140,14l1.8,149L-159.4-410.5z M-431.8-404.5l131,8L-440.5-190L-431.8-404.5z
			 M-301.6-397.5l-43.1-29.7l-90.4,18.8l3,3L-301.6-397.5z M-388.4-485.5l43,57.4l-89.7,18.6L-388.4-485.5z M-207.7-672.1
			l-32.2-39.5l0,0c-0.1-0.1-0.1-0.1-0.1-0.2l-0.1-3.5l-3-0.3l-122.1,53.1l-20.4,171.1L-207.7-672.1z M-199.2-812.1l-39.2,96
			l-0.8-0.1l-3.2-116.8L-199.2-812.1z M-161.8-709.2l70.6-114.1l-106.7,11.4L-161.8-709.2z M-110.3-678.7l-50.9-29.6L-91-821.6
			L-110.3-678.7z M-109.4-678.4L1.8-695.1l-1.1-4.4L-90-822.6L-109.4-678.4z M3.7-695.4l-1,0.1l-0.5-2.2L3.7-695.4z M3.5-691.9l1,4
			l-0.3-5.3L3.5-691.9z M-93.8-495.9L2.9-690.5l1.4,5.4c0.1,0.2,0.3,0.4,0.5,0.3l13,210.8l-102-20L-93.8-495.9z M-51.1-439.7
			l-9.3,121.2l77.7-153.9L-51.1-439.7z M-57.9-315.2l-2.5-1.1l79-156.6l92.9,15L-57.9-315.2z M-56.5-315.2l0.8,0.9l4.6,2L173-336.5
			l-60.4-120.9L-56.5-315.2z M95.6-506.3l54.3,50.4l-36.9-2.7L95.6-506.3z M-53.2-311.1L72.3-157.6l66.3-72l-189.8-81.7L-53.2-311.1
			z M360.5-238.9L140-230.4L173.8-335l1.1,0.1l190.4,95.8l-3,0.1l-0.1-0.1c-0.1-0.1-0.3-0.2-0.5-0.1L360.5-238.9z M140.8-229.5
			l54.8,39.2l161.1-47.6L140.8-229.5z M331.6-92l-198.5-78.8l62.4-18.4L331.6-92z M369.8,44.3l172.7,30.8L335.9-88.8L369.8,44.3z
			 M368.9,45.6L368.9,45.6l0.3,0.5L236.7,82.6L105.2-68.1l263,114l0,0l0,0l0,0l0,0c0.1,0,0.1,0,0.2,0h0.1l0,0l0,0l0.1-0.1
			L368.9,45.6L368.9,45.6z M237.8,83.2l187.4,95.1L369.5,46.9L237.8,83.2z M170.1,369.6l66.7-285.8l189.1,96c0,0,0,0,0.1,0h0.1h0.1
			h0.1L170.1,369.6z M447,278.4l-276.1,92.4l231.3,71.4L447,278.4z M137.1,505.4l32.5-134l231,71.3l-262.2,62.9L137.1,505.4z
			 M397.3,444.5l-258.6,62.1h-0.1c-0.1,0-0.1,0-0.1,0l0,0l-1.6-0.3l-14,57.8L397.3,444.5z M136,506.1l-14.1,58l-166-89.1L136,506.1z
			 M136.2,505.2l32.5-133.6l-214,102.3L136.2,505.2z M167.4,371.1L-46.5,473.4l-10.7-112.9L167.4,371.1z M-56.7,359.5l225.4,10.7
			l-55.4-187.4L-56.7,359.5z M-83.3,239.2l152.2-82.5l-126.4,202L-83.3,239.2z M-58.5,359.3l-41.9-110.7l-112.7,72.3L-58.5,359.3z
			 M-101.3,247.9l-111.1,71.3l65.5-90L-101.3,247.9z M-146.3,228.5l45.7,18.7l7.7-48.5l-7.2-33.5L-146.3,228.5z M-101.5,165.3
			l-45.9,63l-139.3,29.5L-101.5,165.3z M-100.6,163.8L-193,39.5L-289.3,258L-100.6,163.8z M-290.3,258.1l-65.8-96.6L-194.3,40
			L-290.3,258.1z M-392.5,115.2l198.8-77l-3.5-64.7L-392.5,115.2z M-134.2-28.2l-62.2,0.3l-30.3-46.3l94.3,45L-134.2-28.2z
			 M-197.6-28l-30.7-47l-11.1-1.4L-414.8-46L-197.6-28z M-407.8-97.5l165.1,20.8L-418-46.5l10.3-50.5c0-0.1,0-0.2,0-0.3L-407.8-97.5
			z M-419-46.4l10.3-50.6l-0.2-0.6h-0.2l-155.8,31.7L-419-46.4z M-409.2-98.6l-157,31.9l125-120.9L-409.2-98.6z M-439.7-189.4
			l141.1-57.1l-1.7-148.9L-439.7-189.4z M-478.2-377.4l36.6,188.5l-239-30.3L-478.2-377.4z M-438.1-405.7l-184.3,12.4l144.4,14.5
			L-438.1-405.7z M-479.1-377.9l-201.8,157.8l53.1-172.7L-479.1-377.9z M-626.8-394l190.5-12.8c0.1,0,0.3,0,0.4,0.2c0,0,0,0,0.1,0.1
			c0,0,0,0,0.1,0.1c0.1,0.2,0,0.4-0.2,0.6l-41.3,27.9l36,185.6l8.5-212.3l-90.6-90.5L-626.8-394z M-524.8-495.2L-628.2-394
			l-203.5-48.8L-524.8-495.2z M-832.2-443.6l307.7-52.6l-120.1-88.1L-832.2-443.6z M-526.1-498.6l-117.4-86.1l140.2-32.3
			l-20.1,118.6L-526.1-498.6z M-500.7-736.8l-1.5,118.5l135.3-44.7L-500.7-736.8z M-386.6-491.1l-115.2-126.3l135.6-44.8
			L-386.6-491.1z M-364.2-664l120.9-52.6l0,0l0,0l0,0h0.1l3,0.3l-3.2-116L-364.2-664z M-364.8-664.8l38.2-223.2l83.1,54.4
			L-364.8-664.8z M-242.2-834l43.3,21l41.3-204.9L-242.2-834z M-90.9-824.2L-198-812.8l41.8-207.1L-90.9-824.2z M3.7-935
			l-159.1-85.8L-90-824.6l52.4-32.3L3.7-935z M0.1-701.9l-89.7-121.8l52-32.1L0.1-701.9z M-36.5-855.6L1.6-699.9l3.3,4.5l2.7,1.2
			l-0.1-0.2c-0.1-0.1-0.1-0.3,0-0.4c0.1-0.1,0.2-0.2,0.3-0.2l148.3-57.4L-36.5-855.6z M8.7-694.3l147.9-57.2l-32.1,109.9L9-693.6
			L8.7-694.3z M124.1-640.6L9.6-692.2l84.7,182.7L124.1-640.6z M5.1-694.3l3.2,1.4l85.6,184.6l-75.1,34.1L5.1-694.3z M20-473.6
			l92,14.8l-17.7-48.6L20-473.6z M125.3-514.7l129.4-115.8L151.2-456.1l-55.7-51.7l29.6-6.8C125.1-514.6,125.2-514.6,125.3-514.7
			L125.3-514.7z M150.9-454.9l-37.4-2.8l59.1,118.3L150.9-454.9z M151.9-455l213.2-59.6L174-337.1L151.9-455z M172.8-335.2
			C172.8-335.2,172.7-335.2,172.8-335.2c-0.1-0.1-0.1-0.1-0.1-0.2c0,0,0,0,0-0.1l-222,23.9l188.4,81.1L172.8-335.2
			C172.8-335.1,172.8-335.2,172.8-335.2z M174.6-336.1l209.5-140l-11.3,154.4l-197.7-14.1L174.6-336.1z M372.7-320.8l-195.4-14
			l189.4,95.3L372.7-320.8z M196.7-189.5l164-48.4l5.9-0.2L334.7-90.9L196.7-189.5z M579.5-253l-211.4,14.7L478.8-86.2L579.5-253z
			 M336.5-89.6l141.9,4.7l64.7,159.3L336.5-89.6z M715.7-74.3h-0.2v0.1L715.7-74.3z M714.5-74.3l0.3,0.9l-1.7,1.5l0.7-2.4H714.5z
			 M711.7-70.8l1-3.5L479.5-84.8l65,159.9L711.7-70.8z M370,45.4l173.1,30.8L427.8,178.7l-1.2,0.9c0.1-0.1,0.1-0.3,0.1-0.4
			L370.3,46.3L370,45.4z"/>
		<g class="st3">
			<path class="st4" d="M455.5,284.9c-3.9,3.4-9.8,3-13.2-0.9s-3-9.8,0.9-13.2s9.8-3,13.2,0.9C459.8,275.6,459.3,281.5,455.5,284.9z
				"/>
			<path class="st4" d="M242.2,89.8c-3.9,3.4-9.8,3-13.2-0.9s-3-9.8,0.9-13.2c3.9-3.4,9.8-3,13.2,0.9
				C246.5,80.5,246.1,86.4,242.2,89.8z"/>
			<path class="st4" d="M173.8,376c-3.9,3.4-9.8,3-13.2-0.9s-3-9.8,0.9-13.2s9.8-3,13.2,0.9c1.6,1.9,2.4,4.3,2.3,6.8
				C176.8,372.1,175.7,374.4,173.8,376z"/>
			<path class="st4" d="M127,570.7c-2.8,2.5-6.9,3-10.3,1.3s-5.4-5.2-5.2-9c0.3-3.8,2.8-7,6.4-8.2s7.5-0.1,10,2.7
				C131.3,561.4,130.9,567.3,127,570.7z"/>
			<path class="st4" d="M58.6,113.9c-2.3,2-5.9,1.8-7.9-0.6c-2-2.3-1.8-5.9,0.6-7.9c2.3-2,5.9-1.8,7.9,0.6c1,1.1,1.5,2.6,1.4,4.1
				C60.4,111.6,59.7,113,58.6,113.9z"/>
			<path class="st4" d="M372,49.6c-2.3,2-5.9,1.8-7.9-0.6c-2-2.3-1.8-5.9,0.6-7.9c2.3-2,5.9-1.8,7.9,0.6c1,1.1,1.5,2.6,1.4,4.1
				C373.8,47.2,373.1,48.6,372,49.6z"/>
			<path class="st4" d="M547.3,79.7c-2.3,2-5.9,1.8-7.9-0.6c-2-2.3-1.8-5.9,0.6-7.9c2.3-2,5.9-1.8,7.9,0.6c1,1.1,1.5,2.6,1.4,4.1
				S548.4,78.7,547.3,79.7z"/>
			<path class="st4" d="M431.2,183.8c-1.7,1.5-4.2,1.8-6.2,0.8s-3.2-3.2-3.1-5.4c0.2-2.3,1.7-4.2,3.8-4.9c2.2-0.7,4.5,0,6,1.7
				C433.8,178.2,433.5,181.8,431.2,183.8z"/>
		</g>
	</g>
	<g class="st1">
		<path class="st2" d="M1107.3,148.3c-0.1,0.1-0.2,0.1-0.4,0c-0.1,0-0.1,0-0.2-0.1c-0.1,0-0.1-0.1-0.2-0.2c-0.1-0.1-0.1-0.3,0-0.4
			l63.8-209.3l-1.4-1.2c-0.2-0.1-0.2-0.3-0.1-0.5l0.1-0.1c0,0,0.1-0.1,0.2-0.1h0.1c0,0,0,0,0.1,0l1.7-0.1l0.5-1.5
			c0-0.1,0.1-0.1,0.1-0.2c0.1-0.1,0.3-0.2,0.5-0.1c0.3,0.1,0.4,0.4,0.3,0.6l-0.3,1.2l234.7-10.5l-101.3-167.5c0-0.1-0.1-0.2-0.1-0.2
			c0-0.1,0-0.2,0.1-0.3c0.1-0.2,0.3-0.2,0.4-0.2l212.7,14.8l-6-81.6l-120.8-51.9c-0.2-0.1-0.4-0.4-0.3-0.6l0.1-0.1
			c0.1-0.2,0.4-0.2,0.6-0.1l120.4,51.6l-11.4-155.2c0-0.1,0-0.2,0-0.2l17.9-42.7l0.9,0.4l-17.7,42.4L1708-328.1l-189-175.6
			c-0.2-0.1-0.2-0.4-0.1-0.6s0.3-0.3,0.6-0.2l214.4,60L1629-621.1c-0.1-0.2-0.1-0.5,0.1-0.6c0.2-0.2,0.4-0.1,0.6,0L1761.5-504
			l29.6,6.9l-29.9-131.7l-136.1,5.2c-0.3,0-0.5-0.2-0.5-0.4c0-0.1,0-0.2,0.1-0.3s0.2-0.2,0.3-0.2l136-5.2l-32.4-110.9
			c0-0.1,0-0.2,0-0.3l0,0l0.1-0.1l0,0l0.1-0.1l194-104l-41.3-78.3c-0.1-0.2-0.1-0.4,0.1-0.5l0.1-0.1l160.6-86.6h0.1
			c0.1,0,0.1,0,0.2-0.1l0,0l0,0c0,0,0,0,0.1,0s0.1,0.1,0.2,0.1l0,0l0,0l0,0l85.6,186.1l-3.2-128.7c0-0.1,0-0.2,0.1-0.3
			s0.2-0.2,0.4-0.2c0.3,0,0.5,0.2,0.5,0.5l3.2,130.1l83.4-54.6c0.1-0.1,0.3-0.1,0.4,0c0.2,0.1,0.3,0.2,0.3,0.4l38.6,225.3
			l134.9-74.4c0.1-0.1,0.3-0.1,0.5,0s0.2,0.2,0.3,0.4l1.5,119.6l141.7,32.6l0.1,0.1l0,0l189.4,142.1c0.1,0.1,0.1,0.1,0.1,0.2
			s0,0.1,0,0.1c0,0.1,0,0.2-0.1,0.3c-0.1,0.1-0.2,0.1-0.3,0.2L2515-381.5l53.5,174.1c0,0.1,0,0.2,0,0.2l0,0l-0.1,0.1
			c0,0.1-0.1,0.1-0.2,0.2l0,0l0,0l-239.9,30.5l126.1,121.8h0.1l0.1,0.1c0,0.1,0.1,0.2,0,0.3c0,0.1-0.1,0.2-0.2,0.2l-0.1,0.1
			l-0.1,0.1L2305-33.7l-220.7,18.2l197.4,143.1l23.2-157.9c0-0.1,0.1-0.2,0.1-0.2c0.1-0.1,0.2-0.1,0.3-0.2c0.2,0,0.4,0.1,0.5,0.3
			l42.1,82.6c0.1,0.2,0.1,0.3,0,0.5c-0.1,0.1-0.3,0.2-0.4,0.2c-0.2,0-0.3-0.1-0.4-0.3l-41.4-81.2l-23,156.9l-0.1,0.1
			c0.1,0.1,0.1,0.3,0,0.5s-0.4,0.3-0.6,0.2l-199.4-77.2l160.9,120.7c0.2,0.2,0.3,0.4,0.1,0.7L2177,271c-0.1,0.1-0.1,0.1-0.2,0.1
			c-0.1,0-0.1,0-0.1,0c-0.1,0-0.1,0-0.2,0l-142-30.1l66.4,91.5c0,0,0,0.1,0.1,0.2l0,0c0,0.1,0,0.2,0,0.2l-0.1,0.1
			c-0.1,0.1-0.1,0.2-0.3,0.2L1945,371.9l83.5,75.2c0.2,0.2,0.2,0.5,0,0.7s-0.5,0.2-0.7,0l-83.5-75.2l-10.7,113.2l0,0l0,0l0,0l0,0
			l0,0c0,0.1-0.1,0.1-0.1,0.1l-0.1,0.1l-168.9,90.6l9.8,145.6c0,0.3-0.2,0.5-0.4,0.5c-0.3,0-0.5-0.2-0.5-0.4l-9.8-145.6l-280-122.2
			h-0.1c-0.1,0-0.2-0.1-0.2-0.2h-0.1L1438,289.2l-96-200.7l-82.3,160.3l175.3,41.4c0.1,0,0.2,0.1,0.2,0.1l0.1,0.1
			c0.1,0.1,0.1,0.3,0,0.4l-44.4,89c-0.1,0.2-0.4,0.3-0.7,0.2c-0.2-0.1-0.3-0.4-0.2-0.7l44.1-88.5l-175.3-41.4h-0.1c0,0,0,0-0.1,0
			l0,0l0,0l0,0l0,0l-0.1-0.1l-0.1-0.1l-84.9-308l-2.4-2.1L1107.4,148C1107.4,148.2,1107.4,148.3,1107.3,148.3z M1174.9-57.6
			l84.2,305.4l82.3-160.3L1174.9-57.6z M1343.4,89.4l114.3,101.4l-19.4,96.8L1343.4,89.4z M1714.2,380.9l-255.6-189.4l-19.4,97.3
			L1714.2,380.9z M1551.6-78.2l200.8-79.7L1517.6,56.6l0.1-0.1c0.1-0.2,0-0.4-0.1-0.5c0,0,0,0-0.1-0.1L1551.6-78.2z M1408.5-74.3
			l142.1-4.7l-31.7-147L1408.5-74.3z M1884.2-682.6l111.8,16.7l34.5,16.4l-50.1,163.7l-96.8-194.8L1884.2-682.6z M1882.5-682.8
			l0.5,1.1l0.2-0.9L1882.5-682.8z M2408.7-486.8l-135.1,7.8l115-126L2408.7-486.8z M2410.9-485.9l-1.1,0.1l0.1,0.7L2410.9-485.9z
			 M2408.9-485.8l0.2,1.3l-86.7,86.6l-49.1-80L2408.9-485.8z M1978.7,212.8l-8.1,37.4l15.3,8.3L1978.7,212.8z M1986,259.6
			l-40.1,105.8l24.5-114.1L1986,259.6z M1819.8,168.4l150,81.3l8.4-39.2L1819.8,168.4z M1772.8,192.8l-121.3-97.5l177.2,25.7l2,0.7
			l-15.1,44.8L1772.8,192.8z M1941.2,367.8l-125.3-200.3l-24.1,14.8l-18.2,11.2L1941.2,367.8z M1772.2,193.6L1717,380.4l-66.4-284.5
			L1772.2,193.6z M1949.2-299.3L1949.2-299.3L1949.2-299.3L2113.1-72l-126.9-252.1l-38.8,20.1l-2.5,1.1L1949.2-299.3z M1869.4-461.6
			l101.2-19.8l9.5-2l14.2,97.2l-8.2,59.7l-47.9-102.2c-0.1-0.1-0.1-0.2-0.2-0.2L1869.4-461.6z M1997.2-666.3l33.7,16l16.3-45.1
			L1997.2-666.3z M2048.3-695.7l43.1,34.3l-59.4,11.2L2048.3-695.7z M2092.7-660.8c0,0.1-0.1,0.1-0.1,0.1l-60.8,11.4l39,144.4
			l22-155.7v-0.1l0,0l0,0l32.3-39.6l-1.3-3.1l-74.6,7.3l43.5,34.6c0.1,0,0.1,0.1,0.1,0.2l0,0l0,0l0,0l0,0l0,0l0,0c0,0.1,0,0.1,0,0.2
			C2092.8-661,2092.8-661,2092.7-660.8C2092.8-660.9,2092.8-660.9,2092.7-660.8L2092.7-660.8
			C2092.8-660.9,2092.8-660.9,2092.7-660.8C2092.8-660.8,2092.7-660.8,2092.7-660.8L2092.7-660.8z M2123.6-704.4l-74.7,7.4l36-102.3
			L2123.6-704.4z M2125.3-702.6v-1h-0.5L2125.3-702.6z M2208-469.2l22.2,52.8l-44.2,30.5l-139.6-13.9L2208-469.2z M2071.3-501.9
			l-26.1,101.6l161.5-69.4L2071.3-501.9z M2209-469.4l63.3-8.4l1.9,3l-43.2,57.7L2209-469.4z M2071.5-502.9l136.8,32.6l63.2-8.4
			l-177.9-180.7L2071.5-502.9z M2070.4-502.9l-89.2,18.2l50-163.3L2070.4-502.9z M2044.3-400.5l26-101.3l-88.6,18.1L2044.3-400.5z
			 M2043.7-399.7l-48.4,13l-14-95.8L2043.7-399.7z M1995.3-385.3L1987-325l194.1,88.4L1995.3-385.3z M2183.8-234.3L2116.3-68
			l-128.7-255.7L2183.8-234.3z M1947.8-305.3l38.1-19.7l-47.3-100.9L1947.8-305.3z M1943.8-300.1l-2.5-0.3l1.3-1.6l0.7-0.3
			L1943.8-300.1z M1947.4-299.7l-3.2-2.7l0.6,2.4L1947.4-299.7z M1940.1-300.4l-0.8-0.1l1.3-0.6L1940.1-300.4z M2012.5-21.6
			L1944-299.1l-3.4-0.4l-125.9,154L2012.5-21.6z M2017.7-17.2l1,0.6h-2.2L2017.7-17.2z M2014.1-19.5l0.7,2.7l2-1L2014.1-19.5z
			 M2012.9-20.2l0.8,3.5l-150-27L1815.2-144L2012.9-20.2z M1862.6-43.9l-48.5-100.2l-30.6,85.9L1862.6-43.9z M1782.9-59.4
			l-27.6-99.2l58,13.6L1782.9-59.4z M1921.9,78.5l-58.8-121.4L1784.3-57L1921.9,78.5z M1923.1,81.1l3.7,7.6l-95.5,30.6l-47.5-175.5
			L1923.1,81.1z M1864.3-42.6L1924,80.5l5.6,5.6l83.9-101.9L1864.3-42.6z M1812.6-146.2l-57.5-13.5l-7.5-57.2L1812.6-146.2z
			 M1691.8-178.3l62.3,18.4l-7.6-57.5L1691.8-178.3z M1782.3-58.1l-262,113.5l234.1-213.8L1782.3-58.1z M1828.7,120.1l1.7-0.6
			l-47.8-176.3L1650.7,94.4L1828.7,120.1z M1830.7,120.5l0.1,0.3l-0.5-0.2L1830.7,120.5z M1982.8,174.9l-151.3-52.8l-15,44.3
			L1982.8,174.9z M1820.5,167.6l165,8.3l-7.2,33.7L1820.5,167.6z M1831.6,120.3l0.3,0.9l153.2,53.5l-55.8-87.5l-4.1-4l2.8,5.7
			c0.1,0.1,0.1,0.3,0,0.4s-0.2,0.2-0.3,0.3L1831.6,120.3z M1930.4,87.1l147.8-36.2l-92,123.8L1930.4,87.1z M2014.4-15.4L1930.9,86
			l147.6-36.1L2014.4-15.4z M2015.5-15.7l66.9,0.4L2079,49L2015.5-15.7z M1945.1-299l68.6,278.1l4.1,2.5l95.4-45.5V-64
			c0,0,0-0.1,0.1-0.1c0.1-0.1,0.2-0.1,0.3-0.2l0.5-0.1l1.6-2.5l-167-231.7L1945.1-299z M2116.6-66.3l5.9,1l-7.1,0.9L2116.6-66.3z
			 M2326.4-175.8L2117.8-67.1l7.9,1.4l168.8-21.1L2326.4-175.8z M2117.3-67.9l67.4-166.1l141.5,57.2L2117.3-67.9z M2044.3-398.9
			l-48.4,13L2180.7-238L2044.3-398.9z M2045.7-398.9l140,14l-1.8,149L2045.7-398.9z M2318.1-392.9l-131,8l139.7,206.5L2318.1-392.9z
			 M2187.9-385.9l43.1-29.7l90.4,18.8l-3,3L2187.9-385.9z M2274.7-473.9l-43,57.4l89.7,18.6L2274.7-473.9z M2094-660.5l32.2-39.5
			l0,0c0.1-0.1,0.1-0.1,0.1-0.2l0.1-3.5l3-0.3l122.1,53.1l20.4,171.1L2094-660.5z M2085.4-800.5l39.2,96l0.8-0.1l3.2-116.8
			L2085.4-800.5z M2048-697.6l-70.6-114.1l106.7,11.4L2048-697.6z M1996.6-667.1l50.9-29.6l-70.2-113.4L1996.6-667.1z M1995.7-666.8
			l-111.2-16.6l1.1-4.4l90.7-123.1L1995.7-666.8z M1882.6-683.8l1,0.1l0.5-2.2L1882.6-683.8z M1882.7-680.3l-1,4l0.3-5.3
			L1882.7-680.3z M1980.1-484.3l-96.7-194.6l-1.4,5.4c-0.1,0.2-0.3,0.4-0.5,0.3l-13,210.8l102-20L1980.1-484.3z M1937.3-428.1
			l9.3,121.2L1869-460.8L1937.3-428.1z M1944.2-303.6l2.5-1.1l-79-156.6l-92.9,15L1944.2-303.6z M1942.8-303.6l-0.8,0.9l-4.6,2
			l-224.1-24.2l60.4-120.9L1942.8-303.6z M1790.6-494.7l-54.3,50.4l36.9-2.7L1790.6-494.7z M1939.4-299.5L1814-146l-66.3-72
			l189.8-81.7L1939.4-299.5z M1525.7-227.3l220.5,8.5l-33.8-104.7l-1.1,0.1L1521-227.5l3,0.1l0.1-0.1c0.1-0.1,0.3-0.2,0.5-0.1
			L1525.7-227.3z M1745.4-217.9l-54.8,39.2l-161.1-47.6L1745.4-217.9z M1554.7-80.4l198.5-78.8l-62.4-18.4L1554.7-80.4z
			 M1516.5,55.9l-172.7,30.8l206.6-163.9L1516.5,55.9z M1517.4,57.2L1517.4,57.2l-0.3,0.5l132.5,36.5l131.5-150.7l-263,114l0,0l0,0
			l0,0l0,0c-0.1,0-0.1,0-0.2,0h-0.1l0,0l0,0l-0.1-0.1L1517.4,57.2L1517.4,57.2z M1648.5,94.8l-187.4,95.1l55.7-131.4L1648.5,94.8z
			 M1716.2,381.2l-66.7-285.8l-189.1,96l0,0h-0.1h-0.1h-0.1L1716.2,381.2z M1439.3,290l276.1,92.4l-231.3,71.4L1439.3,290z
			 M1749.1,516.9l-32.5-134l-231,71.3l262.1,62.9L1749.1,516.9z M1489,456.1l258.6,62.1h0.1c0.1,0,0.1,0,0.1,0l0,0l1.6-0.3l14,57.8
			L1489,456.1z M1750.3,517.7l14.1,58l166-89.1L1750.3,517.7z M1750.1,516.8l-32.5-133.6l214,102.3L1750.1,516.8z M1718.8,382.7
			l214,102.3l10.7-112.9L1718.8,382.7z M1942.9,371.1l-225.4,10.7l55.4-187.4L1942.9,371.1z M1969.5,250.8l-152.2-82.5l126.5,202.1
			L1969.5,250.8z M1944.8,370.9l41.9-110.7l112.7,72.3L1944.8,370.9z M1987.6,259.5l111.1,71.3l-65.5-90L1987.6,259.5z
			 M2032.6,240.1l-45.7,18.7l-7.7-48.5l7.2-33.5L2032.6,240.1z M1987.7,176.9l45.9,63l139.3,29.5L1987.7,176.9z M1986.9,175.4
			l92.4-124.3l96.2,218.5L1986.9,175.4z M2176.6,269.7l65.8-96.6L2080.6,51.6L2176.6,269.7z M2278.8,126.8l-198.8-77l3.5-64.7
			L2278.8,126.8z M2020.5-16.6l62.2,0.3l30.4-46.3l-94.3,45L2020.5-16.6z M2083.9-16.4l30.7-47l11.1-1.4l175.4,30.4L2083.9-16.4z
			 M2294.1-85.9L2129-65.1l175.3,30.3L2294-85.3c0-0.1,0-0.2,0-0.3L2294.1-85.9z M2305.2-34.8l-10.3-50.6l0.2-0.6h0.2l155.8,31.7
			L2305.2-34.8z M2295.5-87l157,31.9l-125-120.9L2295.5-87z M2326-177.8l-141.1-57.1l1.7-148.9L2326-177.8z M2364.5-365.8
			l-36.6,188.5l239-30.3L2364.5-365.8z M2324.3-394.2l184.3,12.4l-144.4,14.5L2324.3-394.2z M2365.4-366.4l201.8,157.8L2514-381.3
			L2365.4-366.4z M2513.1-382.4l-190.5-12.8c-0.1,0-0.3,0-0.4,0.2c0,0,0,0-0.1,0.1c0,0,0,0,0,0.1c-0.1,0.2,0,0.4,0.2,0.6l41.3,27.9
			l-36,185.6L2319-393l90.6-90.5L2513.1-382.4z M2411-483.7l103.5,101.3l203.5-48.8L2411-483.7z M2718.5-432l-307.7-52.6l120.1-88.1
			L2718.5-432z M2412.4-487l117.4-86.1l-140.2-32.3l20.1,118.6L2412.4-487z M2387-725.2l1.5,118.5l-135.3-44.7L2387-725.2z
			 M2272.9-479.5l115.2-126.3l-135.6-44.8L2272.9-479.5z M2250.5-652.4L2129.6-705c0,0,0,0-0.1,0l0,0l0,0h-0.1l-3,0.3l3.2-116
			L2250.5-652.4z M2251.1-653.2l-38.2-223.2l-83.1,54.4L2251.1-653.2z M2128.4-822.4l-43.3,21l-41.3-204.9L2128.4-822.4z
			 M1977.2-812.7l107,11.4l-41.8-207.1L1977.2-812.7z M1882.6-923.4l159.1-85.8L1976.2-813l-52.4-32.3L1882.6-923.4z M1886.1-690.3
			l89.7-121.8l-52-32.1L1886.1-690.3z M1922.7-844l-38.1,155.8l-3.3,4.5l-2.7,1.2l0.1-0.2c0.1-0.1,0.1-0.3,0-0.4
			c-0.1-0.1-0.2-0.2-0.3-0.2l-148.3-57.4L1922.7-844z M1877.6-682.8L1729.7-740l32.1,109.9l115.4-52L1877.6-682.8z M1762.1-629
			l114.5-51.6l-84.7,182.7L1762.1-629z M1881.1-682.7l-3.2,1.4l-85.6,184.6l75.1,34.1L1881.1-682.7z M1866.3-462l-92,14.8l17.7-48.6
			L1866.3-462z M1760.9-503.1l-129.4-115.8L1735-444.5l55.7-51.7l-29.6-6.8C1761.1-503,1761.1-503.1,1760.9-503.1
			C1761-503.1,1761-503.1,1760.9-503.1z M1735.4-443.3l37.4-2.8l-59.1,118.3L1735.4-443.3z M1734.4-443.4L1521.2-503l191.1,177.5
			L1734.4-443.4z M1713.5-323.6L1713.5-323.6c0.1-0.1,0.1-0.1,0.1-0.2c0,0,0,0,0-0.1l222,23.9l-188.4,81.1L1713.5-323.6
			C1713.4-323.6,1713.5-323.6,1713.5-323.6z M1711.7-324.5l-209.5-140l11.3,154.4l197.7-14.1L1711.7-324.5z M1513.5-309.2l195.3-14
			l-189.4,95.3L1513.5-309.2z M1689.6-178l-164-48.4l-5.9-0.2l31.8,147.2L1689.6-178z M1306.8-241.4l211.4,14.7L1407.5-74.6
			L1306.8-241.4z M1549.8-78l-141.9,4.7L1343.1,86L1549.8-78z M1170.6-62.7h0.2v0.1L1170.6-62.7z M1171.8-62.7l-0.3,0.9l1.7,1.5
			l-0.7-2.4H1171.8z M1174.5-59.2l-1-3.5l233.2-10.5l-65,159.9L1174.5-59.2z M1516.2,57l-173.1,30.8l115.4,102.5l1.2,0.9
			c-0.1-0.1-0.1-0.3-0.1-0.4L1516,57.9L1516.2,57z"/>
		<g class="st3">
			<path class="st4" d="M1430.8,296.5c3.9,3.4,9.8,3,13.2-0.9c3.4-3.9,3-9.8-0.9-13.2c-3.9-3.4-9.8-3-13.2,0.9
				S1426.9,293.1,1430.8,296.5z"/>
			<path class="st4" d="M1644.1,101.4c3.9,3.4,9.8,3,13.2-0.9c3.4-3.9,3-9.8-0.9-13.2s-9.8-3-13.2,0.9
				C1639.8,92.1,1640.2,98,1644.1,101.4z"/>
			<path class="st4" d="M1712.5,387.6c3.9,3.4,9.8,3,13.2-0.9c3.4-3.9,3-9.8-0.9-13.2s-9.8-3-13.2,0.9c-1.6,1.9-2.4,4.3-2.3,6.8
				C1709.4,383.7,1710.6,386,1712.5,387.6z"/>
			<path class="st4" d="M1759.2,582.3c2.8,2.5,6.9,3,10.3,1.3s5.4-5.2,5.2-9c-0.3-3.8-2.8-7-6.3-8.2c-3.6-1.2-7.5-0.1-10,2.7
				C1754.9,573,1755.3,578.9,1759.2,582.3z"/>
			<path class="st4" d="M1827.7,125.5c2.3,2,5.9,1.8,7.9-0.6c2-2.3,1.8-5.9-0.6-7.9c-2.3-2-5.9-1.8-7.9,0.6c-1,1.1-1.5,2.6-1.4,4.1
				C1825.8,123.2,1826.5,124.6,1827.7,125.5z"/>
			<path class="st4" d="M1514.2,61.2c2.3,2,5.9,1.8,7.9-0.6c2-2.3,1.8-5.9-0.6-7.9c-2.3-2-5.9-1.8-7.9,0.6c-1,1.1-1.5,2.6-1.4,4.1
				C1512.4,58.8,1513.1,60.2,1514.2,61.2z"/>
			<path class="st4" d="M1339,91.2c2.3,2,5.9,1.8,7.9-0.6c2-2.3,1.8-5.9-0.6-7.9c-2.3-2-5.9-1.8-7.9,0.6c-1,1.1-1.5,2.6-1.4,4.1
				C1337.2,88.9,1337.9,90.3,1339,91.2z"/>
			<path class="st4" d="M1455.1,195.4c1.7,1.5,4.2,1.8,6.2,0.8s3.2-3.2,3.1-5.4c-0.2-2.3-1.7-4.2-3.8-4.9s-4.5,0-6,1.7
				C1452.5,189.8,1452.7,193.4,1455.1,195.4z"/>
		</g>
	</g>
</g>
</svg>
