<svg width="1920" height="912" viewBox="0 0 1920 912" fill="none" xmlns="http://www.w3.org/2000/svg">
<rect width="1920" height="912" transform="matrix(1 0 0 -1 0 912)" fill="white"/>
<mask id="mask0" mask-type="alpha" maskUnits="userSpaceOnUse" x="0" y="0" width="1920" height="912">
<rect width="1920" height="912" transform="matrix(1 0 0 -1 0 912)" fill="white"/>
</mask>
<g mask="url(#mask0)">
<g opacity="0.31">
<path opacity="0.4" fill-rule="evenodd" clip-rule="evenodd" d="M779.011 136.742C779.124 136.801 779.257 136.811 779.378 136.77C779.445 136.76 779.509 136.736 779.565 136.7C779.629 136.66 779.683 136.604 779.723 136.537C779.796 136.411 779.809 136.259 779.757 136.123L715.983 -73.2039L717.364 -74.4045C717.515 -74.5353 717.57 -74.7461 717.5 -74.9337L717.382 -75.0695C717.34 -75.118 717.288 -75.157 717.232 -75.185C717.194 -75.2037 717.153 -75.2176 717.112 -75.2261C717.088 -75.2309 717.064 -75.234 717.039 -75.2352L715.315 -75.3133L714.859 -76.7982C714.827 -76.8577 714.782 -76.9094 714.728 -76.9492C714.605 -77.0928 714.409 -77.1509 714.228 -77.0976C713.973 -77.0158 713.831 -76.7449 713.909 -76.489L714.26 -75.3233L479.597 -85.8137L580.843 -253.327C580.887 -253.403 580.909 -253.489 580.908 -253.574C580.908 -253.662 580.883 -253.75 580.835 -253.828C580.741 -253.981 580.571 -254.07 580.391 -254.06L367.718 -239.239L373.731 -320.866L494.536 -372.747C494.777 -372.852 494.889 -373.132 494.786 -373.374C494.761 -373.418 494.727 -373.457 494.687 -373.488C494.55 -373.644 494.329 -373.696 494.137 -373.618L373.774 -321.99L385.205 -477.148C385.207 -477.226 385.193 -477.304 385.165 -477.377L367.256 -520.111L366.365 -519.734L384.105 -477.331L178.421 -339.846L367.236 -515.257C367.407 -515.406 367.449 -515.655 367.338 -515.853C367.227 -516.051 366.992 -516.144 366.776 -516.076L152.343 -456.118L257.196 -632.728C257.321 -632.933 257.273 -633.199 257.083 -633.346C256.9 -633.496 256.635 -633.491 256.458 -633.333L124.786 -515.56L95.1596 -508.7L125.083 -640.421L261.205 -635.22C261.468 -635.206 261.695 -635.403 261.718 -635.666C261.725 -635.789 261.682 -635.909 261.6 -636C261.514 -636.101 261.389 -636.161 261.257 -636.166L125.285 -641.393L157.697 -752.249C157.727 -752.331 157.728 -752.421 157.701 -752.504L157.668 -752.541C157.639 -752.587 157.604 -752.627 157.563 -752.662L157.524 -752.707L157.478 -752.76L-36.5734 -856.749L4.68209 -935.025C4.77673 -935.201 4.75235 -935.417 4.62082 -935.568C4.59109 -935.617 4.5534 -935.66 4.50929 -935.696L-156.102 -1022.31L-156.18 -1022.31C-156.228 -1022.33 -156.279 -1022.35 -156.332 -1022.36L-156.378 -1022.32L-156.423 -1022.28C-156.446 -1022.27 -156.467 -1022.25 -156.483 -1022.23C-156.546 -1022.2 -156.598 -1022.16 -156.634 -1022.1C-156.642 -1022.1 -156.65 -1022.09 -156.657 -1022.09C-156.664 -1022.08 -156.67 -1022.08 -156.675 -1022.07C-156.68 -1022.06 -156.683 -1022.06 -156.687 -1022.06L-242.317 -835.999L-239.106 -964.746C-239.1 -964.856 -239.13 -964.965 -239.19 -965.057C-239.279 -965.159 -239.405 -965.221 -239.54 -965.23C-239.806 -965.243 -240.035 -965.043 -240.06 -964.778L-243.298 -834.642L-326.683 -889.213C-326.82 -889.299 -326.991 -889.314 -327.141 -889.252C-327.293 -889.189 -327.399 -889.051 -327.422 -888.889L-366.057 -663.587L-500.976 -738.007C-501.124 -738.088 -501.303 -738.088 -501.451 -738.005C-501.599 -737.922 -501.691 -737.766 -501.692 -737.597L-503.173 -617.985L-644.897 -585.351C-644.935 -585.324 -644.97 -585.294 -645.002 -585.26L-645.048 -585.22L-834.471 -443.083C-834.519 -443.022 -834.559 -442.956 -834.591 -442.885C-834.574 -442.82 -834.619 -442.781 -834.619 -442.781C-834.622 -442.68 -834.591 -442.581 -834.533 -442.499C-834.459 -442.41 -834.353 -442.355 -834.239 -442.343L-628.735 -393.056L-682.233 -218.979C-682.249 -218.897 -682.248 -218.812 -682.229 -218.731L-682.19 -218.685L-682.131 -218.617C-682.092 -218.542 -682.036 -218.478 -681.967 -218.429L-681.927 -218.383L-681.895 -218.346L-442.029 -187.878L-568.08 -66.0472L-568.133 -66.0013L-568.193 -65.9488C-568.233 -65.871 -568.249 -65.7835 -568.239 -65.6968C-568.198 -65.6033 -568.129 -65.5244 -568.043 -65.4704L-567.997 -65.4176C-567.953 -65.3876 -567.904 -65.3672 -567.852 -65.3578L-418.684 -45.3011L-197.975 -27.0535L-395.329 116.096L-418.566 -41.8266C-418.581 -41.9169 -418.622 -42.0009 -418.683 -42.0687C-418.752 -42.1559 -418.853 -42.2115 -418.963 -42.223C-419.171 -42.2647 -419.38 -42.1594 -419.47 -41.9678L-461.521 40.5912C-461.599 40.7441 -461.589 40.9267 -461.496 41.0705C-461.403 41.2143 -461.239 41.2973 -461.068 41.2883C-460.897 41.2793 -460.743 41.1796 -460.666 41.0267L-419.297 -40.1836L-396.252 116.726L-396.187 116.802C-396.274 116.938 -396.28 117.111 -396.204 117.254C-396.096 117.47 -395.84 117.565 -395.617 117.472L-196.239 40.2724L-357.115 160.986C-357.321 161.142 -357.367 161.434 -357.218 161.645L-290.608 259.352C-290.552 259.425 -290.473 259.477 -290.385 259.502C-290.33 259.534 -290.292 259.502 -290.292 259.502C-290.242 259.517 -290.19 259.525 -290.138 259.526L-148.196 229.445L-214.644 320.903C-214.668 320.951 -214.686 321.002 -214.697 321.055L-214.735 321.088C-214.75 321.171 -214.744 321.257 -214.717 321.337L-214.671 321.39C-214.606 321.479 -214.513 321.543 -214.407 321.571L-58.7711 360.333L-142.266 435.564C-142.457 435.744 -142.472 436.044 -142.299 436.242C-142.12 436.44 -141.816 436.458 -141.614 436.283L-58.1574 361.085L-47.4232 474.277L-47.4204 474.285C-47.4189 474.288 -47.4173 474.292 -47.4155 474.295C-47.4129 474.299 -47.41 474.303 -47.4067 474.307C-47.3987 474.317 -47.3887 474.325 -47.3772 474.33L-47.3379 474.376C-47.3126 474.427 -47.2741 474.472 -47.2264 474.504L-47.1805 474.557L121.686 565.166L111.932 710.731C111.914 710.995 112.114 711.225 112.378 711.244C112.643 711.262 112.873 711.063 112.892 710.798L122.64 565.212L402.61 443.036L402.662 442.99C402.748 442.949 402.821 442.886 402.874 442.807L402.926 442.761L448.118 277.679L544.233 76.9177L626.538 237.248L451.198 278.646C451.114 278.669 451.038 278.714 450.979 278.775C450.938 278.817 450.905 278.866 450.881 278.922C450.817 279.056 450.817 279.212 450.88 279.347L495.28 368.362C495.406 368.595 495.691 368.69 495.931 368.578C496.168 368.456 496.264 368.166 496.147 367.927L452.02 279.455L627.374 238.058L627.427 238.012C627.446 238.003 627.463 237.993 627.48 237.981C627.491 237.974 627.502 237.966 627.512 237.958C627.527 237.946 627.542 237.933 627.556 237.919C627.565 237.91 627.573 237.9 627.582 237.89C627.591 237.879 627.6 237.867 627.608 237.855L627.684 237.789L627.744 237.737L712.655 -70.3107L715.107 -72.4429L778.776 136.458C778.812 136.581 778.897 136.683 779.011 136.742ZM711.34 -69.155L627.166 236.279L544.89 76.028L711.34 -69.155ZM542.836 77.8407L428.581 179.281L447.931 276.107L542.836 77.8407ZM172.083 369.338L427.726 179.944L447.168 277.287L172.083 369.338ZM334.689 -89.7515L133.869 -169.425L368.687 45.0359L368.588 44.9227C368.514 44.7617 368.541 44.5721 368.658 44.4385C368.677 44.4151 368.7 44.3951 368.726 44.3795L334.689 -89.7515ZM477.797 -85.9184L335.67 -90.6044L367.412 -237.594L477.797 -85.9184ZM2.04443 -694.164L-109.796 -677.423L-144.346 -660.984L-94.2053 -497.246L2.57461 -692.014L2.04443 -694.164ZM3.76397 -694.426L3.23558 -693.357L2.99689 -694.303L3.76397 -694.426ZM-522.455 -498.35L-387.366 -490.541L-502.357 -616.574L-522.455 -498.35ZM-524.682 -497.513L-523.589 -497.444L-523.698 -496.792L-524.682 -497.513ZM-522.614 -497.39L-522.831 -496.115L-436.146 -409.565L-387.068 -489.528L-522.614 -497.39ZM-92.421 201.207L-84.3703 238.637L-99.6334 246.975L-92.421 201.207ZM-99.7271 248.011L-59.6379 353.772L-84.1366 239.652L-99.7271 248.011ZM66.4444 156.786L-83.5192 238.122L-91.9019 198.954L66.4444 156.786ZM113.475 181.226L234.776 83.7309L57.6085 109.399L55.5677 110.1L70.633 154.867L113.475 181.226ZM-54.9101 356.208L70.4386 155.924L94.5446 170.745L112.739 181.919L-54.9101 356.208ZM114.059 181.99L169.271 368.801L235.695 84.2701L114.059 181.99ZM-62.9747 -310.922L-63.0276 -310.876L-63.0653 -310.843L-226.864 -83.6538L-100 -335.711L-61.2023 -315.589L-58.7044 -314.514L-62.9747 -310.922ZM16.8456 -473.192L-84.3987 -493.038L-93.9238 -494.987L-108.131 -397.743L-99.9186 -337.995L-51.9777 -440.209C-51.9261 -440.294 -51.8496 -440.36 -51.7589 -440.4L16.8456 -473.192ZM-110.972 -677.938L-144.657 -661.906L-160.945 -707.028L-110.972 -677.938ZM-162.067 -707.312L-205.137 -673.025L-145.689 -661.858L-162.067 -707.312ZM-206.448 -672.429C-206.417 -672.373 -206.374 -672.324 -206.323 -672.286L-145.531 -660.869L-184.56 -516.515L-206.572 -672.176C-206.579 -672.224 -206.594 -672.272 -206.616 -672.315C-206.622 -672.326 -206.628 -672.337 -206.634 -672.348C-206.641 -672.359 -206.649 -672.37 -206.657 -672.38L-238.946 -711.993L-237.672 -715.101L-163.035 -707.756L-206.496 -673.156C-206.541 -673.116 -206.573 -673.076 -206.578 -673.005C-206.579 -672.988 -206.585 -672.971 -206.593 -672.955C-206.601 -672.938 -206.612 -672.922 -206.623 -672.908C-206.627 -672.904 -206.63 -672.899 -206.634 -672.895L-206.64 -672.888L-206.646 -672.882C-206.657 -672.87 -206.665 -672.863 -206.665 -672.863C-206.662 -672.798 -206.647 -672.735 -206.622 -672.675C-206.618 -672.615 -206.603 -672.557 -206.577 -672.502C-206.564 -672.49 -206.55 -672.48 -206.536 -672.47L-206.526 -672.464C-206.515 -672.457 -206.504 -672.452 -206.493 -672.446C-206.482 -672.442 -206.472 -672.437 -206.461 -672.434C-206.457 -672.432 -206.452 -672.431 -206.448 -672.429ZM-237.295 -716.039L-162.553 -708.665L-198.575 -810.966L-237.295 -716.039ZM-239.074 -714.214L-239.108 -715.244L-238.634 -715.232L-239.074 -714.214ZM-321.746 -480.75L-343.954 -427.935L-299.763 -397.448L-160.18 -411.342L-321.746 -480.75ZM-185.04 -513.5L-158.979 -411.881L-320.477 -481.256L-185.04 -513.5ZM-322.693 -481L-385.997 -489.439L-387.861 -486.4L-344.671 -428.729L-322.693 -481ZM-185.229 -514.449L-322.028 -481.882L-385.242 -490.293L-207.389 -671.028L-185.229 -514.449ZM-184.088 -514.447L-94.8879 -496.202L-144.864 -659.461L-184.088 -514.447ZM-158.054 -412.143L-184.03 -513.451L-95.3893 -495.316L-158.054 -412.143ZM-157.458 -411.335L-109.074 -398.355L-95.0374 -494.164L-157.458 -411.335ZM-109.014 -396.869L-100.729 -336.641L-294.781 -248.224L-109.014 -396.869ZM-297.486 -245.939L-229.997 -79.6057L-101.253 -335.338L-297.486 -245.939ZM-61.4823 -316.856L-99.5648 -336.567L-52.2219 -437.427L-61.4823 -316.856ZM-57.5651 -311.649L-55.0365 -311.926L-56.3623 -313.543L-57.0227 -313.83L-57.5651 -311.649ZM-61.1797 -311.25L-57.9716 -313.946L-58.5664 -311.521L-61.1797 -311.25ZM-53.881 -312.029L-53.0735 -312.122L-54.4225 -312.698L-53.881 -312.029ZM-126.253 -33.1669L-57.7913 -310.644L-54.3424 -311.006L71.5408 -157.048L-126.253 -33.1669ZM-131.442 -28.8018L-132.399 -28.1953L-130.214 -28.2127L-131.442 -28.8018ZM-127.802 -31.0779L-128.456 -28.4158L-130.494 -29.3876L-127.802 -31.0779ZM-126.624 -31.8106L-127.477 -28.3261L22.513 -55.3067L71.094 -155.626L-126.624 -31.8106ZM23.6472 -55.5109L72.1468 -155.68L102.712 -69.7302L23.6472 -55.5109ZM103.361 -70.9962L130.932 -170.198L72.8976 -156.584L103.361 -70.9962ZM-35.6422 66.877L23.1707 -54.4739L101.94 -68.6217L-35.6422 66.877ZM-36.8519 69.4789L-40.555 77.1235L54.9273 107.702L102.456 -67.7847L-36.8519 69.4789ZM21.9912 -54.2304L-37.674 68.8685L-43.2764 74.4806L-127.195 -27.392L21.9912 -54.2304ZM73.6758 -157.778L131.176 -171.258L138.712 -228.437L73.6758 -157.778ZM194.505 -189.937L132.188 -171.542L139.761 -229.044L194.505 -189.937ZM103.998 -69.6687L366 43.8203L131.863 -170.026L103.998 -69.6687ZM57.583 108.547L55.8708 107.995L103.658 -68.3528L235.572 82.7871L57.583 108.547ZM55.6138 108.934L55.5366 109.226L56.016 109.061L55.6138 108.934ZM-96.584 163.327L54.6716 110.548L69.6405 154.869L-96.584 163.327ZM65.7374 156.049L-99.2929 164.356L-92.0917 198.019L65.7374 156.049ZM54.6899 108.664L54.4395 109.61L-98.7638 163.075L-42.9675 75.5371L-38.8953 71.5334L-41.6616 77.2374C-41.7245 77.3641 -41.7271 77.5123 -41.6686 77.641C-41.6115 77.7653 -41.5051 77.8602 -41.375 77.9025L54.6899 108.664ZM-44.1066 75.5071L-191.948 39.3249L-99.9446 163.134L-44.1066 75.5071ZM-128.129 -27.0178L-44.6383 74.3925L-192.2 38.2582L-128.129 -27.0178ZM-129.247 -27.2519L-196.129 -26.896L-192.696 37.4438L-129.247 -27.2519ZM-58.833 -310.547L-127.43 -32.4482L-131.548 -29.9151L-226.937 -75.4152C-226.941 -75.4552 -226.948 -75.4946 -226.96 -75.5326C-226.974 -75.5779 -226.994 -75.6213 -227.019 -75.6619C-227.096 -75.7505 -227.203 -75.8083 -227.32 -75.8247L-227.832 -75.896L-229.491 -78.4291L-62.4618 -310.149L-58.833 -310.547ZM-230.284 -77.9246L-236.147 -76.9098L-229.042 -76.0231L-230.284 -77.9246ZM-440.131 -187.355L-231.543 -78.686L-239.428 -77.3165L-408.176 -98.4659L-440.131 -187.355ZM-230.991 -79.4838L-298.378 -245.548L-439.852 -188.3L-230.991 -79.4838ZM-158.041 -410.497L-109.67 -397.531L-294.453 -249.675L-158.041 -410.497ZM-159.405 -410.451L-299.391 -396.487L-297.641 -247.474L-159.405 -410.451ZM-431.788 -404.476L-300.745 -396.489L-440.454 -190.029L-431.788 -404.476ZM-301.604 -397.478L-344.684 -427.22L-435.11 -408.465L-432.076 -405.432L-301.604 -397.478ZM-388.427 -485.497L-345.413 -428.058L-435.09 -409.463L-388.427 -485.497ZM-207.721 -672.065L-239.919 -711.558L-239.958 -711.604C-240.008 -711.669 -240.04 -711.747 -240.049 -711.83L-240.147 -715.281L-243.161 -715.577L-365.251 -662.446L-385.604 -491.304L-207.721 -672.065ZM-199.155 -812.091L-238.34 -716.098L-239.125 -716.224L-242.321 -833.001L-199.155 -812.091ZM-161.773 -709.184L-91.1643 -823.246L-197.894 -811.889L-161.773 -709.184ZM-110.334 -678.652L-161.223 -708.231L-91.0208 -821.648L-110.334 -678.652ZM-109.422 -678.425L1.76701 -695.062L0.69747 -699.432L-89.9653 -822.552L-109.422 -678.425ZM3.70117 -695.352L2.72704 -695.207L2.18573 -697.4L3.70117 -695.352ZM3.54212 -691.861L4.51788 -687.873L4.19357 -693.17L3.54212 -691.861ZM-93.8013 -495.928L2.87456 -690.526L4.24284 -685.157C4.30815 -684.933 4.52741 -684.791 4.7582 -684.823L17.7401 -474.022L-84.2903 -493.98L-93.8013 -495.928ZM-51.0782 -439.693L-60.3839 -318.474L17.2776 -472.375L-51.0782 -439.693ZM-57.9448 -315.241L-60.4155 -316.3L18.5952 -472.871L111.522 -457.853L-57.9448 -315.241ZM-56.5019 -315.197L-55.7474 -314.329L-51.1161 -312.339L172.934 -336.494L112.492 -457.423L-56.5019 -315.197ZM95.6297 -506.3L149.96 -455.888L113.021 -458.613L95.6297 -506.3ZM-53.1652 -311.115L72.2981 -157.64L138.585 -229.665L-51.2642 -311.336L-53.1652 -311.115ZM360.536 -238.904L140.058 -230.363L173.837 -335.014L174.888 -334.933L365.306 -239.102L362.292 -238.987L362.194 -239.1C362.071 -239.244 361.875 -239.302 361.694 -239.249L360.536 -238.904ZM140.846 -229.457L195.654 -190.247L356.773 -237.807L140.846 -229.457ZM331.579 -92.0034L133.078 -170.778L195.503 -189.201L331.579 -92.0034ZM369.75 44.3234L542.482 75.0869L335.899 -88.8163L369.75 44.3234ZM368.851 45.6216L368.869 45.4739L369.144 46.0957L236.684 82.6026L105.177 -68.0835L368.203 45.867C368.214 45.8741 368.225 45.8784 368.235 45.8808C368.251 45.8844 368.265 45.8834 368.277 45.8805C368.289 45.8776 368.298 45.873 368.305 45.8689C368.313 45.8645 368.317 45.8607 368.317 45.8607C368.375 45.8767 368.436 45.8785 368.494 45.866C368.528 45.8585 368.56 45.847 368.591 45.8317C368.602 45.8261 368.613 45.82 368.624 45.8134C368.635 45.8068 368.645 45.7997 368.655 45.7922L368.731 45.7266L368.784 45.6807L368.851 45.6216ZM237.802 83.2336L425.204 178.308L369.489 46.9491L237.802 83.2336ZM170.102 369.589L236.819 83.81L425.945 179.77C425.962 179.778 425.98 179.786 425.998 179.792C426.024 179.8 426.051 179.807 426.078 179.811C426.104 179.815 426.129 179.816 426.155 179.815C426.191 179.814 426.227 179.809 426.262 179.799L170.102 369.589ZM447.015 278.361L170.893 370.743L402.184 442.121L447.015 278.361ZM137.146 505.351L169.686 371.382L400.708 442.662L138.554 505.599L137.146 505.351ZM397.307 444.466L138.671 506.557L138.58 506.543C138.515 506.534 138.515 506.561 138.516 506.582C138.516 506.591 138.516 506.598 138.512 506.602L136.95 506.33L122.916 564.097L397.307 444.466ZM135.971 506.134L121.869 564.172L-44.0994 475.098L135.971 506.134ZM136.2 505.193L168.655 371.629L-45.3627 473.904L136.2 505.193ZM167.435 371.139L-46.4945 473.364L-57.2298 360.49L167.435 371.139ZM-56.667 359.537L168.702 370.25L113.313 182.824L-56.667 359.537ZM-83.2592 239.168L68.9283 156.641L-57.5297 358.697L-83.2592 239.168ZM-58.5344 359.279L-100.473 248.54L-213.132 320.874L-58.5344 359.279ZM-101.318 247.949L-212.432 319.285L-146.916 229.287L-101.318 247.949ZM-146.315 228.5L-100.654 247.174L-92.9563 198.625L-100.163 165.139L-146.315 228.5ZM-101.471 165.296L-147.349 228.286L-286.65 257.793L-101.471 165.296ZM-100.631 163.823L-193.031 39.4973L-289.268 258.028L-100.631 163.823ZM-290.326 258.06L-356.165 161.485L-194.316 40.0312L-290.326 258.06ZM-392.49 115.231L-193.643 38.214L-197.1 -26.489L-392.49 115.231ZM-134.214 -28.1805L-196.4 -27.879L-226.745 -74.2038L-132.495 -29.2511L-134.214 -28.1805ZM-197.606 -27.9704L-228.344 -74.9606L-239.404 -76.3436L-414.811 -45.9517L-197.606 -27.9704ZM-407.795 -97.5249L-242.671 -76.7635L-417.994 -46.4578L-407.67 -96.9845C-407.653 -97.0707 -407.661 -97.16 -407.694 -97.2414L-407.795 -97.5249ZM-418.965 -46.3556L-408.648 -96.9821L-408.861 -97.5923L-409.071 -97.6213L-564.885 -65.923L-418.965 -46.3556ZM-409.225 -98.5606L-566.253 -66.6283L-441.212 -187.502L-409.225 -98.5606ZM-439.749 -189.37L-298.602 -246.492L-300.341 -395.369L-439.749 -189.37ZM-478.201 -377.433L-441.625 -188.892L-680.652 -219.187L-478.201 -377.433ZM-438.058 -405.744L-622.359 -393.312L-477.999 -378.801L-438.058 -405.744ZM-479.123 -377.944L-680.887 -220.189L-627.776 -392.883L-479.123 -377.944ZM-626.805 -394.005L-436.331 -406.821C-436.181 -406.836 -436.034 -406.775 -435.938 -406.659C-435.914 -406.638 -435.891 -406.616 -435.871 -406.592C-435.852 -406.57 -435.835 -406.547 -435.82 -406.523C-435.747 -406.315 -435.824 -406.083 -436.008 -405.962L-477.325 -378.102L-441.293 -192.533L-432.744 -404.798L-523.335 -495.293L-626.805 -394.005ZM-524.763 -495.244L-628.232 -393.971L-831.731 -442.735L-524.763 -495.244ZM-832.242 -443.628L-524.56 -496.229L-644.69 -584.352L-832.242 -443.628ZM-526.108 -498.619L-643.509 -584.716L-503.275 -617.035L-523.425 -498.46L-526.108 -498.619ZM-500.727 -736.792L-502.196 -618.278L-366.866 -662.977L-500.727 -736.792ZM-386.584 -491.075L-501.826 -617.381L-366.201 -662.137L-386.584 -491.075ZM-364.234 -664.019L-243.344 -716.597C-243.33 -716.603 -243.315 -716.608 -243.299 -716.612C-243.287 -716.616 -243.275 -716.619 -243.263 -716.622C-243.251 -716.625 -243.239 -716.627 -243.227 -716.629C-243.185 -716.636 -243.143 -716.639 -243.101 -716.636L-240.081 -716.333L-243.26 -832.343L-364.234 -664.019ZM-364.828 -664.841L-326.598 -888.002L-243.524 -833.638L-364.828 -664.841ZM-242.168 -833.982L-198.884 -813.029L-157.538 -1017.9L-242.168 -833.982ZM-90.8817 -824.247L-197.938 -812.871L-156.137 -1019.99L-90.8817 -824.247ZM3.70468 -935.037L-155.388 -1020.87L-89.9587 -824.572L-37.5193 -856.907L3.70468 -935.037ZM0.146679 -701.895L-89.5382 -823.692L-37.5031 -855.821L0.146679 -701.895ZM-36.4745 -855.629L1.62083 -699.864L4.9102 -695.409L7.64463 -694.169L7.54657 -694.388C7.49106 -694.512 7.4881 -694.653 7.53841 -694.779C7.59361 -694.899 7.69813 -694.99 7.82521 -695.028L156.134 -752.401L-36.4745 -855.629ZM8.65643 -694.346L156.528 -751.551L124.414 -641.602L9.00671 -693.578L8.65643 -694.346ZM124.126 -640.623L9.62891 -692.237L94.3382 -509.523L124.126 -640.623ZM5.13506 -694.266L8.28943 -692.848L93.9013 -508.242L18.7772 -474.155L5.13506 -694.266ZM19.974 -473.632L111.929 -458.802L94.2391 -507.397L19.974 -473.632ZM125.31 -514.729L254.736 -630.497L151.24 -456.061L95.499 -507.776L125.097 -514.624C125.142 -514.633 125.186 -514.649 125.226 -514.671C125.256 -514.687 125.284 -514.707 125.31 -514.729ZM150.887 -454.866L113.451 -457.661L172.521 -339.408L150.887 -454.866ZM151.859 -454.968L365.106 -514.597L174.023 -337.07L151.859 -454.968ZM172.767 -335.186C172.75 -335.2 172.735 -335.216 172.72 -335.232C172.681 -335.275 172.65 -335.326 172.629 -335.382C172.629 -335.382 172.597 -335.419 172.622 -335.481L-49.334 -311.57L139.068 -230.496L172.846 -335.133C172.818 -335.148 172.791 -335.166 172.767 -335.186ZM174.618 -336.143L384.138 -476.18L372.823 -321.773L175.138 -335.88L174.618 -336.143ZM372.726 -320.787L177.37 -334.745L366.741 -239.449L372.726 -320.787ZM196.661 -189.546L360.683 -237.973L366.567 -238.185L334.737 -90.9461L196.661 -189.546ZM579.502 -252.995L368.069 -238.271L478.752 -86.206L579.502 -252.995ZM336.505 -89.5679L478.39 -84.8704L543.127 74.3807L336.505 -89.5679ZM715.688 -74.2594L715.505 -74.2722L715.545 -74.1348L715.688 -74.2594ZM714.487 -74.315L714.745 -73.4393L713.068 -71.9687L713.724 -74.3542L714.487 -74.315ZM711.726 -70.8152L712.746 -74.3518L479.501 -84.8424L544.48 75.099L711.726 -70.8152ZM370.029 45.4063L543.147 76.2321L427.762 178.72L426.597 179.575C426.686 179.447 426.708 179.285 426.656 179.139L370.251 46.2866L370.029 45.4063Z" fill="#0C053A"/>
<g opacity="0.7">
<path fill-rule="evenodd" clip-rule="evenodd" d="M455.453 284.912C451.56 288.296 445.66 287.883 442.276 283.99C438.892 280.097 439.304 274.198 443.197 270.814C447.09 267.43 452.99 267.842 456.374 271.735C459.758 275.628 459.346 281.528 455.453 284.912Z" fill="#0C053A"/>
<path fill-rule="evenodd" clip-rule="evenodd" d="M242.179 89.7634C238.286 93.1475 232.387 92.735 229.003 88.842C225.618 84.9489 226.031 79.0496 229.924 75.6654C233.817 72.2812 239.716 72.6937 243.101 76.5868C246.485 80.4798 246.072 86.3792 242.179 89.7634Z" fill="#0C053A"/>
<path fill-rule="evenodd" clip-rule="evenodd" d="M173.798 376.022C169.905 379.406 164.006 378.993 160.622 375.1C157.238 371.207 157.65 365.308 161.543 361.924C165.436 358.54 171.336 358.952 174.72 362.845C176.347 364.713 177.165 367.153 176.992 369.624C176.819 372.096 175.67 374.398 173.798 376.022Z" fill="#0C053A"/>
<path fill-rule="evenodd" clip-rule="evenodd" d="M127.029 570.672C124.18 573.154 120.116 573.675 116.733 571.991C113.35 570.308 111.315 566.752 111.576 562.983C111.838 559.213 114.345 555.973 117.928 554.773C121.511 553.573 125.464 554.65 127.943 557.502C131.324 561.392 130.915 567.286 127.029 570.672Z" fill="#0C053A"/>
<path fill-rule="evenodd" clip-rule="evenodd" d="M58.596 113.934C56.2592 115.958 52.7243 115.706 50.6989 113.37C48.6734 111.034 48.9238 107.499 51.2582 105.473C53.5926 103.446 57.1278 103.694 59.156 106.027C60.1315 107.149 60.6207 108.614 60.5156 110.097C60.4106 111.58 59.7199 112.961 58.596 113.934Z" fill="#0C053A"/>
<path fill-rule="evenodd" clip-rule="evenodd" d="M372.022 49.5576C369.685 51.5816 366.15 51.3291 364.125 48.9936C362.099 46.658 362.35 43.1229 364.684 41.0961C367.018 39.0693 370.554 39.3175 372.582 41.6507C373.557 42.7729 374.046 44.237 373.941 45.7203C373.836 47.2035 373.146 48.5841 372.022 49.5576Z" fill="#0C053A"/>
<path fill-rule="evenodd" clip-rule="evenodd" d="M547.26 79.6528C544.923 81.6768 541.388 81.4244 539.363 79.0888C537.337 76.7532 537.588 73.2181 539.922 71.1913C542.257 69.1645 545.792 69.4128 547.82 71.7459C548.796 72.8681 549.285 74.3323 549.18 75.8155C549.075 77.2987 548.384 78.6793 547.26 79.6528Z" fill="#0C053A"/>
<path fill-rule="evenodd" clip-rule="evenodd" d="M431.193 183.794C429.474 185.278 427.03 185.579 425.002 184.557C422.975 183.534 421.763 181.39 421.934 179.126C422.104 176.862 423.623 174.923 425.781 174.216C427.939 173.509 430.31 174.173 431.788 175.897C433.799 178.244 433.533 181.775 431.193 183.794Z" fill="#0C053A"/>
</g>
</g>
<g opacity="0.31">
<path opacity="0.4" fill-rule="evenodd" clip-rule="evenodd" d="M1107.25 148.335C1107.14 148.394 1107.01 148.404 1106.89 148.363C1106.82 148.353 1106.75 148.329 1106.7 148.293C1106.63 148.253 1106.58 148.197 1106.54 148.13C1106.47 148.004 1106.45 147.852 1106.51 147.716L1170.28 -61.6109L1168.9 -62.8115C1168.75 -62.9423 1168.69 -63.1531 1168.76 -63.3407L1168.88 -63.4765C1168.92 -63.525 1168.98 -63.564 1169.03 -63.592C1169.07 -63.6107 1169.11 -63.6246 1169.15 -63.6331C1169.18 -63.6379 1169.2 -63.641 1169.22 -63.6422L1170.95 -63.7203L1171.4 -65.2052C1171.44 -65.2647 1171.48 -65.3164 1171.54 -65.3562C1171.66 -65.4998 1171.85 -65.5579 1172.04 -65.5046C1172.29 -65.4227 1172.43 -65.1519 1172.35 -64.896L1172 -63.7303L1406.67 -74.2207L1305.42 -241.734C1305.38 -241.81 1305.35 -241.896 1305.36 -241.981C1305.36 -242.069 1305.38 -242.157 1305.43 -242.235C1305.52 -242.388 1305.69 -242.477 1305.87 -242.467L1518.55 -227.646L1512.53 -309.273L1391.73 -361.154C1391.49 -361.259 1391.37 -361.539 1391.48 -361.781C1391.5 -361.825 1391.54 -361.864 1391.58 -361.895C1391.71 -362.051 1391.93 -362.103 1392.13 -362.025L1512.49 -310.397L1501.06 -465.555C1501.06 -465.633 1501.07 -465.711 1501.1 -465.784L1519.01 -508.518L1519.9 -508.141L1502.16 -465.738L1707.84 -328.253L1519.03 -503.664C1518.86 -503.813 1518.81 -504.062 1518.93 -504.26C1519.04 -504.458 1519.27 -504.551 1519.49 -504.483L1733.92 -444.525L1629.07 -621.135C1628.94 -621.34 1628.99 -621.606 1629.18 -621.753C1629.36 -621.903 1629.63 -621.898 1629.81 -621.74L1761.48 -503.967L1791.1 -497.107L1761.18 -628.828L1625.06 -623.627C1624.8 -623.613 1624.57 -623.81 1624.55 -624.073C1624.54 -624.196 1624.58 -624.316 1624.66 -624.407C1624.75 -624.508 1624.87 -624.568 1625.01 -624.573L1760.98 -629.8L1728.57 -740.656C1728.54 -740.738 1728.54 -740.828 1728.56 -740.911L1728.6 -740.948C1728.62 -740.994 1728.66 -741.034 1728.7 -741.069L1728.74 -741.114L1728.79 -741.167L1922.84 -845.155L1881.58 -923.432C1881.49 -923.608 1881.51 -923.824 1881.64 -923.975C1881.67 -924.024 1881.71 -924.067 1881.75 -924.103L2042.37 -1010.72L2042.44 -1010.72C2042.49 -1010.74 2042.54 -1010.76 2042.6 -1010.77L2042.64 -1010.73L2042.69 -1010.69C2042.71 -1010.68 2042.73 -1010.66 2042.75 -1010.64C2042.81 -1010.61 2042.86 -1010.57 2042.9 -1010.51C2042.91 -1010.5 2042.91 -1010.5 2042.92 -1010.49C2042.93 -1010.49 2042.93 -1010.48 2042.94 -1010.48C2042.94 -1010.47 2042.95 -1010.47 2042.95 -1010.46L2128.58 -824.406L2125.37 -953.153C2125.36 -953.263 2125.39 -953.372 2125.45 -953.464C2125.54 -953.566 2125.67 -953.628 2125.8 -953.637C2126.07 -953.65 2126.3 -953.45 2126.32 -953.185L2129.56 -823.049L2212.95 -877.62C2213.08 -877.706 2213.25 -877.721 2213.4 -877.659C2213.56 -877.596 2213.66 -877.458 2213.69 -877.296L2252.32 -651.994L2387.24 -726.414C2387.39 -726.495 2387.57 -726.495 2387.71 -726.412C2387.86 -726.329 2387.95 -726.173 2387.96 -726.004L2389.44 -606.392L2531.16 -573.758C2531.2 -573.731 2531.23 -573.701 2531.27 -573.666L2531.31 -573.627L2720.73 -431.489C2720.78 -431.429 2720.82 -431.363 2720.85 -431.292C2720.84 -431.227 2720.88 -431.188 2720.88 -431.188C2720.89 -431.087 2720.85 -430.988 2720.8 -430.906C2720.72 -430.817 2720.62 -430.762 2720.5 -430.75L2515 -381.463L2568.5 -207.386C2568.51 -207.304 2568.51 -207.219 2568.49 -207.138L2568.45 -207.092L2568.39 -207.024C2568.36 -206.949 2568.3 -206.885 2568.23 -206.836L2568.19 -206.79L2568.16 -206.753L2328.29 -176.285L2454.34 -54.4542L2454.4 -54.4083L2454.46 -54.3558C2454.5 -54.278 2454.51 -54.1905 2454.5 -54.1038C2454.46 -54.0103 2454.39 -53.9314 2454.31 -53.8774L2454.26 -53.8246C2454.22 -53.7946 2454.17 -53.7742 2454.12 -53.7648L2304.95 -33.7081L2084.24 -15.4605L2281.59 127.689L2304.83 -30.2336C2304.84 -30.3238 2304.89 -30.4079 2304.95 -30.4757C2305.02 -30.5629 2305.12 -30.6185 2305.23 -30.63C2305.43 -30.6717 2305.64 -30.5664 2305.73 -30.3748L2347.78 52.1842C2347.86 52.3371 2347.85 52.5197 2347.76 52.6636C2347.67 52.8074 2347.5 52.8904 2347.33 52.8813C2347.16 52.8723 2347.01 52.7726 2346.93 52.6197L2305.56 -28.5906L2282.52 128.319L2282.45 128.395C2282.54 128.531 2282.54 128.704 2282.47 128.847C2282.36 129.063 2282.1 129.158 2281.88 129.065L2082.5 51.8654L2243.38 172.579C2243.59 172.735 2243.63 173.027 2243.48 173.238L2176.87 270.945C2176.82 271.018 2176.74 271.07 2176.65 271.095C2176.59 271.127 2176.56 271.095 2176.56 271.095C2176.51 271.11 2176.45 271.118 2176.4 271.12L2034.46 241.038L2100.91 332.496C2100.93 332.544 2100.95 332.595 2100.96 332.648L2101 332.681C2101.01 332.764 2101.01 332.85 2100.98 332.93L2100.93 332.983C2100.87 333.072 2100.78 333.136 2100.67 333.164L1945.03 371.926L2028.53 447.157C2028.72 447.337 2028.74 447.637 2028.56 447.835C2028.38 448.033 2028.08 448.051 2027.88 447.876L1944.42 372.678L1933.69 485.871L1933.68 485.878C1933.68 485.881 1933.68 485.885 1933.68 485.888C1933.68 485.892 1933.67 485.896 1933.67 485.9C1933.66 485.91 1933.65 485.918 1933.64 485.923L1933.6 485.969C1933.58 486.02 1933.54 486.065 1933.49 486.097L1933.44 486.15L1764.58 576.759L1774.33 722.324C1774.35 722.588 1774.15 722.818 1773.89 722.837C1773.62 722.855 1773.39 722.656 1773.37 722.391L1763.62 576.805L1483.65 454.629L1483.6 454.583C1483.52 454.542 1483.44 454.479 1483.39 454.4L1483.34 454.354L1438.15 289.272L1342.03 88.5107L1259.73 248.841L1435.07 290.239C1435.15 290.262 1435.23 290.307 1435.28 290.368C1435.33 290.41 1435.36 290.459 1435.38 290.515C1435.45 290.649 1435.45 290.805 1435.38 290.94L1390.98 379.955C1390.86 380.188 1390.57 380.283 1390.33 380.171C1390.1 380.049 1390 379.759 1390.12 379.52L1434.24 291.048L1258.89 249.651L1258.84 249.605C1258.82 249.596 1258.8 249.586 1258.78 249.574C1258.77 249.567 1258.76 249.559 1258.75 249.551C1258.74 249.539 1258.72 249.526 1258.71 249.512C1258.7 249.503 1258.69 249.493 1258.68 249.483C1258.67 249.472 1258.66 249.46 1258.66 249.448L1258.58 249.382L1258.52 249.33L1173.61 -58.7177L1171.16 -60.8498L1107.49 148.051C1107.45 148.174 1107.37 148.276 1107.25 148.335ZM1174.92 -57.562L1259.1 247.872L1341.37 87.621L1174.92 -57.562ZM1343.43 89.4337L1457.68 190.874L1438.33 287.7L1343.43 89.4337ZM1714.18 380.931L1458.54 191.537L1439.1 288.88L1714.18 380.931ZM1551.57 -78.1585L1752.39 -157.832L1517.58 56.6289L1517.68 56.5157C1517.75 56.3547 1517.72 56.1651 1517.61 56.0315C1517.59 56.0081 1517.56 55.9882 1517.54 55.9725L1551.57 -78.1585ZM1408.47 -74.3254L1550.59 -79.0114L1518.85 -226.001L1408.47 -74.3254ZM1884.22 -682.571L1996.06 -665.83L2030.61 -649.391L1980.47 -485.653L1883.69 -680.421L1884.22 -682.571ZM1882.5 -682.833L1883.03 -681.764L1883.27 -682.71L1882.5 -682.833ZM2408.72 -486.757L2273.63 -478.948L2388.62 -604.981L2408.72 -486.757ZM2410.95 -485.92L2409.85 -485.851L2409.96 -485.199L2410.95 -485.92ZM2408.88 -485.797L2409.09 -484.522L2322.41 -397.972L2273.33 -477.935L2408.88 -485.797ZM1978.68 212.8L1970.63 250.23L1985.9 258.568L1978.68 212.8ZM1985.99 259.604L1945.9 365.365L1970.4 251.245L1985.99 259.604ZM1819.82 168.379L1969.78 249.715L1978.17 210.547L1819.82 168.379ZM1772.79 192.819L1651.49 95.3239L1828.66 120.992L1830.7 121.693L1815.63 166.46L1772.79 192.819ZM1941.17 367.801L1815.83 167.517L1791.72 182.338L1773.52 193.512L1941.17 367.801ZM1772.2 193.583L1716.99 380.394L1650.57 95.8631L1772.2 193.583ZM1949.24 -299.329L1949.29 -299.283L1949.33 -299.25L2113.13 -72.0608L1986.26 -324.118L1947.47 -303.996L1944.97 -302.921L1949.24 -299.329ZM1869.42 -461.599L1970.66 -481.444L1980.19 -483.394L1994.39 -386.15L1986.18 -326.402L1938.24 -428.616C1938.19 -428.701 1938.11 -428.767 1938.02 -428.807L1869.42 -461.599ZM1997.24 -666.345L2030.92 -650.313L2047.21 -695.435L1997.24 -666.345ZM2048.33 -695.719L2091.4 -661.432L2031.95 -650.265L2048.33 -695.719ZM2092.71 -660.836C2092.68 -660.78 2092.64 -660.731 2092.59 -660.693L2031.79 -649.275L2070.82 -504.922L2092.84 -660.583C2092.84 -660.631 2092.86 -660.679 2092.88 -660.722C2092.89 -660.733 2092.89 -660.744 2092.9 -660.755C2092.91 -660.766 2092.91 -660.777 2092.92 -660.787L2125.21 -700.4L2123.94 -703.508L2049.3 -696.163L2092.76 -661.563C2092.81 -661.523 2092.84 -661.483 2092.84 -661.412C2092.84 -661.395 2092.85 -661.378 2092.86 -661.362C2092.86 -661.345 2092.88 -661.329 2092.89 -661.315C2092.89 -661.311 2092.89 -661.306 2092.9 -661.302L2092.9 -661.295L2092.91 -661.289C2092.92 -661.277 2092.93 -661.27 2092.93 -661.27C2092.93 -661.205 2092.91 -661.142 2092.89 -661.082C2092.88 -661.022 2092.87 -660.964 2092.84 -660.909C2092.83 -660.897 2092.81 -660.887 2092.8 -660.877L2092.79 -660.871C2092.78 -660.864 2092.77 -660.859 2092.76 -660.853C2092.75 -660.849 2092.74 -660.844 2092.73 -660.841C2092.72 -660.839 2092.72 -660.838 2092.71 -660.836ZM2123.56 -704.446L2048.82 -697.072L2084.84 -799.373L2123.56 -704.446ZM2125.34 -702.621L2125.37 -703.651L2124.9 -703.639L2125.34 -702.621ZM2208.01 -469.157L2230.22 -416.342L2186.03 -385.855L2046.44 -399.748L2208.01 -469.157ZM2071.3 -501.907L2045.24 -400.288L2206.74 -469.663L2071.3 -501.907ZM2208.96 -469.407L2272.26 -477.846L2274.12 -474.807L2230.93 -417.136L2208.96 -469.407ZM2071.49 -502.856L2208.29 -470.289L2271.51 -478.7L2093.65 -659.435L2071.49 -502.856ZM2070.35 -502.854L1981.15 -484.609L2031.13 -647.868L2070.35 -502.854ZM2044.32 -400.55L2070.29 -501.858L1981.65 -483.723L2044.32 -400.55ZM2043.72 -399.742L1995.34 -386.761L1981.3 -482.571L2043.72 -399.742ZM1995.28 -385.276L1986.99 -325.048L2181.04 -236.631L1995.28 -385.276ZM2183.75 -234.346L2116.26 -68.0127L1987.52 -323.745L2183.75 -234.346ZM1947.75 -305.263L1985.83 -324.974L1938.49 -425.834L1947.75 -305.263ZM1943.83 -300.056L1941.3 -300.333L1942.63 -301.95L1943.29 -302.237L1943.83 -300.056ZM1947.44 -299.657L1944.24 -302.353L1944.83 -299.928L1947.44 -299.657ZM1940.14 -300.436L1939.34 -300.529L1940.69 -301.105L1940.14 -300.436ZM2012.52 -21.5739L1944.05 -299.051L1940.61 -299.412L1814.72 -145.455L2012.52 -21.5739ZM2017.71 -17.2088L2018.66 -16.6023L2016.48 -16.6197L2017.71 -17.2088ZM2014.07 -19.4849L2014.72 -16.8228L2016.76 -17.7946L2014.07 -19.4849ZM2012.89 -20.2176L2013.74 -16.7331L1863.75 -43.7137L1815.17 -144.033L2012.89 -20.2176ZM1862.62 -43.9179L1814.12 -144.087L1783.55 -58.1372L1862.62 -43.9179ZM1782.9 -59.4032L1755.33 -158.605L1813.37 -144.991L1782.9 -59.4032ZM1921.91 78.47L1863.09 -42.8809L1784.32 -57.0287L1921.91 78.47ZM1923.12 81.0719L1926.82 88.7165L1831.34 119.295L1783.81 -56.1917L1923.12 81.0719ZM1864.27 -42.6373L1923.94 80.4615L1929.54 86.0736L2013.46 -15.799L1864.27 -42.6373ZM1812.59 -146.185L1755.09 -159.665L1747.55 -216.844L1812.59 -146.185ZM1691.76 -178.344L1754.08 -159.949L1746.5 -217.451L1691.76 -178.344ZM1782.27 -58.0757L1520.26 55.4133L1754.4 -158.433L1782.27 -58.0757ZM1828.68 120.14L1830.39 119.588L1782.61 -56.7597L1650.69 94.3802L1828.68 120.14ZM1830.65 120.527L1830.73 120.819L1830.25 120.654L1830.65 120.527ZM1982.85 174.92L1831.59 122.141L1816.62 166.462L1982.85 174.92ZM1820.53 167.642L1985.56 175.949L1978.36 209.612L1820.53 167.642ZM1831.57 120.257L1831.82 121.203L1985.03 174.668L1929.23 87.1301L1925.16 83.1264L1927.93 88.8305C1927.99 88.9571 1927.99 89.1053 1927.93 89.234C1927.88 89.3583 1927.77 89.4532 1927.64 89.4955L1831.57 120.257ZM1930.37 87.1001L2078.21 50.9179L1986.21 174.727L1930.37 87.1001ZM2014.39 -15.4248L1930.9 85.9855L2078.46 49.8512L2014.39 -15.4248ZM2015.51 -15.6589L2082.39 -15.303L2078.96 49.0368L2015.51 -15.6589ZM1945.1 -298.954L2013.69 -20.8552L2017.81 -18.322L2113.2 -63.8222C2113.2 -63.8622 2113.21 -63.9015 2113.22 -63.9396C2113.24 -63.9849 2113.26 -64.0283 2113.28 -64.0689C2113.36 -64.1575 2113.47 -64.2152 2113.58 -64.2317L2114.1 -64.303L2115.75 -66.8361L1948.73 -298.555L1945.1 -298.954ZM2116.55 -66.3316L2122.41 -65.3167L2115.31 -64.4301L2116.55 -66.3316ZM2326.39 -175.762L2117.81 -67.093L2125.69 -65.7235L2294.44 -86.8729L2326.39 -175.762ZM2117.25 -67.8908L2184.64 -233.955L2326.12 -176.707L2117.25 -67.8908ZM2044.3 -398.904L1995.93 -385.938L2180.72 -238.082L2044.3 -398.904ZM2045.67 -398.858L2185.65 -384.894L2183.9 -235.881L2045.67 -398.858ZM2318.05 -392.883L2187.01 -384.896L2326.72 -178.436L2318.05 -392.883ZM2187.87 -385.885L2230.95 -415.627L2321.37 -396.872L2318.34 -393.839L2187.87 -385.885ZM2274.69 -473.904L2231.68 -416.465L2321.35 -397.87L2274.69 -473.904ZM2093.98 -660.472L2126.18 -699.965L2126.22 -700.01C2126.27 -700.076 2126.3 -700.154 2126.31 -700.237L2126.41 -703.688L2129.42 -703.984L2251.51 -650.853L2271.87 -479.711L2093.98 -660.472ZM2085.42 -800.498L2124.6 -704.505L2125.39 -704.631L2128.59 -821.408L2085.42 -800.498ZM2048.04 -697.591L1977.43 -811.653L2084.16 -800.296L2048.04 -697.591ZM1996.6 -667.059L2047.49 -696.638L1977.28 -810.055L1996.6 -667.059ZM1995.69 -666.832L1884.5 -683.469L1885.57 -687.839L1976.23 -810.959L1995.69 -666.832ZM1882.56 -683.759L1883.54 -683.614L1884.08 -685.807L1882.56 -683.759ZM1882.72 -680.268L1881.75 -676.28L1882.07 -681.577L1882.72 -680.268ZM1980.06 -484.335L1883.39 -678.933L1882.02 -673.564C1881.96 -673.34 1881.74 -673.198 1881.51 -673.23L1868.52 -462.429L1970.55 -482.387L1980.06 -484.335ZM1937.34 -428.1L1946.65 -306.881L1868.99 -460.782L1937.34 -428.1ZM1944.21 -303.648L1946.68 -304.707L1867.67 -461.278L1774.74 -446.26L1944.21 -303.648ZM1942.77 -303.604L1942.01 -302.736L1937.38 -300.746L1713.33 -324.901L1773.77 -445.83L1942.77 -303.604ZM1790.63 -494.707L1736.3 -444.295L1773.24 -447.02L1790.63 -494.707ZM1939.43 -299.522L1813.97 -146.047L1747.68 -218.072L1937.53 -299.743L1939.43 -299.522ZM1525.73 -227.311L1746.21 -218.77L1712.43 -323.421L1711.38 -323.34L1520.96 -227.509L1523.97 -227.394L1524.07 -227.507C1524.19 -227.651 1524.39 -227.709 1524.57 -227.656L1525.73 -227.311ZM1745.42 -217.864L1690.61 -178.654L1529.49 -226.214L1745.42 -217.864ZM1554.68 -80.4103L1753.19 -159.185L1690.76 -177.608L1554.68 -80.4103ZM1516.51 55.9165L1343.78 86.68L1550.36 -77.2233L1516.51 55.9165ZM1517.41 57.2147L1517.39 57.067L1517.12 57.6887L1649.58 94.1956L1781.09 -56.4905L1518.06 57.46C1518.05 57.4671 1518.04 57.4714 1518.03 57.4738C1518.01 57.4774 1518 57.4764 1517.99 57.4735C1517.97 57.4707 1517.97 57.466 1517.96 57.4619C1517.95 57.4575 1517.95 57.4537 1517.95 57.4537C1517.89 57.4698 1517.83 57.4715 1517.77 57.459C1517.74 57.4516 1517.7 57.44 1517.67 57.4248C1517.66 57.4191 1517.65 57.413 1517.64 57.4064C1517.63 57.3998 1517.62 57.3927 1517.61 57.3852L1517.53 57.3196L1517.48 57.2737L1517.41 57.2147ZM1648.46 94.8266L1461.06 189.901L1516.77 58.5422L1648.46 94.8266ZM1716.16 381.182L1649.44 95.403L1460.32 191.363C1460.3 191.371 1460.28 191.379 1460.27 191.385C1460.24 191.393 1460.21 191.4 1460.19 191.404C1460.16 191.408 1460.13 191.409 1460.11 191.408C1460.07 191.407 1460.04 191.402 1460 191.392L1716.16 381.182ZM1439.25 289.954L1715.37 382.336L1484.08 453.714L1439.25 289.954ZM1749.12 516.944L1716.58 382.975L1485.56 454.255L1747.71 517.192L1749.12 516.944ZM1488.96 456.059L1747.59 518.15L1747.68 518.136C1747.75 518.127 1747.75 518.154 1747.75 518.175C1747.75 518.184 1747.75 518.191 1747.75 518.195L1749.31 517.923L1763.35 575.69L1488.96 456.059ZM1750.29 517.727L1764.39 575.765L1930.36 486.691L1750.29 517.727ZM1750.06 516.786L1717.61 383.222L1931.63 485.497L1750.06 516.786ZM1718.83 382.732L1932.76 484.957L1943.49 372.083L1718.83 382.732ZM1942.93 371.13L1717.56 381.843L1772.95 194.417L1942.93 371.13ZM1969.52 250.761L1817.34 168.234L1943.79 370.29L1969.52 250.761ZM1944.8 370.872L1986.74 260.133L2099.4 332.467L1944.8 370.872ZM1987.58 259.542L2098.7 330.878L2033.18 240.88L1987.58 259.542ZM2032.58 240.093L1986.92 258.767L1979.22 210.218L1986.43 176.732L2032.58 240.093ZM1987.73 176.889L2033.61 239.879L2172.91 269.386L1987.73 176.889ZM1986.89 175.416L2079.29 51.0903L2175.53 269.621L1986.89 175.416ZM2176.59 269.653L2242.43 173.078L2080.58 51.6242L2176.59 269.653ZM2278.75 126.824L2079.91 49.8071L2083.36 -14.896L2278.75 126.824ZM2020.48 -16.5875L2082.66 -16.286L2113.01 -62.6108L2018.76 -17.6581L2020.48 -16.5875ZM2083.87 -16.3774L2114.61 -63.3676L2125.67 -64.7506L2301.07 -34.3587L2083.87 -16.3774ZM2294.06 -85.9319L2128.93 -65.1705L2304.26 -34.8648L2293.93 -85.3915C2293.92 -85.4777 2293.92 -85.567 2293.96 -85.6484L2294.06 -85.9319ZM2305.23 -34.7626L2294.91 -85.3891L2295.12 -85.9993L2295.34 -86.0283L2451.15 -54.33L2305.23 -34.7626ZM2295.49 -86.9676L2452.52 -55.0353L2327.48 -175.909L2295.49 -86.9676ZM2326.01 -177.777L2184.87 -234.899L2186.6 -383.776L2326.01 -177.777ZM2364.47 -365.84L2327.89 -177.299L2566.92 -207.594L2364.47 -365.84ZM2324.32 -394.151L2508.62 -381.719L2364.26 -367.208L2324.32 -394.151ZM2365.39 -366.351L2567.15 -208.596L2514.04 -381.29L2365.39 -366.351ZM2513.07 -382.412L2322.59 -395.228C2322.45 -395.243 2322.3 -395.182 2322.2 -395.066C2322.18 -395.045 2322.16 -395.023 2322.13 -394.999C2322.12 -394.977 2322.1 -394.954 2322.08 -394.93C2322.01 -394.722 2322.09 -394.49 2322.27 -394.369L2363.59 -366.509L2327.56 -180.94L2319.01 -393.205L2409.6 -483.7L2513.07 -382.412ZM2411.03 -483.651L2514.5 -382.378L2717.99 -431.142L2411.03 -483.651ZM2718.51 -432.035L2410.82 -484.636L2530.95 -572.759L2718.51 -432.035ZM2412.37 -487.026L2529.77 -573.123L2389.54 -605.442L2409.69 -486.867L2412.37 -487.026ZM2386.99 -725.199L2388.46 -606.685L2253.13 -651.384L2386.99 -725.199ZM2272.85 -479.482L2388.09 -605.788L2252.46 -650.544L2272.85 -479.482ZM2250.5 -652.426L2129.61 -705.004C2129.59 -705.009 2129.58 -705.015 2129.56 -705.019C2129.55 -705.023 2129.54 -705.026 2129.53 -705.029C2129.51 -705.032 2129.5 -705.034 2129.49 -705.036C2129.45 -705.043 2129.41 -705.046 2129.36 -705.043L2126.34 -704.74L2129.52 -820.75L2250.5 -652.426ZM2251.09 -653.248L2212.86 -876.409L2129.79 -822.045L2251.09 -653.248ZM2128.43 -822.389L2085.15 -801.436L2043.8 -1006.3L2128.43 -822.389ZM1977.15 -812.654L2084.2 -801.278L2042.4 -1008.4L1977.15 -812.654ZM1882.56 -923.444L2041.65 -1009.27L1976.22 -812.979L1923.78 -845.314L1882.56 -923.444ZM1886.12 -690.302L1975.8 -812.099L1923.77 -844.228L1886.12 -690.302ZM1922.74 -844.036L1884.64 -688.271L1881.35 -683.816L1878.62 -682.576L1878.72 -682.795C1878.77 -682.919 1878.78 -683.06 1878.73 -683.186C1878.67 -683.306 1878.57 -683.397 1878.44 -683.435L1730.13 -740.808L1922.74 -844.036ZM1877.61 -682.753L1729.74 -739.958L1761.85 -630.009L1877.26 -681.984L1877.61 -682.753ZM1762.14 -629.03L1876.63 -680.644L1791.93 -497.93L1762.14 -629.03ZM1881.13 -682.673L1877.97 -681.255L1792.36 -496.649L1867.49 -462.562L1881.13 -682.673ZM1866.29 -462.039L1774.33 -447.209L1792.02 -495.804L1866.29 -462.039ZM1760.95 -503.136L1631.53 -618.904L1735.02 -444.468L1790.76 -496.183L1761.17 -503.031C1761.12 -503.04 1761.08 -503.056 1761.04 -503.078C1761.01 -503.094 1760.98 -503.114 1760.95 -503.136ZM1735.38 -443.273L1772.81 -446.068L1713.74 -327.815L1735.38 -443.273ZM1734.4 -443.375L1521.16 -503.004L1712.24 -325.477L1734.4 -443.375ZM1713.5 -323.593C1713.51 -323.607 1713.53 -323.623 1713.54 -323.639C1713.58 -323.682 1713.61 -323.733 1713.63 -323.789C1713.63 -323.789 1713.67 -323.826 1713.64 -323.888L1935.6 -299.977L1747.2 -218.903L1713.42 -323.54C1713.45 -323.555 1713.47 -323.573 1713.5 -323.593ZM1711.65 -324.55L1502.13 -464.587L1513.44 -310.179L1711.13 -324.287L1711.65 -324.55ZM1513.54 -309.194L1708.89 -323.152L1519.52 -227.856L1513.54 -309.194ZM1689.6 -177.953L1525.58 -226.38L1519.7 -226.592L1551.53 -79.3531L1689.6 -177.953ZM1306.76 -241.402L1518.19 -226.678L1407.51 -74.613L1306.76 -241.402ZM1549.76 -77.9749L1407.87 -73.2774L1343.14 85.9737L1549.76 -77.9749ZM1170.58 -62.6664L1170.76 -62.6792L1170.72 -62.5418L1170.58 -62.6664ZM1171.78 -62.7219L1171.52 -61.8463L1173.2 -60.3757L1172.54 -62.7611L1171.78 -62.7219ZM1174.54 -59.2222L1173.52 -62.7588L1406.76 -73.2493L1341.78 86.692L1174.54 -59.2222ZM1516.23 56.9993L1343.12 87.8251L1458.5 190.313L1459.67 191.168C1459.58 191.04 1459.56 190.878 1459.61 190.732L1516.01 57.8797L1516.23 56.9993Z" fill="#0C053A"/>
<g opacity="0.7">
<path fill-rule="evenodd" clip-rule="evenodd" d="M1430.81 296.505C1434.7 299.889 1440.6 299.476 1443.99 295.583C1447.37 291.69 1446.96 285.791 1443.07 282.407C1439.17 279.023 1433.27 279.435 1429.89 283.328C1426.51 287.221 1426.92 293.121 1430.81 296.505Z" fill="#0C053A"/>
<path fill-rule="evenodd" clip-rule="evenodd" d="M1644.08 101.356C1647.98 104.741 1653.88 104.328 1657.26 100.435C1660.65 96.5419 1660.23 90.6426 1656.34 87.2584C1652.45 83.8742 1646.55 84.2867 1643.16 88.1798C1639.78 92.0728 1640.19 97.9722 1644.08 101.356Z" fill="#0C053A"/>
<path fill-rule="evenodd" clip-rule="evenodd" d="M1712.47 387.615C1716.36 390.999 1722.26 390.586 1725.64 386.693C1729.03 382.8 1728.61 376.901 1724.72 373.517C1720.83 370.133 1714.93 370.545 1711.54 374.438C1709.92 376.306 1709.1 378.746 1709.27 381.217C1709.44 383.689 1710.59 385.991 1712.47 387.615Z" fill="#0C053A"/>
<path fill-rule="evenodd" clip-rule="evenodd" d="M1759.23 582.265C1762.08 584.747 1766.15 585.268 1769.53 583.584C1772.91 581.901 1774.95 578.345 1774.69 574.576C1774.43 570.806 1771.92 567.566 1768.34 566.366C1764.75 565.166 1760.8 566.243 1758.32 569.095C1754.94 572.985 1755.35 578.879 1759.23 582.265Z" fill="#0C053A"/>
<path fill-rule="evenodd" clip-rule="evenodd" d="M1827.67 125.527C1830 127.551 1833.54 127.299 1835.56 124.963C1837.59 122.627 1837.34 119.092 1835.01 117.066C1832.67 115.039 1829.14 115.287 1827.11 117.62C1826.13 118.742 1825.64 120.207 1825.75 121.69C1825.85 123.173 1826.54 124.554 1827.67 125.527Z" fill="#0C053A"/>
<path fill-rule="evenodd" clip-rule="evenodd" d="M1514.24 61.1506C1516.58 63.1746 1520.11 62.9222 1522.14 60.5866C1524.16 58.251 1523.91 54.7159 1521.58 52.6891C1519.25 50.6623 1515.71 50.9106 1513.68 53.2437C1512.71 54.366 1512.22 55.8301 1512.32 57.3133C1512.43 58.7965 1513.12 60.1771 1514.24 61.1506Z" fill="#0C053A"/>
<path fill-rule="evenodd" clip-rule="evenodd" d="M1339 91.2458C1341.34 93.2699 1344.88 93.0174 1346.9 90.6818C1348.93 88.3462 1348.68 84.8112 1346.34 82.7843C1344.01 80.7575 1340.47 81.0058 1338.44 83.339C1337.47 84.4612 1336.98 85.9253 1337.08 87.4085C1337.19 88.8917 1337.88 90.2723 1339 91.2458Z" fill="#0C053A"/>
<path fill-rule="evenodd" clip-rule="evenodd" d="M1455.07 195.387C1456.79 196.871 1459.23 197.172 1461.26 196.15C1463.29 195.127 1464.5 192.983 1464.33 190.719C1464.16 188.455 1462.64 186.516 1460.48 185.809C1458.32 185.102 1455.95 185.766 1454.48 187.49C1452.46 189.837 1452.73 193.368 1455.07 195.387Z" fill="#0C053A"/>
</g>
</g>
</g>
</svg>
