<?xml version="1.0" encoding="utf-8"?>
<!-- Generator: Adobe Illustrator 23.0.0, SVG Export Plug-In . SVG Version: 6.00 Build 0)  -->
<svg version="1.1" id="Layer_1" xmlns="http://www.w3.org/2000/svg" xmlns:xlink="http://www.w3.org/1999/xlink" x="0px" y="0px"
	 viewBox="0 0 643.6 517.7" style="enable-background:new 0 0 643.6 517.7;" xml:space="preserve">
<style type="text/css">
	.st0{fill:#D40D26;}
	.st1{fill:#251F31;}
	.st2{fill:#3D3155;}
	.st3{fill-rule:evenodd;clip-rule:evenodd;fill:#D40D26;}
</style>
<g>
	<g>
		<path class="st0" d="M462.2,45.2C462.2,45.2,462.2,45.2,462.2,45.2l-0.1,9.3c0,0,0,0,0.1,0c0.9,0,1.5-0.7,1.5-1.5l0-6.2
			C463.8,45.9,463.1,45.2,462.2,45.2z"/>
		<path class="st0" d="M462.2,57C462.2,57,462.2,57,462.2,57l-0.1,9.3c0,0,0,0,0.1,0c0.9,0,1.5-0.7,1.5-1.5l0-6.2
			C463.7,57.7,463.1,57,462.2,57z"/>
		<path class="st0" d="M462.1,94.7C462.1,94.7,462.1,94.7,462.1,94.7l-0.1,9.3c0,0,0,0,0.1,0c0.9,0,1.5-0.7,1.5-1.5l0-6.2
			C463.7,95.4,463,94.7,462.1,94.7z"/>
		<path class="st1" d="M415.4,117c-1.6,0-2.8-1.3-2.8-2.8l0.1-77.3c0-1.6,1.3-2.8,2.8-2.8l43.8,0.1c1.6,0,2.8,1.3,2.8,2.8l-0.1,77.3
			c0,1.6-1.3,2.8-2.8,2.8L415.4,117z"/>
		<path class="st2" d="M417.3,106.2c-1.4,0-2.6-1-2.6-2.2l0.1-61.4c0-1.2,1.2-2.2,2.6-2.2l40.2,0.1c1.4,0,2.6,1,2.6,2.2l-0.1,61.4
			c0,1.2-1.2,2.2-2.6,2.2L417.3,106.2z"/>
		<path class="st0" d="M437.5,113.4c-1.3,0-2.3-1.1-2.3-2.3c0-1.3,1.1-2.3,2.3-2.3c1.3,0,2.3,1.1,2.3,2.3
			C439.8,112.4,438.8,113.4,437.5,113.4z"/>
		<path class="st0" d="M443.5,37.4c0,0.5-0.4,0.9-0.9,0.9l-6.6,0c-0.5,0-0.9-0.4-0.9-0.9l0,0c0-0.5,0.4-0.9,0.9-0.9l6.6,0
			C443,36.5,443.5,36.9,443.5,37.4L443.5,37.4z"/>
		<path class="st0" d="M454.6,111.1c0,0.9-0.7,1.5-1.5,1.5l-6.2,0c-0.9,0-1.5-0.7-1.5-1.5l0,0c0-0.9,0.7-1.5,1.6-1.5l6.2,0
			C453.9,109.6,454.6,110.3,454.6,111.1L454.6,111.1z"/>
		<path class="st0" d="M429.6,111.1c0,0.9-0.7,1.5-1.5,1.5l-6.2,0c-0.9,0-1.5-0.7-1.5-1.5l0,0c0-0.9,0.7-1.5,1.5-1.5l6.2,0
			C428.9,109.5,429.6,110.2,429.6,111.1L429.6,111.1z"/>
	</g>
	<g>
		<path class="st0" d="M251.5,410.4C251.5,410.4,251.5,410.4,251.5,410.4l-0.1,9.3c0,0,0,0,0.1,0c0.9,0,1.5-0.7,1.5-1.5l0-6.2
			C253,411.1,252.4,410.4,251.5,410.4z"/>
		<path class="st0" d="M251.5,422.2C251.5,422.2,251.4,422.2,251.5,422.2l-0.1,9.3c0,0,0,0,0.1,0c0.9,0,1.5-0.7,1.5-1.5l0-6.2
			C253,422.9,252.3,422.2,251.5,422.2z"/>
		<path class="st0" d="M251.4,459.9C251.4,459.9,251.4,459.9,251.4,459.9l-0.1,9.3c0,0,0,0,0.1,0c0.9,0,1.5-0.7,1.5-1.5l0-6.2
			C253,460.6,252.3,459.9,251.4,459.9z"/>
		<path class="st1" d="M204.7,482.2c-1.6,0-2.8-1.3-2.8-2.8l0.1-77.3c0-1.6,1.3-2.8,2.8-2.8l43.8,0.1c1.6,0,2.8,1.3,2.8,2.8
			l-0.1,77.3c0,1.6-1.3,2.8-2.8,2.8L204.7,482.2z"/>
		<path class="st2" d="M206.5,471.4c-1.4,0-2.6-1-2.6-2.2l0.1-61.4c0-1.2,1.2-2.2,2.6-2.2l40.2,0.1c1.4,0,2.6,1,2.6,2.2l-0.1,61.4
			c0,1.2-1.2,2.2-2.6,2.2L206.5,471.4z"/>
		<path class="st0" d="M226.8,478.6c-1.3,0-2.3-1.1-2.3-2.3c0-1.3,1.1-2.3,2.3-2.3c1.3,0,2.3,1.1,2.3,2.3
			C229.1,477.6,228,478.6,226.8,478.6z"/>
		<path class="st0" d="M232.7,402.6c0,0.5-0.4,0.9-0.9,0.9l-6.6,0c-0.5,0-0.9-0.4-0.9-0.9l0,0c0-0.5,0.4-0.9,0.9-0.9l6.6,0
			C232.3,401.7,232.7,402.1,232.7,402.6L232.7,402.6z"/>
		<path class="st0" d="M243.9,476.3c0,0.9-0.7,1.5-1.5,1.5l-6.2,0c-0.9,0-1.5-0.7-1.5-1.5l0,0c0-0.9,0.7-1.5,1.6-1.5l6.2,0
			C243.2,474.8,243.9,475.5,243.9,476.3L243.9,476.3z"/>
		<path class="st0" d="M218.9,476.3c0,0.9-0.7,1.5-1.5,1.5l-6.2,0c-0.9,0-1.5-0.7-1.5-1.5l0,0c0-0.9,0.7-1.5,1.5-1.5l6.2,0
			C218.2,474.7,218.9,475.4,218.9,476.3L218.9,476.3z"/>
	</g>
	<g>
		<path class="st1" d="M578.1,435.8c0,2.2-1.8,4-4,4l-109.9-0.1c-2.2,0-4-1.8-4-4l0.1-75.3c0-2.2,1.8-4,4-4l109.9,0c2.2,0,4,1.8,4,4
			V435.8z"/>
		<path class="st2" d="M573.2,429.5c0,1.9-1.6,3.5-3.7,3.5H468.7c-2,0-3.6-1.7-3.6-3.6v-65.5c0-1.9,1.6-3.4,3.7-3.4h100.8
			c2,0,3.7,1.6,3.7,3.5L573.2,429.5z"/>
		<path class="st0" d="M550.8,435.7c0,0.5-0.4,0.9-0.9,0.9l-4.2,0c-0.5,0-0.9-0.4-0.9-0.9l0,0c0-0.5,0.4-0.9,0.9-0.9l4.2,0
			C550.4,434.8,550.8,435.2,550.8,435.7L550.8,435.7z"/>
		<path class="st0" d="M569.5,435.8c0,0.5-0.4,0.9-0.9,0.9l-4.2,0c-0.5,0-0.9-0.4-0.9-0.9l0,0c0-0.5,0.4-0.9,0.9-0.9l4.2,0
			C569.1,434.8,569.5,435.3,569.5,435.8L569.5,435.8z"/>
		<path class="st0" d="M560.5,435.7c0,0.5-0.4,0.9-0.9,0.9l-4.2,0c-0.5,0-0.9-0.4-0.9-0.9l0,0c0-0.5,0.4-0.9,0.9-0.9l4.2,0
			C560.1,434.8,560.5,435.2,560.5,435.7L560.5,435.7z"/>
		<path class="st1" d="M527.3,449.1c0-4,0-9.3,0-9.3l-16.2,0c0,0,0,6.4,0,9.3c0,2.9-14.7,3.1-14.7,3.1l0,3.1l45.5,0l0-3.1
			C541.9,452.2,527.3,453.1,527.3,449.1z"/>
	</g>
	<g>
		<path class="st1" d="M246.2,128.5c0,2.2-1.8,4-4,4l-109.9-0.1c-2.2,0-4-1.8-4-4l0.1-75.3c0-2.2,1.8-4,4-4l109.9,0c2.2,0,4,1.8,4,4
			V128.5z"/>
		<path class="st2" d="M241.3,122.2c0,1.9-1.6,3.5-3.7,3.5H136.8c-2,0-3.6-1.7-3.6-3.6V56.6c0-1.9,1.6-3.4,3.7-3.4h100.8
			c2,0,3.7,1.6,3.7,3.5L241.3,122.2z"/>
		<path class="st0" d="M218.9,128.4c0,0.5-0.4,0.9-0.9,0.9l-4.2,0c-0.5,0-0.9-0.4-0.9-0.9l0,0c0-0.5,0.4-0.9,0.9-0.9l4.2,0
			C218.5,127.5,218.9,127.9,218.9,128.4L218.9,128.4z"/>
		<path class="st0" d="M237.6,128.5c0,0.5-0.4,0.9-0.9,0.9l-4.2,0c-0.5,0-0.9-0.4-0.9-0.9l0,0c0-0.5,0.4-0.9,0.9-0.9l4.2,0
			C237.2,127.5,237.6,128,237.6,128.5L237.6,128.5z"/>
		<path class="st0" d="M228.6,128.4c0,0.5-0.4,0.9-0.9,0.9l-4.2,0c-0.5,0-0.9-0.4-0.9-0.9l0,0c0-0.5,0.4-0.9,0.9-0.9l4.2,0
			C228.2,127.5,228.6,127.9,228.6,128.4L228.6,128.4z"/>
		<path class="st1" d="M195.4,141.8c0-4,0-9.3,0-9.3l-16.2,0c0,0,0,6.4,0,9.3c0,2.9-14.7,3.1-14.7,3.1l0,3.1l45.5,0l0-3.1
			C210,144.9,195.3,145.8,195.4,141.8z"/>
	</g>
	<g>
		<path class="st1" d="M49.1,314.2c-1.5,0-2.8-1.2-2.8-2.7l-0.2-75.9c0-1.5,1.2-2.8,2.8-2.8l51.9-0.1c1.5,0,2.8,1.2,2.8,2.7
			l0.2,75.9c0,1.5-1.2,2.8-2.7,2.8L49.1,314.2z"/>
		<path class="st2" d="M51.6,305.9c-1.4,0-2.5-1-2.5-2.3L48.9,239c0-1.3,1.1-2.3,2.5-2.4l47-0.1c1.4,0,2.5,1,2.5,2.3l0.2,64.5
			c0,1.3-1.1,2.3-2.5,2.4L51.6,305.9z"/>
		<path class="st0" d="M73.9,311.6c-0.9,0-1.6-0.7-1.6-1.6c0-0.9,0.7-1.6,1.6-1.6c0.9,0,1.6,0.7,1.6,1.6
			C75.5,310.8,74.8,311.6,73.9,311.6z"/>
	</g>
	<g>
		<path class="st1" d="M569.5,264.2c-1.5,0-2.8-1.2-2.8-2.7l-0.2-75.9c0-1.5,1.2-2.8,2.8-2.8l51.9-0.1c1.5,0,2.8,1.2,2.8,2.7
			l0.2,75.9c0,1.5-1.2,2.8-2.7,2.8L569.5,264.2z"/>
		<path class="st2" d="M571.9,255.9c-1.4,0-2.5-1-2.5-2.3l-0.2-64.5c0-1.3,1.1-2.3,2.5-2.4l47-0.1c1.4,0,2.5,1,2.5,2.3l0.2,64.5
			c0,1.3-1.1,2.3-2.5,2.4L571.9,255.9z"/>
		<path class="st0" d="M594.3,261.6c-0.9,0-1.6-0.7-1.6-1.6c0-0.9,0.7-1.6,1.6-1.6c0.9,0,1.6,0.7,1.6,1.6
			C595.9,260.9,595.2,261.6,594.3,261.6z"/>
	</g>
	<path class="st3" d="M414.9,252.9C414.9,252.9,414.9,252.9,414.9,252.9C414.9,252.9,414.9,252.9,414.9,252.9L414.9,252.9
		c-1-0.9-34.1-30.8-75.8-34.8l-9-15.1l-9,15.1c-42.5,3.9-75.9,34.8-75.9,34.8s34.5,31.8,77.9,35l6.9,12.6l6.9-12.6
		C379.8,284.6,413.9,253.8,414.9,252.9L414.9,252.9z M353.7,242.3l-20.4,38c-1.1,0-2.1,0.1-3.2,0.1c-1.1,0-2.1,0-3.2-0.1l-20.4-38
		l-4.3,7.3l16.4,30c-33.5-4.4-64.7-26.2-65.3-26.7c0.6-0.4,30.2-21.1,62.7-26.3l-5.2,8.7l4.2,7.5l10.6-17.2c1.4-0.1,2.9-0.1,4.3-0.1
		c1.4,0,2.9,0.1,4.3,0.1l10.6,17.2l4.2-7.5l-5.2-8.7c32.6,5.2,62.7,25.9,63.3,26.3c-0.6,0.4-32.3,22.3-65.9,26.7l16.4-30
		L353.7,242.3z"/>
</g>
</svg>
