<svg width="105" height="105" viewBox="0 0 105 105" fill="none" xmlns="http://www.w3.org/2000/svg">
<g filter="url(#filter0_d)">
<path fill-rule="evenodd" clip-rule="evenodd" d="M79.9023 18.1362C83.6083 18.1362 86.6126 21.1407 86.6126 24.8464C86.6126 28.5525 83.6083 31.5568 79.9023 31.5568C76.1964 31.5568 73.1921 28.5525 73.1921 24.8464C73.1921 21.1407 76.1964 18.1362 79.9023 18.1362ZM41.2553 79.198C44.7159 80.6998 48.5339 81.5323 52.5462 81.5323C68.2328 81.5323 80.9493 68.8081 80.9493 53.1123C80.9493 49.1044 80.1202 45.2903 78.6242 41.8323L72.7708 47.6852C73.2248 49.4062 73.4666 51.2137 73.4666 53.0778C73.4666 64.6983 64.0694 74.1186 52.4776 74.1186C50.5994 74.1186 48.7788 73.8713 47.0464 73.4074L41.2553 79.198ZM62.6842 34.6884C59.663 32.9997 56.1824 32.0374 52.4776 32.0374C40.8857 32.0374 31.4887 41.4578 31.4887 53.0778C31.4887 56.7726 32.4387 60.245 34.1072 63.2629L28.7441 68.6255C25.8345 64.1649 24.1433 58.8362 24.1433 53.1123C24.1433 37.4161 36.8598 24.6924 52.5462 24.6924C58.2738 24.6924 63.6054 26.3887 68.0666 29.3066L62.6842 34.6884ZM31.5572 79.902C31.5572 76.1959 28.5529 73.1918 24.8469 73.1918C21.141 73.1918 18.1367 76.1959 18.1367 79.902C18.1367 83.6077 21.141 86.6123 24.8469 86.6123C28.5529 86.6123 31.5572 83.6077 31.5572 79.902Z" fill="white"/>
</g>
<defs>
<filter id="filter0_d" x="0.136719" y="0.13623" width="104.476" height="104.476" filterUnits="userSpaceOnUse" color-interpolation-filters="sRGB">
<feFlood flood-opacity="0" result="BackgroundImageFix"/>
<feColorMatrix in="SourceAlpha" type="matrix" values="0 0 0 0 0 0 0 0 0 0 0 0 0 0 0 0 0 0 127 0"/>
<feOffset/>
<feGaussianBlur stdDeviation="9"/>
<feColorMatrix type="matrix" values="0 0 0 0 1 0 0 0 0 1 0 0 0 0 1 0 0 0 0.33 0"/>
<feBlend mode="normal" in2="BackgroundImageFix" result="effect1_dropShadow"/>
<feBlend mode="normal" in="SourceGraphic" in2="effect1_dropShadow" result="shape"/>
</filter>
</defs>
</svg>
