<svg width="106" height="106" viewBox="0 0 106 106" fill="none" xmlns="http://www.w3.org/2000/svg">
<g filter="url(#filter0_d)">
<path fill-rule="evenodd" clip-rule="evenodd" d="M52.1914 18.6597C55.3554 18.6597 57.9203 21.2172 57.9203 24.3722C57.9203 24.6404 57.9017 24.9042 57.8659 25.1625L77.354 36.9327C78.4005 35.7499 79.9276 35.0046 81.6283 35.0046C84.7831 35.0046 87.3407 37.5693 87.3407 40.7333C87.3407 43.8974 84.7831 46.4621 81.6283 46.4621C79.4299 46.4621 77.5215 45.2167 76.5665 43.391L59.5373 53.7053L59.538 53.7557C59.5382 53.7789 59.5383 53.8022 59.5383 53.8255C59.5383 53.8595 59.5381 53.8934 59.5376 53.9273L76.5575 64.2227C77.5186 62.4112 79.4241 61.1772 81.6168 61.1772C84.7792 61.1772 87.3414 63.74 87.3414 66.901C87.3414 70.0624 84.7792 72.6248 81.6168 72.6248C79.9159 72.6248 78.3878 71.8824 77.3393 70.7038L57.833 82.5375C57.3937 85.2623 55.0304 87.3437 52.1829 87.3437C49.3341 87.3437 46.9718 85.2623 46.5327 82.5376L28.0133 71.3032C27.0249 72.1216 25.7562 72.6135 24.3726 72.6135C21.2177 72.6135 18.6602 70.056 18.6602 66.9014C18.6602 63.7464 21.2177 61.1889 24.3726 61.1889C26.2605 61.1889 27.9346 62.1048 28.9746 63.5165L44.8124 53.9366L44.8118 53.8863L44.8116 53.8255C44.8116 53.7822 44.812 53.7391 44.8127 53.696L28.9869 44.111C27.9478 45.5363 26.268 46.4621 24.3726 46.4621C21.2177 46.4621 18.6602 43.8974 18.6602 40.7333C18.6602 37.5693 21.2177 35.0046 24.3726 35.0046C25.7589 35.0046 27.0299 35.4998 28.0192 36.3235L46.5156 25.1529C46.4806 24.8976 46.4626 24.637 46.4626 24.3722C46.4626 21.2172 49.0275 18.6597 52.1914 18.6597ZM57.2481 78.9527L75.8057 67.6955L58.6567 57.3222C57.412 59.6248 54.9762 61.1889 52.175 61.1889C49.3767 61.1889 46.943 59.628 45.6971 57.3294L30.0835 66.7739C30.0844 66.8163 30.0849 66.8588 30.0849 66.9014C30.0849 67.451 30.0073 67.9825 29.8624 68.4855L47.1174 78.9526C48.0762 77.1348 49.9847 75.8957 52.1829 75.8957C54.3801 75.8957 56.289 77.1349 57.2481 78.9527ZM58.6472 50.3113L75.8053 39.9192L56.4286 28.2169C55.3808 29.3645 53.8704 30.0847 52.1914 30.0847C50.5091 30.0847 48.9962 29.3617 47.9481 28.2102L29.8595 39.1346C30.0062 39.642 30.0849 40.1785 30.0849 40.7333C30.0849 40.7696 30.0846 40.8058 30.0839 40.8418L45.7066 50.3041C46.9555 48.0151 49.3839 46.4621 52.175 46.4621C54.969 46.4621 57.3996 48.0184 58.6472 50.3113Z" fill="white"/>
</g>
<defs>
<filter id="filter0_d" x="0.660156" y="0.659668" width="104.681" height="104.684" filterUnits="userSpaceOnUse" color-interpolation-filters="sRGB">
<feFlood flood-opacity="0" result="BackgroundImageFix"/>
<feColorMatrix in="SourceAlpha" type="matrix" values="0 0 0 0 0 0 0 0 0 0 0 0 0 0 0 0 0 0 127 0"/>
<feOffset/>
<feGaussianBlur stdDeviation="9"/>
<feColorMatrix type="matrix" values="0 0 0 0 1 0 0 0 0 1 0 0 0 0 1 0 0 0 0.33 0"/>
<feBlend mode="normal" in2="BackgroundImageFix" result="effect1_dropShadow"/>
<feBlend mode="normal" in="SourceGraphic" in2="effect1_dropShadow" result="shape"/>
</filter>
</defs>
</svg>
