<?xml version="1.0" encoding="utf-8"?>
<!-- Generator: Adobe Illustrator 23.0.0, SVG Export Plug-In . SVG Version: 6.00 Build 0)  -->
<svg version="1.1" id="Layer_1" xmlns="http://www.w3.org/2000/svg" xmlns:xlink="http://www.w3.org/1999/xlink" x="0px" y="0px"
	 viewBox="0 0 643.6 517.7" style="enable-background:new 0 0 643.6 517.7;" xml:space="preserve">
<style type="text/css">
	.st0{fill:#D40D26;}
	.st1{opacity:0.3;}
</style>
<g>
	<path class="st0" d="M608,101.1c-16.5-29.7-61.8-41.1-127.6-32c-65.5,9.1-143.5,37.4-219.8,79.7c-76.2,42.3-141.6,93.5-184,144.3
		c-42.6,51-56.9,95.4-40.4,125.1c12.7,22.9,42.6,35.1,86.3,35.1c12.7,0,26.6-1,41.3-3.1c65.5-9.1,143.5-37.4,219.8-79.7
		c76.2-42.3,141.6-93.5,184-144.3C610.2,175.3,624.5,130.9,608,101.1z M566.3,225.2C524,275.7,458.9,326.8,382.8,369
		c-76.1,42.2-153.9,70.4-219.2,79.5c-65,9-109.7-2-125.8-31.1c-16.1-29.1-1.8-72.8,40.2-123.2c42.2-50.6,107.4-101.7,183.5-143.9
		c76.1-42.2,153.9-70.4,219.2-79.5c14.6-2,28.5-3.1,41.1-3.1c43,0,72.3,11.8,84.7,34.2C622.6,131.1,608.3,174.8,566.3,225.2z"/>
	<g class="st1">
		<path class="st0" d="M551,247.3c-18.1,17.7-37.4,34-57.6,49.1c19.1-16.4,37.3-33.8,53.9-52.5c0.9-1,2.5-1.1,3.5-0.2
			c1,0.9,1.1,2.5,0.2,3.5C551.1,247.2,551.1,247.2,551,247.3z"/>
		<path class="st0" d="M200.5,183.6c19.7-12.2,40-23.5,60.6-34c-19.8,11.9-39.1,24.7-57.8,38.2c-1.1,0.8-2.7,0.6-3.5-0.6
			c-0.8-1.1-0.6-2.7,0.6-3.5C200.4,183.7,200.5,183.6,200.5,183.6z"/>
		<path class="st0" d="M109.9,454.5c-7.1-0.7-14.1-1.7-21-3.2c-6.9-1.5-13.8-3.6-20.3-6.3c-6.5-2.8-12.7-6.4-18.2-10.9
			c-5.4-4.5-10-10-13.3-16.3c3.6,6,8.5,11.2,14.1,15.3c5.6,4.1,11.8,7.2,18.3,9.6c6.5,2.3,13.3,3.9,20.1,5
			c6.8,1.1,13.7,1.6,20.6,1.9l0,0c1.4,0,2.5,1.2,2.4,2.6c0,1.4-1.2,2.5-2.6,2.4C110,454.5,109.9,454.5,109.9,454.5z"/>
		<circle class="st0" cx="201" cy="186.2" r="2.8"/>
		<circle class="st0" cx="110" cy="452" r="2.8"/>
		<circle class="st0" cx="550" cy="244.6" r="2.8"/>
	</g>
	<path class="st0" d="M569,226.3c-52.4-40.4-127.2-76.2-210.8-101c-83.6-24.8-165.9-35.5-231.8-30.2C60.2,100.5,18.4,121.4,8.7,154
		c-9.7,32.6,14,72.9,66.6,113.4c52.4,40.4,127.2,76.2,210.8,101c69.5,20.6,137.8,31.5,197.4,31.5c11.9,0,23.5-0.4,34.4-1.3
		c66.2-5.3,107.9-26.2,117.6-58.8C645.2,307.1,621.6,266.8,569,226.3z M633.9,339.2c-9.5,31.9-50.8,52.4-116.4,57.6
		c-65.7,5.2-147.7-5.4-230.9-30.1C203.3,342,128.6,306.2,76.4,266c-52-40.1-75.4-79.7-66-111.5c9.4-31.9,50.7-52.3,116.1-57.6
		c10.9-0.9,22.4-1.3,34.3-1.3c59.4,0,127.5,10.9,196.9,31.4c83.4,24.7,158.1,60.5,210.3,100.7C619.9,267.7,643.3,307.3,633.9,339.2z
		"/>
	<path class="st0" d="M497,204.4c-22.1-66.1-59.8-122.6-106.1-159.1c-46.4-36.6-96-48.7-139.5-34.1c-43.6,14.6-75.8,54.1-90.9,111.2
		c-15,57-11.1,124.8,11,190.9c22.1,66.1,59.8,122.6,106.1,159.1c33.3,26.3,68.7,40.1,102.3,40.1c12.7,0,25.1-2,36.9-5.9l0.7-0.2h0
		c43.4-14.7,75.5-54.1,90.6-111.1C523,338.3,519.1,270.5,497,204.4z M288.5,6.9c33.2,0,68.2,13.8,101.2,39.8
		c46.1,36.3,83.5,92.5,105.6,158.3c22,65.8,25.9,133.2,10.9,189.9c-14.9,56.6-46.8,95.6-89.8,110c-43,14.4-92,2.4-137.9-33.9
		C232.5,434.8,195,378.5,173,312.8c-22-65.8-25.9-133.2-10.9-189.9c14.9-56.6,46.8-95.6,89.8-110C263.6,8.9,275.9,6.9,288.5,6.9z"/>
	<g>
		<g class="st1">
			<path class="st0" d="M551,247.3c-18.1,17.7-37.4,34-57.6,49.1c19.1-16.4,37.3-33.8,53.9-52.5c0.9-1,2.5-1.1,3.5-0.2
				c1,0.9,1.1,2.5,0.2,3.5C551.1,247.2,551.1,247.2,551,247.3z"/>
			<path class="st0" d="M200.5,183.6c19.7-12.2,40-23.5,60.6-34c-19.8,11.9-39.1,24.7-57.8,38.2c-1.1,0.8-2.7,0.6-3.5-0.6
				c-0.8-1.1-0.6-2.7,0.6-3.5C200.4,183.7,200.5,183.6,200.5,183.6z"/>
			<path class="st0" d="M109.9,454.5c-7.1-0.7-14.1-1.7-21-3.2c-6.9-1.5-13.8-3.6-20.3-6.3c-6.5-2.8-12.7-6.4-18.2-10.9
				c-5.4-4.5-10-10-13.3-16.3c3.6,6,8.5,11.2,14.1,15.3c5.6,4.1,11.8,7.2,18.3,9.6c6.5,2.3,13.3,3.9,20.1,5
				c6.8,1.1,13.7,1.6,20.6,1.9l0,0c1.4,0,2.5,1.2,2.4,2.6c0,1.4-1.2,2.5-2.6,2.4C110,454.5,109.9,454.5,109.9,454.5z"/>
		</g>
		<circle class="st0" cx="201" cy="186.2" r="2.8"/>
		<circle class="st0" cx="110" cy="452" r="2.8"/>
		<circle class="st0" cx="550" cy="244.6" r="2.8"/>
	</g>
	<g>
		<g class="st1">
			<path class="st0" d="M174.6,327.3l-4.1-12.4c-1.3-4.1-2.5-8.3-3.7-12.5c-2.3-8.4-4.3-16.8-6.1-25.3c-3.5-16.9-5.9-34.1-7.1-51.3
				c2,17.1,5.2,34.1,9.5,50.8c2.2,8.3,4.6,16.6,7.3,24.7c1.4,4.1,2.7,8.1,4.2,12.2l4.6,12l0,0.1c0.5,1.3-0.2,2.7-1.4,3.2
				c-1.3,0.5-2.7-0.2-3.2-1.4C174.6,327.4,174.6,327.4,174.6,327.3z"/>
			<path class="st0" d="M481.4,161.1c11.8,27.2,20.5,55.6,26,84.5c-7.1-28.6-17.4-56.2-30.6-82.4c-0.6-1.2-0.1-2.7,1.1-3.4
				c1.2-0.6,2.7-0.1,3.4,1.1C481.4,161,481.4,161,481.4,161.1z"/>
			<path class="st0" d="M250.8,9.6c7.8-2.4,15.8-3.9,23.9-4.6c8.1-0.7,16.2-0.6,24.2,0.3c16,1.8,31.5,6.5,46,13.2
				c-14.8-5.9-30.4-9.8-46.2-10.7C282.9,6.8,267,9,252.4,14.3c-1.3,0.5-2.7-0.2-3.2-1.5s0.2-2.7,1.5-3.2
				C250.7,9.6,250.7,9.6,250.8,9.6L250.8,9.6z"/>
		</g>
		<g>
			<circle class="st0" cx="251.6" cy="12" r="2.8"/>
			<circle class="st0" cx="479.1" cy="162.1" r="2.8"/>
			<circle class="st0" cx="176.9" cy="326.5" r="2.8"/>
		</g>
	</g>
	<g>
		<g class="st1">
			<path class="st0" d="M624.4,280.9c3.9,6.5,7.3,13.3,9.7,20.5c2.5,7.2,4,14.7,3.9,22.3c0,3.8-0.4,7.6-1.2,11.3
				c-0.8,3.7-2,7.3-3.6,10.7c-3.2,6.8-7.9,12.8-13.4,17.7c5.2-5.3,9.5-11.4,12.2-18.2c1.4-3.4,2.3-6.9,2.9-10.5
				c0.6-3.6,0.8-7.2,0.6-10.8c-0.4-7.2-2.2-14.3-4.9-21c-2.7-6.7-6.4-13-10.4-19.1l0,0c-0.8-1.1-0.5-2.7,0.7-3.5
				c1.1-0.8,2.7-0.5,3.5,0.7C624.3,280.8,624.4,280.9,624.4,280.9z"/>
			<path class="st0" d="M358.6,123.7c37.6,12,74.3,26.5,109.6,43.9c-36-15.8-73.2-28.7-111-39.1c-1.3-0.4-2.1-1.7-1.8-3.1
				c0.4-1.3,1.7-2.1,3.1-1.8C358.6,123.7,358.6,123.7,358.6,123.7z"/>
			<path class="st0" d="M7.2,153.5c2.7-8.2,7.4-15.6,13.3-21.6c5.9-6.1,12.8-10.9,20.1-14.8c7.3-4,15-7,22.8-9.5
				c7.8-2.5,15.8-4.4,23.9-6c-8,2-15.8,4.3-23.5,7.2c-7.6,2.9-15.1,6.3-22,10.5c-6.9,4.2-13.4,9.2-18.6,15.2
				c-5.2,6-9.2,13-11.3,20.5l0,0c-0.4,1.3-1.7,2.1-3.1,1.7c-1.3-0.4-2.1-1.7-1.7-3.1C7.2,153.6,7.2,153.6,7.2,153.5z"/>
			<path class="st0" d="M331.6,382.2c-33.6-8.8-66.6-19.7-98.8-32.5c32.8,11.3,66.2,20.5,100,27.6c1.4,0.3,2.2,1.6,1.9,3
				c-0.3,1.4-1.6,2.2-3,1.9C331.6,382.2,331.6,382.2,331.6,382.2z"/>
		</g>
		<g>
			<circle class="st0" cx="9.6" cy="154.2" r="2.8"/>
			<circle class="st0" cx="356.8" cy="126.1" r="2.8"/>
			<circle class="st0" cx="332.1" cy="379.7" r="2.8"/>
			<circle class="st0" cx="621.8" cy="281.3" r="2.8"/>
		</g>
	</g>
</g>
</svg>
