<?xml version="1.0" encoding="utf-8"?>
<!-- Generator: Adobe Illustrator 23.0.0, SVG Export Plug-In . SVG Version: 6.00 Build 0)  -->
<svg version="1.1" id="Layer_1" xmlns="http://www.w3.org/2000/svg" xmlns:xlink="http://www.w3.org/1999/xlink" x="0px" y="0px"
	 viewBox="0 0 105 105" style="enable-background:new 0 0 105 105;" xml:space="preserve">
<style type="text/css">
	.st0{fill:#FFFFFF;}
</style>
<g>
	<polygon class="st0" points="52.5,36.9 40.6,43.7 52.5,50.6 64.4,43.7 	"/>
	<rect x="50.5" y="33.7" class="st0" width="4" height="6.6"/>
	<polygon class="st0" points="42.7,19.6 42.7,30.9 52.5,36.6 62.3,30.9 62.3,19.6 52.5,13.9 	"/>
	<polygon class="st0" points="19.1,54.6 27.9,49.5 27.9,38.3 37.6,32.7 37.6,22.5 19.1,33.2 	"/>
	<polygon class="st0" points="39,60.3 50.9,67.2 50.8,53.5 39,46.6 	"/>
	<rect x="37.1" y="56.9" transform="matrix(-0.5 -0.866 0.866 -0.5 6.4433 124.2164)" class="st0" width="4" height="6.6"/>
	<polygon class="st0" points="28.9,77.5 38.7,71.8 38.7,60.4 28.9,54.8 19.1,60.4 19.1,71.8 	"/>
	<polygon class="st0" points="71,80.4 62.2,75.3 52.5,80.9 42.8,75.3 34,80.4 52.5,91.1 	"/>
	<polygon class="st0" points="66,60.3 66,46.6 54.2,53.5 54.1,67.2 	"/>
	<rect x="63.9" y="56.9" transform="matrix(-0.5 0.866 -0.866 -0.5 151.0567 33.2836)" class="st0" width="4" height="6.6"/>
	<polygon class="st0" points="85.9,60.4 76.1,54.8 66.3,60.4 66.3,71.8 76.1,77.5 85.9,71.8 	"/>
	<polygon class="st0" points="67.4,22.5 67.4,32.7 77.1,38.3 77.1,49.5 85.9,54.6 85.9,33.2 	"/>
</g>
</svg>
