<?xml version="1.0" encoding="utf-8"?>
<!-- Generator: Adobe Illustrator 23.0.0, SVG Export Plug-In . SVG Version: 6.00 Build 0)  -->
<svg version="1.1" id="Layer_1" xmlns="http://www.w3.org/2000/svg" xmlns:xlink="http://www.w3.org/1999/xlink" x="0px" y="0px"
	 viewBox="0 0 643.6 517.7" style="enable-background:new 0 0 643.6 517.7;" xml:space="preserve">
<style type="text/css">
	.st0{fill:#D40D26;}
	.st1{fill:#BC0826;}
	.st2{fill:#A80528;}
	.st3{opacity:0.3;}
	.st4{fill:#251F31;}
	.st5{fill:#3D3155;}
</style>
<g>
	<g>
		<g>
			<path class="st0" d="M299.9,254.3l35.2,20.8l8.3-30.6l-8.3-48.7L299.9,254.3z"/>
		</g>
	</g>
	<g>
		<g>
			<polygon class="st1" points="335.1,195.9 335.1,275.2 370.4,254.3 			"/>
		</g>
	</g>
	<g>
		<g>
			<path class="st1" d="M335.1,238.3l-35.2,16l35.2,20.8l35.2-20.8L335.1,238.3z"/>
		</g>
	</g>
	<g>
		<g>
			<path class="st0" d="M299.9,261l35.2,49.7l2.5-16.1l-2.5-12.7L299.9,261z"/>
		</g>
	</g>
	<g>
		<path class="st2" d="M335.1,281.8v28.8l35.3-49.7L335.1,281.8z"/>
	</g>
	<polygon class="st2" points="335.1,238.3 335.1,275.2 370.4,254.3 	"/>
	<g>
		<path class="st0" d="M122.6,452.9c-43.3,0-73.3-11.9-86-34.9c-16.4-29.6-2.1-73.9,40.4-124.7c42.4-50.7,107.6-101.9,183.8-144.2
			c76.2-42.3,154.2-70.5,219.6-79.6c65.6-9.1,110.8,2.2,127.2,31.8c16.4,29.6,2.1,73.9-40.4,124.7C525,276.8,459.7,328,383.5,370.2
			c-76.2,42.3-154.2,70.5-219.6,79.6C149,451.9,135.2,452.9,122.6,452.9z M521.8,67.5c-12.6,0-26.3,1-41.1,3.1
			c-65.3,9.1-143.2,37.3-219.3,79.5C185.2,192.2,120.1,243.4,77.8,294c-42.2,50.5-56.5,94.4-40.3,123.6
			c16.2,29.2,61,40.3,126.2,31.3c65.3-9.1,143.2-37.3,219.3-79.5c76.1-42.2,141.3-93.3,183.6-143.9c42.2-50.5,56.5-94.4,40.3-123.6
			C594.3,79.2,564.7,67.5,521.8,67.5z"/>
	</g>
	<g class="st3">
		<path class="st0" d="M551,247.3c-18.1,17.7-37.4,34-57.6,49.1c19.1-16.4,37.3-33.8,53.9-52.5c0.9-1,2.5-1.1,3.5-0.2
			c1,0.9,1.1,2.5,0.2,3.5C551.1,247.2,551.1,247.2,551,247.3z"/>
		<path class="st0" d="M200.5,183.6c19.7-12.2,40-23.5,60.6-34c-19.8,11.9-39.1,24.7-57.8,38.2c-1.1,0.8-2.7,0.6-3.5-0.6
			c-0.8-1.1-0.6-2.7,0.6-3.5C200.4,183.7,200.5,183.6,200.5,183.6z"/>
		<path class="st0" d="M109.9,454.5c-7.1-0.7-14.1-1.7-21-3.2c-6.9-1.5-13.8-3.6-20.3-6.3c-6.5-2.8-12.7-6.4-18.2-10.9
			c-5.4-4.5-10-10-13.3-16.3c3.6,6,8.5,11.2,14.1,15.3c5.6,4.1,11.8,7.2,18.3,9.6c6.5,2.3,13.3,3.9,20.1,5
			c6.8,1.1,13.7,1.6,20.6,1.9l0,0c1.4,0,2.5,1.2,2.4,2.6c0,1.4-1.2,2.5-2.6,2.4C110,454.5,109.9,454.5,109.9,454.5z"/>
		<circle class="st0" cx="201" cy="186.2" r="2.8"/>
		<circle class="st0" cx="110" cy="452" r="2.8"/>
		<circle class="st0" cx="550" cy="244.6" r="2.8"/>
	</g>
	<g>
		<path class="st0" d="M483.5,399.5c-59.1,0-127.7-10.9-197.3-31.5c-83.5-24.8-158.4-60.6-210.7-100.9
			c-52.5-40.4-76.1-80.6-66.4-113c9.6-32.5,51.3-53.3,117.3-58.6c65.9-5.3,148.1,5.4,231.7,30.2c83.5,24.8,158.4,60.6,210.7,100.9
			c52.5,40.4,76.1,80.6,66.4,113c-9.6,32.5-51.3,53.3-117.3,58.6C506.9,399.1,495.4,399.5,483.5,399.5z M160.8,95.2
			c-11.9,0-23.3,0.4-34.3,1.3c-65.6,5.3-106.9,25.8-116.4,57.9s14,71.8,66.1,111.9c52.2,40.3,127,76,210.4,100.8
			c172.1,51,328.1,38.5,347.7-27.7l0.5,0.1l-0.5-0.1c9.5-32-14-71.8-66.1-111.9c-52.2-40.3-127-76-210.4-100.8
			C288.3,106,219.7,95.2,160.8,95.2z"/>
	</g>
	<g>
		<path class="st0" d="M379.8,512.2c-33.3,0-68.5-13.6-102.1-40.1c-46.3-36.5-83.9-92.9-106-158.9c-22.1-66-26-133.8-11-190.7
			c15-57,47.2-96.4,90.7-111C294.8-3,344.3,9.1,390.6,45.6c46.3,36.5,83.9,92.9,106,158.9c22.1,66,26,133.8,11,190.7
			c-15,57-47.2,96.4-90.7,111l-0.2-0.5l0.2,0.5C404.9,510.2,392.5,512.2,379.8,512.2z M288.5,6.5c-12.6,0-24.9,2-36.8,5.9
			c-43.1,14.4-75.1,53.6-90,110.3c-15,56.8-11.1,124.3,11,190.2c22,65.9,59.6,122.1,105.7,158.5c46.1,36.3,95.2,48.3,138.3,33.9
			c43.1-14.4,75.1-53.6,90-110.3c15-56.8,11.1-124.3-11-190.2C473.6,139,436.1,82.7,390,46.4C356.6,20.1,321.7,6.5,288.5,6.5z"/>
	</g>
	<g>
		<path class="st0" d="M462.2,45.2C462.2,45.2,462.2,45.2,462.2,45.2l-0.1,9.3c0,0,0,0,0.1,0c0.9,0,1.5-0.7,1.5-1.5l0-6.2
			C463.8,45.9,463.1,45.2,462.2,45.2z"/>
		<path class="st0" d="M462.2,57C462.2,57,462.2,57,462.2,57l-0.1,9.3c0,0,0,0,0.1,0c0.9,0,1.5-0.7,1.5-1.5l0-6.2
			C463.7,57.7,463.1,57,462.2,57z"/>
		<path class="st0" d="M462.1,94.7C462.1,94.7,462.1,94.7,462.1,94.7l-0.1,9.3c0,0,0,0,0.1,0c0.9,0,1.5-0.7,1.5-1.5l0-6.2
			C463.7,95.4,463,94.7,462.1,94.7z"/>
		<path class="st4" d="M415.4,117c-1.6,0-2.8-1.3-2.8-2.8l0.1-77.3c0-1.6,1.3-2.8,2.8-2.8l43.8,0.1c1.6,0,2.8,1.3,2.8,2.8l-0.1,77.3
			c0,1.6-1.3,2.8-2.8,2.8L415.4,117z"/>
		<path class="st5" d="M417.3,106.2c-1.4,0-2.6-1-2.6-2.2l0.1-61.4c0-1.2,1.2-2.2,2.6-2.2l40.2,0.1c1.4,0,2.6,1,2.6,2.2l-0.1,61.4
			c0,1.2-1.2,2.2-2.6,2.2L417.3,106.2z"/>
		<path class="st0" d="M437.5,113.4c-1.3,0-2.3-1.1-2.3-2.3c0-1.3,1.1-2.3,2.3-2.3c1.3,0,2.3,1.1,2.3,2.3
			C439.8,112.4,438.8,113.4,437.5,113.4z"/>
		<path class="st0" d="M443.5,37.4c0,0.5-0.4,0.9-0.9,0.9l-6.6,0c-0.5,0-0.9-0.4-0.9-0.9l0,0c0-0.5,0.4-0.9,0.9-0.9l6.6,0
			C443,36.5,443.5,36.9,443.5,37.4L443.5,37.4z"/>
		<path class="st0" d="M454.6,111.1c0,0.9-0.7,1.5-1.5,1.5l-6.2,0c-0.9,0-1.5-0.7-1.5-1.5l0,0c0-0.9,0.7-1.5,1.6-1.5l6.2,0
			C453.9,109.6,454.6,110.3,454.6,111.1L454.6,111.1z"/>
		<path class="st0" d="M429.6,111.1c0,0.9-0.7,1.5-1.5,1.5l-6.2,0c-0.9,0-1.5-0.7-1.5-1.5l0,0c0-0.9,0.7-1.5,1.5-1.5l6.2,0
			C428.9,109.5,429.6,110.2,429.6,111.1L429.6,111.1z"/>
	</g>
	<g>
		<path class="st0" d="M251.5,410.4C251.5,410.4,251.5,410.4,251.5,410.4l-0.1,9.3c0,0,0,0,0.1,0c0.9,0,1.5-0.7,1.5-1.5l0-6.2
			C253,411.1,252.4,410.4,251.5,410.4z"/>
		<path class="st0" d="M251.5,422.2C251.5,422.2,251.4,422.2,251.5,422.2l-0.1,9.3c0,0,0,0,0.1,0c0.9,0,1.5-0.7,1.5-1.5l0-6.2
			C253,422.9,252.3,422.2,251.5,422.2z"/>
		<path class="st0" d="M251.4,459.9C251.4,459.9,251.4,459.9,251.4,459.9l-0.1,9.3c0,0,0,0,0.1,0c0.9,0,1.5-0.7,1.5-1.5l0-6.2
			C253,460.6,252.3,459.9,251.4,459.9z"/>
		<path class="st4" d="M204.7,482.2c-1.6,0-2.8-1.3-2.8-2.8l0.1-77.3c0-1.6,1.3-2.8,2.8-2.8l43.8,0.1c1.6,0,2.8,1.3,2.8,2.8
			l-0.1,77.3c0,1.6-1.3,2.8-2.8,2.8L204.7,482.2z"/>
		<path class="st5" d="M206.5,471.4c-1.4,0-2.6-1-2.6-2.2l0.1-61.4c0-1.2,1.2-2.2,2.6-2.2l40.2,0.1c1.4,0,2.6,1,2.6,2.2l-0.1,61.4
			c0,1.2-1.2,2.2-2.6,2.2L206.5,471.4z"/>
		<path class="st0" d="M226.8,478.6c-1.3,0-2.3-1.1-2.3-2.3c0-1.3,1.1-2.3,2.3-2.3c1.3,0,2.3,1.1,2.3,2.3
			C229.1,477.6,228,478.6,226.8,478.6z"/>
		<path class="st0" d="M232.7,402.6c0,0.5-0.4,0.9-0.9,0.9l-6.6,0c-0.5,0-0.9-0.4-0.9-0.9l0,0c0-0.5,0.4-0.9,0.9-0.9l6.6,0
			C232.3,401.7,232.7,402.1,232.7,402.6L232.7,402.6z"/>
		<path class="st0" d="M243.9,476.3c0,0.9-0.7,1.5-1.5,1.5l-6.2,0c-0.9,0-1.5-0.7-1.5-1.5l0,0c0-0.9,0.7-1.5,1.6-1.5l6.2,0
			C243.2,474.8,243.9,475.5,243.9,476.3L243.9,476.3z"/>
		<path class="st0" d="M218.9,476.3c0,0.9-0.7,1.5-1.5,1.5l-6.2,0c-0.9,0-1.5-0.7-1.5-1.5l0,0c0-0.9,0.7-1.5,1.5-1.5l6.2,0
			C218.2,474.7,218.9,475.4,218.9,476.3L218.9,476.3z"/>
	</g>
	<g>
		<path class="st4" d="M578.1,435.8c0,2.2-1.8,4-4,4l-109.9-0.1c-2.2,0-4-1.8-4-4l0.1-75.3c0-2.2,1.8-4,4-4l109.9,0c2.2,0,4,1.8,4,4
			V435.8z"/>
		<path class="st5" d="M573.2,429.5c0,1.9-1.6,3.5-3.7,3.5H468.7c-2,0-3.6-1.7-3.6-3.6v-65.5c0-1.9,1.6-3.4,3.7-3.4h100.8
			c2,0,3.7,1.6,3.7,3.5L573.2,429.5z"/>
		<path class="st0" d="M550.8,435.7c0,0.5-0.4,0.9-0.9,0.9l-4.2,0c-0.5,0-0.9-0.4-0.9-0.9l0,0c0-0.5,0.4-0.9,0.9-0.9l4.2,0
			C550.4,434.8,550.8,435.2,550.8,435.7L550.8,435.7z"/>
		<path class="st0" d="M569.5,435.8c0,0.5-0.4,0.9-0.9,0.9l-4.2,0c-0.5,0-0.9-0.4-0.9-0.9l0,0c0-0.5,0.4-0.9,0.9-0.9l4.2,0
			C569.1,434.8,569.5,435.3,569.5,435.8L569.5,435.8z"/>
		<path class="st0" d="M560.5,435.7c0,0.5-0.4,0.9-0.9,0.9l-4.2,0c-0.5,0-0.9-0.4-0.9-0.9l0,0c0-0.5,0.4-0.9,0.9-0.9l4.2,0
			C560.1,434.8,560.5,435.2,560.5,435.7L560.5,435.7z"/>
		<path class="st4" d="M527.3,449.1c0-4,0-9.3,0-9.3l-16.2,0c0,0,0,6.4,0,9.3c0,2.9-14.7,3.1-14.7,3.1l0,3.1l45.5,0l0-3.1
			C541.9,452.2,527.3,453.1,527.3,449.1z"/>
	</g>
	<g>
		<path class="st4" d="M246.2,128.5c0,2.2-1.8,4-4,4l-109.9-0.1c-2.2,0-4-1.8-4-4l0.1-75.3c0-2.2,1.8-4,4-4l109.9,0c2.2,0,4,1.8,4,4
			V128.5z"/>
		<path class="st5" d="M241.3,122.2c0,1.9-1.6,3.5-3.7,3.5H136.8c-2,0-3.6-1.7-3.6-3.6V56.6c0-1.9,1.6-3.4,3.7-3.4h100.8
			c2,0,3.7,1.6,3.7,3.5L241.3,122.2z"/>
		<path class="st0" d="M218.9,128.4c0,0.5-0.4,0.9-0.9,0.9l-4.2,0c-0.5,0-0.9-0.4-0.9-0.9l0,0c0-0.5,0.4-0.9,0.9-0.9l4.2,0
			C218.5,127.5,218.9,127.9,218.9,128.4L218.9,128.4z"/>
		<path class="st0" d="M237.6,128.5c0,0.5-0.4,0.9-0.9,0.9l-4.2,0c-0.5,0-0.9-0.4-0.9-0.9l0,0c0-0.5,0.4-0.9,0.9-0.9l4.2,0
			C237.2,127.5,237.6,128,237.6,128.5L237.6,128.5z"/>
		<path class="st0" d="M228.6,128.4c0,0.5-0.4,0.9-0.9,0.9l-4.2,0c-0.5,0-0.9-0.4-0.9-0.9l0,0c0-0.5,0.4-0.9,0.9-0.9l4.2,0
			C228.2,127.5,228.6,127.9,228.6,128.4L228.6,128.4z"/>
		<path class="st4" d="M195.4,141.8c0-4,0-9.3,0-9.3l-16.2,0c0,0,0,6.4,0,9.3c0,2.9-14.7,3.1-14.7,3.1l0,3.1l45.5,0l0-3.1
			C210,144.9,195.3,145.8,195.4,141.8z"/>
	</g>
	<g>
		<path class="st4" d="M49.1,314.2c-1.5,0-2.8-1.2-2.8-2.7l-0.2-75.9c0-1.5,1.2-2.8,2.8-2.8l51.9-0.1c1.5,0,2.8,1.2,2.8,2.7
			l0.2,75.9c0,1.5-1.2,2.8-2.7,2.8L49.1,314.2z"/>
		<path class="st5" d="M51.6,305.9c-1.4,0-2.5-1-2.5-2.3L48.9,239c0-1.3,1.1-2.3,2.5-2.4l47-0.1c1.4,0,2.5,1,2.5,2.3l0.2,64.5
			c0,1.3-1.1,2.3-2.5,2.4L51.6,305.9z"/>
		<path class="st0" d="M73.9,311.6c-0.9,0-1.6-0.7-1.6-1.6c0-0.9,0.7-1.6,1.6-1.6c0.9,0,1.6,0.7,1.6,1.6
			C75.5,310.8,74.8,311.6,73.9,311.6z"/>
	</g>
	<g>
		<path class="st4" d="M569.5,264.2c-1.5,0-2.8-1.2-2.8-2.7l-0.2-75.9c0-1.5,1.2-2.8,2.8-2.8l51.9-0.1c1.5,0,2.8,1.2,2.8,2.7
			l0.2,75.9c0,1.5-1.2,2.8-2.7,2.8L569.5,264.2z"/>
		<path class="st5" d="M571.9,255.9c-1.4,0-2.5-1-2.5-2.3l-0.2-64.5c0-1.3,1.1-2.3,2.5-2.4l47-0.1c1.4,0,2.5,1,2.5,2.3l0.2,64.5
			c0,1.3-1.1,2.3-2.5,2.4L571.9,255.9z"/>
		<path class="st0" d="M594.3,261.6c-0.9,0-1.6-0.7-1.6-1.6c0-0.9,0.7-1.6,1.6-1.6c0.9,0,1.6,0.7,1.6,1.6
			C595.9,260.9,595.2,261.6,594.3,261.6z"/>
	</g>
	<g>
		<g class="st3">
			<path class="st0" d="M551,247.3c-18.1,17.7-37.4,34-57.6,49.1c19.1-16.4,37.3-33.8,53.9-52.5c0.9-1,2.5-1.1,3.5-0.2
				c1,0.9,1.1,2.5,0.2,3.5C551.1,247.2,551.1,247.2,551,247.3z"/>
			<path class="st0" d="M200.5,183.6c19.7-12.2,40-23.5,60.6-34c-19.8,11.9-39.1,24.7-57.8,38.2c-1.1,0.8-2.7,0.6-3.5-0.6
				c-0.8-1.1-0.6-2.7,0.6-3.5C200.4,183.7,200.5,183.6,200.5,183.6z"/>
			<path class="st0" d="M109.9,454.5c-7.1-0.7-14.1-1.7-21-3.2c-6.9-1.5-13.8-3.6-20.3-6.3c-6.5-2.8-12.7-6.4-18.2-10.9
				c-5.4-4.5-10-10-13.3-16.3c3.6,6,8.5,11.2,14.1,15.3c5.6,4.1,11.8,7.2,18.3,9.6c6.5,2.3,13.3,3.9,20.1,5
				c6.8,1.1,13.7,1.6,20.6,1.9l0,0c1.4,0,2.5,1.2,2.4,2.6c0,1.4-1.2,2.5-2.6,2.4C110,454.5,109.9,454.5,109.9,454.5z"/>
		</g>
		<circle class="st0" cx="201" cy="186.2" r="2.8"/>
		<circle class="st0" cx="110" cy="452" r="2.8"/>
		<circle class="st0" cx="550" cy="244.6" r="2.8"/>
	</g>
	<g>
		<g class="st3">
			<path class="st0" d="M174.6,327.3l-4.1-12.4c-1.3-4.1-2.5-8.3-3.7-12.5c-2.3-8.4-4.3-16.8-6.1-25.3c-3.5-16.9-5.9-34.1-7.1-51.3
				c2,17.1,5.2,34.1,9.5,50.8c2.2,8.3,4.6,16.6,7.3,24.7c1.4,4.1,2.7,8.1,4.2,12.2l4.6,12l0,0.1c0.5,1.3-0.2,2.7-1.4,3.2
				c-1.3,0.5-2.7-0.2-3.2-1.4C174.6,327.4,174.6,327.4,174.6,327.3z"/>
			<path class="st0" d="M481.4,161.1c11.8,27.2,20.5,55.6,26,84.5c-7.1-28.6-17.4-56.2-30.6-82.4c-0.6-1.2-0.1-2.7,1.1-3.4
				c1.2-0.6,2.7-0.1,3.4,1.1C481.4,161,481.4,161,481.4,161.1z"/>
			<path class="st0" d="M250.8,9.6c7.8-2.4,15.8-3.9,23.9-4.6c8.1-0.7,16.2-0.6,24.2,0.3c16,1.8,31.5,6.5,46,13.2
				c-14.8-5.9-30.4-9.8-46.2-10.7C282.9,6.8,267,9,252.4,14.3c-1.3,0.5-2.7-0.2-3.2-1.5s0.2-2.7,1.5-3.2
				C250.7,9.6,250.7,9.6,250.8,9.6L250.8,9.6z"/>
		</g>
		<g>
			<circle class="st0" cx="251.6" cy="12" r="2.8"/>
			<circle class="st0" cx="479.1" cy="162.1" r="2.8"/>
			<circle class="st0" cx="176.9" cy="326.5" r="2.8"/>
		</g>
	</g>
	<g>
		<g class="st3">
			<path class="st0" d="M624.4,280.9c3.9,6.5,7.3,13.3,9.7,20.5c2.5,7.2,4,14.7,3.9,22.3c0,3.8-0.4,7.6-1.2,11.3
				c-0.8,3.7-2,7.3-3.6,10.7c-3.2,6.8-7.9,12.8-13.4,17.7c5.2-5.3,9.5-11.4,12.2-18.2c1.4-3.4,2.3-6.9,2.9-10.5
				c0.6-3.6,0.8-7.2,0.6-10.8c-0.4-7.2-2.2-14.3-4.9-21c-2.7-6.7-6.4-13-10.4-19.1l0,0c-0.8-1.1-0.5-2.7,0.7-3.5
				c1.1-0.8,2.7-0.5,3.5,0.7C624.3,280.8,624.4,280.9,624.4,280.9z"/>
			<path class="st0" d="M358.6,123.7c37.6,12,74.3,26.5,109.6,43.9c-36-15.8-73.2-28.7-111-39.1c-1.3-0.4-2.1-1.7-1.8-3.1
				c0.4-1.3,1.7-2.1,3.1-1.8C358.6,123.7,358.6,123.7,358.6,123.7z"/>
			<path class="st0" d="M7.2,153.5c2.7-8.2,7.4-15.6,13.3-21.6c5.9-6.1,12.8-10.9,20.1-14.8c7.3-4,15-7,22.8-9.5
				c7.8-2.5,15.8-4.4,23.9-6c-8,2-15.8,4.3-23.5,7.2c-7.6,2.9-15.1,6.3-22,10.5c-6.9,4.2-13.4,9.2-18.6,15.2
				c-5.2,6-9.2,13-11.3,20.5l0,0c-0.4,1.3-1.7,2.1-3.1,1.7c-1.3-0.4-2.1-1.7-1.7-3.1C7.2,153.6,7.2,153.6,7.2,153.5z"/>
			<path class="st0" d="M331.6,382.2c-33.6-8.8-66.6-19.7-98.8-32.5c32.8,11.3,66.2,20.5,100,27.6c1.4,0.3,2.2,1.6,1.9,3
				c-0.3,1.4-1.6,2.2-3,1.9C331.6,382.2,331.6,382.2,331.6,382.2z"/>
		</g>
		<g>
			<circle class="st0" cx="9.6" cy="154.2" r="2.8"/>
			<circle class="st0" cx="356.8" cy="126.1" r="2.8"/>
			<circle class="st0" cx="332.1" cy="379.7" r="2.8"/>
			<circle class="st0" cx="621.8" cy="281.3" r="2.8"/>
		</g>
	</g>
</g>
</svg>
