<?xml version="1.0" encoding="utf-8"?>
<!-- Generator: Adobe Illustrator 23.0.0, SVG Export Plug-In . SVG Version: 6.00 Build 0)  -->
<svg version="1.1" id="Layer_1" xmlns="http://www.w3.org/2000/svg" xmlns:xlink="http://www.w3.org/1999/xlink" x="0px" y="0px"
	 viewBox="0 0 262.5 57.3" style="enable-background:new 0 0 262.5 57.3;" xml:space="preserve">
<style type="text/css">
	.st0{fill:#D40D26;}
	.st1{fill:#FFFFFF;}
</style>
<g>
	<g>
		<path class="st0" d="M55.5,8.9L50.2,0l-5.3,8.8C19.7,11.2,0,29.3,0,29.3S20.4,48,46.1,49.9l4.1,7.4l4.1-7.4
			c25.7-1.9,46.1-20.5,46.1-20.5S80.6,11.2,55.5,8.9z M64.1,23.1L52.1,45.4c-0.6,0-1.3,0-1.9,0c-0.6,0-1.3,0-1.9,0L36.2,23.1
			l-2.5,4.3L43.4,45c-20-2.6-38.7-15.7-38.7-15.7s17.7-12.4,37.1-15.5L38.9,19l2.5,4.4l6.3-10.1c0.8,0,1.7-0.1,2.5-0.1
			c0.8,0,1.7,0,2.5,0.1L59,23.4l2.5-4.4l-3.1-5.1c19.5,3.1,37.5,15.5,37.5,15.5S77,42.4,56.9,45l9.7-17.7L64.1,23.1z"/>
	</g>
	<g>
		<path class="st1" d="M126,18.6c-1.2-0.6-2.5-1.1-4.1-1.1c-2.3,0-3.7,1.4-3.7,3.1c0,2,2.1,3.3,4.1,4.4c3.7,2,5.4,4.2,5.3,6.8
			c-0.1,3.5-2.7,5.2-6.1,5.2c-3,0-4.8-0.9-5.9-1.9l0.9-1.8c1.1,0.8,2.7,1.7,4.8,1.7c2.6,0,4.1-1.7,4.1-3.2c0-2.3-1.7-3.5-4.4-5.1
			c-3-1.8-5-3.4-5-6.2c0-2.3,1.8-5.1,5.8-5.1c1.9,0,3.9,0.6,5,1.3L126,18.6z"/>
		<path class="st1" d="M131.6,18.3c0.9,0,1.7,0.8,1.7,1.7c0,0.9-0.7,1.7-1.7,1.7c-0.9,0-1.7-0.7-1.7-1.7
			C130,19,130.7,18.3,131.6,18.3z M130.6,24.8h2.1v11.8h-2.1V24.8z"/>
		<path class="st1" d="M138.1,26.5c0.9-1.2,2.4-2.1,4.2-2.1c3,0,5.1,2.1,5.1,5.2v7h-2.1v-6.8c0-2.4-1.8-3.6-3.5-3.6
			c-1.5,0-3.6,1.1-3.6,3.6v6.8h-2.1V24.8h1.1L138.1,26.5z"/>
		<path class="st1" d="M148.3,40.1c0-2.2,1.6-3.3,3.3-3.7c-0.8-0.1-1.5-1-1.5-2.1c0-1,0.9-2,2-2c-1.5-0.8-2.2-2.3-2.2-3.7
			c0-2,1.5-4.3,4.7-4.3c1.3,0,2.7,0.5,3.4,1.1l2.7-0.8h0.4v2h-2.3c0.4,0.5,0.5,1.3,0.5,1.8c0,2.3-1.7,4.2-4.7,4.3
			c-1.7,0-2.3,0.6-2.3,1.4c0,1.1,1,1.4,2.6,1.4c4,0.1,6.7,1.4,6.7,4.4c0,3-3.3,4.2-6.7,4.2C151.5,44.4,148.3,43.1,148.3,40.1z
			 M159.4,40.1c0-1.8-2.4-2.7-4.8-2.7c-2.4,0-4.2,0.9-4.2,2.7c0,1.9,2.4,2.6,4.5,2.6C157.1,42.7,159.4,42,159.4,40.1z M157.4,28.7
			c0-1.2-0.9-2.7-2.8-2.7c-1.9,0-2.7,1.4-2.7,2.7c0,1.2,0.9,2.7,2.7,2.7C156.5,31.3,157.4,29.9,157.4,28.7z"/>
		<path class="st1" d="M172.5,34.9c-0.9,1.3-2.4,2.1-4.2,2.1c-3,0-5.1-2.1-5.1-5.2v-7h2.1v6.8c0,2.4,1.7,3.6,3.5,3.6
			c1.5,0,3.6-1.1,3.6-3.6v-6.8h2.1v11.8h-1.2L172.5,34.9z"/>
		<path class="st1" d="M179.6,36.6h-2.1V15.9l1.9-0.4h0.2V36.6z"/>
		<path class="st1" d="M192.9,36.6h-1.2l-0.7-1.7c-0.6,0.9-1.8,2.1-4.4,2.1c-3,0-4.8-1.8-4.8-4c0-2.2,1.9-4.1,4.8-4.1
			c1.8,0,3.7,0.9,4.3,1.7v-0.8c0-1.7-1-3.7-3.5-3.7c-1.5,0-2.5,0.6-3.3,1l-0.8-1.5c0.7-0.6,2.5-1.3,4.3-1.3c2.8,0,5.2,1.7,5.3,5.5
			V36.6z M190.9,32.1c-0.7-0.8-2.2-1.7-4-1.7c-1.9,0-3.1,1.2-3.1,2.5c0,1.4,1.2,2.5,3.1,2.5c2.1,0,3.7-1.7,4-3.2V32.1z"/>
		<path class="st1" d="M195.6,24.8h1.1l0.9,1.4c0.4-0.9,1.5-1.7,2.9-1.7c0.6,0,1,0.1,1.6,0.4l-0.4,1.8l-0.2,0.1
			c-0.4-0.2-0.9-0.4-1.4-0.4c-1.1,0-2,0.6-2.5,1.7v8.5h-2V24.8z"/>
		<path class="st1" d="M204.7,15.9c13.4-1.9,16.4,5.8,16.4,10.4c0,4.4-3.3,12.1-16.4,10.3V15.9z M206.9,34.7
			c6.3,0.8,11.8-2.4,11.8-8.4c0-5.1-3.8-9.5-11.8-8.5V34.7z"/>
		<path class="st1" d="M235,17.8h-5.5v18.8h-2.2V17.8h-5.4v-1.9H235V17.8z"/>
		<path class="st1" d="M254,15.9l-8.7,21h-0.4l-8.6-21h2.5l6.4,16.1l6.5-16.1H254z"/>
	</g>
	<g>
		<path class="st1" d="M255.5,20.4v-3.7h-1.3v-0.8h3.6v0.8h-1.3v3.7H255.5z"/>
		<path class="st1" d="M258.2,20.4v-4.5h1.4l0.8,3.1l0.8-3.1h1.4v4.5h-0.8v-3.5l-0.9,3.5h-0.9l-0.9-3.5v3.5H258.2z"/>
	</g>
</g>
</svg>
