<svg width="26" height="24" viewBox="0 0 26 24" fill="none" xmlns="http://www.w3.org/2000/svg">
<path fill-rule="evenodd" clip-rule="evenodd" d="M0.839417 10.3447C0.913725 9.78448 1.28599 9.30973 1.81083 9.1065L24.4483 0.378453C24.6498 0.300881 24.8758 0.348672 25.0291 0.500561C25.1822 0.652156 25.2336 0.879708 25.1601 1.08294L17.8865 21.1111C17.7026 21.617 17.2935 22.0082 16.7801 22.1655C16.2661 22.3226 15.7083 22.2281 15.2755 21.9112L8.47614 16.9337L24.0967 1.45225L6.43059 15.4345L1.45692 11.7933C1.00254 11.4614 0.765837 10.9055 0.839417 10.3447ZM5.29212 16.8768L5.24993 16.6446L11.1285 20.8814C11.1759 20.9494 9.41996 22.107 8.0754 22.9795C7.74145 23.1959 7.32078 23.23 6.9561 23.0713C6.59142 22.9115 6.32942 22.581 6.2574 22.186L5.29212 16.8768Z" fill="white"/>
</svg>
