<svg width="506" height="421" viewBox="0 0 506 421" fill="none" xmlns="http://www.w3.org/2000/svg">
<path fill-rule="evenodd" clip-rule="evenodd" d="M222 41.3825C222 41.3825 216.762 25.817 194.279 15.8014C171.795 5.78569 157.978 8.76293 149.049 3.21313C140.12 -2.33667 133 0.987427 133 0.987427C133 0.987427 140.485 28.7798 156.198 47.308C171.912 65.8363 183.146 73.2505 183.146 83.6419C183.146 94.0333 222 41.3825 222 41.3825Z" fill="black"/>
<path fill-rule="evenodd" clip-rule="evenodd" d="M269.5 421C400.115 421 506 407.121 506 390C506 372.879 400.115 359 269.5 359C138.885 359 33 372.879 33 390C33 407.121 138.885 421 269.5 421Z" fill="#251F31"/>
<path fill-rule="evenodd" clip-rule="evenodd" d="M263.035 329.389C273.03 334.693 279.723 344.505 280.927 355.616C283.165 374.692 233.778 385.317 196.877 382.572C159.975 379.826 146.182 367.542 154.205 343.146C162.228 318.75 188.113 314.731 206.004 325.986C223.895 337.24 241.612 346.335 241.612 346.335L263.035 329.389Z" fill="white" stroke="black" stroke-width="2" stroke-linecap="round" stroke-linejoin="round"/>
<path fill-rule="evenodd" clip-rule="evenodd" d="M258.52 346.173C267.894 335.85 268.735 326.413 259.465 323.81C250.194 321.208 241.174 324.857 233.719 334.992C227.283 343.716 233.188 350.709 241.897 354.054C250.607 357.398 253.973 351.189 258.52 346.173Z" fill="white" stroke="black" stroke-width="2" stroke-linecap="round" stroke-linejoin="round"/>
<path fill-rule="evenodd" clip-rule="evenodd" d="M254.621 333.98C254.621 333.98 237.959 327.313 237.224 320.472C236.488 313.631 247.322 305.785 247.322 305.785L261.935 315.13L276 299.454L238.825 275C238.825 275 229.751 283.588 228.092 286.936C226.433 290.284 229.39 293.282 229.39 293.282C229.39 293.282 216.162 301.579 217.042 317.546C217.922 333.514 239.748 342 243.254 342C246.759 342 250.178 339.569 254.621 333.98Z" fill="black"/>
<path fill-rule="evenodd" clip-rule="evenodd" d="M349 276.614C349 276.614 373.034 281.485 373.205 302.036C373.449 331.087 357.469 337.677 358.685 358.778C359.458 371.786 372.604 373 382.146 371.034C391.688 369.069 394.12 367.566 400 373C395.837 364.603 393.448 365.008 380.916 367.811C368.384 370.615 364.479 363.172 364.479 357.434C364.722 341.377 377.497 334.729 378.899 303.568C380.129 276.397 350.831 268 350.831 268L349 276.614Z" fill="black"/>
<path fill-rule="evenodd" clip-rule="evenodd" d="M251.251 242.431C251.251 242.431 282.062 214.674 283.177 196.53C284.291 178.385 267.257 159.144 267.257 159.144L295.087 141C295.087 141 352.975 156.878 366 210.964C341.499 256.505 342.237 299.448 290.659 282.04C239.08 264.632 251.251 242.431 251.251 242.431Z" fill="black"/>
<path fill-rule="evenodd" clip-rule="evenodd" d="M201 77.0875C201 77.0875 202.117 60.8389 203.597 51.1589C205.077 41.4788 236.346 22.0468 277.279 35.7169C318.212 49.3871 337.569 84.117 329.008 121.786C320.447 159.454 286.928 165 286.928 165L201 77.0875Z" fill="black"/>
<path fill-rule="evenodd" clip-rule="evenodd" d="M285.591 176C285.591 176 265.094 195.961 216.298 198.605C181.899 200.456 161.387 197.445 152.264 195.52C149.636 194.953 146.893 195.563 144.743 197.193C142.593 198.823 141.246 201.315 141.049 204.025V204.245C140.749 207.03 141.838 209.783 143.955 211.589C145.232 212.634 146.791 213.263 148.429 213.396C172.395 215.578 196.509 215.534 220.467 213.264C266.953 208.417 293 191.334 293 191.334L285.591 176Z" fill="black"/>
<path fill-rule="evenodd" clip-rule="evenodd" d="M204.486 51.2728C192.965 60.1447 171.621 80.4521 177.9 125.517C156.945 127.433 144.876 136.809 152.106 160.688C155.908 173.247 172.557 181.096 205.639 178.518C221.798 177.251 221.481 168.437 240.319 169.877C240.319 169.877 241.428 175.724 234.558 178.806C230.497 177.452 229.201 186.684 235.48 188.355C241.759 190.026 259.128 195.182 291.26 171.36C323.391 147.539 322.57 126.295 309.594 115.58C296.617 104.864 278.139 111.518 259.186 130.357C293.881 85.2481 291.289 59.583 269.685 47.773C248.73 36.2511 229.604 43.8843 220.372 54.0381C211.14 64.1918 206.517 71.5946 207.324 59.799C207.583 55.9536 208.966 53.4043 210.766 50.1638C212.292 47.4417 209.556 47.3553 204.486 51.2728Z" fill="white" stroke="black" stroke-width="2" stroke-linecap="round" stroke-linejoin="round"/>
<path d="M239.641 171L254 174.093C254 174.093 252.937 188.705 242.009 185.555C234.921 183.527 234 179.796 234 179.796" stroke="black" stroke-width="2" stroke-linecap="round" stroke-linejoin="round"/>
<path fill-rule="evenodd" clip-rule="evenodd" d="M139.5 222C146.956 222 153 212.822 153 201.5C153 190.178 146.956 181 139.5 181C132.044 181 126 190.178 126 201.5C126 212.822 132.044 222 139.5 222Z" fill="white" stroke="black" stroke-width="2" stroke-linecap="round" stroke-linejoin="round"/>
<path fill-rule="evenodd" clip-rule="evenodd" d="M140.982 186.56C140.982 186.56 131.263 179.808 132.181 171.278C133.098 162.749 139.348 152.744 130.532 148.667C121.716 144.59 116.556 160.233 116.369 167.621C116.183 175.008 116.154 182.96 99.8266 188.526C83.499 194.092 54.0548 226.708 83.6567 228.558C113.259 230.409 125.931 226.346 136.782 218.178C147.634 210.01 140.982 186.56 140.982 186.56Z" fill="white" stroke="black" stroke-width="2" stroke-linecap="round" stroke-linejoin="round"/>
<path fill-rule="evenodd" clip-rule="evenodd" d="M112.559 210.987C115.46 211.635 131.722 187.716 129.851 185.601C127.979 183.485 25.3171 162.575 18.9923 163.007C12.6675 163.438 -3.69577 188.479 0.757708 194.192C5.21119 199.906 25.1285 197.704 61.032 200.841C96.9354 203.979 106.785 209.692 112.559 210.987Z" fill="black"/>
<path fill-rule="evenodd" clip-rule="evenodd" d="M97.7784 215C97.7784 215 82 214.691 82 195.456C82 180.639 95.3464 181.361 99.4778 185.809C103.609 190.257 98.0128 196.87 98.3497 200.655C98.6867 204.44 113 211.789 113 211.789" fill="white"/>
<path d="M97.7784 215C97.7784 215 82 214.691 82 195.456C82 180.639 95.3464 181.361 99.4778 185.809C103.609 190.257 98.0128 196.87 98.3497 200.655C98.6867 204.44 113 211.789 113 211.789" stroke="black" stroke-width="2" stroke-linecap="round" stroke-linejoin="round"/>
<path fill-rule="evenodd" clip-rule="evenodd" d="M90 220.977C90 220.977 69.1228 222.603 63.0138 198.282C63.0138 198.282 62.279 184.859 71.5146 186.078C80.7501 187.297 81.1247 196.584 81.1247 196.584" fill="white"/>
<path d="M90 220.977C90 220.977 69.1228 222.603 63.0138 198.282C63.0138 198.282 62.279 184.859 71.5146 186.078C80.7501 187.297 81.1247 196.584 81.1247 196.584" stroke="black" stroke-width="2" stroke-linecap="round" stroke-linejoin="round"/>
<path fill-rule="evenodd" clip-rule="evenodd" d="M97 214C97 214 81 213.715 81 196L97 214Z" fill="white"/>
<path d="M97 214C97 214 81 213.715 81 196" stroke="black" stroke-width="2" stroke-linecap="round" stroke-linejoin="round"/>
<path fill-rule="evenodd" clip-rule="evenodd" d="M82.2989 229C61.875 228.736 49.8549 215.119 50.0013 204.627C50.1917 192.125 62.5778 198.758 62.5778 198.758C68.7855 223.351 90 221.707 90 221.707" fill="white"/>
<path d="M82.2989 229C61.875 228.736 49.8549 215.119 50.0013 204.627C50.1917 192.125 62.5778 198.758 62.5778 198.758C68.7855 223.351 90 221.707 90 221.707" stroke="black" stroke-width="2" stroke-linecap="round" stroke-linejoin="round"/>
<path fill-rule="evenodd" clip-rule="evenodd" d="M224.867 96.3217C224.867 96.3217 228.589 99.039 227.764 102.604C226.938 106.168 219.074 108.024 217.177 101.143C215.062 93.7213 219.595 86.3437 228.604 87.381C237.612 88.4182 240.755 101.333 235.744 109.397C230.733 117.461 218.944 123.539 211.601 110.989C204.258 98.4401 210.848 74.1743 232.398 75.0216C256.454 76.0004 262.247 130.858 227.489 132.947C205.576 134.262 204.084 110.843 203.809 100.529C203.534 90.2151 200.275 84.4591 193.671 84.9851C187.067 85.511 184.113 96.8185 184.982 103.977C185.851 111.135 189.993 114.919 194.077 111.077C198.161 107.235 198.9 96.0003 195.091 93.0931C191.282 90.1859 187.951 98.1479 188.414 102.268C188.878 106.387 191.195 106.11 192.759 103.495C194.323 100.88 192.672 99.7403 190.253 102.56C189.71 101.334 189.925 99.9017 190.804 98.8931C191.682 97.8846 193.063 97.485 194.338 97.8703C197.466 98.6008 196.568 104.897 193.222 107.892C189.877 110.887 185.069 108.301 186.72 98.7176C188.863 86.3437 204.62 80.9675 200.652 106.11C197.408 126.723 175.133 117.271 180.97 94.4226C186.807 71.5739 207.039 75.869 207.155 101.157C207.256 128.14 236.309 135.255 242.898 107.001C249.401 79.083 215.193 74.2035 213.933 97.1252C212.818 117.49 229.864 113.458 230.834 101.289C231.732 90.5804 221.362 92.6549 221.362 98.0018C221.362 103.349 225.707 101.187 224.867 96.3217Z" fill="#D40D26"/>
<path fill-rule="evenodd" clip-rule="evenodd" d="M189 129C185.376 126.079 180.701 124.664 176 125.068L189 129Z" fill="white"/>
<path d="M189 129C185.376 126.079 180.701 124.664 176 125.068" stroke="black" stroke-width="2" stroke-linecap="round" stroke-linejoin="round"/>
<path fill-rule="evenodd" clip-rule="evenodd" d="M151.716 144C151.716 144 138.443 140.117 139.018 132.007C139.593 123.896 161.657 119.806 163.839 130.238C165.639 138.86 151.716 144 151.716 144Z" fill="black"/>
<path fill-rule="evenodd" clip-rule="evenodd" d="M323.927 340C323.927 340 349.083 341.472 347.964 363.408C346.845 385.343 316.85 393.234 293.002 395.133C269.154 397.032 243.984 398.151 234.872 395.133C225.76 392.115 218.886 383.046 220.15 366.425C221.415 349.805 242.516 339.632 263.748 343.018C277.063 345.231 290.115 348.838 302.695 353.78L323.927 340Z" fill="white" stroke="black" stroke-width="2" stroke-linecap="round" stroke-linejoin="round"/>
<path fill-rule="evenodd" clip-rule="evenodd" d="M312.408 353.557C298.099 356.66 289.689 354.821 288.207 347.437C286.725 340.053 293.233 336.108 306.83 335.196C320.426 334.283 328.808 336.459 328.997 343.843C329.186 351.227 320.426 351.831 312.408 353.557Z" fill="white" stroke="black" stroke-width="2" stroke-linecap="round" stroke-linejoin="round"/>
<path fill-rule="evenodd" clip-rule="evenodd" d="M319 339.952C319 339.952 300.857 334.813 297.084 324.335C293.311 313.857 303.702 300 303.702 300H281.771C281.771 300 275.536 321.495 281.771 331.32C285.971 337.936 301.167 347.264 306.148 347.889C311.13 348.513 315.227 346.597 319 339.952Z" fill="black"/>
<path fill-rule="evenodd" clip-rule="evenodd" d="M315.122 228.443C330.974 230.943 359.681 215.622 365.56 209.462C372.449 245.793 367.52 288.521 314.056 303.562C260.591 318.604 233.744 293.005 229.55 262.834C225.357 232.663 245.489 205.271 277.928 209.417C292.31 222.092 307.974 227.326 315.122 228.443Z" fill="white" stroke="black" stroke-width="2" stroke-linecap="round" stroke-linejoin="round"/>
<path fill-rule="evenodd" clip-rule="evenodd" d="M319.94 320.546C296.063 318.523 287.429 317.185 287.429 317.185C287.429 317.185 285.551 320.182 279.684 320.546C273.816 320.909 274.763 313.271 275.694 307.205C276.626 301.138 277.806 298.476 281.795 299.276C284.369 299.908 286.638 301.428 288.201 303.568C288.201 303.568 349.801 310.973 356.717 310.1C363.632 309.227 373.897 298.039 391.251 297.297C411.752 296.581 432.278 297.159 452.706 299.028C469.318 300.483 479 306.565 479 315.701C479 324.837 476.831 335.56 474.516 346.587C471.72 359.914 444.276 354.123 418.142 351.243C392.008 348.362 377.245 341.99 365.496 332.868C353.747 323.746 339.129 322.175 319.94 320.546Z" fill="#666666"/>
<path fill-rule="evenodd" clip-rule="evenodd" d="M307.55 287C307.55 287 294.297 300.428 293.177 311.775C292.057 323.122 296.465 327.844 300.364 330.131C304.262 332.418 303.855 328.109 310.343 331.606C316.831 335.103 320.527 334.07 323.96 331.606C327.393 329.142 329.182 334.985 335.161 335C341.139 334.98 346.45 331.126 348.4 325.394C343.134 324.214 338.216 323.402 338.216 323.402C338.216 323.402 335.409 317.898 342.726 310.122C347.527 310.535 350 310.712 350 310.712C348.773 302.066 344.635 294.116 338.289 288.21C323.029 293.124 307.55 287 307.55 287Z" fill="white" stroke="black" stroke-width="2" stroke-linecap="round" stroke-linejoin="round"/>
<path fill-rule="evenodd" clip-rule="evenodd" d="M315.002 281.201C315.002 281.201 316.377 209.347 316.377 197.175C316.377 185.003 318.495 177.731 325.068 178.008C331.641 178.284 334.694 183.999 334.956 199.909C335.217 215.818 334.24 277.725 334.24 277.725C334.24 277.725 333.182 285.186 323.899 284.996C314.617 284.807 315.002 281.201 315.002 281.201Z" fill="black"/>
<path fill-rule="evenodd" clip-rule="evenodd" d="M323 297C334.598 297 344 291.404 344 284.5C344 277.596 334.598 272 323 272C311.402 272 302 277.596 302 284.5C302 291.404 311.402 297 323 297Z" fill="white" stroke="black" stroke-width="2" stroke-linecap="round" stroke-linejoin="round"/>
<path fill-rule="evenodd" clip-rule="evenodd" d="M305.255 76.7985C305.255 76.7985 301.492 58.3116 322.895 42.058C344.297 25.8045 356.316 31.3376 364.938 43.9024C373.561 56.4672 389.342 60.5306 392.357 71.2798C395.373 82.029 387.468 87.9079 375.083 94.9252C362.698 101.942 368.32 124.824 363.108 125.934C357.897 127.043 343.214 114.118 341.706 96.0059C335.323 96.5467 329.416 99.5448 325.266 104.349C319.85 105.329 316.937 103.772 316.937 103.772L305.255 76.7985Z" fill="black"/>
<path fill-rule="evenodd" clip-rule="evenodd" d="M343.477 68.1333C348.554 46.8623 349.856 43.5745 344.794 43.017C339.732 42.4595 323.977 55.668 320.027 75.6524C316.077 95.6368 324.796 105 324.796 105C328.907 104.271 334.436 102.141 341.224 96.7232C341.224 96.7232 338.416 89.3899 343.477 68.1333Z" fill="#666666"/>
</svg>
