<?xml version="1.0" encoding="utf-8"?>
<!-- Generator: Adobe Illustrator 23.0.0, SVG Export Plug-In . SVG Version: 6.00 Build 0)  -->
<svg version="1.1" id="Layer_1" xmlns="http://www.w3.org/2000/svg" xmlns:xlink="http://www.w3.org/1999/xlink" x="0px" y="0px"
	 viewBox="0 0 120 79" style="enable-background:new 0 0 120 79;" xml:space="preserve">
<style type="text/css">
	.st0{fill:#D40D26;}
	.st1{fill:#FFFFFF;}
</style>
<g>
	<g>
		<path class="st0" d="M64.5,8.2l-4.1-6.9l-4.1,6.9C36.8,10,21.5,24,21.5,24S37.3,38.5,57.2,40l3.2,5.7l3.2-5.7
			C83.4,38.5,99.3,24,99.3,24S83.9,10,64.5,8.2z M71.2,19.2l-9.3,17.3c-0.5,0-1,0-1.5,0c-0.5,0-1,0-1.5,0l-9.3-17.3l-2,3.3l7.5,13.7
			C39.7,34.2,25.2,24,25.2,24S39,14.4,54,12l-2.4,4l1.9,3.4l4.9-7.9c0.7,0,1.3-0.1,2-0.1c0.7,0,1.3,0,2,0.1l4.9,7.9l1.9-3.4l-2.4-4
			c15.1,2.4,29,12,29,12S81.1,34.2,65.6,36.2l7.5-13.7L71.2,19.2z"/>
	</g>
	<g>
		<path class="st1" d="M9,56.6c-1.1-0.5-2.1-0.9-3.6-0.9c-2,0-3.2,1.2-3.2,2.7c0,1.7,1.8,2.9,3.5,3.8c3.2,1.7,4.7,3.6,4.6,5.9
			c-0.1,3.1-2.4,4.5-5.3,4.5c-2.6,0-4.1-0.8-5.1-1.6l0.8-1.5c1,0.7,2.4,1.5,4.2,1.5c2.3,0,3.5-1.5,3.5-2.8c0-2-1.5-3-3.8-4.4
			c-2.6-1.6-4.3-2.9-4.3-5.4c0-2,1.5-4.4,5-4.4c1.7,0,3.4,0.6,4.3,1.1L9,56.6z"/>
		<path class="st1" d="M13.9,56.4c0.8,0,1.5,0.7,1.5,1.5c0,0.8-0.6,1.4-1.5,1.4c-0.8,0-1.4-0.6-1.4-1.4C12.5,57,13.2,56.4,13.9,56.4
			z M13.1,62h1.8v10.2h-1.8V62z"/>
		<path class="st1" d="M19.5,63.5c0.7-1,2.1-1.8,3.6-1.8c2.6,0,4.4,1.8,4.4,4.5v6.1h-1.8v-5.9c0-2.1-1.5-3.1-3-3.1
			c-1.3,0-3.1,1-3.1,3.1v5.9h-1.8V62h1L19.5,63.5z"/>
		<path class="st1" d="M28.4,75.3c0-1.9,1.4-2.9,2.9-3.2c-0.7-0.1-1.3-0.9-1.3-1.8c0-0.9,0.7-1.8,1.7-1.8c-1.3-0.7-1.9-2-1.9-3.2
			c0-1.7,1.3-3.7,4.1-3.7c1.1,0,2.3,0.4,2.9,1l2.4-0.7h0.3v1.7h-2c0.3,0.4,0.5,1.1,0.5,1.6c0,2-1.5,3.7-4.1,3.7c-1.4,0-2,0.5-2,1.3
			c0,0.9,0.8,1.3,2.2,1.3c3.5,0.1,5.8,1.2,5.8,3.8c0,2.6-2.9,3.7-5.8,3.7C31.2,79,28.4,77.9,28.4,75.3z M38,75.3
			c0-1.6-2.1-2.4-4.2-2.4s-3.7,0.8-3.7,2.4c0,1.7,2,2.3,3.9,2.3C36,77.6,38,77,38,75.3z M36.3,65.4c0-1.1-0.8-2.3-2.4-2.3
			c-1.6,0-2.4,1.2-2.4,2.3c0,1.1,0.8,2.3,2.4,2.3C35.5,67.7,36.3,66.5,36.3,65.4z"/>
		<path class="st1" d="M49.4,70.8c-0.7,1.1-2.1,1.8-3.6,1.8c-2.6,0-4.4-1.8-4.4-4.5V62h1.8v5.9c0,2.1,1.5,3.1,3,3.1
			c1.3,0,3.1-1,3.1-3.1V62h1.8v10.2h-1L49.4,70.8z"/>
		<path class="st1" d="M55.5,72.3h-1.8V54.3l1.6-0.3h0.2V72.3z"/>
		<path class="st1" d="M67,72.3h-1l-0.6-1.5c-0.5,0.7-1.6,1.8-3.8,1.8c-2.6,0-4.2-1.6-4.2-3.4c0-1.9,1.6-3.5,4.2-3.5
			c1.6,0,3.2,0.8,3.7,1.5v-0.7c0-1.5-0.8-3.2-3.1-3.2c-1.3,0-2.2,0.5-2.9,0.9l-0.7-1.3c0.6-0.5,2.1-1.2,3.8-1.1
			c2.4,0,4.5,1.5,4.6,4.8V72.3z M65.3,68.4c-0.6-0.7-1.9-1.5-3.4-1.4c-1.7,0-2.7,1-2.7,2.1c0,1.2,1,2.2,2.7,2.2
			c1.8,0,3.2-1.5,3.4-2.8V68.4z"/>
		<path class="st1" d="M69.4,62h1l0.7,1.2c0.4-0.8,1.3-1.5,2.5-1.5c0.5,0,0.9,0.1,1.4,0.3l-0.3,1.6l-0.2,0.1
			c-0.3-0.2-0.8-0.3-1.2-0.3c-1,0-1.7,0.5-2.2,1.5v7.4h-1.8V62z"/>
		<path class="st1" d="M77.2,54.3c11.6-1.7,14.2,5,14.2,9c0,3.8-2.8,10.5-14.2,8.9V54.3z M79.2,70.6c5.5,0.7,10.2-2.1,10.2-7.3
			c0-4.4-3.3-8.3-10.2-7.4V70.6z"/>
		<path class="st1" d="M103.5,55.9h-4.7v16.3h-1.9V55.9h-4.7v-1.6h11.3V55.9z"/>
		<path class="st1" d="M120,54.3l-7.5,18.2h-0.4l-7.4-18.2h2.1l5.5,14l5.6-14H120z"/>
	</g>
</g>
</svg>
