<?xml version="1.0" encoding="utf-8"?>
<!-- Generator: Adobe Illustrator 23.0.0, SVG Export Plug-In . SVG Version: 6.00 Build 0)  -->
<svg version="1.1" id="Layer_1" xmlns="http://www.w3.org/2000/svg" xmlns:xlink="http://www.w3.org/1999/xlink" x="0px" y="0px"
	 viewBox="0 0 163 41" style="enable-background:new 0 0 163 41;" xml:space="preserve">
<style type="text/css">
	.st0{fill-rule:evenodd;clip-rule:evenodd;fill:#D40D26;}
	.st1{fill:#FFFFFF;}
</style>
<g>
	<path class="st0" d="M71.1,21L71.1,21C70.7,20.6,56.9,8.1,39.4,6.5l-3.7-6.3v0l0,0l0,0v0l-3.7,6.3C14.2,8.1,0.2,21,0.2,21
		s14.4,13.3,32.6,14.6l2.9,5.3l2.9-5.3C56.4,34.3,70.7,21.4,71.1,21L71.1,21C71.1,21,71.1,21,71.1,21C71.1,21,71.1,21,71.1,21z
		 M40.4,32.2l6.9-12.6l-1.8-3L37,32.5c-0.4,0-0.9,0-1.3,0c-0.4,0-0.9,0-1.3,0l-8.5-15.9l-1.8,3l6.9,12.6c-14-1.9-27-11-27.3-11.2
		c0.3-0.2,12.6-8.8,26.2-11l-2.2,3.6l1.8,3.1l4.4-7.2c0.6,0,1.2-0.1,1.8-0.1c0.6,0,1.2,0,1.8,0.1l4.4,7.2l1.8-3.1L41.5,10
		C55.1,12.1,67.7,20.8,68,21C67.7,21.2,54.5,30.3,40.4,32.2z"/>
	<g>
		<path class="st1" d="M87.8,20.4c-0.8-0.4-1.5-0.6-2.3-0.6c-0.8,0-1.8,0.4-1.8,1.3c0,0.8,0.8,1.1,1.8,1.3c1.9,0.4,3.1,1.3,3.1,2.7
			c0,1.7-1.6,2.5-3.3,2.5c-1.6,0-2.7-0.5-3.1-0.8l0.6-1.1c0.3,0.2,1.3,0.7,2.4,0.7c0.9,0,2.1-0.3,2.1-1.2c0-0.7-0.8-1.1-2.1-1.5
			c-1.9-0.5-2.9-1.3-2.9-2.6c0-1.5,1.3-2.4,3.1-2.4c1.2,0,2,0.3,2.7,0.6L87.8,20.4z"/>
		<path class="st1" d="M91.8,20.1c0.6-0.9,1.7-1.5,3-1.5c2.1,0,3.6,1.5,3.6,3.7v5h-1.5v-4.9c0-1.7-1.3-2.6-2.5-2.6
			c-1,0-2.6,0.8-2.6,2.6v4.9h-1.5v-8.4h0.8L91.8,20.1z"/>
		<path class="st1" d="M99.1,29.8c0-1.6,1.2-2.4,2.4-2.6c-0.5-0.1-1.1-0.7-1-1.5c0-0.7,0.6-1.4,1.4-1.4c-1.1-0.6-1.6-1.6-1.6-2.6
			c0-1.4,1-3,3.4-3c0.9,0,1.9,0.4,2.4,0.8l1.9-0.5h0.3v1.4h-1.6c0.3,0.4,0.4,0.9,0.4,1.3c0,1.6-1.2,3-3.4,3c-1.2,0-1.7,0.4-1.7,1
			c0,0.8,0.7,1,1.8,1c2.9,0.1,4.8,1,4.8,3.1c0,2.1-2.4,3-4.8,3C101.4,32.8,99.1,31.9,99.1,29.8z M107,29.8c0-1.3-1.7-1.9-3.4-1.9
			s-3,0.6-3,1.9c0,1.4,1.7,1.9,3.2,1.9C105.4,31.7,107,31.2,107,29.8z M105.6,21.6c0-0.9-0.7-1.9-2-1.9c-1.3,0-2,1-2,1.9
			c0,0.9,0.7,1.9,2,1.9C104.9,23.5,105.6,22.5,105.6,21.6z"/>
		<path class="st1" d="M111.4,27.3H110V12.6l1.3-0.3h0.1V27.3z"/>
		<path class="st1" d="M118.7,20.4c-0.8-0.4-1.5-0.6-2.3-0.6c-0.8,0-1.8,0.4-1.8,1.3c0,0.8,0.8,1.1,1.8,1.3c1.9,0.4,3.1,1.3,3.1,2.7
			c0,1.7-1.6,2.5-3.3,2.5c-1.6,0-2.7-0.5-3.1-0.8l0.6-1.1c0.3,0.2,1.3,0.7,2.4,0.7c0.9,0,2.1-0.3,2.1-1.2c0-0.7-0.8-1.1-2.1-1.5
			c-1.9-0.5-2.9-1.3-2.9-2.6c0-1.5,1.3-2.4,3.1-2.4c1.2,0,2,0.3,2.7,0.6L118.7,20.4z"/>
		<path class="st1" d="M121.8,12.6c9.6-1.4,11.7,4.1,11.7,7.4c0,3.1-2.3,8.7-11.7,7.3V12.6z M123.4,26c4.5,0.5,8.4-1.7,8.4-6
			c0-3.6-2.7-6.8-8.4-6V26z"/>
		<path class="st1" d="M133.8,27.3l6.6-14.9h0.3l6.5,14.9h-1.7l-1.6-3.6h-6.9l-1.6,3.6H133.8z M137.7,22.4h5.7l-2.8-6.8L137.7,22.4z
			"/>
		<path class="st1" d="M155.1,12.3c4.4,0,7.7,3.3,7.7,7.7c0,4.3-3.3,7.6-7.7,7.6c-4.4,0-7.6-3.3-7.6-7.6
			C147.5,15.6,150.7,12.3,155.1,12.3z M155.1,26.2c3.3,0,6-2.6,6-6.3c0-3.7-2.7-6.3-6-6.3c-3.3,0-5.9,2.6-5.9,6.3
			C149.2,23.6,151.8,26.2,155.1,26.2z"/>
	</g>
</g>
</svg>
