<svg width="180" height="41" viewBox="0 0 180 41" fill="none" xmlns="http://www.w3.org/2000/svg">
<path fill-rule="evenodd" clip-rule="evenodd" d="M0 20.8334C0 20.8334 15.9203 6.13084 35.4063 6.13084C54.8924 6.13084 70.9079 20.8525 70.9079 20.8525H67.7726C67.7726 20.8525 51.2352 9.3572 35.4559 9.3572C19.6765 9.3572 3.37911 20.8525 3.37911 20.8525L0 20.8334Z" fill="#D40D26"/>
<path fill-rule="evenodd" clip-rule="evenodd" d="M0 20.8334C0 20.8334 15.9203 35.555 35.4063 35.555C54.8924 35.555 70.9079 20.8334 70.9079 20.8334H67.7726C67.7726 20.8334 51.2352 32.3287 35.4559 32.3287C19.6765 32.3287 3.37911 20.8334 3.37911 20.8334L0 20.8334Z" fill="#D40D26"/>
<path fill-rule="evenodd" clip-rule="evenodd" d="M27.4551 13.4725L35.4552 0V6.47187L29.2189 16.6107L27.4551 13.4725Z" fill="#D40D26"/>
<path fill-rule="evenodd" clip-rule="evenodd" d="M43.4514 13.4725L35.4551 0V6.47187L41.6876 16.6107L43.4514 13.4725Z" fill="#D40D26"/>
<path fill-rule="evenodd" clip-rule="evenodd" d="M47.082 19.4386L35.4551 40.6973V34.7734L45.2991 16.4038L47.082 19.4386Z" fill="#D40D26"/>
<path fill-rule="evenodd" clip-rule="evenodd" d="M23.8242 19.4386L35.4549 40.6973V34.7734L25.6071 16.4038L23.8242 19.4386Z" fill="#D40D26"/>
<path fill-rule="evenodd" clip-rule="evenodd" d="M81.9552 25.1901C82.9378 25.7819 84.0595 26.0994 85.2048 26.1097C87.0601 26.1097 88.1458 25.125 88.1458 23.6995C88.1458 22.3814 87.3839 21.6265 85.4981 20.8947C83.2124 20.0747 81.7914 18.883 81.7914 16.8905C81.7914 14.691 83.6009 13.0587 86.3324 13.0587C87.409 13.0226 88.4771 13.2612 89.4372 13.7522L88.9344 15.239C88.1152 14.7947 87.1983 14.5642 86.2677 14.5684C84.3629 14.5684 83.6238 15.7179 83.6238 16.6836C83.6238 18.0055 84.4771 18.6569 86.4162 19.4079C88.7896 20.3314 89.9972 21.4848 89.9972 23.5578C89.9972 25.738 88.3934 27.6233 85.0829 27.6233C83.7267 27.6233 82.2485 27.2401 81.498 26.7228L81.9552 25.1901Z" fill="white"/>
<path fill-rule="evenodd" clip-rule="evenodd" d="M92.1465 27.4087V13.2886H94.1237L98.6266 20.431C99.5644 21.9071 100.406 23.443 101.145 25.0292H101.187C101.019 23.1401 100.981 21.4235 100.981 19.224V13.2886H102.688V27.4087H100.855L96.3827 20.2433C95.4145 18.7267 94.538 17.1528 93.7579 15.5302H93.697C93.7998 17.312 93.8418 19.0094 93.8418 21.3545V27.4087H92.1465Z" fill="white"/>
<path fill-rule="evenodd" clip-rule="evenodd" d="M116.192 26.7803C114.808 27.279 113.35 27.5381 111.88 27.5466C109.758 27.5466 108.005 27.0025 106.63 25.6806C105.422 24.508 104.672 22.6151 104.672 20.4195C104.695 16.2046 107.567 13.1392 112.291 13.1392C113.497 13.1083 114.696 13.3315 115.811 13.7944L115.373 15.2811C114.395 14.8524 113.335 14.6445 112.268 14.6719C108.84 14.6719 106.622 16.81 106.622 20.3506C106.622 23.8911 108.752 26.0561 112.021 26.0561C112.845 26.0974 113.668 25.967 114.44 25.6729V21.4579H111.582V19.9942H116.192V26.7803Z" fill="white"/>
<path fill-rule="evenodd" clip-rule="evenodd" d="M118.646 13.2886H120.46V25.8798H126.479V27.4125H118.646V13.2886Z" fill="white"/>
<path fill-rule="evenodd" clip-rule="evenodd" d="M127.9 25.1901C128.882 25.7824 130.004 26.0999 131.15 26.1097C133.001 26.1097 134.087 25.125 134.087 23.6995C134.087 22.3814 133.325 21.6265 131.42 20.8947C129.134 20.0747 127.713 18.883 127.713 16.8905C127.713 14.691 129.527 13.0587 132.254 13.0587C133.331 13.0226 134.399 13.2612 135.359 13.7522L134.86 15.239C134.04 14.7958 133.124 14.5653 132.193 14.5684C130.289 14.5684 129.546 15.7179 129.546 16.6836C129.546 18.0055 130.399 18.6569 132.338 19.4079C134.711 20.3314 135.923 21.4848 135.923 23.5578C135.923 25.738 134.315 27.6233 131.005 27.6233C129.649 27.6233 128.17 27.2401 127.42 26.7228L127.9 25.1901Z" fill="white"/>
<path fill-rule="evenodd" clip-rule="evenodd" d="M146.025 13.1813C144.735 13.1826 143.446 13.2812 142.17 13.4764V27.3704C143.263 27.4866 144.362 27.5416 145.461 27.5351C148.189 27.5351 150.361 26.8033 151.671 25.5043C152.982 24.2053 153.69 22.2971 153.69 20.0134C153.69 17.7296 152.943 16.0973 151.713 14.9439C150.482 13.7906 148.627 13.1813 146.025 13.1813ZM145.835 26.0676C145.222 26.0827 144.609 26.0481 144.002 25.9641V14.8175C144.702 14.6796 145.415 14.6166 146.128 14.6297C149.961 14.6297 151.835 16.7449 151.812 20.0747C151.812 23.8911 149.709 26.0676 145.835 26.0676Z" fill="white"/>
<path fill-rule="evenodd" clip-rule="evenodd" d="M156.236 27.4087L157.691 22.9677H162.67L164.159 27.4087H166.099L161.318 13.2886H159.131L154.357 27.4087H156.236ZM160.914 17.4767L162.289 21.5422H158.06L159.436 17.4576C159.706 16.5993 159.935 15.7371 160.144 14.9018H160.186C160.191 14.9209 160.196 14.9401 160.201 14.9593C160.402 15.7574 160.609 16.5787 160.914 17.4767Z" fill="white"/>
<path fill-rule="evenodd" clip-rule="evenodd" d="M173.006 27.6424C176.591 27.6424 179.528 25.0636 179.528 20.2011C179.528 16.0092 177.048 13.0549 173.215 13.0549C169.463 13.0549 166.693 15.99 166.693 20.4732C166.693 24.7494 169.299 27.6424 173.006 27.6424ZM173.109 26.1519C170.255 26.1519 168.632 23.4505 168.632 20.431C168.632 17.3311 170.111 14.5378 173.132 14.5378C176.153 14.5378 177.612 17.4767 177.612 20.2854C177.612 23.4926 175.962 26.1519 173.109 26.1519Z" fill="white"/>
</svg>
