<?xml version="1.0" encoding="utf-8"?>
<!-- Generator: Adobe Illustrator 23.0.0, SVG Export Plug-In . SVG Version: 6.00 Build 0)  -->
<svg version="1.1" id="Layer_1" xmlns="http://www.w3.org/2000/svg" xmlns:xlink="http://www.w3.org/1999/xlink" x="0px" y="0px"
	 viewBox="0 0 442 415" style="enable-background:new 0 0 442 415;" xml:space="preserve">
<style type="text/css">
	.st0{opacity:9.000000e-02;}
	.st1{fill:#FFFFFF;stroke:#000000;stroke-width:2;stroke-linecap:round;stroke-linejoin:round;stroke-miterlimit:10;}
	.st2{fill:#666666;stroke:#000000;stroke-width:2;stroke-linecap:round;stroke-linejoin:round;stroke-miterlimit:10;}
	.st3{fill:#E6E6E6;stroke:#000000;stroke-width:2;stroke-linecap:round;stroke-linejoin:round;stroke-miterlimit:10;}
	.st4{fill:none;stroke:#000000;stroke-width:2;stroke-linecap:round;stroke-linejoin:round;stroke-miterlimit:10;}
	.st5{fill:#FFFFFF;}
	.st6{fill:#D40D26;}
	.st7{fill:#666666;}
</style>
<path class="st0" d="M273.4,414.4c92.5,0,167.6-15.3,167.6-34.1c0-18.8-75-34.1-167.6-34.1c-92.5,0-167.6,15.3-167.6,34.1
	C105.9,399.1,180.9,414.4,273.4,414.4z"/>
<path class="st1" d="M138,238.2c0,0-7.7,21.8-13,21.7c-5.3-0.2-5.1-17.1-10.3-35.8c-5.1-18.7-7.3-25.3-7.3-25.3s6.6-10.1,2-20.5
	c-3.3-7.4-7.7-7.1-10.5-11.1c-3.9-5.5-2.2-11.6-3.7-17c-0.9-3.1-6.8-4.2-9.1-1.7c-3.4,3.7-4.2,8.8-3.4,14.5
	c0.8,5.7,8.9,12.8,8.9,12.8l-18.2,8.3c0,0,21.8,9.7,26.8,25.1c5,15.4,9.9,35.8,12.9,50.7c2.9,14.9,8.1,19.6,18.2,11.2
	c10.1-8.4,14.7-25.5,14.7-25.5L138,238.2z"/>
<path class="st1" d="M145.6,205.4c0,0-13,22-18,31.5c-0.9,1.8-0.5,3.9,0.9,5.2c9.6,9.2,21.6,16.1,30.7,10.1
	C169.1,245.8,145.6,205.4,145.6,205.4z"/>
<path class="st1" d="M82.7,203.6c0,0-6,5.1-1.2,10c4.8,5,18.9-0.3,18.9-6.2C100.4,201.5,89,202.2,82.7,203.6z"/>
<path class="st1" d="M86.1,191.7c-8.3,0.8-12.7,0.3-12.7,5c0,4.8,1.8,8.4,8,8.3c6.1-0.2,15.9-2.3,15.7-7
	C96.9,193.2,94,190.9,86.1,191.7z"/>
<path d="M349.3,363.8c0,0,7.2,1.3,7.7,5.7c0.5,4.4-0.4,9.6-5.1,10.1c-4.8,0.5-40.4,2.6-48.5,2.4c-8.1-0.2-12.7-18,3.7-19.3
	c14-1.1,14.3,5,20,5.5c5.7,0.5,8.5-4.8,8.5-4.8L349.3,363.8z"/>
<path d="M238.9,361.9c0,0,7.6,0.6,7.6,8.8c0,8-5.1,9.7-11.7,9.6c-6.6-0.2-21.8-0.9-37.1,0c-15.2,0.9-20.6-10.7-13-17.4
	c7.5-6.8,20.4-4.2,26.4,0.2c9.2,1.3,13.9-2.6,13.9-2.6L238.9,361.9z"/>
<path class="st1" d="M346.8,319.2l2.2,45.5c0.2,3.6-2.7,6.6-6.3,6.6c-3.3,0-6.1-2.6-6.3-5.9l-2.6-44.1L346.8,319.2z"/>
<path class="st2" d="M368.6,299.5l-0.5,23.7c0,0-2.3,6.7-25.8,7.5c-23.5,0.8-34.5-4.7-34.5-4.7l-4.4-29.7L368.6,299.5z"/>
<path class="st1" d="M235.5,319.2l2.9,43.3c0.2,3.7-12.6,4.2-12.9,0.9l-2.9-44.2H235.5z"/>
<path class="st2" d="M262.8,297.2l-5.6,28.1c0,0-8.5,4.9-34.2,3.8c-25.6-1.1-28.1-6.6-28.1-6.6l-0.6-30.2L262.8,297.2z"/>
<path class="st1" d="M342.8,371.3c-3.3,0-6.1-2.6-6.3-5.9l-0.8-14.3c4.7,0.8,9.1,0.5,12.7-0.1l0.7,13.7
	C349.2,368.3,346.3,371.3,342.8,371.3z"/>
<path class="st1" d="M225,355.1c10.5,0.2,12.7-2.5,12.7-2.5l0.7,9.9c0.2,3.7-2.9,5.5-6.6,5.5c-3.4,0-6-1.2-6.3-4.6L225,355.1z"/>
<path class="st2" d="M154.4,255.7l3.8,47l191.2,4.4l58.4-9.9l9.2-58.9L154.4,255.7z"/>
<path class="st1" d="M416.9,238.2l-2.6,16.3c0,0-42.3,12.5-54.4,11.7s-81.1-5.5-81.1-5.5l-39.2-12.5l-39,7.3c0,0-14.7-1-24.6-1.4
	c-9.9-0.4-21.7,1.5-21.7,1.5l-1.8-10.1l102.3-5.7L416.9,238.2z"/>
<path class="st1" d="M372.8,248.3c0,0,19.8,0.7,25.7-3.3c5.9-4,18.4-6.8,18.4-6.8s0.7-25.5-2.9-33.2c-3.7-7.7,1.5-27.2-4-35.2
	c-5.5-8.1-8.8-11.7-8.1-26.1c0.7-14.3,1.8-16.2-1.8-25c-3.7-8.8,0-20.6-2.9-32.7c-2.9-12.1-7.3-6.2-5.9-21.3
	c1.5-15,4.8-30.8-2.2-38.5c-7-7.7-7.9-2.6-15.7-5.5c-7.8-2.9-8.9-6.2-14.4-4.4c-5.5,1.8-9.3-11.7-24.5-11.7
	c-15.2,0-39.4,62.8-39.4,62.8l9.9,154L372.8,248.3z"/>
<path class="st1" d="M123.5,11.9c-3.3,5.5,0.7,29.7,3.3,35.2c-4.8,13.2,1.1,30.1,0,35.2c-1.1,5.1-9.5,13.2-4.5,19.8
	c4.9,6.6,10.1,12.9,10.4,24.3s3.8,31.4,3.8,31.4l118.4,30.5l98.1-20c0,0,2.9-19.8,0-33c-2.9-13.2-11.7-20.9-10.6-37.8
	c1.1-16.9-7-20.2-7-36.7c0-16.5,11-22,7-34.9c-4-12.9-2.7-18.7-8-21.3c-5.3-2.6-16.3-5.5-23.6,0c-7.3,5.5-18.7,4.8-27.2,2.9
	c-8.4-1.8-18.6-0.7-28.7,2.2c-10.2,3-8.3-3.7-23-5.1c-14.7-1.5-18.4,0-27.2,1.8c-8.8,1.8-13.9-2.9-25.7,0c-11.8,2.9-10,3.3-22.1,1.1
	c-12.1-2.2-18,3.3-23.5,3.7C127.9,11.5,123.5,11.9,123.5,11.9z"/>
<path class="st3" d="M372.8,248.3l-220.3-2.8c0,0-3.3-9.4-8.3-17.6c-5-8.3,2.8-10.5-3.3-23.1c-6.1-12.7-2.8-16-3.3-28.6
	c-0.5-12.7-3.9-22.6,3.3-28.6c7.2-6.1,47.9-5.5,89.8-5.5c41.8,0,106.8-6.6,117.9,8.8s12.1,18.2,10.5,37.5
	c-1.7,19.3-2.2,21.5,2.2,34.7C365.7,236.2,375.6,240.6,372.8,248.3z"/>
<path class="st4" d="M332.4,159.8l2.9,9.9"/>
<path class="st4" d="M320.3,155.1v6.6"/>
<path class="st4" d="M342.4,158.4v6.4"/>
<path class="st4" d="M346.8,181.1v8.4"/>
<path class="st5" d="M335.4,209c0,0-2.2,5.5,0,6.6V209z"/>
<path class="st4" d="M335.4,209c0,0-2.2,5.5,0,6.6"/>
<path class="st4" d="M322.9,209v6.6"/>
<path class="st4" d="M314.8,206.8v6.6"/>
<path class="st4" d="M289.1,194.5v4.7"/>
<path class="st4" d="M310.8,189.6c0,0,12.1,8.8,19.8,2.6c7.7-6.2,0.7-16.5-2.9-18.4"/>
<path class="st5" d="M271.7,153.8c0,0,3.9,12.6,0,13.7c-3.9,1.1-19.7,1.5-21.5-2.8c-1.8-4.2-1.8-16.3-1.8-16.3"/>
<path class="st4" d="M271.7,153.8c0,0,3.9,12.6,0,13.7c-3.9,1.1-19.7,1.5-21.5-2.8c-1.8-4.2-1.8-16.3-1.8-16.3"/>
<path class="st5" d="M238.8,148.4c0,0,1.8,15.5,0,17.6c-1.8,2.2-20.6,0.7-22.4-1.3c-1.8-2-1.5-15.2-1.5-15.2"/>
<path class="st4" d="M238.8,148.4c0,0,1.8,15.5,0,17.6c-1.8,2.2-20.6,0.7-22.4-1.3c-1.8-2-1.5-15.2-1.5-15.2"/>
<path class="st4" d="M179,184.1c0,0,1.1,10.3-7.3,10.3c-8.4,0-8.8-13.3-8.8-13.3"/>
<path class="st4" d="M154.4,161.7l-5.9,8.1"/>
<path class="st4" d="M151.4,157.8l-8.1,8.3"/>
<path class="st4" d="M143.4,178.5l-3.3,6.8"/>
<path class="st4" d="M151.4,184.1v7"/>
<path class="st4" d="M176,205v5.1"/>
<path class="st4" d="M302.3,199.1c0,0-10.1,5.1-28.9,4.4c-18.8-0.7-24.5-0.3-33.8-2.2c-9.3-1.9-10.7-5.2-19.9-2.2
	s-17.6,3.3-22.4,1.7c-4.8-1.7-12.1-2.8-12.1-2.8"/>
<path class="st4" d="M310.8,220c0,0-14-5.5-21.7-4.4c-7.7,1.1-9.6,1.5-20.6,4.4c-11,2.9-22,0.2-32.3-2.3
	c-10.3-2.5-15.8,4.1-26.8,3.5c-11-0.5-18.7-4.1-24.2-5.8c-5.5-1.7-9.9-0.6-15.1,0.1c-5.1,0.7-13.2-3.3-13.2-3.3"/>
<path class="st4" d="M162.8,230c7.3,3.3,13.2-2,13.2-2s15.1,2,19.8,2c4.8,0,17.3,0,24.6-2c7.3-2,26.8,1.2,40.4,4.9
	c13.6,3.7,24.2,0.4,28.2,0c4-0.4,27.2-2.9,33.8-2.6c6.6,0.4,11-5.1,12.5-9"/>
<path class="st4" d="M243.8,191v5.8"/>
<path class="st4" d="M235.5,191v2.9"/>
<path class="st4" d="M224.5,191l-1.8,3.4"/>
<path class="st4" d="M212,192.5l-1.8,4.3"/>
<path class="st4" d="M200.6,184.1l-2.9,8.4"/>
<path class="st4" d="M271.1,192.8v6.4"/>
<path class="st4" d="M259.4,212.3l1.5,4.5"/>
<path class="st4" d="M283.6,206.8v4.4"/>
<path class="st4" d="M349.3,194.4v9.2"/>
<path class="st4" d="M353,225.6l2.2,5.9"/>
<path class="st4" d="M342.4,236.6v3.3"/>
<path class="st4" d="M231.8,234.6v5.3"/>
<path class="st4" d="M165.8,236.6l-2.9,3.3"/>
<path class="st4" d="M151.4,219.7v5.9"/>
<path class="st4" d="M164.3,222.6l-2.9,2.9"/>
<path class="st4" d="M148.5,200.8v9.4"/>
<path class="st5" d="M168.3,203.6l-4,4l-2.9,3.7"/>
<path class="st4" d="M168.3,203.6l-4,4l-2.9,3.7"/>
<path class="st4" d="M286.9,173.8c0,0-1.1,6.4-7.3,8.2c-6.2,1.7-9.9,0.3-16.9-0.8c-7-1.1-21.3-1.5-27.2,0c-5.9,1.5-17-0.4-20.6-2.6"
	/>
<path class="st4" d="M320.3,184.1c0,0-36.4-33.4-72-35.6c-35.6-2.2-75.3,5.5-78.2,32.7"/>
<path d="M361.5,84.9c8-1,6.6-6.2,6.6-23.5c0-17.3,2.6-22.4-3.3-23.1c-5.9-0.7-9.9-1.8-10.4,13.2C353.7,66.6,355.6,85.7,361.5,84.9z"
	/>
<path class="st4" d="M375,78.7c0,0,1.8,18.7-8.4,18.4S350.8,85,350.8,85"/>
<path class="st4" d="M375.2,49.3c0,0,4.3-14.3-3.8-18.7c-8.1-4.4-17.3,2.6-17.3,2.6"/>
<path class="st4" d="M387.5,92.6c0,0,1.9-12-3.7-10.3c-3.7,1.1-8.7,5.1-8.7,5.1"/>
<path class="st4" d="M387.9,110.6c0,0-0.3,15.1-8.8,13.2c-8.4-1.8-10.4-11.7-10.4-11.7"/>
<path d="M381.5,112.1c2.4-0.5-1.6-4.8,0-10.3c1.6-5.5,3.9-10.3,0-10.6c-3.9-0.4-8.8,5.5-8.2,10.5
	C373.9,106.6,375.2,113.6,381.5,112.1z"/>
<path d="M370.6,168.3c-2-9.4-7.7-22.6-2-27.7c5.7-5,15.2,7.8,19.2,19.2c4.1,11.4-0.5,26.1-9.4,25.5
	C369.5,184.8,371.8,173.6,370.6,168.3z"/>
<path class="st5" d="M393.8,178.3c0,0,4.4,12.6-8.1,15.6c-12.5,3-17.1-6.4-17.1-6.4"/>
<path class="st4" d="M393.8,178.3c0,0,4.4,12.6-8.1,15.6c-12.5,3-17.1-6.4-17.1-6.4"/>
<path class="st5" d="M376.3,130.8c0,0-10.9-4.8-14.9,4.4s1.6,19.8,1.6,19.8"/>
<path class="st4" d="M376.3,130.8c0,0-10.9-4.8-14.9,4.4s1.6,19.8,1.6,19.8"/>
<path class="st1" d="M396.7,219.7c4.3,0,4.8-6.6,3.3-12.9c-1.5-6.2-3.3-9.9-5.5-6.1C392.3,204.6,390.1,219.7,396.7,219.7z"/>
<path class="st5" d="M404.8,214.6c0,0,1.5-13.9-1.8-17.8L404.8,214.6z"/>
<path class="st4" d="M404.8,214.6c0,0,1.5-13.9-1.8-17.8"/>
<path class="st5" d="M389.4,199.2c0,0-5.1,10.2-2.9,16.4L389.4,199.2z"/>
<path class="st4" d="M389.4,199.2c0,0-5.1,10.2-2.9,16.4"/>
<path class="st5" d="M378.5,224.1c0,0,3.8-10.9-3.3-14.6L378.5,224.1z"/>
<path class="st4" d="M378.5,224.1c0,0,3.8-10.9-3.3-14.6"/>
<path d="M310.8,49.3c3.7-3.3,9.2-11.3,0-16.8c-9.2-5.6-16.2-8.5-23.9-1.5s0.7,8.8,9.9,14S306.8,52.9,310.8,49.3z"/>
<path class="st4" d="M310.8,56.7c0,0,15.8,1.5,15.8-7.3c0-8.8-6.2-10.1-6.2-10.1"/>
<path class="st4" d="M299.3,18.7c0,0-19.9,0.2-25.8,10.5"/>
<path class="st4" d="M156.9,40.9c0,0,10.6-16.8-2.6-22.4"/>
<path d="M141.7,40.9c11-1.8,9-8.1,6.8-11.7c-4.7-7.7-15-4.8-17.3,0C129,33.9,134.9,42,141.7,40.9z"/>
<path class="st5" d="M130.8,49.3c0,0-3.8-0.9-4.7-4.4L130.8,49.3z"/>
<path class="st4" d="M130.8,49.3c0,0-3.8-0.9-4.7-4.4"/>
<path class="st4" d="M224.5,35c0,0-18.4-1.8-29,2.9"/>
<path class="st4" d="M268.2,49.3c0,0-30.8-1.8-49.9-4.4c-19.1-2.6-52.1,6.6-53.4,7.3"/>
<path class="st4" d="M273.4,56.7c0,0-36.1-3.4-52.6-4.5c-16.5-1.1-31.1,2-41.8,4.5c-10.7,2.5-24.6,4.7-24.6,4.7"/>
<path class="st5" d="M145.6,75.7c0,0,21.9-12.3,52.1-9.3L145.6,75.7z"/>
<path class="st4" d="M145.6,75.7c0,0,21.9-12.3,52.1-9.3"/>
<path class="st5" d="M197.7,61.4c0,0-10.9,8.1,12.5,6.7L197.7,61.4z"/>
<path class="st4" d="M197.7,61.4c0,0-10.9,8.1,12.5,6.7"/>
<path class="st5" d="M307.8,82.2c-8.4-7.6-29.4-14.2-50.7-14.9c-21.3-0.7-25.5,1.1-40.7,1.5c-15.1,0.4-6.3-7.3-6.3-7.3"/>
<path class="st4" d="M307.8,82.2c-8.4-7.6-29.4-14.2-50.7-14.9c-21.3-0.7-25.5,1.1-40.7,1.5c-15.1,0.4-6.3-7.3-6.3-7.3"/>
<path class="st1" d="M228,111.3c0,0-5.8,24.1-39.1,19.2c-33.3-5-39-22.9-34.5-37.8c4.5-14.9,23.1-17.7,39.1-16.6
	C209.5,77.2,232.7,86.6,228,111.3z"/>
<path class="st3" d="M184.5,100c-17,1.5-23.6-21.1,0-21.7S204.6,98.2,184.5,100z"/>
<path d="M183.9,92.7c-9.4,0-12.9-12.3,0-12.1C196.8,80.8,196.5,92.7,183.9,92.7z"/>
<path class="st5" d="M160.5,73.9c0,0-14.6,10.5-17.2,18.8c-2.6,8.4,9.7-8.6,39.8-8.8c30.1-0.1,37,1.7,38.5,1l11.2-11.1"/>
<path class="st4" d="M160.5,73.9c0,0-14.6,10.5-17.2,18.8c-2.6,8.4,9.7-8.6,39.8-8.8c30.1-0.1,37,1.7,38.5,1l11.2-11.1"/>
<path class="st1" d="M290.5,83.9c0,0,13.3,9.4,11.9,24.8c-1.5,15.4-19.7,28.3-41.4,23.9c-21.7-4.4-44-25.9-38.2-45.2
	C228.4,68.1,290.5,83.9,290.5,83.9z"/>
<path class="st3" d="M250.9,78.7c-19.9-3.9-22.8,20.6,0,21.3C273.7,100.7,269.6,82.4,250.9,78.7z"/>
<path d="M249.1,92.6c-8-0.1-13.1-11-0.7-10.4C260.7,82.7,260.9,92.7,249.1,92.6z"/>
<path class="st5" d="M298.3,80.6c0,0,15.6,12.5,9.6,16.4c-6,4-13.6-8.3-25.5-10.4c-11.9-2.1-54.2-2.1-61.9,1.2
	c-7.7,3.3-2.8-13.2,10.8-17.8"/>
<path class="st4" d="M298.3,80.6c0,0,15.6,12.5,9.6,16.4c-6,4-13.6-8.3-25.5-10.4c-11.9-2.1-54.2-2.1-61.9,1.2
	c-7.7,3.3-2.8-13.2,10.8-17.8"/>
<path class="st5" d="M313.4,117.8c0,0-5.7,15-19.8,18L313.4,117.8z"/>
<path class="st4" d="M313.4,117.8c0,0-5.7,15-19.8,18"/>
<path d="M336.9,278.4l-1.5,8.8l-38.5-3l1.8-9.9L336.9,278.4z"/>
<path d="M286.9,274.4v9.9l-43.1-1.4l1.5-8.4H286.9z"/>
<path d="M235.5,280.8l-0.7-8.3h-27.3v8.3H235.5z"/>
<path d="M199.2,280.8l1.5-8.3l-43.7-1.5v11.4L199.2,280.8z"/>
<path class="st5" d="M223.8,126.4c0,0-6.8,12.1-27.5,12.6c-20.7,0.5-28-2.9-31.4,3.8c-5,10-1.3,22.6,26,20.8
	c27.3-1.8,44.1-27.9,44.1-27.9"/>
<path class="st4" d="M223.8,126.4c0,0-6.8,12.1-27.5,12.6c-20.7,0.5-28-2.9-31.4,3.8c-5,10-1.3,22.6,26,20.8
	c27.3-1.8,44.1-27.9,44.1-27.9"/>
<path class="st6" d="M265.8,264.5l-13,15.7l-1.9,8.6l7.4,18.6l-10,8.8l-10.8-7.3l3.1-20.1l-3.1-9.3L212,258.9l2.9-6.6l6.8,2.8
	l22,17.4l17.1-17.5L265.8,264.5z"/>
<path class="st5" d="M149.4,119.4c0,0,5.9,12.5,22.2,14.7L149.4,119.4z"/>
<path class="st4" d="M149.4,119.4c0,0,5.9,12.5,22.2,14.7"/>
<path class="st5" d="M286.9,248.4l-13.5,20.9l-33.8-20.9c0,0-31.5,11.8-33.4,12.9c-1.9,1.1-11.8-15.2-11.8-15.2"/>
<path class="st4" d="M286.9,248.4l-13.5,20.9l-33.8-20.9c0,0-31.5,11.8-33.4,12.9c-1.9,1.1-11.8-15.2-11.8-15.2"/>
<path class="st2" d="M414.3,254.6l-6.6,42.6l-58.4,9.9l5.9-40.7L414.3,254.6z"/>
<path d="M360,274.4v7.5l21.9-4.9l-0.3-7.7L360,274.4z"/>
<path d="M389.8,267.6l-0.4,7.5l18.3-3.9l0.2-7.8L389.8,267.6z"/>
<path class="st1" d="M375.5,234c0,0-1.1,50.4-1,67.6c0.1,17.2,0.6,43.7,18.7,44.1c18.1,0.4,32-0.5,38.5-7.3c6.5-6.8-1.3-14-1.3-14
	l-17.2-2.9c0,0-1.7,6-11.3,7.9c-9.6,1.9-7.1-20-17.2-23.9c-0.1-17.9,0.8-49.7,0-69.9C384,215.3,375.5,234,375.5,234z"/>
<path class="st5" d="M418.4,336.7c0,0,13.9-9.8,12-17.6c-2-7.9-7.8-5.6-12.4-1.6c-4.7,4-8.9,13.2-8.9,13.2"/>
<path class="st4" d="M418.4,336.7c0,0,13.9-9.8,12-17.6c-2-7.9-7.8-5.6-12.4-1.6c-4.7,4-8.9,13.2-8.9,13.2"/>
<path class="st5" d="M409.4,335.7c0,0,13.8-7.2,12-18.1c-1.7-10.9-10.7-10-13.7-0.1c-3,9.9-2.8,11-7,12"/>
<path class="st4" d="M409.4,335.7c0,0,13.8-7.2,12-18.1c-1.7-10.9-10.7-10-13.7-0.1c-3,9.9-2.8,11-7,12"/>
<path class="st1" d="M363.6,234.7c-4.2-8-1.5-24.7,7.3-32c8.7-7.3,18-8.9,23.1,1.3c5.1,10.2,7.8,27.9,3,32.8
	C392.1,241.7,370.4,247.9,363.6,234.7z"/>
<path d="M86.6,164.3c7.6,1.8,9.1,19.7,9.6,24.4c0.5,4.7-86.9-14.5-90-18.6c-3.1-4.2-12-38,0.5-34.6
	C19.2,138.8,33.1,151.4,86.6,164.3z"/>
<path class="st7" d="M7.9,144.9c-2.7-0.9-1.8-4.7-0.7-5.7c0.8-0.7,3.6,0.7,5.5,1.7c0.8,0.4,1.2,1.4,0.9,2.2
	c-0.1,0.4-0.3,0.8-0.4,1.3C12.4,146.9,10.8,145.9,7.9,144.9z"/>
<path class="st7" d="M23.9,156.4c-2.8-0.7-2.1-4.5-1.2-5.6c0.7-0.8,3.7,0.4,5.6,1.2c0.8,0.4,1.3,1.2,1.1,2.1
	c-0.1,0.4-0.2,0.8-0.3,1.3C28.5,158,26.7,157.2,23.9,156.4z"/>
<path class="st7" d="M22.6,167.8c-2.8-0.6-2.4-4.4-1.5-5.5c0.6-0.8,3.7,0.2,5.7,0.9c0.9,0.3,1.4,1.2,1.2,2.1
	c-0.1,0.4-0.1,0.8-0.2,1.4C27.3,169.2,25.5,168.4,22.6,167.8z"/>
<path class="st7" d="M33.4,159.5c-2.5-0.6-1.8-4.2-1-5.2c0.6-0.8,3.3,0.4,5,1.1c0.7,0.3,1.1,1.1,0.9,2c-0.1,0.3-0.2,0.8-0.3,1.2
	C37.5,161,35.9,160.2,33.4,159.5z"/>
<path class="st7" d="M33.6,169.8c-2.5-0.5-2-4.1-1.2-5.1c0.6-0.8,3.3,0.2,5,0.8c0.8,0.3,1.2,1.1,1,1.9c-0.1,0.3-0.1,0.8-0.2,1.3
	C37.8,171,36.2,170.3,33.6,169.8z"/>
<path class="st7" d="M56.3,166.8c0-3.7,2-5.8,3.4-5.5c1.3,0.3,2,2.3,2.2,2.4c0.2,0.1-0.8,1.3-1.1,3c-0.3,1.7,1.3,3.6,0.4,4.2
	c-0.9,0.5-2.4,0.8-3.4-0.3C56.9,169.5,56.3,168.4,56.3,166.8z"/>
<path class="st7" d="M63,163.3c-0.2-0.5-0.8-1.9-0.5-2.3c0.3-0.4,3-1,5.1,0c2.1,1,3.9,2.3,3.8,3.1c-0.1,0.8-1.3,1.5-1.9,1.5
	c-0.7,0-1.5-1.6-2.9-1.9C65.2,163.4,63.2,163.7,63,163.3z"/>
<path class="st7" d="M70.1,167.1c0,0,2.4-1.6,3-1.2c0.6,0.4,1.5,2.7,1.5,4.9c0,2.2-1.5,4.2-2.6,4.1c-1-0.1-2.7-1.9-2.8-2.2
	c-0.1-0.3,0.9-1.4,0.9-3.2C70.1,167.8,69.6,167.4,70.1,167.1z"/>
<path class="st7" d="M68.2,173.7c0.8-0.5,2.1,2.4,2.1,2.9c0,0.5-6.4,1-8.1-0.3c-1.6-1.2-3.2-2.3-2.7-3.2c0.5-0.9,2.6-1.5,2.6-1.5
	s1.5,0.9,2.8,1.5C66.3,173.6,67.5,174.1,68.2,173.7z"/>
<path class="st1" d="M83.5,193.1c5.1-0.7,10.6-1.5,9.7-6.2c-0.9-4.8-8.8-6.6-14.7-6.6c-5.9,0-8.4,2.2-8.3,7.4
	C70.5,192.7,76.8,193.9,83.5,193.1z"/>
</svg>
