<?xml version="1.0" encoding="utf-8"?>
<!-- Generator: Adobe Illustrator 23.0.0, SVG Export Plug-In . SVG Version: 6.00 Build 0)  -->
<svg version="1.1" id="Layer_1" xmlns="http://www.w3.org/2000/svg" xmlns:xlink="http://www.w3.org/1999/xlink" x="0px" y="0px"
	 viewBox="0 0 442 415" style="enable-background:new 0 0 442 415;" xml:space="preserve">
<style type="text/css">
	.st0{opacity:9.000000e-02;enable-background:new    ;}
	.st1{fill:#FFFFFF;stroke:#000000;stroke-width:2;stroke-linecap:round;stroke-linejoin:round;stroke-miterlimit:10;}
	.st2{fill:#666666;stroke:#000000;stroke-width:2;stroke-linecap:round;stroke-linejoin:round;stroke-miterlimit:10;}
	.st3{fill:#E6E6E6;stroke:#000000;stroke-width:2;stroke-linecap:round;stroke-linejoin:round;stroke-miterlimit:10;}
	.st4{fill:none;stroke:#000000;stroke-width:2;stroke-linecap:round;stroke-linejoin:round;stroke-miterlimit:10;}
	.st5{fill:#FFFFFF;}
	.st6{fill:#D40D26;}
	.st7{fill:#666666;}
</style>
<path class="st0" d="M335.4,380.3c0-18.8-75.1-34.1-167.6-34.1c-92.6,0-167.6,15.3-167.6,34.1c0,18.8,75.1,34.1,167.6,34.1
	S335.3,399.1,335.4,380.3z"/>
<path class="st1" d="M295.2,245.6c0,0,4.6,17.1,14.7,25.5s15.3,3.7,18.2-11.2c3-14.9,7.9-35.3,12.9-50.7s26.8-25.1,26.8-25.1
	l-18.2-8.3c0,0,8.1-7.1,8.9-12.8c0.8-5.7,0-10.8-3.4-14.5c-2.3-2.5-8.2-1.4-9.1,1.7c-1.5,5.4,0.2,11.5-3.7,17
	c-2.8,4-7.2,3.7-10.5,11.1c-4.6,10.4,2,20.5,2,20.5s-2.2,6.6-7.3,25.3c-5.2,18.7-5,35.6-10.3,35.8c-5.3,0.1-13-21.7-13-21.7
	L295.2,245.6z"/>
<path class="st1" d="M282,252.2c9.1,6,21.1-0.9,30.7-10.1c1.4-1.3,1.8-3.4,0.9-5.2c-5-9.5-18-31.5-18-31.5S272.1,245.8,282,252.2z"
	/>
<path class="st1" d="M340.8,207.4c0,5.9,14.1,11.2,18.9,6.2c4.8-4.9-1.2-10-1.2-10C352.2,202.2,340.8,201.5,340.8,207.4z"/>
<path class="st1" d="M344.1,198c-0.2,4.7,9.6,6.8,15.7,7c6.2,0.1,8-3.5,8-8.3c0-4.7-4.4-4.2-12.7-5
	C347.2,190.9,344.3,193.2,344.1,198z"/>
<path d="M105.6,363.4c0,0,2.8,5.3,8.5,4.8s6-6.6,20-5.5c16.4,1.3,11.8,19.1,3.7,19.3s-43.7-1.9-48.5-2.4c-4.7-0.5-5.6-5.7-5.1-10.1
	c0.5-4.4,7.7-5.7,7.7-5.7L105.6,363.4z"/>
<path d="M216.2,360.5c0,0,4.7,3.9,13.9,2.6c6-4.4,18.9-7,26.4-0.2c7.6,6.7,2.2,18.3-13,17.4c-15.3-0.9-30.5-0.2-37.1,0
	c-6.6,0.1-11.7-1.6-11.7-9.6c0-8.2,7.6-8.8,7.6-8.8L216.2,360.5z"/>
<path class="st1" d="M107.4,321.3l-2.6,44.1c-0.2,3.3-3,5.9-6.3,5.9c-3.6,0-6.5-3-6.3-6.6l2.2-45.5L107.4,321.3z"/>
<path class="st2" d="M137.8,296.3l-4.4,29.7c0,0-11,5.5-34.5,4.7s-25.8-7.5-25.8-7.5l-0.5-23.7L137.8,296.3z"/>
<path class="st1" d="M205.7,319.2h12.9l-2.9,44.2c-0.3,3.3-13.1,2.8-12.9-0.9L205.7,319.2L205.7,319.2z"/>
<path class="st2" d="M246.9,292.3l-0.6,30.2c0,0-2.5,5.5-28.1,6.6c-25.7,1.1-34.2-3.8-34.2-3.8l-5.6-28.1L246.9,292.3z"/>
<path class="st1" d="M92.1,364.7l0.7-13.7c3.6,0.6,8,0.9,12.7,0.1l-0.8,14.3c-0.2,3.3-3,5.9-6.3,5.9C94.9,371.3,92,368.3,92.1,364.7
	z"/>
<path class="st1" d="M215.7,363.4c-0.3,3.4-2.9,4.6-6.3,4.6c-3.7,0-6.8-1.8-6.6-5.5l0.7-9.9c0,0,2.2,2.7,12.7,2.5L215.7,363.4z"/>
<path class="st2" d="M24.2,238.3l9.2,58.9l58.4,9.9l191.2-4.4l3.8-47L24.2,238.3z"/>
<path class="st1" d="M186.4,239.8l102.3,5.7l-1.8,10.1c0,0-11.8-1.9-21.7-1.5s-24.6,1.4-24.6,1.4l-39-7.3l-39.2,12.5
	c0,0-69,4.7-81.1,5.5s-54.4-11.7-54.4-11.7l-2.6-16.3L186.4,239.8z"/>
<path class="st1" d="M136.2,221.4l9.9-154c0,0-24.2-62.8-39.4-62.8s-19,13.5-24.5,11.7s-6.6,1.5-14.4,4.4c-7.8,2.9-8.7-2.2-15.7,5.5
	s-3.7,23.5-2.2,38.5c1.4,15.1-3,9.2-5.9,21.3s0.8,23.9-2.9,32.7c-3.6,8.8-2.5,10.7-1.8,25c0.7,14.4-2.6,18-8.1,26.1
	c-5.5,8-0.3,27.5-4,35.2c-3.6,7.7-2.9,33.2-2.9,33.2s12.5,2.8,18.4,6.8c5.9,4,25.7,3.3,25.7,3.3L136.2,221.4z"/>
<path class="st1" d="M307.8,11.2c-5.5-0.4-11.4-5.9-23.5-3.7S274,9.3,262.2,6.4c-11.8-2.9-16.9,1.8-25.7,0S224,3.1,209.3,4.6
	c-14.7,1.4-12.8,8.1-23,5.1c-10.1-2.9-20.3-4-28.7-2.2c-8.5,1.9-19.9,2.6-27.2-2.9c-7.3-5.5-18.3-2.6-23.6,0s-4,8.4-8,21.3
	s7,18.4,7,34.9s-8.1,19.8-7,36.7s-7.7,24.6-10.6,37.8s0,33,0,33l98.1,20l118.4-30.5c0,0,3.5-20,3.8-31.4s5.5-17.7,10.4-24.3
	c5-6.6-3.4-14.7-4.5-19.8c-1.1-5.1,4.8-22,0-35.2c2.6-5.5,6.6-29.7,3.3-35.2C317.7,11.9,313.3,11.5,307.8,11.2z"/>
<path class="st3" d="M79.9,223.1c4.4-13.2,3.9-15.4,2.2-34.7c-1.6-19.3-0.6-22.1,10.5-37.5s76.1-8.8,117.9-8.8
	c41.9,0,82.6-0.6,89.8,5.5c7.2,6,3.8,15.9,3.3,28.6c-0.5,12.6,2.8,15.9-3.3,28.6c-6.1,12.6,1.7,14.8-3.3,23.1
	c-5,8.2-8.3,17.6-8.3,17.6l-220.3,2.8C65.6,240.6,75.5,236.2,79.9,223.1z"/>
<path class="st4" d="M105.9,169.7l2.9-9.9"/>
<path class="st4" d="M120.9,161.7v-6.6"/>
<path class="st4" d="M98.8,164.8v-6.4"/>
<path class="st4" d="M94.4,189.5v-8.4"/>
<path class="st5" d="M105.8,215.6c2.2-1.1,0-6.6,0-6.6V215.6z"/>
<path class="st4" d="M105.8,215.6c2.2-1.1,0-6.6,0-6.6"/>
<path class="st4" d="M118.3,215.6V209"/>
<path class="st4" d="M126.4,213.4v-6.6"/>
<path class="st4" d="M152.1,199.2v-4.7"/>
<path class="st4" d="M113.5,173.8c-3.6,1.9-10.6,12.2-2.9,18.4c7.7,6.2,19.8-2.6,19.8-2.6"/>
<path class="st5" d="M192.8,148.4c0,0,0,12.1-1.8,16.3c-1.8,4.3-17.6,3.9-21.5,2.8c-3.9-1.1,0-13.7,0-13.7"/>
<path class="st4" d="M192.8,148.4c0,0,0,12.1-1.8,16.3c-1.8,4.3-17.6,3.9-21.5,2.8c-3.9-1.1,0-13.7,0-13.7"/>
<path class="st5" d="M226.3,149.5c0,0,0.3,13.2-1.5,15.2c-1.8,2-20.6,3.5-22.4,1.3c-1.8-2.1,0-17.6,0-17.6"/>
<path class="st4" d="M226.3,149.5c0,0,0.3,13.2-1.5,15.2c-1.8,2-20.6,3.5-22.4,1.3c-1.8-2.1,0-17.6,0-17.6"/>
<path class="st4" d="M278.3,181.1c0,0-0.4,13.3-8.8,13.3s-7.3-10.3-7.3-10.3"/>
<path class="st4" d="M292.7,169.8l-5.9-8.1"/>
<path class="st4" d="M297.9,166.1l-8.1-8.3"/>
<path class="st4" d="M301.1,185.3l-3.3-6.8"/>
<path class="st4" d="M289.8,191.1v-7"/>
<path class="st4" d="M265.2,210.1V205"/>
<path class="st4" d="M256,198c0,0-7.3,1.1-12.1,2.8c-4.8,1.6-13.2,1.3-22.4-1.7s-10.6,0.3-19.9,2.2s-15,1.5-33.8,2.2
	c-18.8,0.7-28.9-4.4-28.9-4.4"/>
<path class="st4" d="M284.3,212.2c0,0-8.1,4-13.2,3.3c-5.2-0.7-9.6-1.8-15.1-0.1c-5.5,1.7-13.2,5.3-24.2,5.8
	c-11,0.6-16.5-6-26.8-3.5s-21.3,5.2-32.3,2.3s-12.9-3.3-20.6-4.4s-21.7,4.4-21.7,4.4"/>
<path class="st4" d="M105.9,221.3c1.5,3.9,5.9,9.4,12.5,9c6.6-0.3,29.8,2.2,33.8,2.6s14.6,3.7,28.2,0s33.1-6.9,40.4-4.9
	s19.8,2,24.6,2c4.7,0,19.8-2,19.8-2s5.9,5.3,13.2,2"/>
<path class="st4" d="M197.4,196.8V191"/>
<path class="st4" d="M205.7,193.9V191"/>
<path class="st4" d="M218.5,194.4l-1.8-3.4"/>
<path class="st4" d="M231,196.8l-1.8-4.3"/>
<path class="st4" d="M243.5,192.5l-2.9-8.4"/>
<path class="st4" d="M170.1,199.2v-6.4"/>
<path class="st4" d="M180.3,216.8l1.5-4.5"/>
<path class="st4" d="M157.6,211.2v-4.4"/>
<path class="st4" d="M91.9,203.6v-9.2"/>
<path class="st4" d="M86,231.5l2.2-5.9"/>
<path class="st4" d="M98.8,239.9v-3.3"/>
<path class="st4" d="M209.4,239.9v-5.3"/>
<path class="st4" d="M278.3,239.9l-2.9-3.3"/>
<path class="st4" d="M289.8,225.6v-5.9"/>
<path class="st4" d="M279.8,225.5l-2.9-2.9"/>
<path class="st4" d="M292.7,210.2v-9.4"/>
<path class="st5" d="M279.8,211.3l-2.9-3.7l-4-4"/>
<path class="st4" d="M279.8,211.3l-2.9-3.7l-4-4"/>
<path class="st4" d="M226.3,178.6c-3.6,2.2-14.7,4.1-20.6,2.6s-20.2-1.1-27.2,0s-10.7,2.5-16.9,0.8c-6.2-1.8-7.3-8.2-7.3-8.2"/>
<path class="st4" d="M271.1,181.2c-2.9-27.2-42.6-34.9-78.2-32.7c-35.6,2.2-72,35.6-72,35.6"/>
<path d="M86.8,51.5c-0.5-15-4.5-13.9-10.4-13.2c-5.9,0.7-3.3,5.8-3.3,23.1s-1.4,22.5,6.6,23.5C85.6,85.7,87.5,66.6,86.8,51.5z"/>
<path class="st4" d="M90.4,85c0,0-5.6,11.8-15.8,12.1s-8.4-18.4-8.4-18.4"/>
<path class="st4" d="M87.1,33.2c0,0-9.2-7-17.3-2.6C61.7,35,66,49.3,66,49.3"/>
<path class="st4" d="M66.1,87.4c0,0-5-4-8.7-5.1c-5.6-1.7-3.7,10.3-3.7,10.3"/>
<path class="st4" d="M72.5,112.1c0,0-2,9.9-10.4,11.7c-8.5,1.9-8.8-13.2-8.8-13.2"/>
<path d="M67.9,101.7c0.6-5-4.3-10.9-8.2-10.5c-3.9,0.3-1.6,5.1,0,10.6s-2.4,9.8,0,10.3C66,113.6,67.3,106.6,67.9,101.7z"/>
<path d="M62.8,185.3c-8.9,0.6-13.5-14.1-9.4-25.5c4-11.4,13.5-24.2,19.2-19.2c5.7,5.1,0,18.3-2,27.7
	C69.4,173.6,71.7,184.8,62.8,185.3z"/>
<path class="st5" d="M72.6,187.5c0,0-4.6,9.4-17.1,6.4s-8.1-15.6-8.1-15.6"/>
<path class="st4" d="M72.6,187.5c0,0-4.6,9.4-17.1,6.4s-8.1-15.6-8.1-15.6"/>
<path class="st5" d="M78.2,155c0,0,5.6-10.6,1.6-19.8s-14.9-4.4-14.9-4.4"/>
<path class="st4" d="M78.2,155c0,0,5.6-10.6,1.6-19.8s-14.9-4.4-14.9-4.4"/>
<path class="st1" d="M46.7,200.7c-2.2-3.8-4-0.1-5.5,6.1c-1.5,6.3-1,12.9,3.3,12.9C51.1,219.7,48.9,204.6,46.7,200.7z"/>
<path class="st5" d="M38.2,196.8c-3.3,3.9-1.8,17.8-1.8,17.8L38.2,196.8z"/>
<path class="st4" d="M38.2,196.8c-3.3,3.9-1.8,17.8-1.8,17.8"/>
<path class="st5" d="M54.7,215.6c2.2-6.2-2.9-16.4-2.9-16.4L54.7,215.6z"/>
<path class="st4" d="M54.7,215.6c2.2-6.2-2.9-16.4-2.9-16.4"/>
<path class="st5" d="M66,209.5c-7.1,3.7-3.3,14.6-3.3,14.6L66,209.5z"/>
<path class="st4" d="M66,209.5c-7.1,3.7-3.3,14.6-3.3,14.6"/>
<path d="M144.4,45c9.2-5.2,17.6-7,9.9-14s-14.7-4.1-23.9,1.5c-9.2,5.5-3.7,13.5,0,16.8C134.4,52.9,135.2,50.2,144.4,45z"/>
<path class="st4" d="M120.8,39.3c0,0-6.2,1.3-6.2,10.1s15.8,7.3,15.8,7.3"/>
<path class="st4" d="M167.7,29.2c-5.9-10.3-25.8-10.5-25.8-10.5"/>
<path class="st4" d="M286.9,18.5c-13.2,5.6-2.6,22.4-2.6,22.4"/>
<path d="M310,29.2c-2.3-4.8-12.6-7.7-17.3,0c-2.2,3.6-4.2,9.9,6.8,11.7C306.3,42,312.2,33.9,310,29.2z"/>
<path class="st5" d="M315.1,44.9c-0.9,3.5-4.7,4.4-4.7,4.4L315.1,44.9z"/>
<path class="st4" d="M315.1,44.9c-0.9,3.5-4.7,4.4-4.7,4.4"/>
<path class="st4" d="M245.7,37.9c-10.6-4.7-29-2.9-29-2.9"/>
<path class="st4" d="M276.3,52.2c-1.3-0.7-34.3-9.9-53.4-7.3c-19.1,2.6-49.9,4.4-49.9,4.4"/>
<path class="st4" d="M286.8,61.4c0,0-13.9-2.2-24.6-4.7c-10.7-2.5-25.3-5.6-41.8-4.5s-52.6,4.5-52.6,4.5"/>
<path class="st5" d="M243.5,66.4c30.2-3,52.1,9.3,52.1,9.3L243.5,66.4z"/>
<path class="st4" d="M243.5,66.4c30.2-3,52.1,9.3,52.1,9.3"/>
<path class="st5" d="M231,68.1c23.4,1.4,12.5-6.7,12.5-6.7L231,68.1z"/>
<path class="st4" d="M231,68.1c23.4,1.4,12.5-6.7,12.5-6.7"/>
<path class="st5" d="M231.1,61.5c0,0,8.8,7.7-6.3,7.3c-15.2-0.4-19.4-2.2-40.7-1.5c-21.3,0.7-42.3,7.3-50.7,14.9"/>
<path class="st4" d="M231.1,61.5c0,0,8.8,7.7-6.3,7.3c-15.2-0.4-19.4-2.2-40.7-1.5c-21.3,0.7-42.3,7.3-50.7,14.9"/>
<path class="st1" d="M247.7,76.1c16-1.1,34.6,1.7,39.1,16.6s-1.2,32.8-34.5,37.8c-33.3,4.9-39.1-19.2-39.1-19.2
	C208.5,86.6,231.7,77.2,247.7,76.1z"/>
<path class="st3" d="M256.7,78.3c23.6,0.6,17,23.2,0,21.7C236.6,98.2,233.1,77.7,256.7,78.3z"/>
<path d="M257.3,80.6c12.9-0.2,9.4,12.1,0,12.1C244.7,92.7,244.4,80.8,257.3,80.6z"/>
<path class="st5" d="M208.4,73.8l11.2,11.1c1.5,0.7,8.4-1.1,38.5-1c30.1,0.2,42.4,17.2,39.8,8.8c-2.6-8.3-17.2-18.8-17.2-18.8"/>
<path class="st4" d="M208.4,73.8l11.2,11.1c1.5,0.7,8.4-1.1,38.5-1c30.1,0.2,42.4,17.2,39.8,8.8c-2.6-8.3-17.2-18.8-17.2-18.8"/>
<path class="st1" d="M218.4,87.4c5.8,19.3-16.5,40.8-38.2,45.2c-21.7,4.4-39.9-8.5-41.4-23.9c-1.4-15.4,11.9-24.8,11.9-24.8
	S212.8,68.1,218.4,87.4z"/>
<path class="st3" d="M190.3,100c22.8-0.7,19.9-25.2,0-21.3C171.6,82.4,167.5,100.7,190.3,100z"/>
<path d="M192.8,82.2c12.4-0.6,7.3,10.3-0.7,10.4C180.3,92.7,180.5,82.7,192.8,82.2z"/>
<path class="st5" d="M209.9,70c13.6,4.6,18.5,21.1,10.8,17.8c-7.7-3.3-50-3.3-61.9-1.2S139.3,101,133.3,97c-6-3.9,9.6-16.4,9.6-16.4
	"/>
<path class="st4" d="M209.9,70c13.6,4.6,18.5,21.1,10.8,17.8c-7.7-3.3-50-3.3-61.9-1.2S139.3,101,133.3,97c-6-3.9,9.6-16.4,9.6-16.4
	"/>
<path class="st5" d="M147.6,135.8c-14.1-3-19.8-18-19.8-18L147.6,135.8z"/>
<path class="st4" d="M147.6,135.8c-14.1-3-19.8-18-19.8-18"/>
<path d="M142.5,274.3l1.8,9.9l-38.5,3l-1.5-8.8L142.5,274.3z"/>
<path d="M154.3,274.5h41.6l1.5,8.4l-43.1,1.4v-9.9V274.5z"/>
<path d="M233.7,280.8v-8.3h-27.3l-0.7,8.3H233.7z"/>
<path d="M284.2,282.4V271l-43.7,1.5l1.5,8.3L284.2,282.4z"/>
<path class="st5" d="M206.2,135.7c0,0,16.8,26.1,44.1,27.9s31-10.8,26-20.8c-3.4-6.7-10.7-3.3-31.4-3.8s-27.5-12.6-27.5-12.6"/>
<path class="st4" d="M206.2,135.7c0,0,16.8,26.1,44.1,27.9s31-10.8,26-20.8c-3.4-6.7-10.7-3.3-31.4-3.8s-27.5-12.6-27.5-12.6"/>
<path class="st6" d="M180.4,255l17.1,17.5l22-17.4l6.8-2.8l2.9,6.6l-25.5,20.6l-3.1,9.3l3.1,20.1l-10.8,7.3l-10-8.8l7.4-18.6
	l-1.9-8.6l-13-15.7L180.4,255z"/>
<path class="st5" d="M269.6,134.1c16.3-2.2,22.2-14.7,22.2-14.7L269.6,134.1z"/>
<path class="st4" d="M269.6,134.1c16.3-2.2,22.2-14.7,22.2-14.7"/>
<path class="st5" d="M246.8,246.1c0,0-9.9,16.3-11.8,15.2c-1.9-1.1-33.4-12.9-33.4-12.9l-33.8,20.9l-13.5-20.9"/>
<path class="st4" d="M246.8,246.1c0,0-9.9,16.3-11.8,15.2c-1.9-1.1-33.4-12.9-33.4-12.9l-33.8,20.9l-13.5-20.9"/>
<path class="st2" d="M86,266.4l5.9,40.7l-58.4-9.9l-6.6-42.6L86,266.4z"/>
<path d="M59.6,269.3l-0.3,7.7l21.9,4.9v-7.5L59.6,269.3z"/>
<path d="M33.3,263.4l0.2,7.8l18.3,3.9l-0.4-7.5L33.3,263.4z"/>
<path class="st1" d="M56.5,235.6c-0.8,20.2,0.1,52,0,69.9c-10.1,3.9-7.6,25.8-17.2,23.9c-9.6-1.9-11.3-7.9-11.3-7.9l-17.2,2.9
	c0,0-7.8,7.2-1.3,14s20.4,7.7,38.5,7.3s18.6-26.9,18.7-44.1s-1-67.6-1-67.6S57.2,215.3,56.5,235.6z"/>
<path class="st5" d="M32.1,330.7c0,0-4.2-9.2-8.9-13.2c-4.6-4-10.4-6.3-12.4,1.6c-1.9,7.8,12,17.6,12,17.6"/>
<path class="st4" d="M32.1,330.7c0,0-4.2-9.2-8.9-13.2c-4.6-4-10.4-6.3-12.4,1.6c-1.9,7.8,12,17.6,12,17.6"/>
<path class="st5" d="M40.5,329.5c-4.2-1-4-2.1-7-12s-12-10.8-13.7,0.1c-1.8,10.9,12,18.1,12,18.1"/>
<path class="st4" d="M40.5,329.5c-4.2-1-4-2.1-7-12s-12-10.8-13.7,0.1c-1.8,10.9,12,18.1,12,18.1"/>
<path class="st1" d="M44.2,236.8c-4.8-4.9-2.1-22.6,3-32.8s14.4-8.6,23.1-1.3c8.8,7.3,11.5,24,7.3,32
	C70.8,247.9,49.1,241.7,44.2,236.8z"/>
<path d="M434.5,135.5c12.5-3.4,3.6,30.4,0.5,34.6c-3.1,4.1-90.5,23.3-90,18.6s2-22.6,9.6-24.4C408.1,151.4,422,138.8,434.5,135.5z"
	/>
<path class="st7" d="M428,144.4c-0.1-0.5-0.3-0.9-0.4-1.3c-0.3-0.8,0.1-1.8,0.9-2.2c1.9-1,4.7-2.4,5.5-1.7c1.1,1,2,4.8-0.7,5.7
	C430.4,145.9,428.8,146.9,428,144.4z"/>
<path class="st7" d="M412.1,155.4c-0.1-0.5-0.2-0.9-0.3-1.3c-0.2-0.9,0.3-1.7,1.1-2.1c1.9-0.8,4.9-2,5.6-1.2
	c0.9,1.1,1.6,4.9-1.2,5.6C414.5,157.2,412.7,158,412.1,155.4z"/>
<path class="st7" d="M413.4,166.7c-0.1-0.6-0.1-1-0.2-1.4c-0.2-0.9,0.3-1.8,1.2-2.1c2-0.7,5.1-1.7,5.7-0.9c0.9,1.1,1.3,4.9-1.5,5.5
	C415.7,168.4,413.9,169.2,413.4,166.7z"/>
<path class="st7" d="M403.2,158.6c-0.1-0.4-0.2-0.9-0.3-1.2c-0.2-0.9,0.2-1.7,0.9-2c1.7-0.7,4.4-1.9,5-1.1c0.8,1,1.5,4.6-1,5.2
	C405.3,160.2,403.7,161,403.2,158.6z"/>
<path class="st7" d="M403,168.7c-0.1-0.5-0.1-1-0.2-1.3c-0.2-0.8,0.2-1.6,1-1.9c1.7-0.6,4.4-1.6,5-0.8c0.8,1,1.3,4.6-1.2,5.1
	C405,170.3,403.4,171,403,168.7z"/>
<path class="st7" d="M383.4,170.6c-1,1.1-2.5,0.8-3.4,0.3c-0.9-0.6,0.7-2.5,0.4-4.2c-0.3-1.7-1.3-2.9-1.1-3c0.2-0.1,0.9-2.1,2.2-2.4
	c1.4-0.3,3.4,1.8,3.4,5.5C384.9,168.4,384.3,169.5,383.4,170.6z"/>
<path class="st7" d="M374.6,163.7c-1.4,0.3-2.2,1.9-2.9,1.9c-0.6,0-1.8-0.7-1.9-1.5c-0.1-0.8,1.7-2.1,3.8-3.1s4.8-0.4,5.1,0
	c0.3,0.4-0.3,1.8-0.5,2.3C378,163.7,376,163.4,374.6,163.7z"/>
<path class="st7" d="M371.1,169.5c0,1.8,1,2.9,0.9,3.2s-1.8,2.1-2.8,2.2c-1.1,0.1-2.6-1.9-2.6-4.1s0.9-4.5,1.5-4.9
	c0.6-0.4,3,1.2,3,1.2C371.6,167.4,371.1,167.8,371.1,169.5z"/>
<path class="st7" d="M376.3,173.1c1.3-0.6,2.8-1.5,2.8-1.5s2.1,0.6,2.6,1.5s-1.1,2-2.7,3.2c-1.7,1.3-8.1,0.8-8.1,0.3
	s1.3-3.4,2.1-2.9C373.7,174.1,374.9,173.6,376.3,173.1z"/>
<path class="st1" d="M371,187.7c0.1-5.2-2.4-7.4-8.3-7.4s-13.8,1.8-14.7,6.6c-0.9,4.7,4.6,5.5,9.7,6.2
	C364.4,193.9,370.7,192.7,371,187.7z"/>
</svg>
