<svg width="246" height="109" viewBox="0 0 246 109" fill="none" xmlns="http://www.w3.org/2000/svg">
<path d="M1.81065 57.7128L0 58.7578L0.132401 58.9858L1.94305 57.9408L1.81065 57.7128Z" fill="#251F31"/>
<path d="M0.792359 49.2198L0.59375 49.3936L1.98814 50.9774L2.18674 50.8036L0.792359 49.2198Z" fill="#251F31"/>
<path d="M0.676637 44.2212L0.478516 44.3955L1.87733 45.9754L2.07545 45.8011L0.676637 44.2212Z" fill="#251F31"/>
<path d="M1.05597 61.6599L0.603516 63.7441L0.861781 63.7998L1.31423 61.7156L1.05597 61.6599Z" fill="#251F31"/>
<path d="M2.84582 67.2589L2.58203 67.2744L2.70837 69.4068L2.97216 69.3912L2.84582 67.2589Z" fill="#251F31"/>
<path d="M3.41521 39.7151L3.1543 39.7568L3.49359 41.866L3.7545 41.8243L3.41521 39.7151Z" fill="#251F31"/>
<path d="M3.79749 71.0866L3.53516 71.1182L3.79223 73.2388L4.05456 73.2072L3.79749 71.0866Z" fill="#251F31"/>
<path d="M4.99856 36.0447L4.83789 38.1748L5.10139 38.1946L5.26206 36.0645L4.99856 36.0447Z" fill="#251F31"/>
<path d="M3.46589 52.5188L3.39844 52.7734L5.41436 53.304L5.48181 53.0493L3.46589 52.5188Z" fill="#251F31"/>
<path d="M5.19899 73.8367L4.94531 73.9131L5.56466 75.9568L5.81833 75.8804L5.19899 73.8367Z" fill="#251F31"/>
<path d="M7.27807 34.6973L7.26359 34.4375L5.18945 34.5746L5.20393 34.8344L7.27807 34.6973Z" fill="#251F31"/>
<path d="M6.03097 76.6291L5.7832 76.7207L6.52554 78.7168L6.77331 78.6253L6.03097 76.6291Z" fill="#251F31"/>
<path d="M6.36878 64.9028L5.35547 66.7686L5.58784 66.894L6.60116 65.0282L6.36878 64.9028Z" fill="#251F31"/>
<path d="M7.4932 59.085L5.41906 58.9912L5.4082 59.251L7.48234 59.3484L7.4932 59.085Z" fill="#251F31"/>
<path d="M6.68208 31.4605L6.4668 31.6133L7.69677 33.336L7.91206 33.1832L6.68208 31.4605Z" fill="#251F31"/>
<path d="M7.56605 78.6272L7.30469 78.666L7.61925 80.7717L7.88062 80.7329L7.56605 78.6272Z" fill="#251F31"/>
<path d="M8.32987 42.7964L7.37786 40.8984L7.14258 41.0139L8.09096 42.9154L8.32987 42.7964Z" fill="#251F31"/>
<path d="M9.33412 30.4148L7.25781 30.5596L7.27625 30.8223L9.35255 30.6776L9.33412 30.4148Z" fill="#251F31"/>
<path d="M8.28368 80.5922L8.04492 80.7051L8.95688 82.6221L9.19564 82.5092L8.28368 80.5922Z" fill="#251F31"/>
<path d="M8.34201 69.503L8.07812 69.5166L8.18878 71.6498L8.45267 71.6362L8.34201 69.503Z" fill="#251F31"/>
<path d="M9.66156 29.7204L8.6806 27.8369L8.44531 27.956L9.42627 29.8431L9.66156 29.7204Z" fill="#251F31"/>
<path d="M9.11333 74.6288L8.85352 74.6768L9.24337 76.7735L9.50319 76.7255L9.11333 74.6288Z" fill="#251F31"/>
<path d="M9.53915 82.5095L9.24219 84.6104L9.50385 84.6471L9.8008 82.5462L9.53915 82.5095Z" fill="#251F31"/>
<path d="M9.0671 27.0837L9.01953 27.3418L11.0593 27.7152L11.1068 27.4571L9.0671 27.0837Z" fill="#251F31"/>
<path d="M9.99115 39.3878L10.9359 37.4863L10.7006 37.3672L9.75586 39.2687L9.99115 39.3878Z" fill="#251F31"/>
<path d="M10.2757 34.3348L10.0156 36.4551L10.2779 36.487L10.538 34.3667L10.2757 34.3348Z" fill="#251F31"/>
<path d="M9.03125 48.7832L10.7434 49.992L10.8954 49.7791L9.18328 48.5703L9.03125 48.7832Z" fill="#251F31"/>
<path d="M9.55923 43.8188L9.40039 44.0293L11.0782 45.2873L11.2371 45.0768L9.55923 43.8188Z" fill="#251F31"/>
<path d="M11.0739 32.0298L10.1543 33.9473L10.3927 34.0609L11.3123 32.1434L11.0739 32.0298Z" fill="#251F31"/>
<path d="M11.5304 85.7131L10.5168 83.8477L10.2852 83.9739L11.2951 85.8394L11.5304 85.7131Z" fill="#251F31"/>
<path d="M10.3004 25.7268L10.2793 25.9902L12.3571 26.1559L12.3782 25.8925L10.3004 25.7268Z" fill="#251F31"/>
<path d="M10.5786 86.3495L10.502 86.6016L12.5353 87.2162L12.612 86.9642L10.5786 86.3495Z" fill="#251F31"/>
<path d="M11.6231 65.5925L11.3535 67.708L11.6157 67.7412L11.8853 65.6257L11.6231 65.5925Z" fill="#251F31"/>
<path d="M11.485 79.1246L11.2305 79.1953L11.8047 81.2495L12.0592 81.1788L11.485 79.1246Z" fill="#251F31"/>
<path d="M11.1935 76.5863L11 76.7656L12.4393 78.309L12.6328 78.1297L11.1935 76.5863Z" fill="#251F31"/>
<path d="M12.1363 29.8483L11.0723 31.6816L11.301 31.8135L12.365 29.9802L12.1363 29.8483Z" fill="#251F31"/>
<path d="M10.9224 54.5595L10.8164 54.8008L12.7296 55.636L12.8356 55.3947L10.9224 54.5595Z" fill="#251F31"/>
<path d="M12.8001 25.0161L11.468 23.3779L11.2617 23.5439L12.5974 25.1821L12.8001 25.0161Z" fill="#251F31"/>
<path d="M12.1662 72.5541L11.902 72.5469L11.8477 74.683L12.1119 74.6866L12.1662 72.5541Z" fill="#251F31"/>
<path d="M13.3571 28.3447L11.5547 29.4102L11.6895 29.6367L13.4919 28.5712L13.3571 28.3447Z" fill="#251F31"/>
<path d="M12.9093 87.0881L12.75 89.2002L13.0135 89.2199L13.1728 87.1079L12.9093 87.0881Z" fill="#251F31"/>
<path d="M11.3334 61.035L11.2969 61.2959L13.3582 61.5829L13.3948 61.322L11.3334 61.035Z" fill="#251F31"/>
<path d="M12.8763 21.5801L12.6191 21.6406L13.1109 23.716L13.3681 23.6554L12.8763 21.5801Z" fill="#251F31"/>
<path d="M12.7219 81.3912L12.498 81.5312L13.6275 83.3253L13.8513 83.1853L12.7219 81.3912Z" fill="#251F31"/>
<path d="M14.1265 36.2618L13.0156 38.0674L13.2409 38.2051L14.3517 36.3996L14.1265 36.2618Z" fill="#251F31"/>
<path d="M14.5188 85.927L13.4292 84.1084L13.2012 84.2419L14.2943 86.0605L14.5188 85.927Z" fill="#251F31"/>
<path d="M15.0765 90.0675L13.5055 88.6494L13.3281 88.8443L14.8991 90.2623L15.0765 90.0675Z" fill="#251F31"/>
<path d="M14.5346 31.1763L13.4199 32.9795L13.6449 33.1177L14.7595 31.3145L14.5346 31.1763Z" fill="#251F31"/>
<path d="M14.6263 24.8588L13.6094 26.7227L13.8415 26.8485L14.8584 24.9847L14.6263 24.8588Z" fill="#251F31"/>
<path d="M15.4342 20.5246L13.4121 21.0312L13.4765 21.2867L15.4986 20.78L15.4342 20.5246Z" fill="#251F31"/>
<path d="M15.3132 27.2274L13.8438 28.7373L14.0334 28.9207L15.5028 27.4108L15.3132 27.2274Z" fill="#251F31"/>
<path d="M14.0742 35.2815L14.3095 35.3934L15.2398 33.4846L15.0009 33.3691L14.0742 35.2815Z" fill="#251F31"/>
<path d="M14.5022 90.4056L14.2871 90.5586L15.5195 92.2796L15.7346 92.1265L14.5022 90.4056Z" fill="#251F31"/>
<path d="M14.8427 68.662L14.6816 70.792L14.9451 70.8118L15.1062 68.6818L14.8427 68.662Z" fill="#251F31"/>
<path d="M14.7419 75.0026L14.5586 75.1924L16.0789 76.6513L16.2622 76.4615L14.7419 75.0026Z" fill="#251F31"/>
<path d="M13.8986 44.7717L13.8594 45.0322L15.9177 45.34L15.9569 45.0795L13.8986 44.7717Z" fill="#251F31"/>
<path d="M15.7177 39.0309L14.918 41.001L15.1629 41.0998L15.9626 39.1297L15.7177 39.0309Z" fill="#251F31"/>
<path d="M16.2939 22.676L14.5664 23.8652L14.7166 24.082L16.4441 22.8927L16.2939 22.676Z" fill="#251F31"/>
<path d="M15.5457 80.4315L15.2949 80.5146L15.969 82.5347L16.2198 82.4515L15.5457 80.4315Z" fill="#251F31"/>
<path d="M16.8576 19.657L14.7979 19.3828L14.7617 19.6426L16.825 19.9168L16.8576 19.657Z" fill="#251F31"/>
<path d="M16.6772 29.6052L14.9082 30.7256L15.0499 30.9479L16.8189 29.8276L16.6772 29.6052Z" fill="#251F31"/>
<path d="M15.7994 85.0191L15.5645 85.1396L16.5387 87.026L16.7736 86.9054L15.7994 85.0191Z" fill="#251F31"/>
<path d="M16.5552 91.3647L16.2969 91.4199L16.7411 93.4838L16.9995 93.4285L16.5552 91.3647Z" fill="#251F31"/>
<path d="M16.0318 87.2752L15.8301 87.4453L17.1951 89.0543L17.3969 88.8842L16.0318 87.2752Z" fill="#251F31"/>
<path d="M15.993 26.2059L17.7884 25.127L17.6509 24.9033L15.8555 25.9786L15.993 26.2059Z" fill="#251F31"/>
<path d="M16.3407 77.8917L16.1055 78.0117L17.0754 79.9003L17.3106 79.7802L16.3407 77.8917Z" fill="#251F31"/>
<path d="M17.7713 51.0122L16.5551 49.2803L16.3379 49.4354L17.5578 51.1638L17.7713 51.0122Z" fill="#251F31"/>
<path d="M18.0585 17.701L17.9246 17.4736L16.1074 18.5092L16.2377 18.7401L18.0585 17.701Z" fill="#251F31"/>
<path d="M16.8226 82.953L16.6152 83.1162L17.9277 84.7727L18.135 84.6095L16.8226 82.953Z" fill="#251F31"/>
<path d="M18.4043 27.219L18.2341 27.0205L16.627 28.3772L16.7971 28.5793L18.4043 27.219Z" fill="#251F31"/>
<path d="M17.8646 33.1914L16.7207 34.9775L16.9415 35.1182L18.089 33.3357L17.8646 33.1914Z" fill="#251F31"/>
<path d="M17.5785 93.0194L17.3281 93.1035L18.0031 95.1004L18.2535 95.0163L17.5785 93.0194Z" fill="#251F31"/>
<path d="M18.2229 20.9322L16.9785 22.6445L17.1925 22.7991L18.4369 21.0867L18.2229 20.9322Z" fill="#251F31"/>
<path d="M18.2835 30.1844L17.1387 31.9688L17.3613 32.1107L18.5061 30.3263L18.2835 30.1844Z" fill="#251F31"/>
<path d="M17.9974 88.8909L17.7363 88.9316L18.0673 91.0384L18.3284 90.9977L17.9974 88.8909Z" fill="#251F31"/>
<path d="M18.5376 61.0816L16.793 62.2393L16.9394 62.4585L18.6841 61.3009L18.5376 61.0816Z" fill="#251F31"/>
<path d="M18.1213 36.8064L17.9375 38.9346L18.2008 38.9572L18.3846 36.8289L18.1213 36.8064Z" fill="#251F31"/>
<path d="M19.4753 23.4543L17.6152 24.4092L17.7362 24.6433L19.5963 23.6884L19.4753 23.4543Z" fill="#251F31"/>
<path d="M18.5803 15.4383L18.3047 17.5566L18.5667 17.5905L18.8424 15.4722L18.5803 15.4383Z" fill="#251F31"/>
<path d="M19.3823 55.1662L17.3379 55.5557L17.3875 55.8144L19.4319 55.4249L19.3823 55.1662Z" fill="#251F31"/>
<path d="M19.9344 19.3209L18.2422 20.5596L18.3986 20.7719L20.0908 19.5332L19.9344 19.3209Z" fill="#251F31"/>
<path d="M19.0285 72.0949L18.7773 72.1768L19.4412 74.2002L19.6924 74.1183L19.0285 72.0949Z" fill="#251F31"/>
<path d="M18.5508 28.1049L18.6811 28.3358L20.4982 27.2967L20.3679 27.0693L18.5508 28.1049Z" fill="#251F31"/>
<path d="M18.7349 95.0357L18.6211 95.2734L20.5257 96.1794L20.6395 95.9417L18.7349 95.0357Z" fill="#251F31"/>
<path d="M19.092 90.7332L18.8945 90.9082L20.2994 92.4827L20.4969 92.3077L19.092 90.7332Z" fill="#251F31"/>
<path d="M19.0569 86.7513L18.8613 86.9277L20.2777 88.487L20.4732 88.3106L19.0569 86.7513Z" fill="#251F31"/>
<path d="M18.6396 41.3871L18.4141 41.5244L19.5214 43.3321L19.7469 43.1948L18.6396 41.3871Z" fill="#251F31"/>
<path d="M19.6944 67.1873L19.1367 69.2461L19.3918 69.3148L19.9495 67.256L19.6944 67.1873Z" fill="#251F31"/>
<path d="M19.842 34.1563L19.4355 36.2461L19.6945 36.2961L20.101 34.2063L19.842 34.1563Z" fill="#251F31"/>
<path d="M19.2246 76.4701L20.3359 78.2742L20.5603 78.1371L19.449 76.333L19.2246 76.4701Z" fill="#251F31"/>
<path d="M19.4585 84.9646L19.252 85.1289L20.5731 86.7785L20.7796 86.6142L19.4585 84.9646Z" fill="#251F31"/>
<path d="M20.7998 14.3969L19.0156 15.4932L19.1543 15.7174L20.9384 14.6211L20.7998 14.3969Z" fill="#251F31"/>
<path d="M20.762 84.0682L19.6072 82.293L19.3828 82.4373L20.5411 84.2089L20.762 84.0682Z" fill="#251F31"/>
<path d="M20.3793 30.0127L19.2246 31.7916L19.449 31.9359L20.6001 30.157L20.3793 30.0127Z" fill="#251F31"/>
<path d="M21.1927 24.8526L19.2422 25.5869L19.3355 25.8333L21.2861 25.099L21.1927 24.8526Z" fill="#251F31"/>
<path d="M20.1313 79.8078L19.8887 79.9121L20.7334 81.8634L20.976 81.7591L20.1313 79.8078Z" fill="#251F31"/>
<path d="M21.4946 17.7634L19.7715 18.959L19.9224 19.1752L21.6456 17.9796L21.4946 17.7634Z" fill="#251F31"/>
<path d="M20.2527 92.746L20.0703 92.9365L21.597 94.3888L21.7795 94.1983L20.2527 92.746Z" fill="#251F31"/>
<path d="M21.5289 21.4094L19.8516 22.668L20.0105 22.8784L21.6879 21.6198L21.5289 21.4094Z" fill="#251F31"/>
<path d="M20.5926 96.5505L20.4062 96.7373L21.9026 98.2207L22.089 98.0339L20.5926 96.5505Z" fill="#251F31"/>
<path d="M22.1057 28.4259L20.3242 29.5332L20.4643 29.7571L22.2457 28.6498L22.1057 28.4259Z" fill="#251F31"/>
<path d="M22.9957 14.1423L20.918 14.2666L20.9338 14.53L23.0116 14.4057L22.9957 14.1423Z" fill="#251F31"/>
<path d="M21.1378 88.7097L20.9395 88.8838L22.3366 90.4652L22.5349 90.2911L21.1378 88.7097Z" fill="#251F31"/>
<path d="M22.3282 31.9717L20.75 33.3609L20.9237 33.5593L22.5056 32.1665L22.3282 31.9717Z" fill="#251F31"/>
<path d="M22.0546 36.1448L21.793 36.1816L22.093 38.2964L22.3546 38.2595L22.0546 36.1448Z" fill="#251F31"/>
<path d="M23.0304 24.7244L21.1641 25.667L21.2835 25.902L23.1498 24.9593L23.0304 24.7244Z" fill="#251F31"/>
<path d="M21.2286 45.8001L21.0273 45.9707L22.3969 47.5759L22.5982 47.4053L21.2286 45.8001Z" fill="#251F31"/>
<path d="M21.5391 17.4516L21.7345 17.6284L23.1571 16.0733L22.9616 15.8965L21.5391 17.4516Z" fill="#251F31"/>
<path d="M21.748 21.0638L21.9254 21.2586L23.4892 19.855L23.3118 19.6602L21.748 21.0638Z" fill="#251F31"/>
<path d="M22.2878 84.5829L22.0938 84.7617L23.5287 86.3091L23.7227 86.1303L22.2878 84.5829Z" fill="#251F31"/>
<path d="M23.7648 92.2443L22.3459 90.6855L22.1504 90.8624L23.5693 92.4211L23.7648 92.2443Z" fill="#251F31"/>
<path d="M22.528 93.4683L22.3398 93.6533L23.8219 95.1509L24.01 94.9659L22.528 93.4683Z" fill="#251F31"/>
<path d="M22.166 23.5544L22.3253 23.7673L24.0157 22.5225L23.8565 22.3096L22.166 23.5544Z" fill="#251F31"/>
<path d="M23.277 11.2805L22.6309 13.3096L22.8827 13.3893L23.5288 11.3602L23.277 11.2805Z" fill="#251F31"/>
<path d="M22.7051 95.6855L22.5156 95.8691L23.9866 97.3775L24.1761 97.1939L22.7051 95.6855Z" fill="#251F31"/>
<path d="M24.0641 28.1822L22.4453 29.5205L22.614 29.7233L24.2328 28.385L24.0641 28.1822Z" fill="#251F31"/>
<path d="M23.0751 78.1715L22.8203 78.2412L23.3866 80.2976L23.6414 80.2279L23.0751 78.1715Z" fill="#251F31"/>
<path d="M24.254 88.496L22.8459 86.9229L22.6504 87.0997L24.0585 88.6728L24.254 88.496Z" fill="#251F31"/>
<path d="M23.0091 98.5276L22.8359 98.7266L24.4273 100.103L24.6005 99.9036L23.0091 98.5276Z" fill="#251F31"/>
<path d="M22.7827 40.0846L22.5898 40.2646L24.0326 41.7999L24.2254 41.6198L22.7827 40.0846Z" fill="#251F31"/>
<path d="M24.4923 59.0014L22.4327 58.7344L22.3965 58.9942L24.4598 59.2648L24.4923 59.0014Z" fill="#251F31"/>
<path d="M24.7866 26.0595L22.8965 26.9453L23.0089 27.1837L24.8991 26.2979L24.7866 26.0595Z" fill="#251F31"/>
<path d="M22.8049 64.2227L22.6562 64.4404L24.3921 65.6177L24.5407 65.3999L22.8049 64.2227Z" fill="#251F31"/>
<path d="M23.5171 82.5496L23.3223 82.7275L24.7502 84.2814L24.945 84.1035L23.5171 82.5496Z" fill="#251F31"/>
<path d="M24.2982 74.6104L23.1797 76.4109L23.4041 76.5516L24.5226 74.7511L24.2982 74.6104Z" fill="#251F31"/>
<path d="M23.0067 70.5447L22.8848 70.7783L24.7408 71.741L24.8627 71.5074L23.0067 70.5447Z" fill="#251F31"/>
<path d="M24.3642 17.5757L23.5527 19.541L23.7971 19.6413L24.6085 17.6759L24.3642 17.5757Z" fill="#251F31"/>
<path d="M24.9946 14.2527L24.7738 14.1084L23.5938 15.8656L23.8146 16.0135L24.9946 14.2527Z" fill="#251F31"/>
<path d="M24.5345 30.8812L23.6055 32.79L23.8432 32.905L24.7722 30.9961L24.5345 30.8812Z" fill="#251F31"/>
<path d="M23.971 49.8143L23.7344 49.9316L24.6824 51.8312L24.919 51.7139L23.971 49.8143Z" fill="#251F31"/>
<path d="M24.6581 33.3488L24.4062 33.4287L25.0538 35.4574L25.3056 35.3775L24.6581 33.3488Z" fill="#251F31"/>
<path d="M25.8256 10.8983L23.8438 11.5439L23.9258 11.7943L25.9077 11.1486L25.8256 10.8983Z" fill="#251F31"/>
<path d="M25.668 92.3202L24.8246 90.3682L24.582 90.4728L25.4254 92.4249L25.668 92.3202Z" fill="#251F31"/>
<path d="M25.8675 22.4674L24.3086 23.8799L24.4863 24.0748L26.0453 22.6623L25.8675 22.4674Z" fill="#251F31"/>
<path d="M26.1033 28.6963L24.6816 30.2559L24.8772 30.433L26.2988 28.8734L26.1033 28.6963Z" fill="#251F31"/>
<path d="M24.8127 21.3602L26.4127 19.9963L26.2389 19.7979L24.6426 21.1618L24.8127 21.3602Z" fill="#251F31"/>
<path d="M25.9847 24.6394L24.9727 26.5059L25.2051 26.6311L26.2171 24.7646L25.9847 24.6394Z" fill="#251F31"/>
<path d="M24.9515 79.8034L24.7559 79.9805L26.1772 81.5403L26.3728 81.3632L24.9515 79.8034Z" fill="#251F31"/>
<path d="M25.1991 93.164L25.0098 93.3477L26.4816 94.8552L26.6709 94.6715L25.1991 93.164Z" fill="#251F31"/>
<path d="M25.2427 88.1769L25.0391 88.3447L26.3883 89.9716L26.5919 89.8038L25.2427 88.1769Z" fill="#251F31"/>
<path d="M25.3254 98.0164L25.1562 98.2188L26.772 99.5606L26.9412 99.3583L25.3254 98.0164Z" fill="#251F31"/>
<path d="M26.5831 16.3111L24.9824 17.6709L25.1538 17.8714L26.7545 16.5115L26.5831 16.3111Z" fill="#251F31"/>
<path d="M25.5465 95.6472L25.3652 95.8389L26.9011 97.2816L27.0823 97.0899L25.5465 95.6472Z" fill="#251F31"/>
<path d="M25.8053 100.549L25.6465 100.76L27.3245 102.017L27.4833 101.807L25.8053 100.549Z" fill="#251F31"/>
<path d="M27.043 12.815L25.4219 14.1504L25.5902 14.3534L27.2114 13.018L27.043 12.815Z" fill="#251F31"/>
<path d="M26.0574 83.8583L25.8398 84.0078L27.044 85.7485L27.2616 85.599L26.0574 83.8583Z" fill="#251F31"/>
<path d="M27.4222 9.65182L25.4023 10.1523L25.4661 10.408L27.486 9.90745L27.4222 9.65182Z" fill="#251F31"/>
<path d="M26.2132 86.5844L26.0098 86.7529L27.365 88.3783L27.5685 88.2097L26.2132 86.5844Z" fill="#251F31"/>
<path d="M25.6746 36.6638L25.4863 36.8486L26.9671 38.3475L27.1553 38.1627L25.6746 36.6638Z" fill="#251F31"/>
<path d="M27.7275 21.5334L26.5469 23.29L26.7664 23.4366L27.947 21.68L27.7275 21.5334Z" fill="#251F31"/>
<path d="M27.201 73.4499L26.9395 73.4873L27.2435 75.5981L27.505 75.5607L27.201 73.4499Z" fill="#251F31"/>
<path d="M27.9648 27.3873L27.0703 29.3125L27.3101 29.4232L28.2046 27.498L27.9648 27.3873Z" fill="#251F31"/>
<path d="M28.2834 18.4056L26.5723 19.6182L26.7254 19.8328L28.4365 18.6202L28.2834 18.4056Z" fill="#251F31"/>
<path d="M27.9504 44.4381L28.193 44.3262L27.2916 42.3994L27.0527 42.5113L27.9504 44.4381Z" fill="#251F31"/>
<path d="M26.8622 16.1472L28.7554 15.2704L28.6431 15.0322L26.75 15.9126L26.8622 16.1472Z" fill="#251F31"/>
<path d="M28.6024 25.5274L26.9531 26.8281L27.1171 27.0347L28.7664 25.734L28.6024 25.5274Z" fill="#251F31"/>
<path d="M27.3511 90.0885L27.1602 90.2705L28.6187 91.7908L28.8097 91.6088L27.3511 90.0885Z" fill="#251F31"/>
<path d="M29.0513 93.8603L27.4224 92.5361L27.2559 92.7382L28.8848 94.0624L29.0513 93.8603Z" fill="#251F31"/>
<path d="M29.286 8.75485L27.2129 8.89355L27.2306 9.15636L29.3037 9.01766L29.286 8.75485Z" fill="#251F31"/>
<path d="M27.633 30.2709L27.4531 30.4639L28.9961 31.8937L29.176 31.7007L27.633 30.2709Z" fill="#251F31"/>
<path d="M26.8752 55.4823L26.832 55.7422L28.8854 56.0814L28.9286 55.8215L26.8752 55.4823Z" fill="#251F31"/>
<path d="M29.479 11.8114L27.4199 12.0889L27.4553 12.3499L29.5144 12.0724L29.479 11.8114Z" fill="#251F31"/>
<path d="M28.9636 67.6279L28.7355 67.498L27.6641 69.3274L27.8921 69.4609L28.9636 67.6279Z" fill="#251F31"/>
<path d="M27.953 95.7685L27.8184 95.9951L29.6216 97.0598L29.7563 96.8332L27.953 95.7685Z" fill="#251F31"/>
<path d="M28.0221 98.6812L27.8848 98.9062L29.6752 99.9922L29.8126 99.7672L28.0221 98.6812Z" fill="#251F31"/>
<path d="M28.0917 25.2326L29.507 23.6739L29.3115 23.4971L27.8926 25.0594L28.0917 25.2326Z" fill="#251F31"/>
<path d="M28.6053 79.3824L28.3457 79.4316L28.7458 81.5265L29.0054 81.4772L28.6053 79.3824Z" fill="#251F31"/>
<path d="M28.3437 101.953L28.2012 102.175L29.9662 103.301L30.1087 103.079L28.3437 101.953Z" fill="#251F31"/>
<path d="M28.6779 82.3L28.4629 82.4531L29.6959 84.1737L29.9109 84.0206L28.6779 82.3Z" fill="#251F31"/>
<path d="M29.9686 20.3832L28.1992 21.5029L28.3408 21.7253L30.1102 20.6056L29.9686 20.3832Z" fill="#251F31"/>
<path d="M28.2954 17.3024L28.248 17.5615L30.2958 17.9332L30.3431 17.6741L28.2954 17.3024Z" fill="#251F31"/>
<path d="M29.2567 76.1721L28.9961 76.2158L29.352 78.3222L29.6126 78.2785L29.2567 76.1721Z" fill="#251F31"/>
<path d="M29.4808 34.4803L29.2274 32.3623L28.9668 32.3912L29.2202 34.5128L29.4808 34.4803Z" fill="#251F31"/>
<path d="M30.4577 88.218L29.0858 86.6123L28.8867 86.7819L30.255 88.3876L30.4577 88.218Z" fill="#251F31"/>
<path d="M30.4599 13.3217L28.9414 14.7773L29.1246 14.9672L30.6431 13.5116L30.4599 13.3217Z" fill="#251F31"/>
<path d="M30.6967 90.4983L29.285 88.9287L29.0859 89.1055L30.5013 90.6715L30.6967 90.4983Z" fill="#251F31"/>
<path d="M30.5379 92.9663L30.2737 92.9482L30.1289 95.0771L30.3895 95.0988L30.5379 92.9663Z" fill="#251F31"/>
<path d="M30.4692 6.77167L29.4766 8.64844L29.7103 8.77128L30.703 6.89452L30.4692 6.77167Z" fill="#251F31"/>
<path d="M30.9137 62.4121L28.8359 62.4879L28.8432 62.7513L30.9209 62.6755L30.9137 62.4121Z" fill="#251F31"/>
<path d="M30.086 84.4961L29.8809 84.6621L31.2152 86.3011L31.4204 86.1352L30.086 84.4961Z" fill="#251F31"/>
<path d="M30.6597 26.9715L30.5449 29.1045L30.8088 29.1186L30.9236 26.9856L30.6597 26.9715Z" fill="#251F31"/>
<path d="M31.5749 10.05L29.7148 11.0049L29.8358 11.2391L31.6959 10.2841L31.5749 10.05Z" fill="#251F31"/>
<path d="M31.6996 23.0084L29.75 23.7451L29.8437 23.9914L31.7933 23.2547L31.6996 23.0084Z" fill="#251F31"/>
<path d="M30.9762 18.7764L30.6758 20.8908L30.9364 20.9269L31.2369 18.8124L30.9762 18.7764Z" fill="#251F31"/>
<path d="M30.1558 37.4718L29.9336 37.6143L31.0831 39.3956L31.3053 39.2531L30.1558 37.4718Z" fill="#251F31"/>
<path d="M30.4005 97.144L30.2754 97.376L32.1183 98.3634L32.2434 98.1314L30.4005 97.144Z" fill="#251F31"/>
<path d="M29.4122 47.3991L29.2598 47.6143L30.9749 48.8212L31.1273 48.606L29.4122 47.3991Z" fill="#251F31"/>
<path d="M31.8606 15.534L30.2598 16.8936L30.4311 17.0941L32.032 15.7345L31.8606 15.534Z" fill="#251F31"/>
<path d="M30.5995 100.295L30.4707 100.525L32.3006 101.544L32.4294 101.314L30.5995 100.295Z" fill="#251F31"/>
<path d="M30.7089 91.0765L30.584 91.3086L32.4279 92.2941L32.5528 92.062L30.7089 91.0765Z" fill="#251F31"/>
<path d="M32.4277 25.1661L30.7578 26.4346L30.918 26.6441L32.5878 25.3756L32.4277 25.1661Z" fill="#251F31"/>
<path d="M30.959 103.693L32.7834 104.714L32.9137 104.487L31.0893 103.462L30.959 103.693Z" fill="#251F31"/>
<path d="M31.0471 13.5559L32.81 12.4193L32.6652 12.1992L30.9023 13.3322L31.0471 13.5559Z" fill="#251F31"/>
<path d="M32.3746 72.114L30.9863 73.7031L31.1856 73.8761L32.5739 72.287L32.3746 72.114Z" fill="#251F31"/>
<path d="M31.5308 94.7181L31.4004 94.9473L33.2203 95.9761L33.3507 95.747L31.5308 94.7181Z" fill="#251F31"/>
<path d="M33.1043 6.42426L31.0762 6.89062L31.1356 7.14729L33.1637 6.68093L33.1043 6.42426Z" fill="#251F31"/>
<path d="M33.4122 17.9241L31.668 19.0889L31.815 19.3077L33.5593 18.1429L33.4122 17.9241Z" fill="#251F31"/>
<path d="M32.0664 22.7055L32.3053 22.8137L33.1885 20.8797L32.9496 20.7715L32.0664 22.7055Z" fill="#251F31"/>
<path d="M32.3947 77.9497L32.1348 77.9971L32.5191 80.0948L32.7791 80.0475L32.3947 77.9497Z" fill="#251F31"/>
<path d="M31.791 88.4233L33.6407 89.3939L33.7638 89.163L31.9141 88.1924L31.791 88.4233Z" fill="#251F31"/>
<path d="M32.3282 80.9688L32.1191 81.1299L33.4141 82.8L33.6232 82.639L32.3282 80.9688Z" fill="#251F31"/>
<path d="M32.2883 32.6616L32.0684 32.8076L33.2444 34.5673L33.4643 34.4213L32.2883 32.6616Z" fill="#251F31"/>
<path d="M31.6595 54.6231L31.5469 54.8613L33.4395 55.7503L33.5522 55.512L31.6595 54.6231Z" fill="#251F31"/>
<path d="M33.9369 8.98126L31.9551 9.62695L32.0372 9.87732L34.019 9.23163L33.9369 8.98126Z" fill="#251F31"/>
<path d="M33.0479 28.4482L32.8984 30.5791L33.162 30.5975L33.3115 28.4666L33.0479 28.4482Z" fill="#251F31"/>
<path d="M32.0977 15.5554L32.2026 15.7971L34.1247 14.9781L34.0198 14.7363L32.0977 15.5554Z" fill="#251F31"/>
<path d="M32.3417 67.1132L32.1836 67.3242L33.8656 68.5767L34.0237 68.3656L32.3417 67.1132Z" fill="#251F31"/>
<path d="M32.7165 85.8527L32.5918 86.085L34.4364 87.0692L34.5611 86.837L32.7165 85.8527Z" fill="#251F31"/>
<path d="M32.9141 83.2979L32.7598 83.5117L34.4641 84.7338L34.6184 84.52L32.9141 83.2979Z" fill="#251F31"/>
<path d="M34.4569 91.7023L32.8574 93.0635L33.029 93.2638L34.6284 91.9026L34.4569 91.7023Z" fill="#251F31"/>
<path d="M32.7697 98.5771L32.7031 98.832L34.7209 99.3556L34.7875 99.1007L32.7697 98.5771Z" fill="#251F31"/>
<path d="M34.0758 10.7098L33.6914 12.8076L33.9514 12.8549L34.3357 10.7572L34.0758 10.7098Z" fill="#251F31"/>
<path d="M34.3572 23.6931L33.4375 25.6064L33.6758 25.7203L34.5955 23.8069L34.3572 23.6931Z" fill="#251F31"/>
<path d="M35.3106 102.441L33.4247 101.546L33.3125 101.784L35.1984 102.679L35.3106 102.441Z" fill="#251F31"/>
<path d="M35.0635 5.15595L33.3008 6.28613L33.4437 6.50766L35.2064 5.37748L35.0635 5.15595Z" fill="#251F31"/>
<path d="M34.5893 94.9643L34.3262 94.9883L34.5211 97.1155L34.7843 97.0916L34.5893 94.9643Z" fill="#251F31"/>
<path d="M34.852 16.8134L33.7305 18.6123L33.9549 18.7513L35.0765 16.9524L34.852 16.8134Z" fill="#251F31"/>
<path d="M34.0015 104.759L33.8867 104.996L35.7712 105.902L35.886 105.665L34.0015 104.759Z" fill="#251F31"/>
<path d="M33.6211 22.0354L33.7044 22.2844L35.6771 21.6132L35.5939 21.3643L33.6211 22.0354Z" fill="#251F31"/>
<path d="M35.9554 89.3644L34.0039 90.1064L34.0981 90.3525L36.0495 89.6105L35.9554 89.3644Z" fill="#251F31"/>
<path d="M35.4663 13.2264L34.2832 14.9814L34.5025 15.1284L35.6856 13.3734L35.4663 13.2264Z" fill="#251F31"/>
<path d="M34.0158 40.7458L33.8184 40.9209L35.2235 42.4952L35.4209 42.3201L34.0158 40.7458Z" fill="#251F31"/>
<path d="M34.103 74.461L33.9883 74.6982L35.8729 75.604L35.9877 75.3667L34.103 74.461Z" fill="#251F31"/>
<path d="M35.8687 7.50968L34.4375 9.06055L34.632 9.23887L36.0631 7.68801L35.8687 7.50968Z" fill="#251F31"/>
<path d="M36.5677 92.6653L34.959 94.0156L35.1292 94.2171L36.7379 92.8668L36.5677 92.6653Z" fill="#251F31"/>
<path d="M35.1903 77.6019L34.9941 77.7783L36.4103 79.3428L36.6065 79.1663L35.1903 77.6019Z" fill="#251F31"/>
<path d="M35.995 27.4301L36.147 25.3012L35.8864 25.2832L35.7344 27.4121L35.995 27.4301Z" fill="#251F31"/>
<path d="M34.9258 60.7969L34.7344 60.9785L36.1892 62.5024L36.3806 62.3208L34.9258 60.7969Z" fill="#251F31"/>
<path d="M37.2288 86.5337L35.2773 87.2656L35.3704 87.5121L37.3218 86.7802L37.2288 86.5337Z" fill="#251F31"/>
<path d="M35.8379 20.6976L36.0913 20.7698L36.6632 18.7167L36.4062 18.6445L35.8379 20.6976Z" fill="#251F31"/>
<path d="M36.7697 9.94657L35.4492 11.5967L35.6558 11.7609L36.9763 10.1108L36.7697 9.94657Z" fill="#251F31"/>
<path d="M36.5151 96.1269L36.2559 96.1777L36.6688 98.2701L36.9281 98.2193L36.5151 96.1269Z" fill="#251F31"/>
<path d="M36.0455 99.1095L35.8379 99.2725L37.1483 100.931L37.3559 100.768L36.0455 99.1095Z" fill="#251F31"/>
<path d="M36.9903 15.0382L35.791 16.7822L36.009 16.9312L37.2083 15.1871L36.9903 15.0382Z" fill="#251F31"/>
<path d="M34.9258 46.8448L36.3266 48.4216L36.5257 48.2448L35.1213 46.668L34.9258 46.8448Z" fill="#251F31"/>
<path d="M37.506 83.5387L35.584 84.3535L35.6874 84.5959L37.6094 83.7811L37.506 83.5387Z" fill="#251F31"/>
<path d="M37.4503 4.41902L37.3163 4.19531L35.5137 5.25974L35.6476 5.48706L37.4503 4.41902Z" fill="#251F31"/>
<path d="M36.671 30.9138L36.9208 30.8272L36.2185 28.8174L35.9688 28.904L36.671 30.9138Z" fill="#251F31"/>
<path d="M36.4964 80.372L36.2539 80.4766L37.1007 82.427L37.3432 82.3224L36.4964 80.372Z" fill="#251F31"/>
<path d="M37.9248 89.9072L36.3574 91.3108L36.5312 91.5057L38.0985 90.1021L37.9248 89.9072Z" fill="#251F31"/>
<path d="M36.376 102.647L36.2773 102.892L38.2148 103.669L38.3135 103.425L36.376 102.647Z" fill="#251F31"/>
<path d="M37.8172 12.3525L36.3457 13.8604L36.5351 14.044L38.0066 12.5362L37.8172 12.3525Z" fill="#251F31"/>
<path d="M36.538 34.2033L36.3359 34.373L37.6982 35.9844L37.9002 35.8147L36.538 34.2033Z" fill="#251F31"/>
<path d="M38.1777 6.63499L36.5137 7.91699L36.6753 8.1254L38.3393 6.8434L38.1777 6.63499Z" fill="#251F31"/>
<path d="M38.2902 95.3763L37.8703 93.2871L37.6133 93.3376L38.0332 95.4304L38.2902 95.3763Z" fill="#251F31"/>
<path d="M37.0516 105.933L36.9531 106.178L38.8912 106.954L38.9897 106.71L37.0516 105.933Z" fill="#251F31"/>
<path d="M38.5243 20.8146L36.9648 22.2266L37.1425 22.4215L38.7019 21.0096L38.5243 20.8146Z" fill="#251F31"/>
<path d="M38.7241 17.1973L36.6914 17.6436L36.7482 17.9008L38.7809 17.4546L38.7241 17.1973Z" fill="#251F31"/>
<path d="M38.8027 70.1992L36.8164 70.8311L36.8967 71.082L38.8831 70.4501L38.8027 70.1992Z" fill="#251F31"/>
<path d="M39.5002 87.7667L37.4441 87.46L37.4043 87.7198L39.464 88.0265L39.5002 87.7667Z" fill="#251F31"/>
<path d="M37.4123 9.59936L37.3848 9.86133L39.4548 10.0775L39.4824 9.81551L37.4123 9.59936Z" fill="#251F31"/>
<path d="M38.3532 23.1675L38.1016 23.248L38.7544 25.275L39.006 25.1945L38.3532 23.1675Z" fill="#251F31"/>
<path d="M39.7467 3.46754L37.834 4.30371L37.9401 4.54493L39.8529 3.70876L39.7467 3.46754Z" fill="#251F31"/>
<path d="M38.6579 96.3301L38.4297 96.4629L39.5011 98.292L39.7293 98.1592L38.6579 96.3301Z" fill="#251F31"/>
<path d="M38.1046 73.8281L37.916 74.0127L39.3947 75.5136L39.5832 75.329L38.1046 73.8281Z" fill="#251F31"/>
<path d="M38.3301 52.2352L38.0781 52.3145L38.7207 54.3447L38.9727 54.2654L38.3301 52.2352Z" fill="#251F31"/>
<path d="M38.4114 78.1734L38.2578 78.3877L39.966 79.6045L40.1196 79.3902L38.4114 78.1734Z" fill="#251F31"/>
<path d="M39.8274 13.485L38.3125 14.9443L38.4961 15.1337L40.0111 13.6744L39.8274 13.485Z" fill="#251F31"/>
<path d="M40.4407 91.313L38.3789 91.5967L38.415 91.8576L40.4769 91.5739L40.4407 91.313Z" fill="#251F31"/>
<path d="M40.4402 100.316L38.3691 100.482L38.3904 100.745L40.4614 100.578L40.4402 100.316Z" fill="#251F31"/>
<path d="M40.1507 84.116L38.3574 85.1973L38.4942 85.4226L40.2875 84.3413L40.1507 84.116Z" fill="#251F31"/>
<path d="M39.957 10.8363L38.9492 12.7051L39.182 12.8298L40.1897 10.961L39.957 10.8363Z" fill="#251F31"/>
<path d="M39.569 80.9453L39.4707 83.0791L39.7347 83.0912L39.833 80.9574L39.569 80.9453Z" fill="#251F31"/>
<path d="M40.1009 66.349L38.3055 65.2773L38.168 65.5011L39.967 66.5727L40.1009 66.349Z" fill="#251F31"/>
<path d="M39.7807 5.26236L39.5664 7.39844L39.8306 7.42478L40.0449 5.2887L39.7807 5.26236Z" fill="#251F31"/>
<path d="M40.419 17.0361L39.2344 18.79L39.4536 18.9371L40.6382 17.1832L40.419 17.0361Z" fill="#251F31"/>
<path d="M41.3077 104.09L39.3313 103.43L39.248 103.679L41.2245 104.339L41.3077 104.09Z" fill="#251F31"/>
<path d="M39.5932 88.3446L39.5352 88.6016L41.5657 89.0573L41.6237 88.8004L39.5932 88.3446Z" fill="#251F31"/>
<path d="M41.0695 95.2963L40.5011 93.2432L40.2441 93.3117L40.8161 95.3684L41.0695 95.2963Z" fill="#251F31"/>
<path d="M39.9644 14.7607L39.7617 14.9339L41.1336 16.5396L41.3327 16.37L39.9644 14.7607Z" fill="#251F31"/>
<path d="M41.5515 8.16606L39.7148 9.16504L39.8414 9.39626L41.678 8.39728L41.5515 8.16606Z" fill="#251F31"/>
<path d="M40.6885 40.0297L40.9274 39.925L40.0804 37.9766L39.8379 38.0812L40.6885 40.0297Z" fill="#251F31"/>
<path d="M41.1245 76.1712L39.9023 77.8994L40.1183 78.0512L41.3405 76.3229L41.1245 76.1712Z" fill="#251F31"/>
<path d="M40.2009 106.878L40.1172 107.128L42.0949 107.786L42.1786 107.536L40.2009 106.878Z" fill="#251F31"/>
<path d="M40.8645 19.0605L40.8301 21.1963L41.0943 21.2005L41.1287 19.0647L40.8645 19.0605Z" fill="#251F31"/>
<path d="M41.8017 2.4213L40.4004 3.99902L40.5982 4.17363L41.9995 2.59591L41.8017 2.4213Z" fill="#251F31"/>
<path d="M40.791 28.1116L41.0516 30.2296L41.3123 30.1971L41.0516 28.0791L40.791 28.1116Z" fill="#251F31"/>
<path d="M40.5463 97.3866L40.4883 97.6436L42.5188 98.0993L42.5769 97.8424L40.5463 97.3866Z" fill="#251F31"/>
<path d="M40.2673 58.1594L40.0488 58.3076L41.2423 60.0556L41.4608 59.9074L40.2673 58.1594Z" fill="#251F31"/>
<path d="M40.5957 85.098L40.5449 85.3564L42.5874 85.7555L42.6383 85.497L40.5957 85.098Z" fill="#251F31"/>
<path d="M40.6086 81.2103L40.5762 81.4717L42.6418 81.7263L42.6742 81.4649L40.6086 81.2103Z" fill="#251F31"/>
<path d="M40.8281 11.305L40.7168 11.5439L42.6113 12.4205L42.7225 12.1816L40.8281 11.305Z" fill="#251F31"/>
<path d="M41.5618 24.0637L41.3184 24.166L42.1466 26.1244L42.3901 26.022L41.5618 24.0637Z" fill="#251F31"/>
<path d="M41.2404 5.09886L41.0488 5.28027L42.5048 6.80803L42.6964 6.62662L41.2404 5.09886Z" fill="#251F31"/>
<path d="M42.3818 71.6965L41.2886 69.8779L41.0605 70.0114L42.1537 71.83L42.3818 71.6965Z" fill="#251F31"/>
<path d="M41.5837 100.265L41.3984 100.453L42.9034 101.928L43.0886 101.74L41.5837 100.265Z" fill="#251F31"/>
<path d="M42.1931 92.3089H42.4573L42.4537 90.1729H42.1895L42.1931 92.3089Z" fill="#251F31"/>
<path d="M41.2296 44.5133L40.9844 44.6113L41.7779 46.5839L42.0231 46.4859L41.2296 44.5133Z" fill="#251F31"/>
<path d="M42.2793 8.28001L42.6956 10.3728L42.9526 10.3223L42.5363 8.22949L42.2793 8.28001Z" fill="#251F31"/>
<path d="M42.6152 16.7376L42.8759 16.7628L43.0713 14.6376L42.8071 14.6123L42.6152 16.7376Z" fill="#251F31"/>
<path d="M43.993 94.2743L42.0586 95.0498L42.1572 95.2942L44.0916 94.5186L43.993 94.2743Z" fill="#251F31"/>
<path d="M42.1602 88.1419L42.276 88.3765L44.1438 87.4347L44.0244 87.2002L42.1602 88.1419Z" fill="#251F31"/>
<path d="M42.0612 13.6315L44.0811 13.1227L44.0159 12.8701L41.9961 13.3789L42.0612 13.6315Z" fill="#251F31"/>
<path d="M42.3371 104.108L42.2656 104.361L44.2728 104.924L44.3443 104.67L42.3371 104.108Z" fill="#251F31"/>
<path d="M43.5067 1.69716L43.168 3.80273L43.4289 3.84444L43.7676 1.73887L43.5067 1.69716Z" fill="#251F31"/>
<path d="M43.2683 32.3115L43.0137 32.3818L43.5837 34.4335L43.8383 34.3632L43.2683 32.3115Z" fill="#251F31"/>
<path d="M43.7776 97.1486L43.5449 97.2734L44.554 99.1415L44.7866 99.0166L43.7776 97.1486Z" fill="#251F31"/>
<path d="M44.1825 6.58182L44.4323 6.49883L43.7771 4.47461L43.5273 4.55399L44.1825 6.58182Z" fill="#251F31"/>
<path d="M43.4419 107.608L43.373 107.862L45.3826 108.403L45.4514 108.148L43.4419 107.608Z" fill="#251F31"/>
<path d="M43.9724 20.4531L43.7266 20.5498L44.5094 22.5266L44.7551 22.4299L43.9724 20.4531Z" fill="#251F31"/>
<path d="M43.9269 92.6926L45.7368 91.6463L45.6065 91.4189L43.793 92.4653L43.9269 92.6926Z" fill="#251F31"/>
<path d="M45.2828 7.35964L43.4922 8.44531L43.6295 8.67036L45.4201 7.58468L45.2828 7.35964Z" fill="#251F31"/>
<path d="M44.0499 16.9795L43.8613 17.1641L45.34 18.665L45.5285 18.4804L44.0499 16.9795Z" fill="#251F31"/>
<path d="M45.9549 100.826L44.1855 101.945L44.3272 102.168L46.0966 101.048L45.9549 100.826Z" fill="#251F31"/>
<path d="M43.9992 10.0859L43.8301 10.2861L45.4284 11.6278L45.5975 11.4276L43.9992 10.0859Z" fill="#251F31"/>
<path d="M44.2114 50.767L43.9727 50.8799L44.8862 52.8002L45.1249 52.6873L44.2114 50.767Z" fill="#251F31"/>
<path d="M44.3594 89.0879L46.4154 89.391L46.4552 89.1312L44.3992 88.8281L44.3594 89.0879Z" fill="#251F31"/>
<path d="M44.8555 94.6475L46.6364 95.7517L46.774 95.5279L44.9966 94.4238L44.8555 94.6475Z" fill="#251F31"/>
<path d="M45.8398 1.23828H45.5792L45.5684 3.37436H45.8326L45.8398 1.23828Z" fill="#251F31"/>
<path d="M45.9785 12.0348L45.7148 12.0518L45.8531 14.1834L46.1168 14.1664L45.9785 12.0348Z" fill="#251F31"/>
<path d="M47.4458 105.007L45.4078 104.57L45.3535 104.826L47.3878 105.263L47.4458 105.007Z" fill="#251F31"/>
<path d="M47.342 4.91311L47.3094 4.65332L45.2461 4.91672L45.2787 5.17652L47.342 4.91311Z" fill="#251F31"/>
<path d="M45.3005 57.7202L45.0586 57.8262L45.9162 59.7719L46.1582 59.6659L45.3005 57.7202Z" fill="#251F31"/>
<path d="M46.0149 97.9853L45.9609 98.2432L47.9985 98.6667L48.0524 98.4089L46.0149 97.9853Z" fill="#251F31"/>
<path d="M46.7432 6.39454L46.4883 6.46387L47.0504 8.51767L47.3053 8.44834L46.7432 6.39454Z" fill="#251F31"/>
<path d="M47.1796 14.224L46.916 14.2432L47.0722 16.3736L47.3358 16.3544L47.1796 14.224Z" fill="#251F31"/>
<path d="M47.2611 26.3561L46.998 26.3809L47.1993 28.5075L47.4624 28.4828L47.2611 26.3561Z" fill="#251F31"/>
<path d="M46.6162 91.5254L46.5859 91.7871L48.65 92.0245L48.6803 91.7628L46.6162 91.5254Z" fill="#251F31"/>
<path d="M47.4534 40.7812L47.7104 40.7127L47.1674 38.6523L46.9141 38.7173L47.4534 40.7812Z" fill="#251F31"/>
<path d="M47.1211 9.01286L47.3021 11.1381L47.5663 11.1165L47.3853 8.99121L47.1211 9.01286Z" fill="#251F31"/>
<path d="M46.7551 108.136L46.707 108.395L48.7537 108.772L48.8017 108.513L46.7551 108.136Z" fill="#251F31"/>
<path d="M47.1387 101.362L47.0957 101.622L49.1493 101.96L49.1923 101.7L47.1387 101.362Z" fill="#251F31"/>
<path d="M49.1065 1.90058L47.083 1.40625L47.0215 1.66244L49.0449 2.15676L49.1065 1.90058Z" fill="#251F31"/>
<path d="M47.207 88.4737L49.2812 88.6036L49.2957 88.3438L47.2215 88.2139L47.207 88.4737Z" fill="#251F31"/>
<path d="M47.4941 94.9265L49.5538 95.2043L49.59 94.9445L47.5303 94.6631L47.4941 94.9265Z" fill="#251F31"/>
<path d="M48.5486 20.0723L48.2852 20.0928L48.4518 22.2224L48.7152 22.2019L48.5486 20.0723Z" fill="#251F31"/>
<path d="M47.5215 4.14214L49.4472 4.94678L49.5486 4.70503L47.6228 3.90039L47.5215 4.14214Z" fill="#251F31"/>
<path d="M47.8828 45.1385L48.3932 47.206L48.6502 47.1447L48.1362 45.0771L47.8828 45.1385Z" fill="#251F31"/>
<path d="M48.2153 104.684L48.1836 104.944L50.2442 105.193L50.2759 104.933L48.2153 104.684Z" fill="#251F31"/>
<path d="M48.5868 10.1817L48.4258 10.3906L50.0936 11.6677L50.2546 11.4588L48.5868 10.1817Z" fill="#251F31"/>
<path d="M49.373 5.97315L49.1113 6.00977L49.4087 8.12154L49.6704 8.08492L49.373 5.97315Z" fill="#251F31"/>
<path d="M50.7779 97.5785L48.9492 98.5918L49.0776 98.822L50.9063 97.8087L50.7779 97.5785Z" fill="#251F31"/>
<path d="M49.4943 31.5932L49.2363 31.6504L49.7012 33.7319L49.9591 33.6747L49.4943 31.5932Z" fill="#251F31"/>
<path d="M50.4149 15.2108L50.0762 17.3164L50.3371 17.3581L50.6758 15.2525L50.4149 15.2108Z" fill="#251F31"/>
<path d="M51.7106 91.0391H49.6328V91.3025H51.7106V91.0391Z" fill="#251F31"/>
<path d="M49.9209 53.4971L49.668 53.5732L50.2856 55.6111L50.5386 55.535L49.9209 53.4971Z" fill="#251F31"/>
<path d="M49.9494 0.73205L49.793 0.944336L51.485 2.18329L51.6414 1.971L49.9494 0.73205Z" fill="#251F31"/>
<path d="M51.8506 3.88346L49.8308 3.37109L49.7656 3.62728L51.7855 4.13965L51.8506 3.88346Z" fill="#251F31"/>
<path d="M50.1667 108.408L50.1406 108.67L52.2083 108.874L52.2343 108.612L50.1667 108.408Z" fill="#251F31"/>
<path d="M52.1482 101.141L50.1699 101.798L50.2534 102.048L52.2317 101.391L52.1482 101.141Z" fill="#251F31"/>
<path d="M50.9474 11.9022L50.6836 11.917L50.804 14.0497L51.0678 14.0349L50.9474 11.9022Z" fill="#251F31"/>
<path d="M52.2958 94.3261L50.2207 94.4316L50.2342 94.6947L52.3092 94.5892L52.2958 94.3261Z" fill="#251F31"/>
<path d="M52.0068 87.124L50.291 88.3292L50.443 88.5457L52.1552 87.3369L52.0068 87.124Z" fill="#251F31"/>
<path d="M50.0736 59.9533L49.8281 60.0508L50.6175 62.025L50.8629 61.9275L50.0736 59.9533Z" fill="#251F31"/>
<path d="M50.8081 8.31964L50.6035 8.48633L51.9413 10.1179L52.1459 9.95122L50.8081 8.31964Z" fill="#251F31"/>
<path d="M51.6301 4.46469L51.3926 4.58008L52.325 6.48733L52.5625 6.37194L51.6301 4.46469Z" fill="#251F31"/>
<path d="M53.9885 104.583L51.9141 104.699L51.9289 104.962L54.0034 104.846L53.9885 104.583Z" fill="#251F31"/>
<path d="M53.8458 97.2666L51.8105 97.7012L51.8659 97.9587L53.9011 97.5242L53.8458 97.2666Z" fill="#251F31"/>
<path d="M52.1227 23.8507L51.8672 23.918L52.4137 25.9797L52.6691 25.9124L52.1227 23.8507Z" fill="#251F31"/>
<path d="M52.5802 49.223L52.3223 49.2803L52.7871 51.3618L53.045 51.3046L52.5802 49.223Z" fill="#251F31"/>
<path d="M53.5123 0.519265L53.2517 0.46875L52.8535 2.56514L53.1141 2.61205L53.5123 0.519265Z" fill="#251F31"/>
<path d="M52.7292 6.541L52.5039 6.67871L53.6147 8.48425L53.84 8.34654L52.7292 6.541Z" fill="#251F31"/>
<path d="M54.6793 89.5388L52.9141 90.665L53.0565 90.8869L54.8218 89.7607L54.6793 89.5388Z" fill="#251F31"/>
<path d="M54.7922 92.9515L53.1504 94.2617L53.3155 94.4673L54.9573 93.1572L54.7922 92.9515Z" fill="#251F31"/>
<path d="M53.4008 100.406L53.3066 100.652L55.2549 101.393L55.349 101.147L53.4008 100.406Z" fill="#251F31"/>
<path d="M53.1299 3.87752L53.1172 4.14062L55.1926 4.23999L55.2052 3.97689L53.1299 3.87752Z" fill="#251F31"/>
<path d="M53.5765 39.9741L53.3223 40.0459L53.9051 42.0977L54.1594 42.0259L53.5765 39.9741Z" fill="#251F31"/>
<path d="M55.7132 107.795L53.6484 108.057L53.6817 108.318L55.7465 108.056L55.7132 107.795Z" fill="#251F31"/>
<path d="M55.1214 19.0722L54.6504 21.1523L54.9081 21.2103L55.3792 19.1302L55.1214 19.0722Z" fill="#251F31"/>
<path d="M54.5825 10.6301L54.1465 12.7178L54.4052 12.7715L54.8412 10.6838L54.5825 10.6301Z" fill="#251F31"/>
<path d="M53.8671 60.0462L53.6172 60.1318L54.3114 62.1451L54.5613 62.0595L53.8671 60.0462Z" fill="#251F31"/>
<path d="M55.524 13.8065L55.2598 13.8105L55.2923 15.9464L55.5565 15.9424L55.524 13.8065Z" fill="#251F31"/>
<path d="M55.3868 7.79529L55.123 7.81055L55.2472 9.94304L55.511 9.92779L55.3868 7.79529Z" fill="#251F31"/>
<path d="M54.5464 0.974926L54.4863 1.23145L56.5133 1.70275L56.5733 1.44623L54.5464 0.974926Z" fill="#251F31"/>
<path d="M56.5877 96.3656L54.8594 97.5537L55.0094 97.7706L56.7378 96.5825L56.5877 96.3656Z" fill="#251F31"/>
<path d="M55.0818 54.9172L54.8281 54.9883L55.4048 57.032L55.6584 56.9609L55.0818 54.9172Z" fill="#251F31"/>
<path d="M55.7381 34.8462L55.4785 34.8955L55.8794 36.9902L56.139 36.9409L55.7381 34.8462Z" fill="#251F31"/>
<path d="M55.9907 4.10556L55.7266 4.11328L55.7894 6.24844L56.0535 6.24072L55.9907 4.10556Z" fill="#251F31"/>
<path d="M57.3227 103.721L55.291 104.172L55.3484 104.429L57.3801 103.978L57.3227 103.721Z" fill="#251F31"/>
<path d="M57.7224 92.7803L56.2559 94.293L56.4459 94.476L57.9124 92.9633L57.7224 92.7803Z" fill="#251F31"/>
<path d="M57.4525 28.1557L57.1777 30.2705L57.4398 30.3043L57.7146 28.1895L57.4525 28.1557Z" fill="#251F31"/>
<path d="M57.3141 45.2839L57.2969 47.4199L57.5611 47.422L57.5783 45.286L57.3141 45.2839Z" fill="#251F31"/>
<path d="M58.2255 99.8066L56.4844 100.972L56.6292 101.189L58.3739 100.027L58.2255 99.8066Z" fill="#251F31"/>
<path d="M57.0356 1.16166L56.8027 1.28613L57.8085 3.15595L58.0414 3.03148L57.0356 1.16166Z" fill="#251F31"/>
<path d="M57.1417 7.37183L56.9336 7.53418L58.2388 9.1964L58.4469 9.03405L57.1417 7.37183Z" fill="#251F31"/>
<path d="M57.3386 60.7809L57.082 60.8438L57.5927 62.9146L57.8493 62.8517L57.3386 60.7809Z" fill="#251F31"/>
<path d="M59.2867 107.316L57.2422 107.705L57.2917 107.964L59.3362 107.575L59.2867 107.316Z" fill="#251F31"/>
<path d="M58.0527 89.2233L57.7969 89.2891L58.3311 91.354L58.5869 91.2882L58.0527 89.2233Z" fill="#251F31"/>
<path d="M58.1378 4.30644L57.8984 4.41797L58.8012 6.34332L59.0406 6.23179L58.1378 4.30644Z" fill="#251F31"/>
<path d="M59.7161 96.2512L58.207 97.7217L58.3918 97.91L59.9008 96.4395L59.7161 96.2512Z" fill="#251F31"/>
<path d="M60.1124 0.845047L58.2832 1.85742L58.4115 2.08771L60.2407 1.07533L60.1124 0.845047Z" fill="#251F31"/>
<path d="M59.6032 51.4925L59.3398 51.5137L59.5121 53.6428L59.7755 53.6217L59.6032 51.4925Z" fill="#251F31"/>
<path d="M58.7812 104.462L58.879 104.707L60.8156 103.935L60.7178 103.689L58.7812 104.462Z" fill="#251F31"/>
<path d="M59.4792 8.86599L59.2402 8.97852L60.151 10.9001L60.39 10.7876L59.4792 8.86599Z" fill="#251F31"/>
<path d="M59.2306 56.3966L58.9805 56.4814L59.6684 58.4968L59.9185 58.412L59.2306 56.3966Z" fill="#251F31"/>
<path d="M60.5404 94.5722L60.7974 94.5037L60.2436 92.4434L59.9902 92.5119L60.5404 94.5722Z" fill="#251F31"/>
<path d="M60.1515 17.0558L60.1055 19.1914L60.3697 19.1971L60.4157 17.0615L60.1515 17.0558Z" fill="#251F31"/>
<path d="M61.5188 99.8871L59.6836 100.889L59.8105 101.12L61.6457 100.118L61.5188 99.8871Z" fill="#251F31"/>
<path d="M60.7958 60.1L60.5332 60.1289L60.7687 62.252L61.0314 62.2231L60.7958 60.1Z" fill="#251F31"/>
<path d="M61.0506 12.2498L60.3086 14.2461L60.5564 14.3376L61.2984 12.3414L61.0506 12.2498Z" fill="#251F31"/>
<path d="M60.0899 4.50324L59.9668 4.73633L61.8182 5.70772L61.9413 5.47463L60.0899 4.50324Z" fill="#251F31"/>
<path d="M60.884 1.26503L60.7227 1.47363L62.3882 2.7536L62.5496 2.545L60.884 1.26503Z" fill="#251F31"/>
<path d="M61.8008 34.0661L62.0614 34.0841L62.1989 31.9516L61.9347 31.9336L61.8008 34.0661Z" fill="#251F31"/>
<path d="M61.3709 88.9876L61.1387 89.1133L62.1539 90.978L62.3862 90.8524L61.3709 88.9876Z" fill="#251F31"/>
<path d="M61.7961 23.704L61.7617 25.8398L62.0259 25.8441L62.0603 23.7083L61.7961 23.704Z" fill="#251F31"/>
<path d="M62.7045 46.3895L62.4434 46.4297L62.7699 48.5372L63.031 48.497L62.7045 46.3895Z" fill="#251F31"/>
<path d="M62.0714 96.0054L61.8262 96.1035L62.6207 98.0757L62.8659 97.9775L62.0714 96.0054Z" fill="#251F31"/>
<path d="M62.4049 40.2674L62.1406 40.2695L62.1578 42.4055L62.4221 42.4034L62.4049 40.2674Z" fill="#251F31"/>
<path d="M62.2887 103.9L62.043 103.995L62.8118 105.975L63.0576 105.88L62.2887 103.9Z" fill="#251F31"/>
<path d="M62.201 6.22746L62.0996 6.4707L64.0284 7.26945L64.1298 7.0262L62.201 6.22746Z" fill="#251F31"/>
<path d="M63.31 61.811L63.0527 61.8711L63.5405 63.9474L63.7978 63.8873L63.31 61.811Z" fill="#251F31"/>
<path d="M63.2133 58.7863L62.9707 58.8906L63.8154 60.842L64.058 60.7376L63.2133 58.7863Z" fill="#251F31"/>
<path d="M63.7676 55.4139L63.5039 55.4307L63.64 57.5624L63.9037 57.5457L63.7676 55.4139Z" fill="#251F31"/>
<path d="M63.2003 9.43035L63.0312 9.63281L64.6505 10.9762L64.8196 10.7737L63.2003 9.43035Z" fill="#251F31"/>
<path d="M62.7022 93.0245L62.6309 93.2773L64.6325 93.8385L64.7038 93.5856L62.7022 93.0245Z" fill="#251F31"/>
<path d="M63.444 1.33354L63.2441 1.50586L64.6271 3.09957L64.827 2.92724L63.444 1.33354Z" fill="#251F31"/>
<path d="M65.0857 101.185L63.674 99.6191L63.4785 99.7959L64.8902 101.362L65.0857 101.185Z" fill="#251F31"/>
<path d="M64.2355 51.0336L63.9824 51.1094L64.5972 53.1481L64.8503 53.0723L64.2355 51.0336Z" fill="#251F31"/>
<path d="M65.2122 4.54807L65.0273 4.73633L66.5356 6.20762L66.7204 6.01936L65.2122 4.54807Z" fill="#251F31"/>
<path d="M66.8765 64.1108L67.0828 63.9485L65.7688 62.2959L65.5625 62.4583L66.8765 64.1108Z" fill="#251F31"/>
<path d="M66.7175 96.6706L64.6562 96.9316L64.6896 97.1929L66.7508 96.9319L66.7175 96.6706Z" fill="#251F31"/>
<path d="M67.2853 27.7466L66.6445 29.7773L66.8966 29.8564L67.5374 27.8256L67.2853 27.7466Z" fill="#251F31"/>
<path d="M65.7746 59.736L65.5781 59.9121L66.9915 61.4791L67.188 61.3029L65.7746 59.736Z" fill="#251F31"/>
<path d="M65.9512 16.6882L66.2046 16.7603L66.7909 14.7108L66.5376 14.6387L65.9512 16.6882Z" fill="#251F31"/>
<path d="M65.2363 103.624L65.2761 103.884L67.3322 103.57L67.2924 103.311L65.2363 103.624Z" fill="#251F31"/>
<path d="M66.8527 106.192L64.8477 106.749L64.9186 107.003L66.9236 106.446L66.8527 106.192Z" fill="#251F31"/>
<path d="M66.7072 19.6872L66.6152 21.8213L66.8792 21.8326L66.9712 19.6985L66.7072 19.6872Z" fill="#251F31"/>
<path d="M66.5645 56.7144L66.7925 58.836L67.0531 58.8108L66.8287 56.6855L66.5645 56.7144Z" fill="#251F31"/>
<path d="M67.5126 38.5534L67.2556 38.5029L66.8574 40.5993L67.1144 40.6498L67.5126 38.5534Z" fill="#251F31"/>
<path d="M66.6309 1.69922L66.3867 1.7998L67.2009 3.76399L67.4451 3.66341L66.6309 1.69922Z" fill="#251F31"/>
<path d="M65.8526 90.2056L65.8418 90.4688L67.9178 90.5533L67.9286 90.2901L65.8526 90.2056Z" fill="#251F31"/>
<path d="M68.4713 10.2514L67.5898 12.1865L67.8305 12.2954L68.7119 10.3603L68.4713 10.2514Z" fill="#251F31"/>
<path d="M67.6346 52.4308L69.0101 50.8288L68.8111 50.6592L67.4355 52.2612L67.6346 52.4308Z" fill="#251F31"/>
<path d="M67.127 7.26422L67.0703 7.52148L69.1032 7.96665L69.1599 7.70938L67.127 7.26422Z" fill="#251F31"/>
<path d="M68.5225 54.9032L68.2637 54.9561L68.6931 57.0451L68.952 56.9923L68.5225 54.9032Z" fill="#251F31"/>
<path d="M68.0542 60.1226L67.9219 60.3506L69.7362 61.3964L69.8685 61.1684L68.0542 60.1226Z" fill="#251F31"/>
<path d="M68.5988 64.317L68.3828 64.4688L69.6049 66.197L69.8209 66.0452L68.5988 64.317Z" fill="#251F31"/>
<path d="M70.0903 63.3069L68.1067 62.6719L68.0234 62.9208L70.0107 63.5559L70.0903 63.3069Z" fill="#251F31"/>
<path d="M69.7245 2.51459L69.4629 2.54883L69.741 4.65997L70.0026 4.62573L69.7245 2.51459Z" fill="#251F31"/>
<path d="M69.5844 58.0753L69.416 58.2783L71.0367 59.6143L71.2051 59.4114L69.5844 58.0753Z" fill="#251F31"/>
<path d="M70.3359 45.2832L70.5893 45.359L71.183 43.3095L70.9296 43.2373L70.3359 45.2832Z" fill="#251F31"/>
<path d="M71.6782 5.28043L69.7949 6.18066L69.9092 6.41817L71.7925 5.51793L71.6782 5.28043Z" fill="#251F31"/>
<path d="M71.2508 101.773L69.1855 102L69.2145 102.262L71.2797 102.035L71.2508 101.773Z" fill="#251F31"/>
<path d="M71.392 52.0174L70.7168 54.0371L70.9675 54.1204L71.6427 52.1007L71.392 52.0174Z" fill="#251F31"/>
<path d="M70.9731 91.1269L69.5801 92.7119L69.7788 92.8855L71.1718 91.3005L70.9731 91.1269Z" fill="#251F31"/>
<path d="M71.5005 96.163L71.334 95.9609L69.7051 97.2888L69.8716 97.4944L71.5005 96.163Z" fill="#251F31"/>
<path d="M72.4317 37.1198L71.3848 38.9629L71.6147 39.0927L72.6617 37.2496L72.4317 37.1198Z" fill="#251F31"/>
<path d="M72.1023 81.247L71.3096 81.9109C71.3349 81.6259 71.3494 81.33 71.3494 81.0125C71.3494 79.3671 71.0743 78.1583 70.4264 77.314L70.2526 77.1156C69.6558 76.4989 68.8749 76.0913 68.0265 75.9537V75.9285L67.7007 75.8924C67.5885 75.8743 67.4763 75.8527 67.3387 75.8382V75.748C68.5188 75.4053 69.5106 74.9867 70.0499 73.7779H70.1151V73.6589C70.45 72.7421 70.6012 71.7687 70.5603 70.7939C70.5716 70.0945 70.4826 69.3971 70.2961 68.7228L71.2734 68.4269L71.1974 68.1743L70.2092 68.4738C69.6192 66.7888 68.2726 65.8326 66.1369 65.3996L65.5397 64.2558L65.3044 64.3785L65.8111 65.3455C64.7737 65.1782 63.7237 65.0998 62.6728 65.1109H62.3941L62.1986 64.2053L61.9416 64.2594L62.1226 65.1109H60.1788L59.8168 63.7939L59.5634 63.8661L59.9254 65.1109H56.1065L55.8929 64.0285L55.6359 64.079L55.8386 65.1146H50.4488L50.0868 64.0321L49.837 64.1115L50.1592 65.1254H45.001L45.1603 65.046L44.1902 63.1553L43.9549 63.2743L44.9033 65.1254H43.5024V73.7166L41.9531 74.6692L42.0943 74.8929L43.5024 74.0269V76.412L43.4083 76.2388L43.1766 76.3614L43.5024 76.9784V79.6053H42.2282V79.8506H43.506V83.6826L42.4201 83.7439V84.0073L43.4734 83.9496V86.7496H53.6812L53.5654 87.4027L53.8224 87.4496L53.9491 86.7496H56.0341L56.1065 88.864H56.3707L56.2947 86.7604H59.2195L59.7154 87.7887L59.9507 87.6733L59.5127 86.7604H63.9108L64.9967 88.3516L65.2139 88.2037L64.2438 86.7604H64.6963C68.1387 86.7604 70.7703 85.9558 71.2481 82.297L72.2544 81.4563L72.1023 81.247ZM50.1628 70.3068H61.9525C63.1832 70.3068 63.9035 70.7542 63.9035 72.0099C63.9035 73.2656 63.1796 73.6841 61.9525 73.6841H50.1628V70.3068ZM62.1081 81.5501H50.1628V78.1692H62.1081C63.556 78.1692 64.508 78.5011 64.508 79.9733C64.5008 81.2217 63.5415 81.5501 62.1009 81.5501H62.1081Z" fill="#251F31"/>
<path d="M72.4768 63.2592L70.4062 63.4707L70.4332 63.7327L72.5037 63.5213L72.4768 63.2592Z" fill="#251F31"/>
<path d="M72.5642 66.172L70.5156 66.5391L70.5624 66.7983L72.6109 66.4313L72.5642 66.172Z" fill="#251F31"/>
<path d="M72.357 24.489L71.5742 26.4658L71.82 26.5625L72.6028 24.5857L72.357 24.489Z" fill="#251F31"/>
<path d="M72.2326 16.6763L71.2812 18.5742L71.5176 18.692L72.469 16.794L72.2326 16.6763Z" fill="#251F31"/>
<path d="M71.3966 10.5831L71.1719 10.7217L72.2897 12.523L72.5144 12.3844L71.3966 10.5831Z" fill="#251F31"/>
<path d="M72.935 55.8808L72.8517 55.6318L70.8789 56.303L70.9622 56.5519L72.935 55.8808Z" fill="#251F31"/>
<path d="M72.4063 46.8355L71.9414 48.917L72.1993 48.9742L72.6642 46.8927L72.4063 46.8355Z" fill="#251F31"/>
<path d="M72.3019 73.6915L71.0527 75.4004L71.2663 75.5555L72.5155 73.8466L72.3019 73.6915Z" fill="#251F31"/>
<path d="M72.4433 70.3735L71.1719 72.0615L71.3832 72.2197L72.6546 70.5317L72.4433 70.3735Z" fill="#251F31"/>
<path d="M73.1137 60.5566L71.1582 61.2881L71.251 61.5347L73.2065 60.8032L73.1137 60.5566Z" fill="#251F31"/>
<path d="M73.4008 57.1127L72.6953 59.1221L72.9447 59.2091L73.6502 57.1997L73.4008 57.1127Z" fill="#251F31"/>
<path d="M70.9355 106.01L71.0803 106.226L72.8251 105.072L72.6803 104.852L70.9355 106.01Z" fill="#251F31"/>
<path d="M74.181 31.8457L73.2109 33.7364L73.4462 33.8555L74.4163 31.9648L74.181 31.8457Z" fill="#251F31"/>
<path d="M72.549 7.92005L72.457 8.16699L74.4118 8.89009L74.5037 8.64314L72.549 7.92005Z" fill="#251F31"/>
<path d="M73.132 52.6578L72.9141 52.8066L74.1131 54.5508L74.331 54.402L73.132 52.6578Z" fill="#251F31"/>
<path d="M73.6666 3.59499L73.5 5.72461L73.7634 5.74509L73.9301 3.61548L73.6666 3.59499Z" fill="#251F31"/>
<path d="M73.9326 67.629L73.1367 69.6006L73.3819 69.6989L74.1778 67.7273L73.9326 67.629Z" fill="#251F31"/>
<path d="M74.3345 64.1363L73.0137 65.7861L73.2202 65.9504L74.541 64.3006L74.3345 64.1363Z" fill="#251F31"/>
<path d="M74.3833 61.4223L73.7305 63.4492L73.9821 63.5297L74.6349 61.5028L74.3833 61.4223Z" fill="#251F31"/>
<path d="M74.1869 88.1655L73.2012 90.0459L73.4354 90.1679L74.4211 88.2875L74.1869 88.1655Z" fill="#251F31"/>
<path d="M75.0088 60.2833L75.2694 60.2581L75.0631 58.1328L74.7988 58.1581L75.0088 60.2833Z" fill="#251F31"/>
<path d="M74.3137 50.4815L74.2246 50.7295L76.1874 51.4304L76.2766 51.1825L74.3137 50.4815Z" fill="#251F31"/>
<path d="M75.4587 54.0386L75.0117 56.124L75.2701 56.1791L75.7171 54.0937L75.4587 54.0386Z" fill="#251F31"/>
<path d="M76.8005 14.8048L75.1895 16.1523L75.3593 16.3541L76.9704 15.0066L76.8005 14.8048Z" fill="#251F31"/>
<path d="M75.1079 45.2357L75.1016 45.499L77.1787 45.5489L77.1851 45.2856L75.1079 45.2357Z" fill="#251F31"/>
<path d="M75.5057 9.93473L75.2715 10.0566L76.2566 11.9374L76.4908 11.8155L75.5057 9.93473Z" fill="#251F31"/>
<path d="M76.0246 60.7475L75.8125 62.873L76.0754 62.8991L76.2875 60.7735L76.0246 60.7475Z" fill="#251F31"/>
<path d="M76.6015 56.1406L75.6133 58.0205L75.8449 58.1432L76.8368 56.2633L76.6015 56.1406Z" fill="#251F31"/>
<path d="M74.2617 103.239L74.392 103.466L76.2128 102.434L76.0825 102.207L74.2617 103.239Z" fill="#251F31"/>
<path d="M77.5172 6.32053L75.5082 5.7793L75.4395 6.03187L77.4484 6.57672L77.5172 6.32053Z" fill="#251F31"/>
<path d="M76.354 95.5842L75.3613 97.4609L75.5951 97.5838L76.5877 95.707L76.354 95.5842Z" fill="#251F31"/>
<path d="M76.2269 20.1484L76.1328 20.3945L78.0845 21.1359L78.1786 20.8897L76.2269 20.1484Z" fill="#251F31"/>
<path d="M76.7956 51.0241L76.6055 51.207L78.0709 52.7208L78.261 52.5379L76.7956 51.0241Z" fill="#251F31"/>
<path d="M78.7856 26.3795L76.7305 26.708L76.7723 26.9681L78.8274 26.6396L78.7856 26.3795Z" fill="#251F31"/>
<path d="M78.0071 59.4304L77.5547 61.5146L77.813 61.5704L78.2654 59.4861L78.0071 59.4304Z" fill="#251F31"/>
<path d="M80.104 34.5037L78.0371 34.7148L78.064 34.9769L80.131 34.7658L80.104 34.5037Z" fill="#251F31"/>
<path d="M78.5932 55.2267L78.3036 53.1123L78.043 53.1484L78.3325 55.2628L78.5932 55.2267Z" fill="#251F31"/>
<path d="M78.0193 41.5942L77.9727 41.8535L80.0214 42.2195L80.068 41.9602L78.0193 41.5942Z" fill="#251F31"/>
<path d="M78.2491 6.28755L78.0332 6.43945L79.2565 8.16682L79.4724 8.01492L78.2491 6.28755Z" fill="#251F31"/>
<path d="M77.9086 10.5802L77.7598 10.7979L79.4947 11.9763L79.6435 11.7586L77.9086 10.5802Z" fill="#251F31"/>
<path d="M79.3491 57.4651L79.0957 57.3857L78.4297 59.4063L78.6795 59.4893L79.3491 57.4651Z" fill="#251F31"/>
<path d="M78.5683 48.4164L78.3652 48.585L79.7181 50.2041L79.9212 50.0356L78.5683 48.4164Z" fill="#251F31"/>
<path d="M78.4933 46.4511L78.459 46.7119L80.5195 46.9816L80.5539 46.7209L78.4933 46.4511Z" fill="#251F31"/>
<path d="M79.3504 55.101L79.0859 57.2207L79.3482 57.2532L79.6127 55.1335L79.3504 55.101Z" fill="#251F31"/>
<path d="M79.9 61.6063L79.643 61.5449L79.1543 63.6197L79.4113 63.681L79.9 61.6063Z" fill="#251F31"/>
<path d="M77.9141 101.943L78.0914 102.134L79.6443 100.716L79.4633 100.521L77.9141 101.943Z" fill="#251F31"/>
<path d="M80.4927 50.7804L80.2285 50.7832L80.2513 52.9192L80.5156 52.9164L80.4927 50.7804Z" fill="#251F31"/>
<path d="M80.9964 7.43502L80.75 7.53027L81.521 9.5117L81.7674 9.41644L80.9964 7.43502Z" fill="#251F31"/>
<path d="M80.5663 16.0709L80.4707 16.3164L82.4177 17.07L82.5133 16.8244L80.5663 16.0709Z" fill="#251F31"/>
<path d="M80.4895 88.5368L79.7559 90.5361L80.004 90.6266L80.7376 88.6273L80.4895 88.5368Z" fill="#251F31"/>
<path d="M81.7644 59.569L81.5059 61.6895L81.7682 61.7212L82.0267 59.6008L81.7644 59.569Z" fill="#251F31"/>
<path d="M82 54.4979L81.5801 56.5889L81.8392 56.6406L82.2591 54.5496L82 54.4979Z" fill="#251F31"/>
<path d="M81.6468 13.8455L82.4323 11.8718L82.1898 11.7744L81.4043 13.7481L81.6468 13.8455Z" fill="#251F31"/>
<path d="M83.3937 21.9652L81.6777 23.1709L81.83 23.3862L83.546 22.1804L83.3937 21.9652Z" fill="#251F31"/>
<path d="M82.1671 46.7605L81.9414 46.8975L83.0459 48.7069L83.2717 48.5699L82.1671 46.7605Z" fill="#251F31"/>
<path d="M82.9219 51.9731L82.8359 54.1074L83.1 54.118L83.186 51.9836L82.9219 51.9731Z" fill="#251F31"/>
<path d="M82.1595 37.8577L82.0918 38.1123L84.1072 38.6446L84.1749 38.39L82.1595 37.8577Z" fill="#251F31"/>
<path d="M82.0998 30.2252L82.043 30.4824L84.0757 30.9286L84.1325 30.6714L82.0998 30.2252Z" fill="#251F31"/>
<path d="M83.2569 57.1063L82.5645 59.1201L82.8144 59.2055L83.5069 57.1917L83.2569 57.1063Z" fill="#251F31"/>
<path d="M83.0153 42.332L82.7695 42.4287L83.5523 44.4055L83.7981 44.3088L83.0153 42.332Z" fill="#251F31"/>
<path d="M83.6989 62.4514L83.2969 64.5459L83.5564 64.5954L83.9584 62.5009L83.6989 62.4514Z" fill="#251F31"/>
<path d="M83.7043 49.2959L83.4473 49.3536L83.9323 51.432L84.1893 51.3706L83.7043 49.2959Z" fill="#251F31"/>
<path d="M83.6844 72.5795L83.2715 74.6719L83.5308 74.7227L83.9437 72.6304L83.6844 72.5795Z" fill="#251F31"/>
<path d="M85.1559 9.68954L83.3359 10.7256L83.467 10.9543L85.287 9.91827L85.1559 9.68954Z" fill="#251F31"/>
<path d="M84.3311 98.376L83.2598 100.205L83.488 100.338L84.5593 98.5088L84.3311 98.376Z" fill="#251F31"/>
<path d="M84.5887 93.6147L83.7656 95.5752L84.0094 95.6769L84.8325 93.7164L84.5887 93.6147Z" fill="#251F31"/>
<path d="M86.5369 15.8889L84.8398 17.1211L84.9954 17.334L86.6924 16.1018L86.5369 15.8889Z" fill="#251F31"/>
<path d="M85.9623 53.75L85.9219 55.8857L86.1861 55.8907L86.2265 53.755L85.9623 53.75Z" fill="#251F31"/>
<path d="M86.1105 44.2699L85.8477 44.2969L86.0668 46.4217L86.3297 46.3948L86.1105 44.2699Z" fill="#251F31"/>
<path d="M86.4262 56.9248L86.0996 59.0322L86.3608 59.0724L86.6873 56.965L86.4262 56.9248Z" fill="#251F31"/>
<path d="M86.61 48.4482L86.3457 48.4735L86.5448 50.5988L86.8054 50.5735L86.61 48.4482Z" fill="#251F31"/>
<path d="M87.6117 11.8968L87.4525 11.6875L85.7656 12.936L85.9249 13.1452L87.6117 11.8968Z" fill="#251F31"/>
<path d="M85.8331 82.962L85.2363 85.0098L85.4901 85.0833L86.0869 83.0354L85.8331 82.962Z" fill="#251F31"/>
<path d="M86.65 37.483L86.4648 37.6709L87.9706 39.1448L88.1557 38.9569L86.65 37.483Z" fill="#251F31"/>
<path d="M86.436 20.9697L86.3418 21.2158L88.2933 21.9579L88.3874 21.7117L86.436 20.9697Z" fill="#251F31"/>
<path d="M86.4648 26.2499L88.3652 27.1194L88.4738 26.8813L86.5771 26.0117L86.4648 26.2499Z" fill="#251F31"/>
<path d="M87.277 60.4508L86.75 62.5176L87.0061 62.5825L87.5331 60.5157L87.277 60.4508Z" fill="#251F31"/>
<path d="M87.9772 51.4085L87.8105 53.5381L88.074 53.5586L88.2406 51.429L87.9772 51.4085Z" fill="#251F31"/>
<path d="M87.6826 30.6755L87.4785 30.8428L88.8232 32.4734L89.0273 32.3061L87.6826 30.6755Z" fill="#251F31"/>
<path d="M90.2072 14.5547L90.1782 14.2949L88.1113 14.5295L88.1403 14.7893L90.2072 14.5547Z" fill="#251F31"/>
<path d="M89.3739 46.8562L89.4354 44.7201L89.1712 44.7129L89.1133 46.8453L89.3739 46.8562Z" fill="#251F31"/>
<path d="M89.7246 39.8307L90.34 41.8693L90.5934 41.7935L89.9744 39.7549L89.7246 39.8307Z" fill="#251F31"/>
<path d="M90.7741 47.4384L90.625 49.5693L90.8886 49.5877L91.0377 47.4568L90.7741 47.4384Z" fill="#251F31"/>
<path d="M90.3242 19.4294L90.1562 19.6328L91.7802 20.9649L91.9481 20.7615L90.3242 19.4294Z" fill="#251F31"/>
<path d="M91.4784 56.2524L91.2148 56.2715L91.3699 58.402L91.6335 58.3829L91.4784 56.2524Z" fill="#251F31"/>
<path d="M91.5975 51.4006L91.1758 53.4912L91.4348 53.5431L91.8566 51.4525L91.5975 51.4006Z" fill="#251F31"/>
<path d="M91.5751 33.1523L91.3145 33.1848L91.5678 35.3029L91.8321 35.2704L91.5751 33.1523Z" fill="#251F31"/>
<path d="M92.6201 15.3777L91.4043 17.1104L91.6208 17.2613L92.8366 15.5286L92.6201 15.3777Z" fill="#251F31"/>
<path d="M92.249 26.0586L92.0391 26.2174L93.3277 27.8952L93.5377 27.7364L92.249 26.0586Z" fill="#251F31"/>
<path d="M92.5684 41.2534L93.0968 43.3209L93.3538 43.256L92.8254 41.1885L92.5684 41.2534Z" fill="#251F31"/>
<path d="M93.4888 60.6644L93.2246 60.666L93.2377 62.8021L93.5019 62.8004L93.4888 60.6644Z" fill="#251F31"/>
<path d="M92.4529 91.6834L91.5664 93.6162L91.8067 93.7257L92.6932 91.7929L92.4529 91.6834Z" fill="#251F31"/>
<path d="M96.3119 22.9933L94.2754 23.4219L94.33 23.6796L96.3665 23.2511L96.3119 22.9933Z" fill="#251F31"/>
<path d="M94.2298 19.6093L94.1758 19.8672L96.2132 20.2915L96.2672 20.0336L94.2298 19.6093Z" fill="#251F31"/>
<path d="M95.0833 34.5418L94.8281 34.6104L95.3847 36.6694L95.6399 36.6009L95.0833 34.5418Z" fill="#251F31"/>
<path d="M95.3468 44.1736L95.084 44.2012L95.3084 46.3255L95.5711 46.2979L95.3468 44.1736Z" fill="#251F31"/>
<path d="M95.6801 47.8182L95.6113 49.9531L95.8754 49.9616L95.9443 47.8266L95.6801 47.8182Z" fill="#251F31"/>
<path d="M95.9266 29.6196L95.6738 29.6963L96.2964 31.7364L96.5493 31.6598L95.9266 29.6196Z" fill="#251F31"/>
<path d="M95.942 52.8547L95.7754 54.9844L96.0388 55.0049L96.2055 52.8752L95.942 52.8547Z" fill="#251F31"/>
<path d="M97.6713 38.317L97.457 40.4531L97.7213 40.4795L97.9356 38.3434L97.6713 38.317Z" fill="#251F31"/>
<path d="M97.7183 23.6709L97.5977 23.9053L99.459 24.8576L99.5797 24.6233L97.7183 23.6709Z" fill="#251F31"/>
<path d="M99.1761 34.8418L98.9336 34.95L99.7951 36.8949L100.034 36.7866L99.1761 34.8418Z" fill="#251F31"/>
<path d="M99.3145 26.7111L99.8502 28.775L100.107 28.7065L99.5678 26.6426L99.3145 26.7111Z" fill="#251F31"/>
<path d="M100.033 55.3269L99.7832 55.4121L100.474 57.4264L100.724 57.3412L100.033 55.3269Z" fill="#251F31"/>
<path d="M100.507 41.2317L100.244 41.2627L100.496 43.384L100.758 43.353L100.507 41.2317Z" fill="#251F31"/>
<path d="M101.123 45.2365L100.863 45.2148L100.682 47.3401L100.946 47.3618L101.123 45.2365Z" fill="#251F31"/>
<path d="M102.863 30.2803L100.8 30.0205L100.768 30.2803L102.831 30.5401L102.863 30.2803Z" fill="#251F31"/>
<path d="M102.107 61.8893L101.848 61.9414L102.271 64.0317L102.53 63.9796L102.107 61.8893Z" fill="#251F31"/>
<path d="M102.443 50.3511L102.18 50.376L102.382 52.5025L102.645 52.4777L102.443 50.3511Z" fill="#251F31"/>
<path d="M102.202 33.3707L102.168 33.6318L104.232 33.9001L104.266 33.6389L102.202 33.3707Z" fill="#251F31"/>
<path d="M103.537 76.5481L102.918 78.5918L103.172 78.6682L103.791 76.6245L103.537 76.5481Z" fill="#251F31"/>
<path d="M105.499 37.9945L104.319 36.2373L104.102 36.3816L105.282 38.1388L105.499 37.9945Z" fill="#251F31"/>
<path d="M104.611 40.5575L104.594 40.8203L106.671 40.9549L106.688 40.6921L104.611 40.5575Z" fill="#251F31"/>
<path d="M106.416 44.0971L106.244 44.2969L107.842 45.6652L108.014 45.4654L106.416 44.0971Z" fill="#251F31"/>
<path d="M107.609 49.0607L107.387 49.2031L108.536 50.9847L108.758 50.8422L107.609 49.0607Z" fill="#251F31"/>
<path d="M107.968 61.5996L107.705 61.627L107.928 63.7515L108.19 63.7241L107.968 61.5996Z" fill="#251F31"/>
<path d="M108.144 54.513L107.881 54.542L108.116 56.6651L108.379 56.6362L108.144 54.513Z" fill="#251F31"/>
<path d="M94.6237 65.1029H81.111L80.8938 65.038L80.8757 65.1029H77.6577L77.9256 63.8256L77.6686 63.7715L77.3899 65.1029H74.5266V75.2818V75.3034V77.7895L74.4289 77.7101L73.0859 79.3374L73.2887 79.5034L74.5266 78.006V86.7488H81.187V81.1307H91.6554C92.2472 81.0944 92.8385 81.2073 93.3748 81.4591L93.288 83.4689H93.5522L93.6318 81.6215C94.1784 82.0761 94.3848 82.8699 94.3848 84.1472V86.7488H101.045V83.0756C101.045 79.5142 99.3946 78.6483 97.4254 78.291V78.2297C100.484 77.5081 101.147 75.8086 101.147 72.9076V71.5509C101.136 67.6431 99.7529 65.1029 94.6237 65.1029ZM94.6526 73.474C94.6526 75.0292 93.9938 75.7472 92.1948 75.7472H81.187V70.4864H91.583C93.6825 70.4864 94.6418 70.8472 94.6418 72.7596L94.6526 73.474Z" fill="#251F31"/>
<path d="M104.229 86.753H127.989V81.5499H110.889V78.0824H127.087V73.5937H110.889V70.1262H127.989V65.1035H104.229V86.753Z" fill="#251F31"/>
<path d="M192.08 86.753H215.84V81.5499H198.74V78.0824H214.939V73.5937H198.74V70.1262H215.84V65.1035H192.08V86.753Z" fill="#251F31"/>
<path d="M141.218 65.1035L129.461 86.753H136.9L138.847 82.9246H152.349L154.419 86.753H161.825L149.88 65.1035H141.218ZM141.337 78.2592L145.54 70.1262L149.858 78.2592H141.337Z" fill="#251F31"/>
<path d="M181.493 65.1035L173.092 73.0561H169.971V65.1035H163.314V86.753H169.971V78.4396H173.092L181.493 86.753H190.55L178.793 75.6901L190.553 65.1035H181.493Z" fill="#251F31"/>
<path d="M245.636 72.9087V71.552C245.636 67.6623 244.257 65.1221 239.121 65.1221H219.027V86.7715H225.688V81.1318H236.156C238.227 81.1318 238.885 81.8787 238.885 84.1519V86.7535H245.546V83.0767C245.546 79.5153 243.895 78.6494 241.926 78.2922V78.2308C244.974 77.5128 245.636 75.8097 245.636 72.9087ZM239.157 73.4752C239.157 75.0303 238.495 75.7483 236.696 75.7483H225.688V70.4875H236.095C238.194 70.4875 239.157 70.8484 239.157 72.7607V73.4752Z" fill="#251F31"/>
</svg>
