<?xml version="1.0" encoding="utf-8"?>
<!-- Generator: Adobe Illustrator 23.0.0, SVG Export Plug-In . SVG Version: 6.00 Build 0)  -->
<svg version="1.1" id="Layer_1" xmlns="http://www.w3.org/2000/svg" xmlns:xlink="http://www.w3.org/1999/xlink" x="0px" y="0px"
	 viewBox="0 0 155 138" style="enable-background:new 0 0 155 138;" xml:space="preserve">
<style type="text/css">
	.st0{fill:#2C55DD;}
	.st1{fill:#251F31;}
	.st2{fill-rule:evenodd;clip-rule:evenodd;fill:#2C55DD;}
</style>
<path class="st0" d="M74.6,104.7c-0.1,0-0.2,0.1-0.2,0.2c0,0.1,0.1,0.2,0.2,0.2c0.1,0,0.2-0.1,0.2-0.2c0,0,0-0.1-0.1-0.1
	C74.7,104.7,74.7,104.7,74.6,104.7z"/>
<path class="st0" d="M69.7,102.9c-0.1,0-0.2,0-0.3,0.1c-0.1,0.1-0.1,0.2-0.1,0.3c0,0.2,0.2,0.4,0.4,0.4c0.2,0,0.4-0.2,0.4-0.4
	C70,103.1,69.9,102.9,69.7,102.9z"/>
<path class="st0" d="M64.9,100.7c-0.3,0-0.5,0.2-0.5,0.5s0.2,0.5,0.5,0.5c0.3,0,0.5-0.2,0.5-0.5S65.2,100.7,64.9,100.7z"/>
<path class="st0" d="M60.4,98c-0.4,0-0.7,0.3-0.7,0.7c0,0.4,0.3,0.7,0.7,0.7c0.4,0,0.7-0.3,0.7-0.7c0-0.2-0.1-0.4-0.2-0.5
	C60.8,98.1,60.6,98,60.4,98z"/>
<path class="st0" d="M56.2,94.8c-0.4,0-0.7,0.2-0.8,0.6c-0.1,0.3-0.1,0.7,0.2,1c0.3,0.3,0.6,0.3,1,0.2c0.3-0.1,0.6-0.5,0.5-0.8
	C57.1,95.2,56.7,94.8,56.2,94.8z"/>
<path class="st0" d="M52.3,91.2c-0.6,0-1.1,0.5-1.1,1.1c0,0.6,0.5,1.1,1.1,1.1c0.6,0,1.1-0.5,1.1-1.1c0-0.3-0.1-0.6-0.3-0.8
	C52.9,91.3,52.6,91.2,52.3,91.2z"/>
<path class="st0" d="M48.8,87.2c-0.7,0-1.2,0.6-1.2,1.3c0,0.7,0.6,1.2,1.2,1.2c0.7,0,1.2-0.6,1.2-1.2c0-0.3-0.1-0.6-0.4-0.9
	C49.5,87.3,49.1,87.2,48.8,87.2z"/>
<path class="st0" d="M45.7,82.8c-0.8,0-1.4,0.6-1.4,1.4c0,0.8,0.6,1.4,1.4,1.4s1.4-0.6,1.4-1.4c0-0.4-0.2-0.7-0.4-1
	C46.5,83,46.1,82.8,45.7,82.8z"/>
<path class="st0" d="M44.8,79.7c0-0.9-0.7-1.6-1.6-1.6c-0.9,0-1.6,0.7-1.6,1.6c0,0.9,0.7,1.6,1.6,1.6C44.1,81.3,44.8,80.6,44.8,79.7
	z"/>
<path class="st0" d="M43.1,74.9c0-1-0.8-1.8-1.8-1.8c-1,0-1.8,0.8-1.8,1.8c0,1,0.8,1.8,1.8,1.8c0.5,0,0.9-0.2,1.3-0.5
	C42.9,75.8,43.1,75.4,43.1,74.9z"/>
<path class="st0" d="M42,69.9c0-1.1-0.9-2-2-2c-1.1,0-2,0.9-2,2c0,1.1,0.9,2,2,2C41.2,71.8,42,71,42,69.9z"/>
<path class="st0" d="M41.6,64.7c0-0.9-0.5-1.7-1.3-2c-0.8-0.3-1.7-0.2-2.3,0.5c-0.6,0.6-0.8,1.5-0.5,2.3c0.3,0.8,1.1,1.3,2,1.3
	c0.6,0,1.1-0.2,1.5-0.6C41.4,65.8,41.6,65.3,41.6,64.7z"/>
<path class="st0" d="M39.6,61.9c1.3,0,2.3-1,2.3-2.3c0-1.3-1-2.3-2.3-2.3c-1.3,0-2.3,1-2.3,2.3c0,0.6,0.2,1.2,0.7,1.6
	C38.4,61.6,39,61.9,39.6,61.9z"/>
<path class="st0" d="M37.9,54.4c0,1.4,1.1,2.5,2.5,2.5c1.4,0,2.5-1.1,2.5-2.5s-1.1-2.5-2.5-2.5c-0.7,0-1.3,0.3-1.8,0.7
	C38.1,53.1,37.8,53.8,37.9,54.4z"/>
<path class="st0" d="M112.8,92.7c-0.1,0-0.1,0-0.1,0.1c0,0.1,0,0.1,0,0.2c0,0,0.1,0.1,0.2,0c0.1,0,0.1-0.1,0.1-0.1
	C113,92.8,112.9,92.7,112.8,92.7z"/>
<path class="st0" d="M108.2,95c-0.1,0-0.2,0-0.2,0.1c-0.1,0.1-0.1,0.1-0.1,0.2c0,0.2,0.1,0.3,0.3,0.3c0.2,0,0.3-0.1,0.3-0.3
	C108.5,95.1,108.4,95,108.2,95z"/>
<path class="st0" d="M103.4,96.7c-0.2,0-0.4,0.1-0.4,0.3c-0.1,0.2,0,0.4,0.1,0.5c0.1,0.1,0.3,0.2,0.5,0.1c0.2-0.1,0.3-0.2,0.3-0.4
	C103.9,96.9,103.7,96.7,103.4,96.7L103.4,96.7z"/>
<path class="st0" d="M98.4,98c-0.3,0-0.6,0.3-0.6,0.6c0,0.3,0.3,0.6,0.6,0.6c0.3,0,0.6-0.3,0.6-0.6C99.1,98.2,98.8,98,98.4,98
	L98.4,98z"/>
<path class="st0" d="M93.3,98.7c-0.3,0-0.6,0.2-0.7,0.5c-0.1,0.3-0.1,0.6,0.2,0.9c0.2,0.2,0.6,0.3,0.9,0.2c0.3-0.1,0.5-0.4,0.5-0.7
	C94.1,99,93.7,98.7,93.3,98.7z"/>
<path class="st0" d="M88.1,98.8c-0.5,0-0.9,0.4-0.9,0.9c0,0.5,0.4,0.9,0.9,0.9c0.5,0,0.9-0.4,0.9-0.9c0-0.3-0.1-0.5-0.3-0.7
	C88.6,98.9,88.4,98.8,88.1,98.8z"/>
<path class="st0" d="M83,98.5c-0.6,0-1.1,0.5-1.1,1.1c0,0.6,0.5,1.1,1.1,1.1c0.6,0,1.1-0.5,1.1-1.1c0-0.3-0.1-0.6-0.3-0.8
	C83.5,98.6,83.3,98.5,83,98.5z"/>
<path class="st0" d="M77.9,97.5c-0.5,0-1,0.3-1.2,0.8c-0.2,0.5-0.1,1,0.3,1.4c0.4,0.4,0.9,0.5,1.4,0.3c0.5-0.2,0.8-0.7,0.8-1.2
	c0-0.3-0.1-0.7-0.4-0.9C78.5,97.7,78.2,97.5,77.9,97.5L77.9,97.5z"/>
<path class="st0" d="M72.9,95.9c-0.8,0-1.4,0.6-1.4,1.4c0,0.8,0.6,1.4,1.4,1.4c0.8,0,1.4-0.6,1.4-1.4C74.3,96.6,73.7,95.9,72.9,95.9
	z"/>
<path class="st0" d="M68.1,93.7c-0.6,0-1.2,0.4-1.5,1c-0.2,0.6-0.1,1.3,0.3,1.7c0.5,0.5,1.1,0.6,1.7,0.3c0.6-0.2,1-0.8,1-1.5
	c0-0.4-0.2-0.8-0.5-1.1C68.9,93.9,68.5,93.7,68.1,93.7L68.1,93.7z"/>
<path class="st0" d="M65.4,92.6c0-0.7-0.4-1.3-1.1-1.6c-0.6-0.3-1.4-0.1-1.9,0.4c-0.5,0.5-0.6,1.2-0.4,1.9c0.3,0.6,0.9,1.1,1.6,1.1
	c0.5,0,0.9-0.2,1.2-0.5C65.2,93.5,65.4,93.1,65.4,92.6z"/>
<path class="st0" d="M59.6,87.5c-0.8,0-1.5,0.5-1.7,1.2c-0.3,0.7-0.1,1.5,0.4,2.1c0.5,0.5,1.4,0.7,2.1,0.4c0.7-0.3,1.2-1,1.2-1.7
	C61.5,88.3,60.7,87.5,59.6,87.5z"/>
<path class="st0" d="M56,83.6c-0.8,0-1.6,0.5-1.9,1.3c-0.3,0.8-0.1,1.7,0.4,2.2c0.6,0.6,1.5,0.8,2.2,0.4c0.8-0.3,1.3-1.1,1.3-1.9
	C58.1,84.5,57.2,83.6,56,83.6L56,83.6z"/>
<path class="st0" d="M53,83.7c1.2,0,2.2-1,2.2-2.2c0-1.2-1-2.2-2.2-2.2c-1.2,0-2.2,1-2.2,2.2c0,0.6,0.2,1.1,0.6,1.6
	C51.8,83.5,52.4,83.7,53,83.7z"/>
<path class="st0" d="M52.8,77c0-1.3-1.1-2.4-2.4-2.4c-1.3,0-2.4,1.1-2.4,2.4c0,1.3,1.1,2.4,2.4,2.4C51.8,79.3,52.8,78.3,52.8,77z"/>
<path class="st0" d="M131.4,57.2c-0.1,0-0.1,0.1-0.1,0.1c0,0.1,0.1,0.1,0.1,0.1c0,0,0.1,0,0.1,0c0,0,0-0.1,0-0.1c0,0,0-0.1,0-0.1
	C131.4,57.3,131.4,57.2,131.4,57.2z"/>
<path class="st0" d="M129.8,62.1c-0.1,0-0.2,0.1-0.3,0.2c0,0.1,0,0.2,0.1,0.3c0.1,0.1,0.2,0.1,0.3,0.1c0.1,0,0.2-0.1,0.2-0.3
	c0-0.1,0-0.1-0.1-0.2C130,62.1,129.9,62.1,129.8,62.1z"/>
<path class="st0" d="M127.8,66.7c-0.2,0-0.4,0.2-0.4,0.4c0,0.2,0.2,0.4,0.4,0.4c0.2,0,0.4-0.2,0.4-0.4c0-0.1,0-0.2-0.1-0.3
	C128,66.7,127.9,66.7,127.8,66.7z"/>
<path class="st0" d="M125.2,71.1c-0.3,0-0.6,0.3-0.6,0.6c0,0.3,0.3,0.6,0.6,0.6c0.3,0,0.6-0.3,0.6-0.6c0-0.1-0.1-0.3-0.2-0.4
	S125.4,71.1,125.2,71.1z"/>
<path class="st0" d="M122.2,75.1c-0.4,0-0.7,0.3-0.7,0.7c0,0.4,0.3,0.7,0.7,0.7c0.4,0,0.7-0.3,0.7-0.7
	C122.9,75.5,122.6,75.1,122.2,75.1L122.2,75.1z"/>
<path class="st0" d="M118.8,78.9c-0.3,0-0.7,0.2-0.8,0.5c-0.1,0.3-0.1,0.7,0.2,0.9c0.2,0.2,0.6,0.3,0.9,0.2c0.3-0.1,0.5-0.4,0.5-0.8
	c0-0.2-0.1-0.4-0.2-0.6C119.2,79,119,78.9,118.8,78.9z"/>
<path class="st0" d="M115,82.3c-0.5,0-1,0.4-1,1c0,0.5,0.4,1,1,1c0.5,0,1-0.4,1-1c0-0.3-0.1-0.5-0.3-0.7
	C115.5,82.4,115.2,82.3,115,82.3z"/>
<path class="st0" d="M110.8,85.2c-0.5,0-0.9,0.3-1,0.7s-0.1,0.9,0.2,1.2c0.3,0.3,0.8,0.4,1.2,0.2c0.4-0.2,0.7-0.6,0.7-1
	C111.9,85.7,111.4,85.2,110.8,85.2z"/>
<path class="st0" d="M106.3,87.6c-0.5,0-1,0.3-1.2,0.8s-0.1,1,0.3,1.4s0.9,0.5,1.4,0.3c0.5-0.2,0.8-0.7,0.8-1.2
	C107.6,88.1,107,87.6,106.3,87.6z"/>
<path class="st0" d="M101.5,89.3c-0.6,0-1.1,0.3-1.3,0.9c-0.2,0.5-0.1,1.1,0.3,1.5c0.4,0.4,1,0.5,1.5,0.3c0.5-0.2,0.9-0.7,0.9-1.3
	C102.9,90,102.2,89.3,101.5,89.3z"/>
<path class="st0" d="M96.4,90.4c-0.6,0-1.2,0.4-1.4,1c-0.2,0.6-0.1,1.3,0.3,1.7c0.4,0.4,1.1,0.6,1.7,0.3c0.6-0.2,1-0.8,1-1.4
	C98,91.1,97.3,90.4,96.4,90.4z"/>
<path class="st0" d="M91.3,90.9c-0.9,0-1.7,0.8-1.7,1.7c0,0.9,0.8,1.7,1.7,1.7c0.9,0,1.7-0.8,1.7-1.7C93,91.6,92.2,90.9,91.3,90.9
	L91.3,90.9z"/>
<path class="st0" d="M88,92.5c0-1-0.8-1.8-1.8-1.8c-1,0-1.8,0.8-1.8,1.8c0,1,0.8,1.8,1.8,1.8C87.1,94.3,88,93.5,88,92.5z"/>
<path class="st0" d="M83,91.7c0-1.1-0.9-2-2-2c-1.1,0-2,0.9-2,2c0,1.1,0.9,2,2,2c0.5,0,1-0.2,1.4-0.6C82.8,92.7,83,92.2,83,91.7z"/>
<path class="st0" d="M78.1,90.3c0-1.2-0.9-2.1-2.1-2.1c-1.2,0-2.1,0.9-2.1,2.1s0.9,2.1,2.1,2.1c0.6,0,1.1-0.2,1.5-0.6
	C77.9,91.4,78.1,90.8,78.1,90.3z"/>
<path class="st0" d="M73.5,88.2c0-0.9-0.6-1.7-1.4-2.1c-0.8-0.3-1.8-0.2-2.5,0.5c-0.6,0.6-0.8,1.6-0.5,2.5c0.3,0.8,1.2,1.4,2.1,1.4
	c0.6,0,1.2-0.2,1.6-0.7C73.3,89.4,73.5,88.8,73.5,88.2z"/>
<path class="st0" d="M119.4,19.3c0.1,0,0.1,0,0.1-0.1c0,0,0-0.1,0-0.1c0,0-0.1-0.1-0.1-0.1c-0.1,0-0.1,0.1-0.1,0.1
	S119.3,19.3,119.4,19.3z"/>
<path class="st0" d="M121.8,24c0.2,0,0.3-0.1,0.3-0.3c0-0.2-0.1-0.3-0.3-0.3c-0.2,0-0.3,0.1-0.3,0.3c0,0.1,0,0.1,0.1,0.2
	C121.7,24,121.7,24,121.8,24z"/>
<path class="st0" d="M123.7,29c0.2,0,0.4-0.2,0.4-0.4c0-0.2-0.2-0.4-0.4-0.4c-0.2,0-0.4,0.2-0.4,0.4c0,0.1,0,0.2,0.1,0.3
	C123.5,29,123.6,29,123.7,29z"/>
<path class="st0" d="M125.1,34.1c0.2,0,0.4-0.1,0.5-0.3c0.1-0.2,0-0.5-0.1-0.6c-0.2-0.2-0.4-0.2-0.6-0.1c-0.2,0.1-0.3,0.3-0.3,0.5
	c0,0.1,0.1,0.3,0.2,0.4C124.8,34.1,125,34.1,125.1,34.1z"/>
<path class="st0" d="M125.3,38.7c0,0.4,0.3,0.7,0.7,0.7c0.4,0,0.7-0.3,0.7-0.7c0-0.4-0.3-0.7-0.7-0.7
	C125.6,38,125.3,38.3,125.3,38.7z"/>
<path class="st0" d="M126.3,43c-0.5,0-0.8,0.4-0.8,0.8c0,0.5,0.4,0.8,0.8,0.8c0.5,0,0.8-0.4,0.8-0.8C127.2,43.4,126.8,43,126.3,43z"
	/>
<path class="st0" d="M126.1,48.1c-0.4,0-0.8,0.2-0.9,0.6c-0.2,0.4-0.1,0.8,0.2,1.1c0.3,0.3,0.7,0.4,1.1,0.2c0.4-0.2,0.6-0.5,0.6-0.9
	c0-0.3-0.1-0.5-0.3-0.7C126.6,48.2,126.3,48,126.1,48.1z"/>
<path class="st0" d="M125.3,53c-0.6,0-1.1,0.5-1.1,1.1c0,0.6,0.5,1.1,1.1,1.1c0.6,0,1.1-0.5,1.1-1.1c0-0.3-0.1-0.6-0.3-0.8
	C125.9,53.2,125.6,53,125.3,53z"/>
<path class="st0" d="M125.2,59.2c0-0.5-0.3-1-0.8-1.2c-0.5-0.2-1-0.1-1.4,0.3c-0.4,0.4-0.5,0.9-0.3,1.4c0.2,0.5,0.7,0.8,1.2,0.8
	c0.3,0,0.7-0.1,0.9-0.4C125,59.8,125.2,59.5,125.2,59.2z"/>
<path class="st0" d="M121.8,62.5c-0.8,0-1.4,0.6-1.4,1.4c0,0.8,0.6,1.4,1.4,1.4c0.8,0,1.4-0.6,1.4-1.4c0-0.4-0.1-0.7-0.4-1
	C122.6,62.6,122.2,62.5,121.8,62.5z"/>
<path class="st0" d="M119.2,66.8c-0.6,0-1.2,0.4-1.4,1c-0.2,0.6-0.1,1.2,0.3,1.7c0.4,0.4,1.1,0.6,1.7,0.3c0.6-0.2,1-0.8,1-1.4
	C120.7,67.5,120,66.8,119.2,66.8z"/>
<path class="st0" d="M115.9,70.7c-0.7,0-1.3,0.4-1.6,1c-0.3,0.6-0.1,1.4,0.4,1.8c0.5,0.5,1.2,0.6,1.8,0.4c0.6-0.3,1-0.9,1-1.6
	c0-0.4-0.2-0.9-0.5-1.2C116.8,70.9,116.4,70.7,115.9,70.7z"/>
<path class="st0" d="M112.2,74.2c-1,0-1.8,0.8-1.8,1.8c0,1,0.8,1.8,1.8,1.8c1,0,1.8-0.8,1.8-1.8c0-0.5-0.2-1-0.5-1.3
	C113.2,74.4,112.7,74.2,112.2,74.2L112.2,74.2z"/>
<path class="st0" d="M108,77.1c-1.1,0-2,0.9-2,2s0.9,2,2,2c1.1,0,2-0.9,2-2c0-0.5-0.2-1-0.6-1.4S108.6,77.1,108,77.1z"/>
<path class="st0" d="M103.5,79.5c-1.2,0-2.1,0.9-2.1,2.1c0,1.2,0.9,2.1,2.1,2.1c1.2,0,2.1-0.9,2.1-2.1c0-0.6-0.2-1.1-0.6-1.5
	C104.6,79.7,104.1,79.5,103.5,79.5L103.5,79.5z"/>
<path class="st0" d="M98.7,81.2c-1.2,0-2.3,1-2.3,2.3s1,2.3,2.3,2.3c1.2,0,2.3-1,2.3-2.3C101,82.2,99.9,81.2,98.7,81.2z"/>
<path class="st1" d="M84,0.8c0.1,0,0.1-0.1,0.1-0.1c0-0.1-0.1-0.1-0.1-0.1s-0.1,0.1-0.1,0.1c0,0,0,0.1,0,0.1
	C83.9,0.7,83.9,0.8,84,0.8z"/>
<path class="st0" d="M88.9,2.4c0.2,0,0.3-0.1,0.3-0.3c0-0.2-0.1-0.3-0.3-0.3c-0.2,0-0.3,0.1-0.3,0.3c0,0.1,0,0.1,0.1,0.2
	C88.8,2.4,88.8,2.4,88.9,2.4z"/>
<path class="st0" d="M93.7,4.6c0.2,0,0.4-0.2,0.4-0.4c0-0.2-0.2-0.4-0.4-0.4c-0.2,0-0.4,0.2-0.4,0.4c0,0.1,0,0.2,0.1,0.3
	C93.4,4.6,93.6,4.6,93.7,4.6z"/>
<path class="st0" d="M98.2,7.3c0.3,0,0.6-0.3,0.6-0.6c0-0.3-0.3-0.6-0.6-0.6c-0.3,0-0.6,0.3-0.6,0.6c0,0.2,0.1,0.3,0.2,0.4
	C97.9,7.2,98,7.3,98.2,7.3z"/>
<path class="st0" d="M102.4,10.4c0.4,0,0.7-0.3,0.7-0.7c0-0.4-0.3-0.7-0.7-0.7c-0.4,0-0.7,0.3-0.7,0.7c0,0.2,0.1,0.4,0.2,0.5
	C102,10.4,102.2,10.4,102.4,10.4z"/>
<path class="st0" d="M106.3,14c0.3,0,0.7-0.2,0.8-0.5c0.1-0.3,0.1-0.7-0.2-0.9s-0.6-0.3-0.9-0.2c-0.3,0.1-0.5,0.4-0.5,0.8
	C105.4,13.6,105.8,14,106.3,14z"/>
<path class="st0" d="M109.8,18c0.4,0,0.8-0.2,0.9-0.6c0.2-0.4,0.1-0.8-0.2-1.1c-0.3-0.3-0.7-0.4-1.1-0.2c-0.4,0.2-0.6,0.5-0.6,0.9
	C108.8,17.5,109.2,18,109.8,18z"/>
<path class="st0" d="M112.9,22.3c0.6,0,1.1-0.5,1.1-1.1c0-0.6-0.5-1.1-1.1-1.1s-1.1,0.5-1.1,1.1c0,0.3,0.1,0.6,0.3,0.8
	C112.3,22.2,112.6,22.3,112.9,22.3z"/>
<path class="st0" d="M115.4,27c0.7,0,1.3-0.6,1.3-1.3c0-0.7-0.6-1.3-1.3-1.3c-0.7,0-1.3,0.6-1.3,1.3c0,0.3,0.1,0.7,0.4,0.9
	C114.7,26.8,115,27,115.4,27z"/>
<path class="st0" d="M115.9,30.5c0,0.6,0.3,1.1,0.9,1.3c0.5,0.2,1.1,0.1,1.5-0.3c0.4-0.4,0.5-1,0.3-1.5c-0.2-0.5-0.7-0.9-1.3-0.9
	c-0.4,0-0.7,0.1-1,0.4C116,29.8,115.9,30.1,115.9,30.5z"/>
<path class="st0" d="M117,35.6c0,0.9,0.7,1.6,1.6,1.6c0.9,0,1.6-0.7,1.6-1.6c0-0.9-0.7-1.6-1.6-1.6c-0.4,0-0.8,0.2-1.1,0.5
	C117.1,34.7,117,35.1,117,35.6z"/>
<path class="st0" d="M117.4,40.7c0,0.7,0.4,1.3,1,1.6c0.6,0.3,1.4,0.1,1.8-0.4c0.5-0.5,0.6-1.2,0.4-1.9c-0.3-0.6-0.9-1-1.6-1
	c-0.4,0-0.9,0.2-1.2,0.5C117.6,39.8,117.4,40.3,117.4,40.7z"/>
<path class="st0" d="M120.9,45.9c0-0.7-0.4-1.4-1.1-1.7c-0.7-0.3-1.5-0.1-2,0.4c-0.5,0.5-0.7,1.3-0.4,2c0.3,0.7,1,1.1,1.7,1.1
	c0.5,0,1-0.2,1.3-0.5C120.7,46.8,120.9,46.4,120.9,45.9z"/>
<path class="st0" d="M120.2,51c0-0.8-0.5-1.5-1.2-1.8c-0.7-0.3-1.6-0.1-2.2,0.4c-0.6,0.6-0.7,1.4-0.4,2.2c0.3,0.7,1,1.2,1.8,1.2
	C119.3,53,120.2,52.1,120.2,51z"/>
<path class="st0" d="M118.9,56c0-0.9-0.5-1.6-1.3-2c-0.8-0.3-1.7-0.1-2.3,0.5c-0.6,0.6-0.8,1.5-0.5,2.3c0.3,0.8,1.1,1.3,2,1.3
	C118,58.1,118.9,57.2,118.9,56z"/>
<path class="st0" d="M114.8,58.5c-1.2,0-2.3,1-2.3,2.3s1,2.3,2.3,2.3c1.2,0,2.3-1,2.3-2.3c0-0.6-0.2-1.2-0.7-1.6
	C115.9,58.7,115.4,58.5,114.8,58.5z"/>
<path class="st0" d="M45.8,12.7c0.1,0,0.1-0.1,0.1-0.1c0-0.1,0-0.1-0.1-0.1c0,0-0.1,0-0.1,0c0,0-0.1,0.1-0.1,0.1c0,0,0,0.1,0,0.1
	S45.8,12.7,45.8,12.7z"/>
<path class="st0" d="M50.4,10.4c0.2,0,0.3-0.1,0.3-0.3c0-0.2-0.1-0.3-0.3-0.3c-0.2,0-0.3,0.1-0.3,0.3C50.1,10.3,50.2,10.4,50.4,10.4
	z"/>
<path class="st0" d="M55.2,8.7c0.2,0,0.3-0.1,0.4-0.3c0.1-0.2,0-0.3-0.1-0.5c-0.1-0.1-0.3-0.2-0.5-0.1c-0.2,0.1-0.3,0.2-0.3,0.4
	C54.8,8.5,55,8.7,55.2,8.7z"/>
<path class="st0" d="M60.2,7.4c0.3,0,0.6-0.3,0.6-0.6c0-0.3-0.3-0.6-0.6-0.6c-0.3,0-0.6,0.3-0.6,0.6c0,0.2,0.1,0.3,0.2,0.4
	C59.9,7.3,60,7.4,60.2,7.4z"/>
<path class="st0" d="M65.3,6.7C65.7,6.7,66,6.4,66,6c0-0.4-0.3-0.7-0.7-0.7c-0.4,0-0.7,0.3-0.7,0.7c0,0.2,0.1,0.4,0.2,0.5
	C64.9,6.6,65.1,6.7,65.3,6.7z"/>
<path class="st0" d="M70.5,6.5c0.5,0,0.8-0.4,0.8-0.9c0-0.5-0.4-0.8-0.8-0.8c-0.5,0-0.8,0.4-0.8,0.8c0,0.2,0.1,0.4,0.2,0.6
	C70,6.4,70.2,6.5,70.5,6.5z"/>
<path class="st0" d="M75.6,6.9c0.4,0,0.8-0.2,0.9-0.6c0.2-0.4,0.1-0.8-0.2-1.1C76,4.9,75.6,4.8,75.2,5c-0.4,0.2-0.6,0.5-0.6,0.9
	c0,0.3,0.1,0.5,0.3,0.7C75.1,6.8,75.4,6.9,75.6,6.9z"/>
<path class="st0" d="M80.7,7.8c0.5,0,0.9-0.3,1-0.7c0.2-0.4,0.1-0.9-0.2-1.2c-0.3-0.3-0.8-0.4-1.2-0.2c-0.4,0.2-0.7,0.6-0.7,1
	c0,0.3,0.1,0.6,0.3,0.8C80.2,7.7,80.4,7.8,80.7,7.8z"/>
<path class="st0" d="M85.7,9.3c0.7,0,1.3-0.6,1.3-1.3c0-0.7-0.6-1.3-1.3-1.3c-0.7,0-1.3,0.6-1.3,1.3C84.5,8.8,85,9.3,85.7,9.3z"/>
<path class="st0" d="M90.5,11.6c0.6,0,1.1-0.3,1.3-0.9c0.2-0.5,0.1-1.1-0.3-1.5c-0.4-0.4-1-0.5-1.5-0.3c-0.5,0.2-0.9,0.7-0.9,1.3
	c0,0.4,0.1,0.7,0.4,1C89.7,11.4,90.1,11.6,90.5,11.6z"/>
<path class="st0" d="M93.4,12.8c0,0.6,0.4,1.2,1,1.4c0.6,0.2,1.2,0.1,1.7-0.3c0.4-0.4,0.6-1.1,0.3-1.7c-0.2-0.6-0.8-1-1.4-1
	C94.1,11.3,93.4,12,93.4,12.8L93.4,12.8z"/>
<path class="st0" d="M99,17.7c0.9,0,1.7-0.8,1.7-1.7c0-0.9-0.8-1.7-1.7-1.7c-0.9,0-1.7,0.8-1.7,1.7c0,0.5,0.2,0.9,0.5,1.2
	C98.1,17.6,98.5,17.7,99,17.7z"/>
<path class="st0" d="M102.6,21.6c0.7,0,1.4-0.4,1.7-1.1c0.3-0.7,0.1-1.5-0.4-2c-0.5-0.5-1.3-0.7-2-0.4c-0.7,0.3-1.1,1-1.1,1.7
	C100.7,20.8,101.6,21.6,102.6,21.6z"/>
<path class="st0" d="M105.6,22c-1.1,0-2,0.9-2,2c0,1.1,0.9,2,2,2c1.1,0,2-0.9,2-2c0-0.5-0.2-1-0.6-1.4C106.7,22.2,106.2,22,105.6,22
	z"/>
<path class="st0" d="M106,28.5c0,1.2,0.9,2.1,2.1,2.1s2.1-0.9,2.1-2.1c0-1.2-0.9-2.1-2.1-2.1c-0.6,0-1.1,0.2-1.5,0.6
	C106.3,27.4,106,27.9,106,28.5z"/>
<path class="st0" d="M107.8,33.3c0,1.2,1,2.3,2.3,2.3c1.2,0,2.3-1,2.3-2.3c0-1.2-1-2.3-2.3-2.3C108.8,31,107.8,32,107.8,33.3z"/>
<path class="st0" d="M111.3,35.9c-1.3,0-2.4,1.1-2.4,2.4c0,1.3,1.1,2.4,2.4,2.4c1.3,0,2.4-1.1,2.4-2.4
	C113.7,37,112.6,35.9,111.3,35.9L111.3,35.9z"/>
<path class="st0" d="M27.2,47.8c-0.1,0-0.2,0-0.2,0.1c0,0.1,0,0.2,0,0.3c0,0.1,0.1,0.1,0.2,0.1c0.1,0,0.3-0.1,0.3-0.3
	S27.4,47.8,27.2,47.8z"/>
<path class="st0" d="M28.8,42.6c-0.2,0-0.4,0.1-0.5,0.3c-0.1,0.2,0,0.4,0.1,0.6c0.2,0.2,0.4,0.2,0.6,0.1c0.2-0.1,0.3-0.3,0.3-0.5
	C29.3,42.8,29.1,42.6,28.8,42.6z"/>
<path class="st0" d="M31.6,38.3c0-0.4-0.4-0.8-0.8-0.8c-0.4,0-0.8,0.4-0.8,0.8c0,0.4,0.4,0.8,0.8,0.8C31.3,39.1,31.6,38.8,31.6,38.3
	z"/>
<path class="st0" d="M33.4,34.9c0.6,0,1.1-0.5,1.1-1.1c0-0.6-0.5-1.1-1.1-1.1c-0.6,0-1.1,0.5-1.1,1.1C32.3,34.4,32.8,34.9,33.4,34.9
	z"/>
<path class="st0" d="M36.4,30.9c0.5,0,1-0.3,1.2-0.8c0.2-0.5,0.1-1.1-0.3-1.5c-0.4-0.4-1-0.5-1.5-0.3c-0.5,0.2-0.8,0.7-0.8,1.2
	c0,0.4,0.1,0.7,0.4,0.9C35.7,30.8,36,30.9,36.4,30.9z"/>
<path class="st0" d="M39.8,27.3c0.6,0,1.2-0.4,1.5-1c0.2-0.6,0.1-1.3-0.3-1.7s-1.1-0.6-1.7-0.3s-1,0.8-1,1.5c0,0.4,0.2,0.8,0.5,1.1
	C39,27.1,39.4,27.3,39.8,27.3z"/>
<path class="st0" d="M43.6,24.1c0.8,0,1.4-0.5,1.7-1.2c0.3-0.7,0.1-1.5-0.4-2c-0.5-0.5-1.3-0.7-2-0.4c-0.7,0.3-1.2,1-1.2,1.7
	c0,0.5,0.2,1,0.5,1.3C42.7,23.9,43.1,24.1,43.6,24.1z"/>
<path class="st0" d="M47.8,21.3c0.9,0,1.6-0.5,2-1.3c0.3-0.8,0.2-1.7-0.5-2.3c-0.6-0.6-1.5-0.8-2.3-0.5c-0.8,0.3-1.3,1.1-1.3,2
	C45.7,20.3,46.6,21.2,47.8,21.3z"/>
<path class="st0" d="M52.3,19c1.3,0,2.4-1.1,2.4-2.4c0-1.3-1.1-2.4-2.4-2.4c-1.3,0-2.4,1.1-2.4,2.4c0,0.6,0.3,1.2,0.7,1.7
	C51,18.7,51.7,19,52.3,19z"/>
<path class="st0" d="M57.1,17.3c1.3,0,2.4-1,2.6-2.3c0.6,0.8,1.6,1.3,2.6,1.2c1-0.1,1.9-0.7,2.4-1.6c0.6,0.8,1.4,1.2,2.4,1.3
	c0.9,0,1.9-0.3,2.5-1c1.1,1.6,3.2,1.9,4.8,0.8c0.1,0.2,0.3,0.4,0.4,0.6c-0.9,0.1-1.7,0.5-2.3,1c-0.8-0.7-1.8-1.1-2.9-1
	c-1,0.1-2,0.7-2.6,1.5c-0.6-0.5-1.4-0.7-2.2-0.7c-1.4,0-2.6,0.8-3.2,2c-0.9-0.6-2-0.7-3.1-0.3c-1,0.4-1.8,1.3-2,2.3
	c-1-0.6-2.1-0.6-3.1-0.1c-1,0.5-1.6,1.6-1.6,2.7v0c-0.9-0.5-2-0.5-2.9,0c-0.9,0.5-1.4,1.5-1.4,2.5c0,0.3,0,0.5,0.1,0.8
	c-0.4-0.3-0.9-0.4-1.4-0.4c-1.5,0-2.7,1.2-2.7,2.7c0,1.5,1.2,2.7,2.7,2.7c1.5,0,2.7-1.2,2.7-2.7c0-0.2,0-0.4-0.1-0.7
	c0.9,0.6,2,0.6,2.9,0.1c0.9-0.5,1.5-1.4,1.6-2.5c0.5,0.3,1.1,0.5,1.7,0.5c0.1,0,0.1,0,0.2,0c-0.7,0.6-1.1,1.4-1.1,2.3
	c-1-0.2-2,0.1-2.8,0.7c-0.8,0.6-1.2,1.6-1.2,2.6c0,0.1,0,0.3,0,0.4c-0.1,0-0.2,0-0.4,0c-1.8,0-3.2,1.4-3.2,3.2c0,0.3,0.1,0.7,0.2,1
	c-0.1,0-0.1,0-0.2,0c-1.1,0-2.1,0.6-2.7,1.6c-0.5,1-0.5,2.1,0.1,3.1c0,0-0.1,0-0.1,0c-1.2,0-2.2,0.7-2.7,1.8
	c-0.4,1.1-0.1,2.3,0.7,3.1c0,0-0.1,0-0.1,0c-1.3,0-2.4,0.9-2.6,2.2c-0.3,1.3,0.4,2.5,1.6,3c1.2,0.5,2.6,0.1,3.3-1
	c0.7-1.1,0.6-2.5-0.4-3.4c0.1,0,0.1,0,0.2,0c0.8,0,1.6-0.3,2.1-0.9c0,0,0,0.1,0,0.1c0,0.7,0.2,1.4,0.6,2c-1.1,0.4-1.8,1.3-2,2.4
	c-0.2,1.1,0.2,2.2,1.1,3c-1,0.5-1.7,1.5-1.7,2.6c0,1.1,0.6,2.2,1.6,2.7c-1.1,0.5-1.7,1.7-1.5,2.9c0.1,1.2,1,2.2,2.2,2.4
	c-1.1,0.6-1.7,1.8-1.4,3c0.3,1.2,1.4,2.1,2.6,2.1c0.2,0,0.3,0,0.5,0c-1.2,0.4-1.9,1.7-1.6,3c0.3,1.3,1.5,2.1,2.8,1.9
	c1.3-0.2,2.2-1.4,2.1-2.7c-0.1-1.3-1.2-2.3-2.5-2.3c-0.2,0-0.3,0-0.5,0c1.1-0.3,1.9-1.4,1.9-2.5c0-0.1,0-0.1,0-0.2
	c0.4,0.5,1,0.8,1.6,0.9c-0.7,0.9-0.9,2.1-0.4,3.2c0.5,1,1.5,1.7,2.7,1.7c0,0,0,0,0.1,0c-0.6,0.9-0.7,2-0.2,2.9
	c0.5,0.9,1.5,1.5,2.5,1.5c0.3,0,0.6,0,0.8-0.1c-0.5,0.8-0.6,1.9-0.1,2.8c0.5,0.9,1.4,1.4,2.4,1.4c0.6,0,1.2-0.2,1.7-0.6
	c-0.9,1-0.8,2.6,0.2,3.5c1,0.9,2.6,0.9,3.5-0.1c1-1,1-2.5,0-3.5c0.3,0,0.7-0.1,1-0.2v0c0,1.2,0.7,2.2,1.7,2.8c-0.2,0-0.3,0-0.5,0
	c-1.2,0-2.3,0.9-2.4,2.1c-0.2,1.2,0.6,2.4,1.8,2.7c1.2,0.3,2.4-0.3,2.9-1.5c0.4-1.1,0-2.4-1.1-3c0.2,0.1,0.5,0.1,0.7,0.1
	c0.6,0,1.1-0.2,1.6-0.5c0.1,1.2,0.9,2.2,2,2.6c1.1,0.4,2.3,0.1,3.1-0.7c0.2,1.2,1.1,2.1,2.3,2.3c1.2,0.2,2.4-0.4,3-1.5
	c0.3,1.3,1.4,2.2,2.7,2.1s2.4-1.1,2.5-2.4c0.1,1.4,1.3,2.4,2.6,2.4c1.4-0.1,2.4-1.2,2.4-2.6c0-1.4-1.1-2.5-2.5-2.5
	c0.2-0.2,0.4-0.5,0.6-0.8c0.8,0.8,2,1.1,3.2,0.8c-1,0.7-1.3,2-0.8,3c0.5,1.1,1.7,1.6,2.9,1.3c1.1-0.3,1.8-1.5,1.7-2.7
	c-0.2-1.2-1.2-2-2.4-2c-0.2,0-0.5,0-0.7,0.1c0.7-0.4,1.2-1.1,1.4-2c0.5,0.5,1.2,0.7,1.9,0.7c1.6,0,3-1.3,3-3c0,0,0,0,0-0.1
	c0.5,0.4,1.1,0.5,1.7,0.5c0.7,0,1.5-0.3,2-0.8s0.8-1.2,0.8-2c0-0.3,0-0.6-0.1-0.8c1.1,0.7,2.6,0.6,3.5-0.4c0.9-1,0.9-2.5,0.1-3.5
	c0.5,0.4,1,0.6,1.6,0.6c0.9,0,1.8-0.5,2.2-1.3c0.5-0.8,0.5-1.8,0-2.6c-0.5-0.8-1.3-1.3-2.2-1.3c-0.7,0-1.3,0.3-1.8,0.7
	c0-0.3-0.1-0.7-0.2-1h0c1.2,0,2.2-0.7,2.8-1.7c0,0.2,0,0.3,0,0.5c0,1.2,0.9,2.3,2.1,2.4c1.2,0.2,2.4-0.6,2.7-1.8
	c0.3-1.2-0.3-2.4-1.5-2.9c-1.1-0.5-2.4,0-3,1.1c0.1-0.2,0.1-0.5,0.1-0.7c0-0.6-0.2-1.2-0.5-1.6c1.2-0.1,2.2-0.9,2.5-2
	c0.4-1.1,0.1-2.3-0.7-3.1c1.2-0.2,2.1-1.1,2.3-2.3c0.2-1.2-0.4-2.4-1.5-3c1.3-0.3,2.2-1.4,2.1-2.8c-0.1-1.3-1.1-2.4-2.4-2.5
	c1.4-0.1,2.4-1.2,2.4-2.6c0-1.4-1.1-2.5-2.5-2.5c-1.4,0-2.5,1-2.6,2.4c-0.1,1.4,0.9,2.6,2.3,2.7c-1.2,0.1-2.2,0.9-2.4,2.1
	c-0.3,1.2,0.3,2.4,1.3,2.9c-1,0.2-1.9,0.9-2.2,1.9c-0.3,1-0.1,2.1,0.7,2.8c-1,0.1-1.8,0.7-2.3,1.6c-0.4,0.9-0.4,1.9,0.1,2.8
	c-1.6,0.1-2.9,1.5-2.9,3.1c0,0.3,0,0.6,0.1,0.9c0,0-0.1,0-0.1,0c-1.8,0-3.2,1.5-3.2,3.3c0,0.1,0,0.2,0,0.2c-0.2,0-0.3,0-0.5,0
	c-1.7,0-3.1,1.2-3.3,2.9c-0.3-0.1-0.6-0.1-0.9-0.1c-1.4,0-2.6,0.8-3.2,2c-0.7-0.6-1.7-0.8-2.7-0.6c-0.9,0.2-1.7,0.9-2.1,1.8
	c-0.7-0.7-1.7-1.1-2.7-1c-1,0.1-1.9,0.7-2.3,1.6c-0.6-0.7-1.4-1.1-2.3-1.2c-0.9,0-1.8,0.3-2.4,1c-0.4-0.8-1.1-1.5-2-1.7
	c-0.9-0.2-1.9-0.1-2.6,0.5c-0.2-0.9-0.8-1.7-1.6-2.1c-0.8-0.4-1.8-0.4-2.7-0.1c0-0.9-0.4-1.7-1.1-2.3c-0.7-0.6-1.6-0.8-2.5-0.7
	c0.2-0.9,0-1.9-0.6-2.6c-0.6-0.7-1.5-1.2-2.4-1.2c0.4-0.8,0.3-1.8,0-2.6c-0.4-0.8-1.1-1.4-2-1.7c0.5-0.7,0.8-1.6,0.6-2.5
	c-0.2-0.9-0.7-1.6-1.5-2.1c0.7-0.6,1.2-1.4,1.2-2.4c0-0.9-0.4-1.8-1.1-2.4c0.8-0.4,1.4-1.2,1.6-2c0.2-0.9,0-1.8-0.5-2.5
	c0.9-0.2,1.6-0.8,2-1.5c0.4-0.8,0.5-1.7,0.2-2.5c0.9,0,1.8-0.3,2.5-1c0.6-0.7,0.9-1.6,0.8-2.6c0.9,0.2,1.8,0,2.5-0.5
	c0.7-0.5,1.2-1.3,1.3-2.3c0.8,0.4,1.7,0.5,2.6,0.1c0.8-0.3,1.5-1,1.8-1.8c0.6,0.6,1.5,0.9,2.4,0.8h0c1-0.1,1.8-0.6,2.3-1.4
	c0.5,0.7,1.3,1.2,2.3,1.3c0.9,0.1,1.8-0.2,2.5-0.9c0.3,0.9,1.1,1.5,2,1.8c0.9,0.3,1.9,0.1,2.6-0.4c0.2,0.9,0.7,1.7,1.6,2.2h0
	c0.7,0.4,1.5,0.5,2.2,0.3c0.1,0.1,0.2,0.2,0.3,0.3c0,0.7,0.3,1.3,0.8,1.9c0,0,0,0,0.1,0.1c1.6,1.7,5.3,5.7,4.6,11.1
	c-0.2,1.3,0.6,2,1.5,1c5.8-6.3,4.9-14.1,4.8-15c0-0.6-0.2-1.1-0.4-1.7c0.1-0.3,0.1-0.7,0.1-1c0-1.6-0.7-3-2-4
	c0.1-0.3,0.1-0.6,0.1-0.9c0-2-1.2-3.7-3-4.5c0-2.2-1.7-4.1-3.9-4.4c-0.4-2.1-2.2-3.6-4.3-3.6c-0.1,0-0.2,0-0.2,0
	c-0.6-1.7-2.1-2.9-3.9-2.9c-0.4,0-0.7,0-1,0.1c-0.4-1-1.2-1.7-2.2-2.1c-1-0.4-2.1-0.3-3,0.2c-0.5-0.9-1.5-1.6-2.5-1.8
	c-1.1-0.2-2.1,0.1-3,0.7c-0.6-0.9-1.6-1.4-2.7-1.4s-2.1,0.5-2.8,1.3c-0.7-0.9-1.8-1.3-2.9-1.2c-1.1,0.1-2,0.8-2.5,1.9
	c-0.8-0.9-2-1.3-3.1-0.9c-1.1,0.3-1.9,1.3-2.1,2.5c-0.8-1-2.1-1.3-3.2-0.8c-1.1,0.5-1.7,1.8-1.5,3C54.8,16.4,55.8,17.3,57.1,17.3
	L57.1,17.3z"/>
<path class="st0" d="M39.2,86.1c-0.1,0-0.2,0.1-0.2,0.2c0,0.1,0.1,0.2,0.2,0.2c0.1,0,0.2-0.1,0.2-0.2C39.4,86.2,39.3,86.1,39.2,86.1
	z"/>
<path class="st0" d="M36.8,81.3c-0.1,0-0.2,0-0.3,0.1c-0.1,0.1-0.1,0.2-0.1,0.3c0,0.2,0.2,0.4,0.4,0.4c0.2,0,0.4-0.2,0.4-0.4
	c0-0.1,0-0.2-0.1-0.3C37,81.3,36.9,81.3,36.8,81.3z"/>
<path class="st0" d="M34.9,76.2c-0.3,0-0.6,0.3-0.6,0.6c0,0.3,0.3,0.6,0.6,0.6c0.3,0,0.6-0.3,0.6-0.6C35.5,76.5,35.2,76.2,34.9,76.2
	z"/>
<path class="st0" d="M33.5,71c-0.5,0-0.8,0.4-0.8,0.8c0,0.5,0.4,0.8,0.8,0.8c0.5,0,0.8-0.4,0.8-0.8c0-0.2-0.1-0.4-0.2-0.6
	C33.9,71.1,33.7,71,33.5,71z"/>
<path class="st0" d="M33.6,66.8c0-0.4-0.2-0.8-0.6-1c-0.4-0.2-0.8-0.1-1.1,0.2c-0.3,0.3-0.4,0.7-0.2,1.1c0.2,0.4,0.5,0.6,1,0.6
	C33.2,67.8,33.6,67.3,33.6,66.8z"/>
<path class="st0" d="M33.5,61.6c0-0.7-0.6-1.2-1.2-1.2c-0.7,0-1.2,0.6-1.2,1.2c0,0.7,0.6,1.2,1.2,1.2c0.3,0,0.6-0.1,0.9-0.4
	C33.4,62.2,33.5,61.9,33.5,61.6z"/>
<path class="st0" d="M31.1,56.4c0,0.8,0.6,1.4,1.4,1.4c0.8,0,1.4-0.6,1.4-1.4c0-0.8-0.6-1.4-1.4-1.4c-0.4,0-0.8,0.2-1,0.4
	C31.2,55.6,31.1,56,31.1,56.4z"/>
<path class="st0" d="M33.3,52.9c0.9,0,1.6-0.7,1.6-1.7c0-0.9-0.7-1.6-1.6-1.6c-0.9,0-1.6,0.7-1.6,1.6c0,0.4,0.2,0.9,0.5,1.2
	C32.4,52.7,32.9,52.9,33.3,52.9z"/>
<path class="st0" d="M34.7,44.4c-0.8,0-1.4,0.5-1.7,1.1c-0.3,0.7-0.1,1.5,0.4,2c0.5,0.5,1.3,0.7,2,0.4c0.7-0.3,1.1-1,1.1-1.7
	C36.6,45.3,35.7,44.4,34.7,44.4z"/>
<path class="st0" d="M36.8,43.6c0.8,0,1.6-0.5,1.9-1.3c0.3-0.8,0.1-1.7-0.4-2.3c-0.6-0.6-1.5-0.8-2.2-0.4c-0.8,0.3-1.3,1.1-1.3,1.9
	C34.7,42.7,35.6,43.6,36.8,43.6z"/>
<path class="st0" d="M39.4,39.4c1.3,0,2.3-1,2.3-2.3c0-1.3-1-2.3-2.3-2.3c-1.3,0-2.3,1-2.3,2.3c0,0.6,0.2,1.2,0.7,1.6
	C38.3,39.1,38.8,39.4,39.4,39.4z"/>
<path class="st0" d="M45.1,33c0-1-0.6-1.9-1.5-2.3c-0.9-0.4-2-0.2-2.7,0.5C40.2,32,40,33,40.4,34c0.4,0.9,1.3,1.5,2.3,1.5
	C44,35.5,45.1,34.4,45.1,33z"/>
<path class="st0" d="M9,137c-1.2,0-2.4-0.2-3.5-0.7c-1.1-0.5-2-1.1-2.9-1.9c-0.8-0.8-1.5-1.8-1.9-2.9c-0.9-2.3-0.9-4.8,0-7.1
	c0.9-2.2,2.6-3.9,4.8-4.9c2.3-1,4.8-1,7.1,0c1.1,0.5,2.1,1.2,2.9,2c0.2,0.2,0.3,0.4,0.4,0.7c0.1,0.3,0.1,0.6-0.1,0.9
	c-0.2,0.3-0.5,0.5-0.9,0.5h0c-0.4,0-0.7-0.1-1-0.4c-0.7-0.6-1.4-1.1-2.2-1.5c-0.8-0.4-1.7-0.7-2.7-0.7c-0.9,0-1.8,0.2-2.6,0.5
	c-0.8,0.3-1.5,0.8-2.1,1.5c-0.6,0.6-1.1,1.4-1.4,2.2c-0.7,1.7-0.7,3.6,0,5.2c0.7,1.6,1.9,2.9,3.5,3.6c0.8,0.4,1.7,0.5,2.6,0.5
	c0.9,0,1.9-0.2,2.7-0.6c0.8-0.4,1.6-0.9,2.2-1.6c0.2-0.2,0.4-0.4,0.7-0.4c0.1,0,0.2,0,0.3,0c0.2,0,0.4,0.1,0.6,0.2
	c0.3,0.2,0.4,0.6,0.4,0.9c0,0.4-0.1,0.7-0.3,0.9c-0.8,0.9-1.8,1.6-2.9,2.1C11.5,136.7,10.2,137,9,137z"/>
<path class="st2" d="M24.3,136.2c1.1,0.5,2.3,0.7,3.5,0.7c1.2,0,2.4-0.2,3.5-0.7c1.1-0.5,2-1.1,2.9-1.9c0.8-0.8,1.5-1.8,1.9-2.9
	c0.9-2.3,0.9-4.8,0-7.1c-0.9-2.2-2.6-3.9-4.8-4.8c-2.2-0.9-4.8-0.9-7,0c-1.1,0.5-2,1.1-2.8,1.9c-0.8,0.8-1.5,1.8-1.9,2.9
	c-0.9,2.3-0.9,4.8,0,7.1C20.4,133.6,22.1,135.3,24.3,136.2z M25.2,121.7c0.8-0.3,1.7-0.5,2.6-0.5l0,0c0.9,0,1.8,0.2,2.6,0.5
	c0.8,0.3,1.5,0.8,2.1,1.4c0.6,0.6,1.1,1.4,1.4,2.2c1,2.5,0.5,5.4-1.4,7.4c-0.6,0.6-1.3,1.1-2.1,1.4c-3.4,1.4-7.3-0.2-8.7-3.6
	c-0.7-1.7-0.7-3.6,0-5.2c0.3-0.8,0.8-1.5,1.4-2.2C23.7,122.5,24.4,122,25.2,121.7z"/>
<path class="st0" d="M52.7,137c-0.3,0-0.6-0.1-0.8-0.3c-0.2-0.2-0.3-0.5-0.3-0.8v-10.4c0-0.6-0.1-1.2-0.3-1.7
	c-0.5-1.1-1.3-1.9-2.3-2.3c-1.1-0.5-2.3-0.5-3.3,0c-0.5,0.2-1,0.5-1.4,0.9c-0.4,0.4-0.7,0.9-0.9,1.4c-0.2,0.5-0.3,1.1-0.3,1.7v10.4
	c0,0.6-0.5,1.2-1.2,1.2s-1.2-0.5-1.2-1.2v-10.4c0-0.9,0.2-1.8,0.5-2.6c0.3-0.8,0.8-1.5,1.4-2.1c0.6-0.6,1.3-1.1,2.1-1.4
	c1.7-0.7,3.5-0.7,5.2,0c1.6,0.7,2.9,2,3.5,3.6c0.4,0.8,0.5,1.7,0.5,2.6v10.4c0,0.3-0.1,0.6-0.3,0.8C53.3,136.9,53,137,52.7,137z"/>
<path class="st0" d="M64.1,137c-0.9,0-1.7-0.1-2.5-0.4c-0.8-0.3-1.4-0.7-2.1-1.2c-0.6-0.5-1.1-1.1-1.4-1.8c-0.3-0.7-0.5-1.4-0.5-2.2
	c0-0.6,0.5-1.1,1.1-1.1c0.6,0,1.1,0.5,1.1,1.1c0,0.5,0.1,0.9,0.3,1.3c0.2,0.4,0.5,0.8,0.9,1.1c0.4,0.3,0.9,0.6,1.4,0.7
	c0.5,0.2,1.1,0.3,1.7,0.3c0.6,0,1.2-0.1,1.7-0.3c0.5-0.2,1-0.4,1.4-0.7c0.4-0.3,0.7-0.6,0.9-1.1c0.2-0.4,0.3-0.8,0.3-1.3
	c0-0.4-0.2-0.8-0.4-1.2c-0.2-0.4-0.6-0.7-0.9-1c-0.4-0.3-0.8-0.6-1.3-0.7c-0.5-0.2-1-0.3-1.5-0.4c-0.8-0.1-1.5-0.2-2.2-0.5
	c-0.7-0.2-1.3-0.6-1.9-1c-0.5-0.4-1-0.9-1.3-1.4c-0.3-0.5-0.5-1.2-0.5-1.8c0-0.6,0.2-1.3,0.5-1.8c0.3-0.6,0.8-1.1,1.3-1.5
	c0.6-0.4,1.2-0.8,1.9-1c1.5-0.5,3.2-0.5,4.7,0c0.7,0.2,1.3,0.6,1.9,1c0.5,0.4,1,0.9,1.3,1.5c0.3,0.6,0.5,1.2,0.5,1.8
	c0,0.3-0.1,0.6-0.3,0.8c-0.2,0.2-0.5,0.3-0.8,0.3c-0.3,0-0.6-0.1-0.8-0.4c-0.2-0.2-0.3-0.5-0.3-0.9c0-0.3-0.1-0.6-0.3-0.8
	c-0.2-0.3-0.5-0.5-0.8-0.7c-0.4-0.2-0.8-0.4-1.2-0.5c-0.5-0.1-1-0.2-1.5-0.2c-0.5,0-1,0.1-1.5,0.2c-0.4,0.1-0.8,0.3-1.2,0.5
	c-0.3,0.2-0.6,0.5-0.8,0.8c-0.2,0.3-0.3,0.6-0.3,0.9c0,0.3,0.1,0.5,0.3,0.8c0.3,0.3,0.6,0.5,0.9,0.7c0.4,0.2,0.8,0.4,1.3,0.5
	c0.4,0.1,0.9,0.2,1.3,0.3c0.8,0.1,1.7,0.3,2.4,0.6c0.7,0.3,1.4,0.7,2,1.2c0.6,0.5,1,1.1,1.4,1.7c0.3,0.7,0.5,1.4,0.5,2.1
	c0,0.8-0.2,1.5-0.5,2.2c-0.3,0.7-0.8,1.3-1.4,1.8C67.3,136.4,65.7,137,64.1,137L64.1,137z"/>
<path class="st0" d="M75.7,137c-0.3,0-0.6-0.1-0.8-0.3c-0.2-0.2-0.3-0.5-0.3-0.8v-15.9c0-0.3,0.1-0.6,0.3-0.8
	c0.2-0.2,0.5-0.3,0.8-0.3h9.6c0.3,0,0.6,0.1,0.8,0.3c0.2,0.2,0.3,0.5,0.3,0.8c0,0.3-0.1,0.6-0.3,0.8c-0.2,0.2-0.5,0.3-0.8,0.3h-8.5
	v5.6h6c0.6,0,1.2,0.5,1.2,1.2s-0.5,1.2-1.2,1.2h-6v5.7h8.5c0.3,0,0.6,0.1,0.8,0.3c0.2,0.2,0.3,0.5,0.3,0.8c0,0.3-0.1,0.6-0.3,0.8
	c-0.2,0.2-0.5,0.3-0.8,0.3H75.7z"/>
<path class="st0" d="M101.8,137c-0.3,0-0.6-0.1-0.8-0.3c-0.2-0.2-0.3-0.5-0.3-0.8v-10.4c0-0.6-0.1-1.2-0.3-1.7
	c-0.5-1.1-1.3-1.9-2.3-2.3c-1.1-0.5-2.3-0.5-3.3,0c-0.5,0.2-1,0.5-1.4,0.9c-0.4,0.4-0.7,0.9-0.9,1.4c-0.2,0.5-0.3,1.1-0.3,1.7v10.4
	c0,0.3-0.1,0.6-0.3,0.8c-0.2,0.2-0.5,0.3-0.8,0.3c-0.3,0-0.6-0.1-0.8-0.3c-0.2-0.2-0.3-0.5-0.3-0.8v-10.4c0-2.7,1.6-5.1,4-6.2
	c1.7-0.7,3.5-0.7,5.2,0c0.8,0.3,1.5,0.8,2.1,1.4c0.6,0.6,1.1,1.3,1.4,2.1c0.4,0.8,0.5,1.7,0.5,2.6v10.4c0,0.3-0.1,0.6-0.3,0.8
	C102.4,136.9,102.1,137,101.8,137L101.8,137z"/>
<path class="st0" d="M113.2,137c-0.9,0-1.7-0.1-2.5-0.4c-0.8-0.3-1.5-0.7-2.1-1.2c-0.6-0.5-1.1-1.1-1.4-1.8
	c-0.3-0.7-0.5-1.4-0.5-2.2c0-0.3,0.1-0.6,0.3-0.8c0.3-0.3,0.8-0.4,1.2-0.2c0.4,0.2,0.7,0.6,0.7,1c0,0.5,0.1,0.9,0.3,1.3
	c0.2,0.4,0.5,0.8,0.9,1.1c0.4,0.3,0.9,0.6,1.4,0.7c0.5,0.2,1.1,0.3,1.7,0.3c0.6,0,1.2-0.1,1.7-0.3c0.5-0.2,1-0.4,1.4-0.7
	c0.4-0.3,0.7-0.6,0.9-1.1c0.2-0.4,0.3-0.8,0.3-1.3c0-0.4-0.2-0.8-0.4-1.2c-0.2-0.4-0.6-0.7-0.9-1c-0.4-0.3-0.8-0.6-1.3-0.7
	c-0.5-0.2-1-0.3-1.6-0.4c-0.8-0.1-1.5-0.2-2.2-0.5c-0.7-0.2-1.3-0.5-1.9-1c-0.5-0.4-1-0.9-1.3-1.4c-0.3-0.5-0.5-1.2-0.5-1.8
	c0-0.6,0.2-1.3,0.5-1.8c0.3-0.6,0.8-1.1,1.3-1.5c0.6-0.4,1.2-0.8,1.9-1c1.5-0.5,3.2-0.5,4.7,0c0.7,0.2,1.3,0.6,1.9,1
	c0.5,0.4,1,0.9,1.3,1.5c0.3,0.6,0.5,1.2,0.5,1.8c0,0.3-0.1,0.6-0.3,0.8c-0.2,0.2-0.5,0.3-0.8,0.3c-0.3,0-0.6-0.1-0.8-0.4
	c-0.2-0.2-0.3-0.5-0.3-0.9c0-0.3-0.1-0.6-0.3-0.8c-0.2-0.3-0.5-0.5-0.8-0.7c-0.4-0.2-0.8-0.4-1.2-0.5c-0.5-0.1-1-0.2-1.5-0.2
	c-0.5,0-1,0.1-1.5,0.2c-0.4,0.1-0.8,0.3-1.2,0.5c-0.3,0.2-0.6,0.5-0.8,0.8c-0.2,0.3-0.3,0.6-0.3,0.9c0,0.3,0.1,0.5,0.3,0.8
	c0.3,0.3,0.6,0.5,0.9,0.7c0.4,0.2,0.8,0.4,1.3,0.5c0.4,0.1,0.8,0.2,1.3,0.3c0.8,0.1,1.7,0.3,2.4,0.6c0.7,0.3,1.4,0.7,2,1.2
	c0.6,0.5,1,1,1.4,1.7c0.3,0.7,0.5,1.4,0.5,2.1c0,0.8-0.2,1.5-0.5,2.2c-0.3,0.7-0.8,1.3-1.4,1.8C116.4,136.4,114.8,137,113.2,137
	L113.2,137z"/>
<path class="st0" d="M130.6,137c-0.3,0-0.6-0.1-0.8-0.3c-0.2-0.2-0.3-0.5-0.3-0.8v-5.9l-7.1-9.3c-0.2-0.2-0.3-0.5-0.3-0.8
	c0-0.3,0.2-0.6,0.4-0.8c0.2-0.2,0.5-0.3,0.7-0.3c0.4,0,0.7,0.2,0.9,0.4l6.5,8.4l6.6-8.4c0.2-0.2,0.5-0.4,0.8-0.4h0
	c0.4,0,0.6,0.1,0.8,0.3c0.2,0.2,0.4,0.5,0.4,0.8c0,0.3-0.1,0.6-0.3,0.8l-7.3,9.3v5.9c0,0.3-0.1,0.6-0.3,0.8
	C131.2,136.9,130.9,137,130.6,137z"/>
<path class="st0" d="M148,137c-0.9,0-1.7-0.1-2.5-0.4c-0.8-0.3-1.4-0.7-2.1-1.2c-0.6-0.5-1.1-1.1-1.4-1.8c-0.3-0.7-0.5-1.4-0.5-2.2
	c0-0.4,0.3-0.9,0.7-1c0.4-0.2,0.9-0.1,1.2,0.2c0.2,0.2,0.3,0.5,0.3,0.8c0,0.5,0.1,0.9,0.3,1.3c0.2,0.4,0.5,0.8,0.9,1.1
	c0.4,0.3,0.9,0.6,1.4,0.7c0.5,0.2,1.1,0.3,1.7,0.3c0.6,0,1.2-0.1,1.7-0.3c0.5-0.2,1-0.4,1.4-0.7c0.4-0.3,0.7-0.6,0.9-1.1
	c0.2-0.4,0.3-0.8,0.3-1.3c0-0.4-0.2-0.8-0.4-1.2c-0.2-0.4-0.6-0.7-0.9-1c-0.4-0.3-0.8-0.6-1.3-0.7c-0.5-0.2-1-0.3-1.6-0.4
	c-0.8-0.1-1.5-0.2-2.2-0.5c-0.7-0.2-1.3-0.5-1.9-1c-0.5-0.4-1-0.9-1.3-1.4c-0.3-0.5-0.5-1.2-0.5-1.8c0-0.6,0.2-1.3,0.5-1.8
	c0.3-0.6,0.8-1.1,1.3-1.5c0.6-0.4,1.2-0.8,1.9-1c1.5-0.5,3.2-0.5,4.7,0c0.7,0.2,1.3,0.6,1.9,1c0.5,0.4,1,0.9,1.3,1.5
	c0.3,0.6,0.5,1.2,0.5,1.8c0,0.6-0.5,1.2-1.2,1.2c-0.3,0-0.6-0.1-0.8-0.4c-0.2-0.2-0.3-0.5-0.3-0.9c0-0.3-0.1-0.6-0.3-0.8
	c-0.2-0.3-0.5-0.5-0.8-0.7c-0.4-0.2-0.8-0.4-1.2-0.5c-0.5-0.1-1-0.2-1.5-0.2c-0.5,0-1,0.1-1.5,0.2c-0.4,0.1-0.8,0.3-1.2,0.5
	c-0.3,0.2-0.6,0.5-0.8,0.8c-0.2,0.3-0.3,0.6-0.3,0.9c0,0.3,0.1,0.5,0.3,0.8c0.3,0.3,0.6,0.5,0.9,0.7c0.4,0.2,0.8,0.4,1.3,0.5
	c0.4,0.1,0.8,0.2,1.3,0.3c0.8,0.1,1.7,0.3,2.4,0.6c0.7,0.3,1.4,0.7,2,1.2c0.6,0.5,1,1,1.4,1.7c0.3,0.7,0.5,1.4,0.5,2.1
	c0,0.8-0.2,1.5-0.5,2.2c-0.3,0.7-0.8,1.3-1.4,1.8C151.3,136.4,149.7,137,148,137L148,137z"/>
</svg>
