<svg width="155" height="138" viewBox="0 0 155 138" fill="none" xmlns="http://www.w3.org/2000/svg">
<path d="M74.6371 104.65C74.5394 104.651 74.4607 104.731 74.4609 104.828C74.4612 104.926 74.5403 105.005 74.638 105.006C74.7357 105.006 74.8151 104.927 74.8158 104.829C74.8159 104.782 74.7971 104.736 74.7636 104.703C74.73 104.669 74.6845 104.65 74.6371 104.65Z" fill="#251F31"/>
<path d="M69.6913 102.932C69.5968 102.931 69.5059 102.968 69.4391 103.035C69.3723 103.102 69.3351 103.193 69.336 103.287C69.336 103.484 69.495 103.643 69.6913 103.643C69.8875 103.643 70.0466 103.484 70.0466 103.287C70.0466 103.091 69.8875 102.932 69.6913 102.932Z" fill="#251F31"/>
<path d="M64.9364 100.702C64.6415 100.702 64.4023 100.942 64.4023 101.237C64.4023 101.532 64.6415 101.772 64.9364 101.772C65.2314 101.772 65.4705 101.532 65.4705 101.237C65.4705 100.942 65.2314 100.702 64.9364 100.702Z" fill="#251F31"/>
<path d="M60.4167 97.9815C60.0232 97.9835 59.7057 98.3041 59.707 98.698C59.7084 99.092 60.0281 99.4104 60.4216 99.4097C60.8151 99.4091 61.1337 99.0895 61.1337 98.6956C61.1341 98.5055 61.0585 98.3231 60.9239 98.189C60.7892 98.0548 60.6067 97.9801 60.4167 97.9815Z" fill="#251F31"/>
<path d="M56.2025 94.7998C55.8419 94.7996 55.5166 95.0169 55.3785 95.3504C55.2404 95.6839 55.3166 96.0678 55.5716 96.3231C55.8266 96.5784 56.2102 96.6547 56.5433 96.5164C56.8764 96.3782 57.0935 96.0526 57.0933 95.6916C57.0929 95.1992 56.6943 94.8002 56.2025 94.7998Z" fill="#251F31"/>
<path d="M52.3168 91.1885C51.7269 91.1899 51.2495 91.6693 51.25 92.2598C51.2505 92.8504 51.7286 93.3291 52.3185 93.3295C52.9084 93.33 53.3873 92.8521 53.3887 92.2615C53.3895 91.9767 53.2769 91.7033 53.0757 91.5019C52.8745 91.3004 52.6014 91.1877 52.3168 91.1885Z" fill="#251F31"/>
<path d="M48.8132 87.1895C48.1241 87.1902 47.5659 87.7498 47.5664 88.4397C47.5669 89.1296 48.1258 89.6885 48.8149 89.6883C49.504 89.688 50.0625 89.1287 50.0625 88.4389C50.0624 88.1073 49.9307 87.7894 49.6964 87.555C49.4621 87.3207 49.1444 87.1892 48.8132 87.1895Z" fill="#251F31"/>
<path d="M45.7462 82.835C44.9574 82.8353 44.3182 83.4757 44.3184 84.2653C44.3185 85.055 44.9579 85.6951 45.7467 85.6952C46.5355 85.6953 47.1751 85.0554 47.1755 84.2658C47.1757 83.8862 47.0252 83.5221 46.7571 83.2538C46.489 82.9854 46.1254 82.8347 45.7462 82.835Z" fill="#251F31"/>
<path d="M44.8272 79.7331C44.8269 78.8454 44.1078 78.1259 43.2211 78.126C42.3343 78.1261 41.6154 78.8457 41.6152 79.7334C41.6151 80.6212 42.3337 81.3411 43.2205 81.3414C44.1071 81.3397 44.8254 80.6207 44.8272 79.7331Z" fill="#251F31"/>
<path d="M43.1037 74.9086C43.1044 73.9217 42.3059 73.1211 41.3202 73.1201C40.3344 73.1191 39.5344 73.9182 39.5332 74.905C39.532 75.8919 40.3299 76.693 41.3157 76.6945C41.7894 76.695 42.2438 76.5072 42.5792 76.1723C42.9145 75.8373 43.1031 75.3828 43.1037 74.9086Z" fill="#251F31"/>
<path d="M42.0339 69.8788C42.0335 68.7935 41.1545 67.9139 40.0704 67.9141C38.9863 67.9142 38.1075 68.794 38.1074 69.8793C38.1073 70.9646 38.986 71.8445 40.0701 71.8448C41.1545 71.8444 42.0336 70.9644 42.0339 69.8788Z" fill="#251F31"/>
<path d="M41.6262 64.7313C41.6277 63.8638 41.1068 63.081 40.3067 62.7482C39.5065 62.4153 38.5849 62.598 37.9718 63.211C37.3588 63.8241 37.1752 64.7465 37.5068 65.5479C37.8384 66.3494 38.6198 66.8717 39.4863 66.8712C40.0537 66.8719 40.598 66.6468 40.9995 66.2454C41.4009 65.844 41.6264 65.2993 41.6262 64.7313Z" fill="#251F31"/>
<path d="M39.579 61.867C40.8589 61.8656 41.8956 60.8263 41.8951 59.545C41.8946 58.2637 40.8572 57.2251 39.5773 57.2246C38.2974 57.2241 37.2592 58.262 37.2578 59.5433C37.2571 60.1598 37.5014 60.7512 37.9369 61.1872C38.3723 61.6231 38.9632 61.8677 39.579 61.867Z" fill="#251F31"/>
<path d="M37.8516 54.4196C37.853 55.8002 38.9719 56.9183 40.351 56.9171C41.7301 56.916 42.8471 55.796 42.8462 54.4154C42.8453 53.0348 41.7267 51.9163 40.3476 51.917C39.6848 51.9164 39.049 52.1799 38.5806 52.6495C38.1123 53.1191 37.8499 53.756 37.8516 54.4196Z" fill="#251F31"/>
<path d="M112.808 92.7119C112.744 92.7115 112.686 92.75 112.661 92.8094C112.636 92.8689 112.649 92.9375 112.695 92.983C112.74 93.0286 112.809 93.0421 112.868 93.0172C112.928 92.9923 112.966 92.9339 112.966 92.8695C112.964 92.7831 112.894 92.7135 112.808 92.7119Z" fill="#251F31"/>
<path d="M108.223 94.9639C108.139 94.9626 108.058 94.995 107.998 95.0537C107.939 95.1124 107.905 95.1927 107.904 95.2766C107.904 95.452 108.046 95.5942 108.222 95.5942C108.397 95.5942 108.539 95.452 108.539 95.2766C108.537 95.103 108.396 94.9633 108.223 94.9639Z" fill="#251F31"/>
<path d="M103.412 96.7207C103.22 96.7205 103.047 96.8361 102.974 97.0137C102.9 97.1912 102.941 97.3956 103.077 97.5313C103.213 97.667 103.417 97.7072 103.594 97.6332C103.771 97.5592 103.886 97.3856 103.886 97.1934C103.885 96.932 103.673 96.7204 103.412 96.7207V96.7207Z" fill="#251F31"/>
<path d="M98.4259 97.9639C98.0774 97.9639 97.7949 98.2467 97.7949 98.5955C97.7949 98.9444 98.0774 99.2272 98.4259 99.2272C98.7743 99.2272 99.0568 98.9444 99.0568 98.5955C99.0568 98.2467 98.7743 97.9639 98.4259 97.9639V97.9639Z" fill="#251F31"/>
<path d="M93.3167 98.669C92.9964 98.6659 92.7061 98.8568 92.5816 99.1522C92.4572 99.4477 92.5233 99.7891 92.749 100.017C92.9748 100.244 93.3154 100.312 93.6113 100.19C93.9072 100.067 94.0997 99.7775 94.0987 99.4569C94.0972 99.0244 93.7487 98.6733 93.3167 98.669Z" fill="#251F31"/>
<path d="M88.1489 98.833C87.6266 98.8333 87.2033 99.2573 87.2031 99.7802C87.203 100.303 87.6261 100.727 88.1485 100.728C88.6708 100.728 89.0948 100.305 89.0959 99.7823C89.0973 99.5303 88.9981 99.2882 88.8202 99.1099C88.6423 98.9316 88.4006 98.8319 88.1489 98.833Z" fill="#251F31"/>
<path d="M82.9744 98.4531C82.3655 98.4552 81.8734 98.9508 81.875 99.5604C81.8766 100.17 82.3713 100.663 82.9803 100.662C83.5892 100.661 84.082 100.166 84.0813 99.5562C84.0814 99.2628 83.9646 98.9814 83.7569 98.7744C83.5491 98.5673 83.2675 98.4517 82.9744 98.4531Z" fill="#251F31"/>
<path d="M77.8536 97.5186C77.3436 97.5189 76.8841 97.8268 76.6893 98.2987C76.4946 98.7706 76.603 99.3134 76.9639 99.6741C77.3249 100.035 77.8674 100.142 78.3383 99.9462C78.8093 99.7503 79.1159 99.2896 79.1153 98.7791C79.1151 98.4444 78.982 98.1235 78.7454 97.8871C78.5088 97.6506 78.188 97.5181 77.8536 97.5186V97.5186Z" fill="#251F31"/>
<path d="M72.8704 95.9414C72.0877 95.9425 71.454 96.5786 71.4551 97.3622C71.4561 98.1458 72.0915 98.7802 72.8743 98.7791C73.657 98.7781 74.2907 98.142 74.2897 97.3584C74.2874 96.5753 73.6527 95.9416 72.8704 95.9414Z" fill="#251F31"/>
<path d="M68.1227 93.7197C67.4851 93.719 66.9099 94.103 66.6654 94.6925C66.4209 95.2821 66.5554 95.961 67.0061 96.4125C67.4568 96.8641 68.1349 96.9993 68.724 96.755C69.3131 96.5107 69.6971 95.9352 69.6969 95.2968C69.6971 94.8787 69.5314 94.4776 69.2362 94.1818C68.9409 93.886 68.5404 93.7198 68.1227 93.7197V93.7197Z" fill="#251F31"/>
<path d="M65.4159 92.6253C65.4164 91.9225 64.9939 91.2885 64.3453 91.0193C63.6968 90.75 62.9501 90.8986 62.4536 91.3955C61.9572 91.8925 61.8088 92.64 62.0777 93.2893C62.3466 93.9385 62.9798 94.3616 63.6819 94.3611C64.1419 94.3617 64.5833 94.179 64.9086 93.8533C65.2339 93.5277 65.4164 93.0859 65.4159 92.6253Z" fill="#251F31"/>
<path d="M59.6356 87.502C58.8709 87.5014 58.1812 87.9623 57.8883 88.6694C57.5954 89.3766 57.7571 90.1908 58.2978 90.7321C58.8385 91.2734 59.6518 91.4352 60.3582 91.142C61.0646 90.8488 61.5249 90.1584 61.5244 89.3929C61.5209 88.35 60.6773 87.5055 59.6356 87.502Z" fill="#251F31"/>
<path d="M56.0409 83.6104C55.2112 83.6096 54.4629 84.1094 54.1449 84.8765C53.827 85.6437 54.0021 86.527 54.5885 87.1145C55.175 87.7019 56.0573 87.8778 56.8237 87.5599C57.5902 87.2421 58.0899 86.4933 58.0897 85.6627C58.09 84.5296 57.1727 83.6107 56.0409 83.6104V83.6104Z" fill="#251F31"/>
<path d="M52.964 83.703C54.1832 83.7037 55.1721 82.7148 55.1728 81.4944C55.1735 80.2739 54.1857 79.2839 52.9665 79.2832C51.7474 79.2825 50.7585 80.2713 50.7578 81.4918C50.7563 82.0783 50.9882 82.6412 51.4022 83.0561C51.8162 83.4711 52.3782 83.7038 52.964 83.703Z" fill="#251F31"/>
<path d="M52.8125 76.9592C52.8118 75.6535 51.754 74.5954 50.4497 74.5957C49.1454 74.596 48.0881 75.6545 48.0879 76.9602C48.0877 78.266 49.1446 79.3248 50.4489 79.3255C51.7542 79.3251 52.8122 78.2659 52.8125 76.9592Z" fill="#251F31"/>
<path d="M131.36 57.2471C131.28 57.2469 131.216 57.3096 131.213 57.3887C131.214 57.4694 131.279 57.5347 131.36 57.5366C131.398 57.536 131.435 57.52 131.462 57.4923C131.488 57.4645 131.503 57.4273 131.502 57.3887C131.502 57.3509 131.487 57.3147 131.461 57.2881C131.434 57.2615 131.397 57.2467 131.36 57.2471Z" fill="#251F31"/>
<path d="M129.818 62.0576C129.704 62.0571 129.601 62.1255 129.557 62.2308C129.513 62.3361 129.537 62.4574 129.618 62.5381C129.698 62.6188 129.819 62.6428 129.924 62.5989C130.03 62.555 130.098 62.4519 130.097 62.3378C130.098 62.2635 130.068 62.1921 130.016 62.1396C129.963 62.087 129.892 62.0575 129.818 62.0576Z" fill="#251F31"/>
<path d="M127.76 66.6758C127.526 66.6772 127.337 66.8685 127.338 67.1032C127.339 67.3378 127.53 67.5272 127.764 67.5262C127.999 67.5253 128.188 67.3343 128.187 67.0996C128.187 66.9866 128.142 66.8783 128.062 66.7988C127.982 66.7192 127.873 66.6749 127.76 66.6758Z" fill="#251F31"/>
<path d="M125.227 71.0586C124.916 71.0596 124.665 71.3125 124.666 71.6236C124.667 71.9346 124.919 72.1861 125.23 72.1853C125.541 72.1846 125.792 71.9319 125.792 71.6208C125.792 71.4712 125.732 71.3277 125.626 71.2222C125.52 71.1167 125.376 71.0578 125.227 71.0586Z" fill="#251F31"/>
<path d="M122.226 75.1396C121.837 75.1403 121.521 75.4565 121.521 75.8462C121.521 76.236 121.837 76.5521 122.226 76.5528C122.615 76.5535 122.932 76.2385 122.933 75.8487C122.933 75.4577 122.617 75.1407 122.226 75.1396V75.1396Z" fill="#251F31"/>
<path d="M118.795 78.8848C118.451 78.8843 118.142 79.091 118.01 79.4084C117.879 79.7258 117.951 80.0912 118.194 80.3342C118.436 80.5772 118.802 80.6498 119.119 80.5181C119.436 80.3863 119.642 80.0763 119.642 79.7327C119.642 79.5077 119.553 79.2919 119.394 79.1329C119.235 78.9738 119.019 78.8846 118.795 78.8848Z" fill="#251F31"/>
<path d="M114.979 82.252C114.433 82.2537 113.992 82.6977 113.994 83.2437C113.996 83.7897 114.439 84.2309 114.985 84.2292C115.53 84.2275 115.971 83.7835 115.969 83.2375C115.969 82.975 115.865 82.7232 115.679 82.5382C115.493 82.3531 115.241 82.2501 114.979 82.252Z" fill="#251F31"/>
<path d="M110.815 85.1826C110.357 85.1801 109.943 85.4541 109.766 85.8767C109.589 86.2993 109.684 86.787 110.006 87.1121C110.329 87.4371 110.815 87.5354 111.239 87.361C111.662 87.1866 111.938 86.7739 111.939 86.3157C111.938 85.6933 111.436 85.1878 110.815 85.1826Z" fill="#251F31"/>
<path d="M106.289 87.5654C105.774 87.5646 105.31 87.8744 105.113 88.3501C104.916 88.8258 105.024 89.3737 105.388 89.7379C105.752 90.1021 106.299 90.2108 106.774 90.0133C107.249 89.8159 107.559 89.3511 107.558 88.8361C107.555 88.1355 106.989 87.5682 106.289 87.5654Z" fill="#251F31"/>
<path d="M101.47 89.3272C100.897 89.3253 100.38 89.6694 100.16 90.1986C99.9394 90.7278 100.06 91.3377 100.464 91.7433C100.869 92.149 101.478 92.2703 102.007 92.0506C102.536 91.831 102.88 91.3137 102.879 90.7404C102.879 89.9607 102.248 89.3284 101.47 89.3272Z" fill="#251F31"/>
<path d="M96.4455 90.4395C95.8168 90.4384 95.2493 90.8167 95.0079 91.3978C94.7664 91.979 94.8985 92.6485 95.3426 93.0942C95.7866 93.5398 96.4551 93.6736 97.0362 93.4333C97.6173 93.193 97.9966 92.6259 97.9971 91.9965C97.996 91.1384 97.3026 90.4425 96.4455 90.4395Z" fill="#251F31"/>
<path d="M91.2993 90.8809C90.3643 90.8809 89.6061 91.6395 89.6055 92.5756C89.6048 93.5117 90.362 94.2712 91.2971 94.2726C92.2321 94.2739 92.9914 93.5165 92.9935 92.5804C92.9942 91.6428 92.2359 90.8821 91.2993 90.8809V90.8809Z" fill="#251F31"/>
<path d="M87.9548 92.4843C87.9548 91.4707 87.1343 90.6489 86.1218 90.6484C85.1094 90.648 84.2881 91.469 84.2871 92.4825C84.2861 93.4961 85.1058 94.3187 86.1183 94.3201C87.1311 94.3192 87.9524 93.4982 87.9548 92.4843Z" fill="#251F31"/>
<path d="M82.978 91.714C82.9786 90.6213 82.0943 89.735 81.0029 89.7344C79.9114 89.7337 79.0261 90.619 79.0254 91.7116C79.0247 92.8043 79.909 93.6906 81.0004 93.6913C81.5246 93.6918 82.0275 93.4837 82.3984 93.1128C82.7693 92.742 82.9778 92.2388 82.978 91.714Z" fill="#251F31"/>
<path d="M78.139 90.2808C78.1385 89.1093 77.1896 88.16 76.0194 88.1602C74.8492 88.1603 73.9006 89.11 73.9004 90.2815C73.9002 91.453 74.8485 92.4029 76.0187 92.4035C76.5812 92.4039 77.1207 92.1804 77.5185 91.7822C77.9162 91.384 78.1395 90.8439 78.139 90.2808Z" fill="#251F31"/>
<path d="M73.5295 88.2118C73.5292 87.2975 72.9787 86.4734 72.1347 86.1239C71.2908 85.7744 70.3196 85.9683 69.6742 86.6152C69.0287 87.262 68.8361 88.2345 69.1862 89.079C69.5362 89.9235 70.36 90.4737 71.2734 90.473C71.8723 90.4733 72.4467 90.2351 72.87 89.8109C73.2933 89.3867 73.5306 88.8114 73.5295 88.2118Z" fill="#251F31"/>
<path d="M119.407 19.3217C119.46 19.3238 119.509 19.2967 119.535 19.2511C119.562 19.2054 119.562 19.1486 119.535 19.1029C119.509 19.0573 119.46 19.0302 119.407 19.0323C119.329 19.0323 119.266 19.0971 119.266 19.177C119.266 19.2569 119.329 19.3217 119.407 19.3217Z" fill="#251F31"/>
<path d="M121.817 24.0471C121.974 24.0474 122.101 23.9209 122.101 23.7644C122.102 23.608 121.975 23.4808 121.819 23.4805C121.663 23.4801 121.536 23.6066 121.535 23.7631C121.534 23.8385 121.563 23.9112 121.617 23.9646C121.67 24.0181 121.742 24.0478 121.817 24.0471Z" fill="#251F31"/>
<path d="M123.731 29.0046C123.964 29.0046 124.153 28.8153 124.153 28.5819C124.153 28.3484 123.964 28.1592 123.731 28.1592C123.498 28.1592 123.309 28.3484 123.309 28.5819C123.309 28.694 123.353 28.8016 123.432 28.8808C123.511 28.9601 123.619 29.0046 123.731 29.0046Z" fill="#251F31"/>
<path d="M125.126 34.1386C125.355 34.1393 125.562 34.0017 125.65 33.7901C125.738 33.5784 125.689 33.3346 125.527 33.1726C125.366 33.0105 125.122 32.9622 124.911 33.0503C124.699 33.1384 124.562 33.3454 124.563 33.5746C124.562 33.7243 124.622 33.8679 124.727 33.9737C124.833 34.0795 124.977 34.1389 125.126 34.1386Z" fill="#251F31"/>
<path d="M125.285 38.6896C125.286 39.0797 125.603 39.3949 125.993 39.3938C126.383 39.3927 126.698 39.0756 126.697 38.6855C126.696 38.2954 126.38 37.9798 125.99 37.9805C125.6 37.9821 125.285 38.2992 125.285 38.6896Z" fill="#251F31"/>
<path d="M126.312 43.0127C125.846 43.014 125.468 43.3932 125.469 43.8602C125.469 44.3271 125.847 44.7056 126.314 44.706C126.78 44.7065 127.159 44.3287 127.16 43.8618C127.16 43.3928 126.78 43.0127 126.312 43.0127Z" fill="#251F31"/>
<path d="M126.087 48.0508C125.687 48.051 125.326 48.2928 125.173 48.6634C125.02 49.034 125.105 49.4604 125.389 49.7436C125.672 50.0268 126.098 50.111 126.468 49.957C126.838 49.803 127.078 49.4411 127.078 49.0401C127.078 48.7772 126.974 48.525 126.788 48.3394C126.602 48.1537 126.35 48.0499 126.087 48.0508Z" fill="#251F31"/>
<path d="M125.311 53.0401C124.688 53.0418 124.184 53.5484 124.186 54.172C124.187 54.7955 124.692 55.3003 125.315 55.3C125.938 55.2996 126.443 54.7941 126.443 54.1706C126.444 53.8701 126.324 53.5818 126.112 53.3695C125.9 53.1573 125.611 53.0387 125.311 53.0401Z" fill="#251F31"/>
<path d="M125.166 59.1555C125.166 58.6401 124.855 58.1755 124.38 57.9785C123.904 57.7816 123.356 57.8911 122.993 58.256C122.629 58.6208 122.521 59.1691 122.719 59.6449C122.917 60.1208 123.381 60.4303 123.896 60.4291C124.234 60.4298 124.557 60.2957 124.796 60.0566C125.034 59.8175 125.167 59.4932 125.166 59.1555Z" fill="#251F31"/>
<path d="M121.828 62.499C121.048 62.499 120.416 63.1318 120.416 63.9123C120.416 64.6928 121.048 65.3255 121.828 65.3255C122.607 65.3255 123.239 64.6928 123.239 63.9123C123.24 63.5373 123.091 63.1775 122.827 62.9124C122.562 62.6472 122.202 62.4985 121.828 62.499Z" fill="#251F31"/>
<path d="M119.16 66.8066C118.533 66.8061 117.967 67.1843 117.726 67.7647C117.485 68.3451 117.618 69.0134 118.061 69.4579C118.505 69.9024 119.173 70.0356 119.753 69.7952C120.333 69.5549 120.711 68.9884 120.711 68.36C120.711 67.5026 120.017 66.8074 119.16 66.8066Z" fill="#251F31"/>
<path d="M115.938 70.7188C115.253 70.7185 114.635 71.1317 114.373 71.7655C114.111 72.3994 114.256 73.1289 114.741 73.6136C115.226 74.0984 115.955 74.2428 116.588 73.9794C117.22 73.7161 117.632 73.097 117.631 72.4109C117.631 71.9617 117.453 71.5309 117.135 71.2135C116.818 70.8961 116.387 70.7181 115.938 70.7188Z" fill="#251F31"/>
<path d="M112.208 74.1689C111.195 74.1693 110.373 74.9919 110.373 76.0066C110.373 77.0212 111.194 77.844 112.208 77.8445C113.221 77.8451 114.044 77.0232 114.045 76.0086C114.045 75.5207 113.852 75.0526 113.507 74.7075C113.163 74.3624 112.695 74.1686 112.208 74.1689V74.1689Z" fill="#251F31"/>
<path d="M108.046 77.1094C106.956 77.1101 106.072 77.9953 106.072 79.0868C106.072 80.1783 106.956 81.0634 108.046 81.064C109.137 81.0646 110.021 80.1806 110.023 79.0891C110.023 78.5641 109.815 78.0604 109.444 77.6891C109.073 77.3178 108.57 77.1092 108.046 77.1094Z" fill="#251F31"/>
<path d="M103.52 79.4775C102.35 79.4768 101.401 80.4258 101.4 81.5972C101.4 82.7686 102.348 83.7189 103.518 83.7197C104.688 83.7205 105.637 82.7716 105.638 81.6002C105.638 81.0376 105.416 80.4978 105.018 80.0997C104.621 79.7016 104.082 79.4778 103.52 79.4775V79.4775Z" fill="#251F31"/>
<path d="M98.6937 81.2354C97.4466 81.2367 96.4366 82.2497 96.4375 83.4982C96.4384 84.7467 97.4499 85.7582 98.697 85.7577C99.9442 85.7572 100.955 84.745 100.955 83.4965C100.954 82.2472 99.9416 81.2352 98.6937 81.2354Z" fill="#251F31"/>
<path d="M83.9709 0.758299C84.0507 0.756612 84.1143 0.69075 84.1138 0.610433C84.1115 0.531538 84.0474 0.46875 83.969 0.46875C83.8906 0.46875 83.8265 0.531538 83.8242 0.610433C83.824 0.649706 83.8393 0.687447 83.8669 0.715229C83.8945 0.743012 83.9319 0.758523 83.9709 0.758299Z" fill="#251F31"/>
<path d="M88.908 2.43141C89.0634 2.42995 89.1883 2.30307 89.1876 2.14752C89.1869 1.99196 89.0608 1.86624 88.9054 1.86621C88.75 1.86619 88.6238 1.99187 88.623 2.14743C88.6228 2.22305 88.6527 2.29563 88.7063 2.34899C88.7598 2.40234 88.8324 2.43202 88.908 2.43141Z" fill="#251F31"/>
<path d="M93.6669 4.62527C93.9008 4.62457 94.0899 4.43419 94.0892 4.20004C94.0885 3.9659 93.8983 3.77665 93.6644 3.77735C93.4305 3.77804 93.2415 3.96842 93.2422 4.20257C93.2425 4.31503 93.2874 4.42277 93.3671 4.50205C93.4467 4.58134 93.5546 4.62566 93.6669 4.62527Z" fill="#251F31"/>
<path d="M98.1823 7.30545C98.4939 7.30412 98.7455 7.05043 98.7446 6.73852C98.7438 6.42662 98.4907 6.17436 98.1791 6.17481C97.8676 6.17525 97.6152 6.42822 97.6152 6.74012C97.6148 6.89061 97.6745 7.03502 97.781 7.1412C97.8875 7.24738 98.032 7.30652 98.1823 7.30545Z" fill="#251F31"/>
<path d="M102.401 10.4485C102.79 10.4474 103.104 10.1316 103.103 9.74272C103.103 9.35386 102.788 9.03896 102.399 9.03906C102.011 9.03917 101.696 9.35423 101.695 9.7431C101.695 9.93056 101.769 10.1105 101.902 10.2429C102.034 10.3753 102.214 10.4493 102.401 10.4485Z" fill="#251F31"/>
<path d="M106.284 14.0263C106.627 14.0277 106.938 13.8219 107.07 13.5049C107.202 13.1879 107.131 12.8223 106.889 12.5786C106.647 12.3349 106.282 12.2613 105.965 12.392C105.647 12.5228 105.44 12.8322 105.439 13.1758C105.439 13.6437 105.817 14.0238 106.284 14.0263Z" fill="#251F31"/>
<path d="M109.789 17.9856C110.189 17.9843 110.549 17.7418 110.7 17.3713C110.852 17.0008 110.766 16.5752 110.482 16.2931C110.198 16.0111 109.772 15.928 109.404 16.0828C109.035 16.2376 108.795 16.5996 108.797 17.0001C108.799 17.5464 109.243 17.9875 109.789 17.9856Z" fill="#251F31"/>
<path d="M112.866 22.3046C113.49 22.3038 113.996 21.797 113.995 21.1723C113.995 20.5476 113.489 20.0412 112.865 20.041C112.241 20.0408 111.735 20.5468 111.734 21.1715C111.734 21.4723 111.853 21.7609 112.065 21.9735C112.278 22.1862 112.566 22.3053 112.866 22.3046Z" fill="#251F31"/>
<path d="M115.382 26.9751C116.082 26.9723 116.648 26.4022 116.646 25.701C116.644 24.9998 116.075 24.4326 115.375 24.4336C114.675 24.4345 114.107 25.0033 114.107 25.7044C114.108 26.0422 114.242 26.3658 114.481 26.6042C114.721 26.8425 115.044 26.9759 115.382 26.9751Z" fill="#251F31"/>
<path d="M115.871 30.5218C115.869 31.0939 116.212 31.6108 116.74 31.831C117.267 32.0513 117.875 31.9315 118.28 31.5276C118.685 31.1238 118.807 30.5154 118.589 29.9866C118.371 29.4577 117.856 29.1126 117.284 29.1123C116.91 29.1112 116.551 29.2592 116.286 29.5236C116.02 29.7881 115.871 30.1472 115.871 30.5218Z" fill="#251F31"/>
<path d="M116.984 35.5593C116.986 36.4177 117.682 37.1124 118.54 37.1113C119.397 37.1103 120.092 36.4139 120.091 35.5555C120.091 34.6971 119.396 34.0013 118.538 34.001C118.125 33.9998 117.729 34.1637 117.437 34.4563C117.146 34.7488 116.983 35.1459 116.984 35.5593Z" fill="#251F31"/>
<path d="M117.42 40.7079C117.42 41.395 117.833 42.0143 118.468 42.277C119.102 42.5397 119.832 42.394 120.316 41.9079C120.801 41.4217 120.946 40.691 120.683 40.0565C120.419 39.422 119.8 39.0088 119.114 39.0098C118.664 39.0099 118.233 39.1889 117.915 39.5074C117.598 39.8259 117.419 40.2578 117.42 40.7079Z" fill="#251F31"/>
<path d="M120.858 45.8915C120.859 45.1484 120.413 44.4777 119.727 44.1925C119.042 43.9073 118.252 44.0636 117.726 44.5886C117.201 45.1136 117.043 45.9038 117.327 46.5906C117.61 47.2775 118.279 47.7257 119.021 47.7262C119.508 47.7279 119.976 47.5352 120.321 47.1909C120.665 46.8466 120.859 46.379 120.858 45.8915Z" fill="#251F31"/>
<path d="M120.225 51.0171C120.224 50.217 119.742 49.4962 119.003 49.1908C118.265 48.8854 117.415 49.0557 116.85 49.6221C116.286 50.1886 116.118 51.0397 116.425 51.7784C116.732 52.5172 117.453 52.9981 118.252 52.9968C119.343 52.9951 120.226 52.109 120.225 51.0171Z" fill="#251F31"/>
<path d="M118.943 55.9992C118.944 55.1415 118.428 54.3681 117.636 54.0396C116.845 53.7112 115.934 53.8924 115.328 54.4987C114.722 55.105 114.54 56.017 114.868 56.8095C115.196 57.602 115.968 58.1188 116.825 58.119C117.994 58.1191 118.943 57.1701 118.943 55.9992Z" fill="#251F31"/>
<path d="M114.754 58.4912C113.507 58.4932 112.497 59.5071 112.498 60.7561C112.499 62.0051 113.512 63.0168 114.759 63.0161C116.007 63.0154 117.018 62.0027 117.018 60.7537C117.018 60.153 116.779 59.5769 116.355 59.1525C115.93 58.7281 115.354 58.4902 114.754 58.4912Z" fill="#251F31"/>
<path d="M45.7964 12.7114C45.8755 12.7111 45.9396 12.6477 45.9399 12.5693C45.9414 12.5171 45.9141 12.4683 45.8687 12.4418C45.8233 12.4152 45.767 12.4152 45.7216 12.4418C45.6762 12.4683 45.6489 12.5171 45.6504 12.5693C45.6503 12.6075 45.6657 12.6441 45.6932 12.6708C45.7207 12.6975 45.7579 12.7122 45.7964 12.7114Z" fill="#251F31"/>
<path d="M50.3762 10.4375C50.531 10.4364 50.6557 10.3099 50.6547 10.1548C50.6536 9.99979 50.5272 9.87495 50.3723 9.87598C50.2175 9.87702 50.0927 10.0035 50.0938 10.1586C50.0951 10.3136 50.2214 10.4383 50.3762 10.4375Z" fill="#251F31"/>
<path d="M55.1886 8.66409C55.3613 8.66585 55.5179 8.5629 55.5849 8.40356C55.6519 8.24421 55.6161 8.06012 55.4941 7.93768C55.3722 7.81524 55.1884 7.77877 55.029 7.84539C54.8696 7.91201 54.7663 8.0685 54.7676 8.24139C54.7676 8.47435 54.9559 8.66339 55.1886 8.66409Z" fill="#251F31"/>
<path d="M60.176 7.40604C60.4879 7.40604 60.7407 7.15293 60.7407 6.84071C60.7407 6.52849 60.4879 6.27539 60.176 6.27539C59.8642 6.27539 59.6113 6.52849 59.6113 6.84071C59.6105 6.9909 59.6697 7.13517 59.7758 7.24137C59.8819 7.34757 60.026 7.40687 60.176 7.40604Z" fill="#251F31"/>
<path d="M65.2813 6.68249C65.6704 6.68148 65.9852 6.36509 65.9847 5.97551C65.9841 5.58593 65.6684 5.27042 65.2793 5.27051C64.8901 5.27059 64.5746 5.58623 64.5742 5.97581C64.5735 6.16365 64.6478 6.34398 64.7806 6.4767C64.9134 6.60941 65.0936 6.6835 65.2813 6.68249Z" fill="#251F31"/>
<path d="M70.453 6.50444C70.9207 6.50305 71.2987 6.12255 71.2975 5.65442C71.2964 5.18629 70.9165 4.80767 70.4488 4.8086C69.9812 4.80952 69.6028 5.18965 69.6035 5.65778C69.603 5.88315 69.6924 6.09938 69.852 6.25838C70.0115 6.41739 70.2279 6.50597 70.453 6.50444Z" fill="#251F31"/>
<path d="M75.6244 6.86572C76.0239 6.86623 76.3843 6.62556 76.5373 6.25609C76.6903 5.88662 76.6057 5.46125 76.323 5.17862C76.0404 4.89598 75.6153 4.81184 75.2465 4.96549C74.8776 5.11914 74.6377 5.48026 74.6387 5.88022C74.6385 6.14188 74.7423 6.39286 74.9272 6.57776C75.1121 6.76266 75.363 6.86627 75.6244 6.86572Z" fill="#251F31"/>
<path d="M80.748 7.78453C81.205 7.7855 81.6175 7.51068 81.793 7.08831C81.9686 6.66593 81.8726 6.17928 81.5498 5.85545C81.227 5.53162 80.7411 5.43445 80.3188 5.6093C79.8965 5.78414 79.6211 6.19652 79.6211 6.654C79.6205 6.95359 79.739 7.24112 79.9504 7.45319C80.1618 7.66526 80.4487 7.78447 80.748 7.78453Z" fill="#251F31"/>
<path d="M85.7303 9.34847C86.4319 9.3491 87.0012 8.78029 87.0019 8.07792C87.0027 7.37555 86.4346 6.80553 85.733 6.80469C85.0314 6.80384 84.4619 7.37249 84.4609 8.07486C84.4632 8.7762 85.0297 9.34463 85.7303 9.34847Z" fill="#251F31"/>
<path d="M90.482 11.5511C91.0534 11.5527 91.5693 11.2094 91.789 10.6814C92.0088 10.1535 91.889 9.54496 91.4855 9.13996C91.0821 8.73497 90.4746 8.61334 89.9466 8.83185C89.4186 9.05037 89.0742 9.56593 89.0742 10.1379C89.0733 10.5123 89.2213 10.8717 89.4853 11.1368C89.7494 11.4019 90.108 11.551 90.482 11.5511Z" fill="#251F31"/>
<path d="M93.3711 12.8081C93.3704 13.4367 93.7481 14.0038 94.328 14.2449C94.9078 14.486 95.5757 14.3536 96.02 13.9094C96.4644 13.4653 96.5977 12.7969 96.3577 12.216C96.1178 11.6351 95.5519 11.2561 94.924 11.2559C94.0672 11.2557 93.3722 11.9503 93.3711 12.8081H93.3711Z" fill="#251F31"/>
<path d="M98.9712 17.7368C99.905 17.734 100.66 16.9748 100.659 16.0401C100.658 15.1053 99.9006 14.348 98.9669 14.3477C98.0331 14.3473 97.2754 15.1039 97.2734 16.0387C97.2731 16.4894 97.452 16.9217 97.7705 17.2403C98.089 17.5589 98.521 17.7375 98.9712 17.7368Z" fill="#251F31"/>
<path d="M102.562 21.6116C103.305 21.6126 103.976 21.1653 104.261 20.4782C104.546 19.7911 104.389 18.9998 103.864 18.4736C103.339 17.9473 102.548 17.7899 101.862 18.0747C101.175 18.3595 100.728 19.0304 100.729 19.7744C100.73 20.788 101.55 21.6095 102.562 21.6116Z" fill="#251F31"/>
<path d="M105.639 21.9609C104.548 21.9613 103.664 22.8468 103.664 23.939C103.664 25.0312 104.549 25.9166 105.64 25.9167C106.731 25.9168 107.615 25.0316 107.615 23.9394C107.616 23.4146 107.407 22.9113 107.037 22.5402C106.666 22.1692 106.163 21.9608 105.639 21.9609Z" fill="#251F31"/>
<path d="M106.037 28.4764C106.039 29.6455 106.986 30.5922 108.154 30.591C109.322 30.5898 110.268 29.6412 110.267 28.472C110.266 27.3028 109.319 26.3557 108.151 26.3564C107.589 26.3562 107.051 26.5796 106.655 26.9774C106.258 27.3751 106.036 27.9144 106.037 28.4764Z" fill="#251F31"/>
<path d="M107.789 33.2967C107.788 34.5449 108.798 35.5576 110.045 35.5588C111.292 35.5601 112.303 34.5493 112.305 33.3012C112.306 32.053 111.297 31.0399 110.05 31.0381C108.803 31.0378 107.792 32.0484 107.789 33.2967Z" fill="#251F31"/>
<path d="M111.29 35.9238C109.964 35.9235 108.889 36.9992 108.889 38.3264C108.888 39.6536 109.963 40.7297 111.289 40.73C112.614 40.7304 113.689 39.6547 113.69 38.3275C113.689 37.0006 112.615 35.9249 111.29 35.9238V35.9238Z" fill="#251F31"/>
<path d="M27.2463 47.7813C27.1499 47.7793 27.06 47.8296 27.0112 47.9129C26.9624 47.9961 26.9624 48.0992 27.0112 48.1825C27.06 48.2657 27.1499 48.316 27.2463 48.314C27.3911 48.311 27.5069 48.1927 27.5069 48.0477C27.5069 47.9027 27.3911 47.7843 27.2463 47.7813Z" fill="#251F31"/>
<path d="M28.7866 42.5635C28.5713 42.5625 28.3766 42.6915 28.2933 42.8903C28.2101 43.0891 28.2547 43.3185 28.4065 43.4715C28.5582 43.6245 28.787 43.6709 28.9862 43.589C29.1854 43.5072 29.3157 43.3132 29.3163 43.0976C29.3155 42.8045 29.0794 42.5664 28.7866 42.5635Z" fill="#251F31"/>
<path d="M31.6387 38.3373C31.6401 37.8945 31.2826 37.5345 30.8403 37.5332C30.3981 37.5319 30.0384 37.8897 30.0371 38.3325C30.0358 38.7752 30.3932 39.1352 30.8355 39.1366C31.2774 39.1371 31.6366 38.7797 31.6387 38.3373Z" fill="#251F31"/>
<path d="M33.3729 34.8843C33.9611 34.8847 34.4382 34.4077 34.4386 33.8189C34.439 33.2301 33.9626 32.7524 33.3744 32.752C32.7863 32.7515 32.3091 33.2284 32.3086 33.8172C32.3096 34.4055 32.7853 34.8824 33.3729 34.8843Z" fill="#251F31"/>
<path d="M36.3754 30.925C36.9139 30.9253 37.3995 30.6007 37.6057 30.1027C37.8119 29.6047 37.6981 29.0314 37.3173 28.6502C36.9366 28.2689 36.3639 28.1549 35.8664 28.3613C35.3689 28.5677 35.0447 29.0539 35.0449 29.593C35.0444 29.9464 35.1844 30.2855 35.434 30.5354C35.6836 30.7853 36.0223 30.9255 36.3754 30.925Z" fill="#251F31"/>
<path d="M39.8017 27.3002C40.4474 27.3002 41.0296 26.9108 41.2767 26.3135C41.5238 25.7163 41.3872 25.0288 40.9306 24.5717C40.474 24.1146 39.7873 23.9778 39.1907 24.2252C38.5941 24.4726 38.2051 25.0554 38.2051 25.7019C38.205 26.1258 38.3732 26.5324 38.6726 26.8322C38.972 27.1319 39.3782 27.3003 39.8017 27.3002Z" fill="#251F31"/>
<path d="M43.6217 24.0672C44.3768 24.0683 45.0582 23.6137 45.348 22.9156C45.6377 22.2174 45.4786 21.4133 44.945 20.8783C44.4114 20.3434 43.6084 20.1831 42.9106 20.4721C42.2129 20.7612 41.7578 21.4427 41.7578 22.1987C41.7574 22.6939 41.9535 23.1691 42.3031 23.5195C42.6526 23.8699 43.127 24.067 43.6217 24.0672Z" fill="#251F31"/>
<path d="M47.7795 21.2512C48.6418 21.2534 49.4205 20.7349 49.7519 19.9379C50.0832 19.1408 49.902 18.2224 49.2927 17.6114C48.6834 17.0004 47.7663 16.8174 46.9696 17.1477C46.1728 17.4781 45.6536 18.2567 45.6543 19.12C45.6559 20.2949 46.6059 21.2475 47.7795 21.2512Z" fill="#251F31"/>
<path d="M52.29 18.9635C53.6131 18.9639 54.6861 17.8906 54.6868 16.5661C54.6875 15.2415 53.6157 14.1671 52.2926 14.166C50.9695 14.165 49.8959 15.2377 49.8945 16.5622C49.894 17.1987 50.1461 17.8093 50.5953 18.2597C51.0446 18.71 51.6542 18.9632 52.29 18.9635Z" fill="#251F31"/>
<path d="M57.0874 17.2771C58.4016 17.2741 59.5162 16.3098 59.7096 15.0084C60.2947 15.8501 61.2776 16.3233 62.2997 16.2552C63.3217 16.187 64.2333 15.5876 64.7017 14.6757C65.2706 15.4369 66.1494 15.9039 67.098 15.949C68.0466 15.994 68.9657 15.6123 69.6039 14.9082C70.6993 16.459 72.8394 16.8343 74.3961 15.7487C74.5226 15.9564 74.6718 16.1494 74.841 16.324C73.9893 16.4136 73.191 16.7819 72.5698 17.3719C71.7925 16.661 70.7494 16.3153 69.7019 16.4216C68.6545 16.5278 67.7019 17.0759 67.0828 17.9285C66.4699 17.4431 65.7108 17.1799 64.9292 17.1819C63.5687 17.1837 62.3323 17.9742 61.7584 19.2093C60.859 18.5965 59.7154 18.4678 58.7025 18.8654C57.6896 19.2629 56.938 20.1354 56.6942 21.1969C55.7409 20.6144 54.5478 20.5926 53.5738 21.1397C52.5999 21.6869 51.9969 22.7178 51.9969 23.8359V23.8474C51.1048 23.3318 50.0057 23.3321 49.1139 23.8481C48.2222 24.3642 47.6734 25.3175 47.6744 26.3487C47.6755 26.6199 47.7141 26.8897 47.7891 27.1504C47.3708 26.8889 46.888 26.7495 46.3949 26.7478C44.9158 26.747 43.7161 27.9466 43.7151 29.4274C43.7141 30.9081 44.9123 32.1093 46.3914 32.1105C47.8705 32.1117 49.0705 30.9124 49.0719 29.4316C49.0687 29.2069 49.0381 28.9835 48.9808 28.7662C49.8516 29.3352 50.9611 29.3903 51.884 28.9105C52.8068 28.4307 53.3999 27.4903 53.4357 26.4499C53.9291 26.7651 54.5021 26.9326 55.0873 26.9327C55.1411 26.9327 55.1998 26.9252 55.2572 26.9252C54.5891 27.5325 54.1789 28.373 54.1111 29.2739C53.1195 29.0867 52.0962 29.3514 51.3193 29.996C50.5424 30.6405 50.0925 31.598 50.0921 32.6081C50.0912 32.7412 50.1004 32.8742 50.1196 33.0059C49.9963 32.9891 49.8719 32.9811 49.7474 32.982C47.975 32.982 46.5382 34.4204 46.5382 36.1947C46.5363 36.5428 46.5933 36.8887 46.7068 37.2178C46.6418 37.2154 46.5793 37.209 46.5168 37.209C45.4174 37.2057 44.4026 37.7994 43.8659 38.76C43.3292 39.7206 43.355 40.897 43.9332 41.8331C43.9042 41.8295 43.8751 41.8279 43.8459 41.828C42.6736 41.8264 41.6197 42.5433 41.1898 43.6352C40.7598 44.727 41.0414 45.971 41.8995 46.7707C41.857 46.7707 41.8182 46.7583 41.7795 46.7583C40.4952 46.7543 39.3876 47.6607 39.1362 48.9215C38.8848 50.1824 39.5599 51.445 40.7473 51.935C41.9347 52.4249 43.3024 52.0051 44.0114 50.9331C44.7205 49.8611 44.5726 48.4367 43.6585 47.5336C43.7185 47.5372 43.7823 47.5411 43.8459 47.5411C44.6405 47.5416 45.399 47.2086 45.9371 46.6232C45.9371 46.6558 45.9347 46.6894 45.9347 46.7209C45.9353 47.4281 46.1611 48.1168 46.5793 48.6868C45.5203 49.064 44.7428 49.9782 44.5397 51.0849C44.3366 52.1917 44.7389 53.3228 45.5949 54.0522C44.5557 54.5269 43.8774 55.5527 43.8466 56.6957C43.8157 57.8388 44.4379 58.8997 45.4499 59.4299C44.385 59.9699 43.7725 61.1202 43.9183 62.3062C44.0641 63.4923 44.9369 64.4596 46.1008 64.725C44.9944 65.283 44.416 66.5289 44.7034 67.7353C44.9908 68.9417 46.0687 69.7922 47.3076 69.7902C47.4725 69.7894 47.6369 69.7727 47.7986 69.7403C46.5641 70.1518 45.8539 71.4451 46.1682 72.709C46.4826 73.973 47.7155 74.7819 48.9986 74.566C50.2817 74.3501 51.1828 73.1821 51.0671 71.8847C50.9514 70.5874 49.8579 69.5976 48.5569 69.6127C48.4029 69.613 48.2494 69.628 48.0984 69.6577C49.2198 69.3165 49.9871 68.2823 49.9895 67.109C49.9895 67.0414 49.9745 66.9838 49.9683 66.9163C50.3889 67.3788 50.9409 67.7013 51.55 67.8405C50.8004 68.7209 50.6313 69.9576 51.117 71.0072C51.6028 72.0569 52.6544 72.7274 53.81 72.7242C53.8351 72.7242 53.8537 72.7242 53.8749 72.7231C53.2506 73.5819 53.161 74.719 53.6432 75.6652C54.1254 76.6113 55.0976 77.2061 56.1586 77.2041C56.4362 77.2034 56.7122 77.1625 56.9781 77.0828C56.433 77.9069 56.3841 78.9642 56.8508 79.8352C57.3176 80.7061 58.2245 81.25 59.2118 81.2511C59.8196 81.2501 60.4083 81.0389 60.8783 80.6533C59.985 81.693 60.0769 83.2548 61.0861 84.1823C62.0953 85.1097 63.6575 85.0681 64.6161 84.0883C65.5746 83.1084 65.5835 81.544 64.6362 80.5533C64.9685 80.5468 65.2979 80.4899 65.6131 80.3845V80.4189C65.6136 81.5861 66.2668 82.6549 67.3047 83.1866C67.152 83.1538 66.9962 83.1375 66.84 83.1379C65.614 83.1265 64.5722 84.0325 64.4118 85.2493C64.2514 86.4661 65.0229 87.6115 66.2099 87.9189C67.3968 88.2263 68.6263 87.5991 69.0755 86.457C69.5246 85.315 69.0523 84.017 67.9747 83.4317C68.2181 83.4941 68.4684 83.526 68.7197 83.5267C69.2992 83.5263 69.867 83.3634 70.3586 83.0563C70.4538 84.219 71.2215 85.2177 72.3199 85.6074C73.4182 85.9972 74.6428 85.7055 75.4482 84.8623C75.6387 86.0604 76.5723 87.0028 77.7675 87.2034C78.9626 87.404 80.1522 86.8181 80.7227 85.7477C80.983 87.0457 82.1514 87.9585 83.4723 87.896C84.7932 87.8335 85.8703 86.8143 86.0071 85.4976C86.1017 86.8655 87.265 87.9106 88.6337 87.8573C90.0023 87.8039 91.0809 86.6714 91.069 85.3003C91.057 83.9291 89.9589 82.8156 88.5895 82.7862C88.8205 82.5444 89.0137 82.2691 89.1626 81.9696C89.9834 82.8115 91.2088 83.117 92.3282 82.7588C91.3443 83.4256 90.9957 84.7126 91.5084 85.7857C92.0211 86.8587 93.2408 87.3947 94.3769 87.0463C95.5129 86.6979 96.2234 85.5699 96.0478 84.3935C95.8721 83.2171 94.8632 82.3463 93.675 82.3457C93.4414 82.3479 93.2095 82.3859 92.9873 82.4583C93.7049 82.0237 94.2166 81.3175 94.4065 80.4998C94.9395 80.9548 95.6175 81.2041 96.318 81.2026C97.9563 81.2038 99.2858 79.8761 99.2887 78.2361C99.2887 78.2131 99.2813 78.1911 99.2813 78.1723C99.7607 78.5226 100.339 78.7109 100.933 78.7101C101.682 78.7108 102.4 78.4136 102.93 77.8837C103.46 77.3538 103.758 76.6348 103.759 75.8849C103.76 75.6068 103.719 75.3301 103.636 75.0646C104.734 75.8055 106.208 75.6303 107.102 74.6526C107.996 73.6749 108.041 72.1894 107.207 71.16C107.662 71.5616 108.249 71.7831 108.856 71.7829C109.768 71.789 110.613 71.3055 111.071 70.5159C111.528 69.7263 111.528 68.7518 111.071 67.9622C110.613 67.1726 109.768 66.6891 108.856 66.6952C108.202 66.6941 107.573 66.9491 107.104 67.4056C107.096 67.0712 107.04 66.7396 106.938 66.4212H106.967C108.133 66.4207 109.202 65.767 109.734 64.7279C109.703 64.8807 109.687 65.036 109.685 65.1919C109.669 66.4217 110.572 67.4703 111.789 67.6357C113.007 67.8012 114.156 67.0313 114.468 65.8417C114.779 64.6521 114.156 63.4166 113.014 62.9624C111.872 62.5082 110.571 62.9781 109.983 64.0575C110.044 63.8142 110.076 63.5643 110.077 63.3134C110.075 62.7314 109.911 62.1614 109.604 61.6674C110.765 61.5726 111.763 60.8043 112.152 59.7049C112.542 58.6054 112.25 57.3796 111.408 56.5736C112.603 56.3816 113.543 55.4476 113.744 54.2523C113.944 53.057 113.361 51.8669 112.294 51.2945C113.591 51.0356 114.504 49.8659 114.442 48.543C114.379 47.2202 113.36 46.142 112.044 46.0068C113.409 45.9209 114.465 44.7747 114.441 43.4053C114.417 42.0359 113.32 40.9281 111.953 40.8908C110.585 40.8536 109.43 41.9002 109.332 43.2662C109.233 44.6323 110.225 45.8342 111.584 45.9943C110.395 46.0648 109.398 46.9163 109.14 48.0801C108.882 49.244 109.427 50.4378 110.475 51.0046C109.438 51.1839 108.588 51.9265 108.269 52.9304C107.951 53.9342 108.218 55.032 108.962 55.7769C107.98 55.9089 107.13 56.524 106.696 57.4155C106.262 58.307 106.303 59.3566 106.804 60.2117C105.157 60.2996 103.865 61.6617 103.864 63.3134C103.864 63.619 103.911 63.9227 104.004 64.2139C103.956 64.2081 103.909 64.2047 103.861 64.2039C102.067 64.2043 100.613 65.6599 100.613 67.4556C100.613 67.5333 100.618 67.611 100.627 67.6882C100.458 67.6602 100.287 67.646 100.116 67.6456C98.4329 67.6454 97.0058 68.8834 96.7664 70.5509C96.465 70.4693 96.1543 70.4269 95.842 70.4247C94.4711 70.4281 93.2259 71.2252 92.6476 72.4696C91.9012 71.8609 90.9141 71.6352 89.9778 71.8591C89.0414 72.083 88.2628 72.7309 87.8717 73.6115C87.1916 72.8696 86.1947 72.5035 85.1968 72.6292C84.1988 72.7549 83.3236 73.3568 82.8484 74.2443C82.2865 73.5413 81.4484 73.1159 80.5499 73.0776C79.6514 73.0393 78.7802 73.3917 78.1606 74.0443C77.7768 73.1982 77.0363 72.5674 76.1405 72.3236C75.2448 72.0798 74.2871 72.2485 73.5283 72.7836C73.3218 71.8711 72.7168 71.0997 71.8801 70.6825C71.0435 70.2653 70.064 70.2466 69.212 70.6314C69.1861 69.7356 68.7751 68.8947 68.0845 68.3244C67.394 67.7542 66.4912 67.5102 65.6078 67.655C65.8216 66.7363 65.6078 65.77 65.0264 65.0276C64.4449 64.2852 63.5586 63.8468 62.6163 63.8356C62.9757 63.0107 62.9599 62.0703 62.5731 61.258C62.1862 60.4458 61.4663 59.8414 60.5999 59.6017C61.1471 58.8904 61.3612 57.9774 61.1872 57.0968C61.0132 56.2161 60.4681 55.4534 59.6916 55.0043C60.4316 54.4355 60.8781 53.5647 60.9083 52.6313C60.9386 51.6978 60.5494 50.7999 59.8478 50.1843C60.6598 49.7751 61.2543 49.0331 61.4768 48.1507C61.6968 47.2739 61.523 46.3447 61.001 45.607C61.8694 45.4107 62.6121 44.8512 63.0409 44.0701C63.4697 43.289 63.5434 42.3614 63.2434 41.5222C64.1763 41.5702 65.0814 41.1962 65.7089 40.5035C66.3364 39.8108 66.62 38.8725 66.4815 37.9477C67.3617 38.1624 68.2917 37.9829 69.0292 37.456C69.7667 36.9291 70.2385 36.107 70.3218 35.2039C71.1164 35.622 72.0527 35.6761 72.8901 35.3523C73.7274 35.0286 74.3843 34.3585 74.6918 33.5142C75.3415 34.1074 76.2137 34.3938 77.0881 34.3009H77.083C78.0381 34.211 78.8965 33.68 79.4041 32.8651C79.9272 33.6145 80.7536 34.095 81.663 34.1784C82.5724 34.2618 83.4723 33.9396 84.1226 33.2978C84.4678 34.1652 85.1845 34.8311 86.0742 35.1112C86.9639 35.3913 87.9323 35.2558 88.7112 34.7423C88.8838 35.6616 89.4589 36.4552 90.2784 36.9048H90.2721C90.9514 37.2793 91.7461 37.3855 92.4997 37.2024C92.5833 37.3187 92.6734 37.43 92.7658 37.5351C92.8072 38.2249 93.0811 38.8802 93.5428 39.3939C93.5633 39.4163 93.5855 39.4372 93.609 39.4565C95.1944 41.1173 98.876 45.1506 98.1876 50.5497C98.0127 51.8954 98.7672 52.5744 99.7317 51.5352C105.577 45.2269 104.663 37.4796 104.532 36.5788C104.5 36.0017 104.372 35.434 104.153 34.8992C104.221 34.5654 104.256 34.2256 104.256 33.8849C104.256 32.3183 103.523 30.8423 102.276 29.8954C102.334 29.597 102.364 29.2938 102.365 28.9899C102.366 27.0321 101.178 25.2703 99.3644 24.538C99.3212 22.3124 97.6884 20.439 95.4917 20.0944C95.1091 18.0231 93.3057 16.5195 91.2017 16.5176C91.1229 16.5176 91.0505 16.525 90.9668 16.5276C90.4148 14.8219 88.8276 13.6668 87.0366 13.6673C86.6861 13.6674 86.3372 13.7132 85.9985 13.8035C85.5601 12.8406 84.7514 12.0961 83.7563 11.7393C82.7612 11.3824 81.6642 11.4436 80.7148 11.9088C80.172 10.9848 79.2562 10.3414 78.2036 10.1445C77.1511 9.94766 76.0649 10.2167 75.2255 10.8821C74.5946 10.0053 73.5903 9.4744 72.5112 9.44737C71.4321 9.42034 70.4025 9.90027 69.7286 10.7444C69.0322 9.88348 67.9396 9.4456 66.8421 9.58758C65.7446 9.72957 64.7991 10.4311 64.3441 11.441C63.59 10.5453 62.3754 10.1853 61.2557 10.5257C60.136 10.8661 59.3265 11.8413 59.1972 13.0056C58.4412 12.0121 57.0966 11.6789 55.9649 12.2046C54.8333 12.7303 54.2193 13.9734 54.489 15.1927C54.7588 16.4121 55.8396 17.2795 57.0871 17.2777L57.0874 17.2771Z" fill="#251F31"/>
<path d="M39.1927 86.0586C39.0795 86.06 38.9889 86.1529 38.9902 86.2662C38.9903 86.3789 39.0801 86.471 39.1927 86.4737C39.3072 86.4728 39.4002 86.3808 39.4024 86.2662C39.4015 86.151 39.3077 86.0581 39.1927 86.0586Z" fill="#251F31"/>
<path d="M36.7915 81.2617C36.6824 81.2612 36.5776 81.3041 36.5002 81.3811C36.4227 81.458 36.3791 81.5627 36.3789 81.6719C36.3789 81.8992 36.5629 82.0834 36.7899 82.0834C37.0169 82.0834 37.2009 81.8992 37.2009 81.6719C37.2013 81.5631 37.1582 81.4586 37.0814 81.3816C37.0046 81.3046 36.9002 81.2615 36.7915 81.2617Z" fill="#251F31"/>
<path d="M34.8748 76.2363C34.5332 76.2363 34.2562 76.5133 34.2559 76.8552C34.2555 77.1972 34.5319 77.4748 34.8734 77.4755C35.2149 77.4763 35.4925 77.1999 35.4937 76.858C35.494 76.5153 35.2171 76.2372 34.8748 76.2363Z" fill="#251F31"/>
<path d="M33.4783 71.0371C33.0237 71.0378 32.6558 71.4071 32.6563 71.8621C32.6567 72.3171 33.0254 72.6857 33.4799 72.6855C33.9345 72.6852 34.3028 72.3163 34.3028 71.8613C34.303 71.6424 34.2162 71.4324 34.0615 71.2778C33.9068 71.1231 33.6969 71.0365 33.4783 71.0371Z" fill="#251F31"/>
<path d="M33.6433 66.7529C33.6443 66.3352 33.3935 65.9581 33.0082 65.7978C32.6228 65.6375 32.179 65.7256 31.8839 66.021C31.5889 66.3164 31.5008 66.7607 31.661 67.1465C31.8211 67.5322 32.1978 67.7832 32.6151 67.7823C33.1824 67.781 33.642 67.3209 33.6433 66.7529Z" fill="#251F31"/>
<path d="M33.5283 61.5766C33.527 60.8931 32.9726 60.3399 32.2899 60.3408C31.6071 60.3417 31.0542 60.8963 31.0547 61.5798C31.0551 62.2633 31.6087 62.8171 32.2915 62.8171C32.62 62.8175 32.9352 62.6869 33.1673 62.4541C33.3994 62.2213 33.5293 61.9055 33.5283 61.5766Z" fill="#251F31"/>
<path d="M31.0762 56.3994C31.0766 57.1958 31.7215 57.8412 32.5171 57.8413C33.3126 57.8414 33.9577 57.1961 33.9583 56.3997C33.9588 55.6033 33.3146 54.9571 32.5191 54.9561C32.1362 54.9548 31.7686 55.1064 31.4978 55.3773C31.227 55.6483 31.0752 56.0161 31.0762 56.3994Z" fill="#251F31"/>
<path d="M33.2903 52.9188C34.2002 52.9171 34.9367 52.1776 34.9357 51.2666C34.9346 50.3556 34.1965 49.6178 33.2865 49.6182C32.3766 49.6185 31.639 50.3569 31.6387 51.2679C31.6383 51.7063 31.8123 52.1268 32.1222 52.4365C32.4321 52.7462 32.8524 52.9198 33.2903 52.9188Z" fill="#251F31"/>
<path d="M34.7141 44.4258C33.9641 44.4247 33.2873 44.8761 32.9995 45.5694C32.7116 46.2628 32.8694 47.0614 33.3992 47.5929C33.929 48.1243 34.7264 48.2839 35.4196 47.9971C36.1127 47.7104 36.565 47.0338 36.5655 46.283C36.5655 45.2587 35.7372 44.4279 34.7141 44.4258Z" fill="#251F31"/>
<path d="M36.7685 43.5882C37.6026 43.5897 38.3554 43.0879 38.6756 42.3169C38.9959 41.5459 38.8204 40.6577 38.2312 40.0667C37.6419 39.4758 36.755 39.2985 35.9842 39.6177C35.2135 39.937 34.7109 40.6897 34.7109 41.5247C34.7113 42.6627 35.6317 43.5858 36.7685 43.5882Z" fill="#251F31"/>
<path d="M39.4372 39.3502C40.6888 39.3478 41.7016 38.3303 41.6997 37.0773C41.6977 35.8243 40.6818 34.81 39.4302 34.8115C38.1786 34.813 37.165 35.8297 37.166 37.0827C37.1657 37.6852 37.4051 38.2631 37.8313 38.6886C38.2574 39.114 38.8353 39.3521 39.4372 39.3502Z" fill="#251F31"/>
<path d="M45.1381 33.0261C45.1386 32.025 44.5366 31.1222 43.6129 30.7387C42.6892 30.3552 41.6257 30.5665 40.9183 31.274C40.2109 31.9816 39.9989 33.0461 40.3812 33.9711C40.7635 34.8961 41.6648 35.4996 42.6647 35.5C44.0296 35.4992 45.1361 34.3924 45.1381 33.0261Z" fill="#251F31"/>
<path d="M8.97738 136.974C7.77373 136.979 6.58179 136.736 5.47499 136.259C4.40919 135.8 3.44116 135.139 2.62383 134.311C1.80866 133.476 1.15835 132.493 0.707505 131.414C-0.235835 129.147 -0.235835 126.594 0.707505 124.327C1.61175 122.149 3.31914 120.408 5.47074 119.472C7.72375 118.496 10.277 118.5 12.5265 119.485C13.6078 119.967 14.5882 120.651 15.4157 121.502C15.5973 121.691 15.7338 121.92 15.8149 122.17C15.9167 122.472 15.8744 122.804 15.7001 123.071C15.5052 123.374 15.1757 123.561 14.8176 123.574H14.8048C14.3842 123.574 14.0899 123.449 13.853 123.205C13.1733 122.631 12.4318 122.135 11.6425 121.726C10.8196 121.295 9.90499 121.071 8.97723 121.074C8.08193 121.071 7.19562 121.254 6.37354 121.611C5.57914 121.958 4.8591 122.458 4.25323 123.081C3.65115 123.709 3.17057 124.444 2.83616 125.249C2.13636 126.927 2.13636 128.818 2.83616 130.496C3.50393 132.118 4.77402 133.412 6.37564 134.104C7.19677 134.462 8.0825 134.644 8.97717 134.641C9.9134 134.647 10.8405 134.455 11.6987 134.078C12.5216 133.713 13.2616 133.182 13.8732 132.518C14.0624 132.306 14.3127 132.158 14.5891 132.096C14.6775 132.074 14.768 132.063 14.859 132.062C15.0706 132.063 15.2768 132.129 15.4497 132.252C15.7342 132.475 15.896 132.822 15.8852 133.185C15.8852 133.548 15.7749 133.854 15.558 134.095C14.7359 135.001 13.7346 135.724 12.6186 136.216C11.471 136.723 10.2304 136.982 8.97738 136.974Z" fill="#251F31"/>
<path fill-rule="evenodd" clip-rule="evenodd" d="M24.264 136.235C25.3723 136.71 26.5651 136.952 27.7695 136.947C28.9725 136.952 30.1639 136.71 31.2706 136.235C32.336 135.776 33.3072 135.121 34.1345 134.303C34.9569 133.481 35.6132 132.505 36.0668 131.431C37.0115 129.174 37.0115 126.629 36.0668 124.372C35.1499 122.197 33.4304 120.465 31.2708 119.542C29.0304 118.592 26.5043 118.592 24.2639 119.542C23.1991 120 22.2321 120.662 21.4159 121.489C20.6034 122.322 19.9518 123.3 19.4942 124.372C18.5566 126.63 18.5566 129.173 19.4942 131.431C20.4063 133.594 22.1163 135.317 24.264 136.235ZM25.1684 121.682C25.9921 121.334 26.8773 121.156 27.7708 121.159V121.159C28.6638 121.156 29.5483 121.334 30.3716 121.682C31.1693 122.02 31.8949 122.51 32.5089 123.124C33.1176 123.745 33.6042 124.476 33.943 125.279C34.9854 127.805 34.4209 130.714 32.5111 132.659C31.894 133.268 31.1681 133.754 30.3716 134.091C26.9779 135.524 23.0723 133.93 21.6247 130.522C20.9364 128.842 20.9364 126.957 21.6247 125.277C21.9594 124.475 22.4417 123.744 23.0461 123.122C23.6526 122.506 24.3738 122.017 25.1684 121.682Z" fill="#251F31"/>
<path d="M52.6888 137C52.3816 137.001 52.0869 136.878 51.8696 136.659C51.6524 136.441 51.5305 136.144 51.5309 135.835V125.455C51.5354 124.875 51.4197 124.299 51.191 123.766C50.7399 122.712 49.904 121.872 48.8561 121.421C47.7872 120.958 46.5767 120.958 45.5078 121.421C44.9944 121.645 44.5285 121.966 44.1354 122.367C43.7423 122.772 43.4268 123.248 43.2048 123.769C42.9772 124.301 42.8608 124.875 42.8627 125.455V135.835C42.8627 136.479 42.3443 137.001 41.7048 137.001C41.0653 137.001 40.5469 136.479 40.5469 135.835V125.455C40.5432 124.56 40.7185 123.674 41.0622 122.849C41.3917 122.052 41.8743 121.327 42.4824 120.718C43.0888 120.106 43.8066 119.618 44.5964 119.28C46.2482 118.563 48.1205 118.564 49.7718 119.283C51.3657 119.964 52.6357 121.242 53.3155 122.846C53.6687 123.67 53.8488 124.558 53.8445 125.455V135.835C53.8502 136.144 53.7296 136.442 53.511 136.66C53.2936 136.88 52.9972 137.003 52.6888 137Z" fill="#251F31"/>
<path d="M64.0651 137.002C63.2123 137.008 62.3652 136.862 61.5624 136.572C60.8105 136.3 60.1127 135.894 59.5016 135.376C58.9198 134.882 58.4444 134.273 58.1047 133.588C57.7651 132.905 57.59 132.152 57.5938 131.388C57.5938 130.775 58.0875 130.278 58.6964 130.278C59.3054 130.278 59.7991 130.775 59.7991 131.388C59.7974 131.84 59.9065 132.285 60.1167 132.683C60.3366 133.097 60.6385 133.462 61.0036 133.753C61.4106 134.071 61.8673 134.317 62.3549 134.483C62.8975 134.665 63.4659 134.756 64.0376 134.753C64.6149 134.755 65.1888 134.664 65.7372 134.482C66.238 134.314 66.7086 134.066 67.1308 133.747C67.509 133.464 67.8197 133.1 68.0402 132.681C68.2462 132.291 68.3382 131.85 68.3057 131.41C68.273 130.988 68.1389 130.581 67.9148 130.224C67.6715 129.834 67.3631 129.49 67.0033 129.205C66.6085 128.893 66.1705 128.641 65.7032 128.456C65.204 128.254 64.6843 128.107 64.1535 128.018C63.3887 127.965 62.6338 127.813 61.9068 127.568C61.2241 127.343 60.5778 127.018 59.9883 126.605C59.4505 126.232 58.9919 125.754 58.6393 125.201C58.2912 124.655 58.1082 124.019 58.1123 123.371C58.1096 122.723 58.279 122.086 58.6031 121.526C58.9393 120.95 59.3899 120.45 59.9269 120.058C60.5132 119.627 61.1651 119.296 61.8571 119.077C63.3841 118.598 65.0199 118.598 66.547 119.077C67.2376 119.299 67.8887 119.63 68.4762 120.058C69.0115 120.451 69.4612 120.951 69.7976 121.526C70.1241 122.085 70.2951 122.722 70.2926 123.371C70.2932 123.68 70.1714 123.977 69.954 124.196C69.7367 124.414 69.4418 124.536 69.1347 124.535C68.8221 124.541 68.5229 124.408 68.3168 124.171C68.116 123.948 68.0045 123.649 67.9789 123.282C67.9596 122.997 67.8564 122.724 67.6826 122.498C67.4642 122.207 67.1936 121.96 66.8848 121.77C66.5082 121.536 66.0994 121.36 65.6717 121.246C65.1931 121.115 64.6994 121.049 64.2036 121.05C63.6929 121.048 63.1842 121.113 62.6907 121.246C62.263 121.356 61.8546 121.533 61.4797 121.768C61.1712 121.967 60.906 122.228 60.7 122.533C60.5229 122.787 60.4273 123.089 60.426 123.4C60.426 123.687 60.5322 123.945 60.7553 124.191C61.0221 124.481 61.3374 124.722 61.6869 124.903C62.0922 125.12 62.5173 125.298 62.9563 125.433C63.3769 125.567 63.808 125.664 64.2449 125.723C65.0794 125.813 65.8976 126.018 66.6765 126.333C67.4005 126.625 68.0761 127.026 68.68 127.523C69.2447 127.992 69.7076 128.574 70.0397 129.231C70.3697 129.892 70.5393 130.623 70.5346 131.363C70.5377 132.13 70.3628 132.887 70.0237 133.574C69.6884 134.263 69.2124 134.874 68.6268 135.365C67.3448 136.434 65.7297 137.014 64.0654 137.002H64.0651Z" fill="#251F31"/>
<path d="M75.7372 137C75.4298 137.002 75.1345 136.879 74.9169 136.661C74.6993 136.442 74.5773 136.144 74.5782 135.835V119.912C74.5746 119.601 74.6974 119.301 74.9181 119.084C75.1327 118.861 75.4292 118.738 75.7372 118.743H85.3848C85.6924 118.742 85.9876 118.865 86.2046 119.085C86.4216 119.304 86.5422 119.602 86.5395 119.912C86.5452 120.221 86.4237 120.518 86.2038 120.734C85.9885 120.955 85.6925 121.078 85.3848 121.074H76.8951V126.65H82.9046C83.5441 126.65 84.0625 127.172 84.0625 127.816C84.0625 128.46 83.5441 128.983 82.9046 128.983H76.8951V134.667H85.3848C85.6924 134.665 85.9878 134.788 86.2048 135.007C86.4219 135.227 86.5424 135.525 86.5395 135.835C86.5454 136.145 86.4239 136.443 86.2038 136.66C85.9884 136.881 85.6925 137.004 85.3848 137L75.7372 137Z" fill="#251F31"/>
<path d="M101.791 137C101.484 137.001 101.189 136.879 100.971 136.66C100.753 136.441 100.63 136.144 100.63 135.835V125.455C100.635 124.875 100.519 124.299 100.291 123.766C99.8394 122.713 99.0046 121.873 97.9577 121.421C96.8895 120.958 95.6797 120.958 94.6115 121.421C94.0971 121.643 93.6308 121.964 93.2389 122.367C92.8458 122.772 92.5291 123.247 92.3042 123.766C92.078 124.3 91.9624 124.875 91.9643 125.455V135.835C91.9652 136.144 91.8432 136.442 91.6254 136.661C91.4075 136.88 91.1119 137.002 90.8043 137C90.4977 137.004 90.2028 136.882 89.9874 136.662C89.7665 136.445 89.6445 136.145 89.6506 135.835V125.455C89.6449 122.765 91.2382 120.332 93.6958 119.279C95.3502 118.563 97.2241 118.564 98.8775 119.283C99.6657 119.62 100.382 120.107 100.987 120.718C101.593 121.329 102.078 122.052 102.415 122.846C102.769 123.669 102.95 124.558 102.946 125.455V135.835C102.947 136.144 102.826 136.441 102.61 136.659C102.393 136.878 102.098 137.001 101.791 137L101.791 137Z" fill="#251F31"/>
<path d="M113.168 137.003C112.315 137.008 111.468 136.862 110.665 136.572C109.913 136.301 109.215 135.895 108.604 135.376C108.023 134.881 107.547 134.273 107.204 133.589C106.866 132.905 106.691 132.152 106.693 131.388C106.691 131.094 106.807 130.812 107.015 130.605C107.331 130.286 107.806 130.19 108.219 130.362C108.632 130.533 108.903 130.938 108.904 131.388C108.901 131.839 109.009 132.283 109.218 132.681C109.436 133.096 109.738 133.46 110.103 133.75C110.51 134.07 110.967 134.318 111.456 134.483C111.999 134.665 112.568 134.756 113.14 134.753C113.718 134.755 114.292 134.664 114.84 134.482C115.34 134.315 115.81 134.067 116.232 133.747C116.609 133.463 116.92 133.099 117.144 132.681C117.35 132.291 117.441 131.85 117.406 131.41C117.373 130.989 117.239 130.582 117.016 130.224C116.773 129.834 116.465 129.489 116.105 129.204C115.711 128.891 115.273 128.639 114.805 128.456C114.305 128.253 113.785 128.106 113.253 128.018C112.489 127.965 111.735 127.814 111.009 127.568C110.326 127.344 109.679 127.019 109.089 126.605C108.552 126.231 108.094 125.754 107.741 125.201C107.393 124.655 107.209 124.019 107.213 123.371C107.213 122.723 107.383 122.087 107.704 121.526C108.041 120.95 108.492 120.45 109.029 120.058C109.615 119.629 110.266 119.298 110.956 119.077C112.484 118.598 114.121 118.598 115.648 119.077C116.339 119.299 116.991 119.63 117.579 120.058C118.115 120.45 118.565 120.95 118.9 121.526C119.225 122.085 119.396 122.722 119.395 123.371C119.397 123.682 119.274 123.98 119.052 124.197C118.84 124.42 118.544 124.543 118.237 124.535C117.923 124.541 117.623 124.407 117.416 124.169C117.217 123.951 117.104 123.651 117.081 123.284C117.062 122.999 116.958 122.726 116.784 122.5C116.565 122.209 116.294 121.962 115.985 121.77C115.609 121.536 115.201 121.359 114.773 121.246C114.294 121.112 113.799 121.046 113.302 121.05C112.791 121.048 112.283 121.114 111.789 121.246C111.362 121.355 110.955 121.531 110.582 121.768C110.274 121.968 110.009 122.228 109.802 122.533C109.625 122.787 109.529 123.089 109.527 123.4C109.527 123.688 109.637 123.945 109.854 124.191C110.124 124.48 110.44 124.721 110.789 124.903C111.195 125.121 111.621 125.299 112.061 125.433C112.48 125.566 112.909 125.663 113.344 125.723C114.179 125.812 114.998 126.018 115.777 126.333C116.502 126.624 117.178 127.026 117.782 127.523C118.344 127.993 118.805 128.572 119.138 129.227C119.47 129.889 119.641 130.621 119.637 131.363C119.64 132.13 119.465 132.887 119.127 133.574C118.789 134.262 118.312 134.872 117.727 135.365C116.445 136.434 114.831 137.014 113.168 137.002L113.168 137.003Z" fill="#251F31"/>
<path d="M130.607 137.001C130.299 137.003 130.004 136.88 129.787 136.662C129.569 136.443 129.447 136.146 129.448 135.836V129.902L122.32 120.626C122.129 120.391 122.039 120.089 122.07 119.787C122.09 119.48 122.238 119.197 122.478 119.008C122.688 118.835 122.951 118.741 123.222 118.742C123.623 118.77 123.889 118.916 124.089 119.164L130.611 127.612L137.257 119.165C137.445 118.92 137.728 118.768 138.034 118.747H138.053C138.409 118.747 138.656 118.834 138.869 119.006C139.113 119.196 139.265 119.481 139.288 119.79C139.311 120.093 139.218 120.393 139.028 120.629L131.765 129.904V135.836C131.771 136.147 131.649 136.446 131.428 136.663C131.211 136.883 130.915 137.005 130.607 137.001Z" fill="#251F31"/>
<path d="M148.004 137.002C147.15 137.007 146.302 136.862 145.498 136.572C144.747 136.3 144.05 135.894 143.439 135.376C142.859 134.88 142.383 134.272 142.04 133.588C141.701 132.905 141.527 132.152 141.531 131.388C141.531 130.939 141.8 130.533 142.213 130.362C142.625 130.19 143.1 130.286 143.415 130.605C143.624 130.811 143.74 131.094 143.738 131.388C143.736 131.839 143.844 132.284 144.052 132.683C144.273 133.097 144.576 133.462 144.942 133.753C145.348 134.071 145.805 134.318 146.292 134.483C146.835 134.665 147.403 134.756 147.975 134.753C148.553 134.756 149.127 134.664 149.676 134.482C150.176 134.315 150.647 134.066 151.068 133.747C151.445 133.462 151.755 133.099 151.979 132.681C152.186 132.292 152.278 131.85 152.243 131.41C152.209 130.989 152.075 130.583 151.855 130.224C151.609 129.835 151.301 129.49 150.942 129.204C150.548 128.892 150.109 128.64 149.642 128.456C149.142 128.254 148.622 128.107 148.091 128.018C147.326 127.965 146.572 127.814 145.845 127.568C145.161 127.343 144.514 127.019 143.924 126.605C143.387 126.231 142.929 125.754 142.577 125.201C142.229 124.655 142.046 124.019 142.051 123.371C142.05 122.723 142.218 122.087 142.539 121.526C142.877 120.95 143.328 120.451 143.865 120.058C144.451 119.629 145.102 119.298 145.792 119.077C147.32 118.598 148.957 118.598 150.485 119.077C151.175 119.298 151.826 119.629 152.41 120.06C152.95 120.45 153.402 120.949 153.739 121.526C154.062 122.086 154.232 122.723 154.232 123.371C154.23 124.015 153.711 124.536 153.072 124.535C152.76 124.542 152.461 124.409 152.256 124.171C152.055 123.953 151.938 123.653 151.914 123.284C151.897 122.999 151.794 122.725 151.621 122.499C151.403 122.206 151.13 121.959 150.819 121.77C150.444 121.536 150.036 121.359 149.61 121.245C149.131 121.112 148.636 121.046 148.139 121.049C147.628 121.047 147.12 121.113 146.627 121.245C146.2 121.355 145.793 121.531 145.42 121.767C145.11 121.965 144.844 122.226 144.64 122.533C144.462 122.786 144.366 123.089 144.364 123.399C144.364 123.686 144.468 123.944 144.692 124.19C144.96 124.48 145.276 124.721 145.625 124.903C146.03 125.121 146.455 125.298 146.895 125.433C147.315 125.565 147.745 125.662 148.181 125.723C149.016 125.812 149.835 126.018 150.615 126.333C151.339 126.625 152.015 127.026 152.619 127.523C153.184 127.992 153.646 128.573 153.978 129.231C154.308 129.892 154.478 130.622 154.475 131.362C154.477 132.129 154.302 132.886 153.963 133.573C153.626 134.262 153.149 134.873 152.563 135.365C151.281 136.433 149.667 137.013 148.004 137.002L148.004 137.002Z" fill="#251F31"/>
</svg>
