<?xml version="1.0" encoding="utf-8"?>
<!-- Generator: Adobe Illustrator 23.0.0, SVG Export Plug-In . SVG Version: 6.00 Build 0)  -->
<svg version="1.1" id="Layer_1" xmlns="http://www.w3.org/2000/svg" xmlns:xlink="http://www.w3.org/1999/xlink" x="0px" y="0px"
	 viewBox="0 0 176 121" style="enable-background:new 0 0 176 121;" xml:space="preserve">
<style type="text/css">
	.st0{fill:#D40D26;}
	.st1{fill:#251F31;}
</style>
<path class="st0" d="M94.2,11.3L87.5,0l-6.7,11.3C49,14.2,24,37.2,24,37.2S49.8,61,82.4,63.3l5.1,9.4l5.1-9.4
	C125.1,61,151,37.2,151,37.2S126,14.3,94.2,11.3z M105.2,29.3L89.9,57.7c-0.8,0.1-1.6,0.1-2.4,0.1c-0.8,0-1.6,0-2.4-0.1L69.9,29.3
	l-3.2,5.4l12.3,22.4c-25.3-3.3-49-19.9-49-19.9s22.5-15.8,47.1-19.7l-3.9,6.5l3.2,5.6l8-12.9c1.1-0.1,2.1-0.1,3.2-0.1
	c1.1,0,2.1,0.1,3.2,0.1l8,12.9l3.2-5.6l-3.9-6.5c24.6,3.9,47.4,19.7,47.4,19.7s-24,16.6-49.3,19.9l12.3-22.4L105.2,29.3z"/>
<path class="st1" d="M13.3,88.2c-1.6-0.8-3.2-1.4-5.2-1.4c-2.9,0-4.6,1.8-4.6,3.9c0,2.5,2.6,4.2,5.1,5.6c4.7,2.5,6.8,5.3,6.7,8.7
	c-0.1,4.5-3.5,6.7-7.8,6.6c-3.8-0.1-6-1.2-7.4-2.4l1.1-2.3c1.5,1,3.5,2.2,6.1,2.2c3.3,0,5.1-2.2,5.1-4c0-2.9-2.1-4.4-5.5-6.5
	c-3.8-2.3-6.3-4.2-6.3-7.9c0-2.9,2.3-6.5,7.3-6.5c2.5,0,5,0.8,6.3,1.7L13.3,88.2z"/>
<path class="st1" d="M20.5,87.8c1.2,0,2.1,1,2.1,2.2c0,1.2-1,2.1-2.1,2.1c-1.1,0-2.1-0.9-2.1-2.1C18.4,88.8,19.3,87.8,20.5,87.8z
	 M19.2,96.1h2.6v15h-2.6V96.1z"/>
<path class="st1" d="M28.6,98.2c1.1-1.5,3-2.7,5.2-2.7c3.8,0,6.4,2.7,6.4,6.6v8.9h-2.7v-8.7c0-3.1-2.3-4.6-4.4-4.6
	c-1.9,0-4.6,1.4-4.6,4.6v8.7h-2.6V96h1.5L28.6,98.2z"/>
<path class="st1" d="M41.6,115.6c0-2.8,2-4.2,4.2-4.7c-1-0.2-1.9-1.3-1.9-2.6c0-1.3,1.1-2.6,2.5-2.6c-1.9-1.1-2.8-2.9-2.8-4.6
	c0-2.5,1.9-5.4,6-5.4c1.6,0,3.4,0.6,4.3,1.5l3.4-1h0.5v2.5h-2.9c0.5,0.6,0.7,1.6,0.7,2.3c0,2.9-2.1,5.4-6,5.4
	c-2.1,0-2.9,0.7-2.9,1.8c0,1.4,1.2,1.8,3.3,1.8c5.1,0.2,8.5,1.8,8.5,5.6c0,3.8-4.2,5.4-8.5,5.4C45.6,121,41.6,119.4,41.6,115.6z
	 M55.7,115.6c0-2.3-3-3.5-6.1-3.5c-3,0-5.4,1.1-5.4,3.5c0,2.4,3,3.3,5.7,3.3C52.7,118.9,55.7,118,55.7,115.6z M53.1,101
	c0-1.6-1.2-3.4-3.5-3.4c-2.4,0-3.5,1.8-3.5,3.4c0,1.6,1.2,3.4,3.5,3.4C51.9,104.4,53.1,102.6,53.1,101z"/>
<path class="st1" d="M72.2,108.9c-1.1,1.6-3,2.7-5.2,2.7c-3.8,0-6.4-2.7-6.4-6.6v-8.9h2.7v8.7c0,3.1,2.2,4.6,4.4,4.6
	c1.9,0,4.6-1.5,4.6-4.6v-8.7h2.6v15h-1.5L72.2,108.9z"/>
<path class="st1" d="M81.2,111.1h-2.6V84.8l2.4-0.5h0.3L81.2,111.1L81.2,111.1z"/>
<path class="st1" d="M98,111.1h-1.5l-0.9-2.2c-0.7,1.1-2.3,2.6-5.6,2.6c-3.8,0-6.1-2.3-6.1-5c0-2.8,2.4-5.2,6.1-5.2
	c2.3,0,4.6,1.2,5.4,2.2v-1.1c-0.1-2.2-1.2-4.6-4.5-4.6c-1.9,0-3.2,0.7-4.2,1.3l-1-1.9c1-0.7,3.2-1.7,5.5-1.6c3.5,0.1,6.5,2.2,6.7,7
	V111.1z M95.4,105.4c-1-1.1-2.8-2.2-5-2.1c-2.5,0-3.9,1.5-3.9,3.2c0,1.8,1.5,3.2,3.9,3.2c2.7,0,4.7-2.2,5-4V105.4z"/>
<path class="st1" d="M101.4,96.1h1.4l1.1,1.7c0.5-1.2,1.9-2.2,3.6-2.2c0.7,0,1.2,0.2,2,0.5l-0.5,2.3l-0.2,0.1
	c-0.5-0.3-1.1-0.5-1.7-0.5c-1.4,0-2.5,0.7-3.2,2.2v10.8h-2.6L101.4,96.1L101.4,96.1z"/>
<path class="st1" d="M112.9,84.8c17-2.5,20.8,7.4,20.8,13.2c0,5.5-4.1,15.5-20.8,13.1V84.8z M115.8,108.8c8,1,14.9-3.1,14.9-10.7
	c0-6.5-4.9-12.1-14.9-10.8V108.8z"/>
<path class="st1" d="M151.3,87.2h-6.9v23.9h-2.8V87.2h-6.9v-2.4h16.6V87.2z"/>
<path class="st1" d="M175.4,84.8l-11,26.6h-0.5L153,84.8h3.2l8.1,20.4l8.2-20.4H175.4z"/>
</svg>
