<svg id="Layer_1" data-name="Layer 1" xmlns="http://www.w3.org/2000/svg" viewBox="0 0 40 40"><defs><style>.cls-1{fill:#fff;}</style></defs><title>social-</title><path class="cls-1" d="M17.6,29.65C13,30.11,9,28,8.68,25s3.21-5.87,7.83-6.33,8.61,1.64,8.91,4.67-3.2,5.87-7.82,6.32m9.24-10.07c-.39-.12-.66-.2-.45-.71a2.91,2.91,0,0,0,0-2.78c-.9-1.3-3.38-1.23-6.23,0,0,0-.89.39-.66-.32.44-1.4.37-2.58-.31-3.26-1.54-1.54-5.64.06-9.16,3.57-2.63,2.64-4.16,5.43-4.16,7.84,0,4.62,5.92,7.43,11.71,7.43,7.6,0,12.65-4.41,12.65-7.92,0-2.11-1.79-3.31-3.39-3.81"/><path class="cls-1" d="M31.89,11.13a7.41,7.41,0,0,0-7-2.28h0a1.07,1.07,0,0,0,.45,2.09,5.26,5.26,0,0,1,6.1,6.76h0a1.07,1.07,0,1,0,2,.66h0a7.4,7.4,0,0,0-1.54-7.23"/><path class="cls-1" d="M29.07,13.67a3.62,3.62,0,0,0-3.43-1.11.92.92,0,1,0,.39,1.8h0a1.76,1.76,0,0,1,2,2.27h0a.92.92,0,1,0,1.75.56,3.61,3.61,0,0,0-.75-3.52"/><path class="cls-1" d="M17.85,24.16a.67.67,0,0,1-.8.29.46.46,0,0,1-.2-.69.67.67,0,0,1,.78-.3.47.47,0,0,1,.22.7m-1.47,1.89a1.77,1.77,0,0,1-2.13.7,1.23,1.23,0,0,1-.47-1.85,1.75,1.75,0,0,1,2.08-.7,1.22,1.22,0,0,1,.52,1.85M18.06,21a5,5,0,0,0-5.64,2.46,3.43,3.43,0,0,0,2.19,4.89,5,5,0,0,0,6-2.53A3.45,3.45,0,0,0,18.06,21"/></svg>