<?xml version="1.0" encoding="utf-8"?>
<!-- Generator: Adobe Illustrator 22.1.0, SVG Export Plug-In . SVG Version: 6.00 Build 0)  -->
<svg version="1.1" id="Layer_1" xmlns="http://www.w3.org/2000/svg" xmlns:xlink="http://www.w3.org/1999/xlink" x="0px" y="0px"
	 viewBox="0 0 40 40" style="enable-background:new 0 0 40 40;" xml:space="preserve">
<style type="text/css">
	.st0{fill:#FFFFFF;}
</style>
<title>social-</title>
<g>
	<path class="st0" d="M16.6,7.9c0.3,0,0.6,0,0.8,0.1c3,0.4,5.5,1.6,7.3,4.1c0.6,0.9,1.1,1.9,1.3,2.9c0,0,0,0.1,0,0.1
		c-0.1,0-0.2,0-0.3,0c-2.9-0.1-5.4,0.8-7.5,2.8c-1,1.1-1.7,2.3-1.9,3.8c-0.1,1,0,1.9,0.3,2.8c0,0.1,0,0.1,0.1,0.2c0,0,0,0-0.1,0
		c-1.4,0.1-2.7-0.1-4-0.6c-0.1,0-0.1,0-0.2,0c-1,0.6-1.9,1.2-2.9,1.8C9.2,26,9.1,26,9,25.9c-0.1-0.1-0.1-0.2-0.1-0.4
		c0.3-0.9,0.6-1.8,0.9-2.7c0,0,0,0,0,0c-0.3-0.3-0.7-0.5-1-0.8c-1.4-1.2-2.3-2.7-2.7-4.5c-0.1-0.3-0.1-0.6-0.1-0.8
		c0-0.3,0-0.6,0-0.9c0,0,0-0.1,0-0.1c0.1-1.4,0.6-2.7,1.4-3.8c1.8-2.4,4.2-3.6,7.2-4c0.3,0,0.6-0.1,0.8-0.1
		C15.9,7.9,16.3,7.9,16.6,7.9z M13.5,13.5c0-0.7-0.6-1.3-1.3-1.3c-0.7,0-1.3,0.6-1.3,1.3c0,0.7,0.6,1.3,1.3,1.3
		C12.9,14.8,13.5,14.2,13.5,13.5z M20,14.8c0.7,0,1.3-0.6,1.3-1.3c0-0.7-0.6-1.3-1.3-1.3c-0.7,0-1.3,0.6-1.3,1.3
		C18.8,14.2,19.3,14.8,20,14.8z"/>
	<path class="st0" d="M31,28.1c0.2,0.5,0.4,0.9,0.6,1.4c0.1,0.3,0.2,0.5,0.3,0.8c0.1,0.2,0,0.3-0.2,0.4c-0.2,0-0.4,0-0.6-0.1
		c-0.7-0.4-1.4-0.9-2.1-1.3c-0.1,0-0.1,0-0.2,0c-1.4,0.5-2.9,0.7-4.3,0.6c-2.2-0.2-4.2-1-5.8-2.5c-1-1-1.7-2.2-1.9-3.7
		c-0.3-1.6,0.1-3.2,1.1-4.5c1-1.4,2.4-2.4,4-3c2.8-1,5.6-0.8,8.2,0.7c1.6,0.9,2.7,2.1,3.3,3.7c0.8,2.2,0.4,4.3-1.1,6.1
		c-0.4,0.5-0.8,0.9-1.3,1.3C31.1,28.1,31,28.1,31,28.1z M22.3,19c-0.6,0-1.1,0.5-1.1,1.1c0,0.6,0.5,1.1,1.1,1.1
		c0.6,0,1.1-0.5,1.1-1.1C23.4,19.4,22.9,19,22.3,19z M28.5,19c-0.6,0-1.1,0.5-1.1,1.1c0,0.6,0.5,1.1,1.1,1.1c0.6,0,1.1-0.5,1.1-1.1
		C29.6,19.4,29.1,19,28.5,19z"/>
</g>
</svg>
