<?xml version="1.0" encoding="utf-8"?>
<!-- Generator: Adobe Illustrator 23.0.0, SVG Export Plug-In . SVG Version: 6.00 Build 0)  -->
<svg version="1.1" id="Layer_1" xmlns="http://www.w3.org/2000/svg" xmlns:xlink="http://www.w3.org/1999/xlink" x="0px" y="0px"
	 viewBox="0 0 16 16" style="enable-background:new 0 0 16 16;" xml:space="preserve">
<style type="text/css">
	.st0{fill:#FFFFFF;}
</style>
<path class="st0" d="M12.6,4.8c-1.5-1.1-2.9-1.1-2.9-1.1L9.6,3.8c1.8,0.5,2.6,1.3,2.6,1.3c-1.1-0.6-2.1-0.9-3.1-1
	C8.3,4.1,7.6,4.1,7,4.2c-0.1,0-0.1,0-0.2,0c-0.4,0-1.2,0.2-2.4,0.7C4,5,3.8,5.2,3.8,5.2s0.9-0.8,2.7-1.3L6.4,3.7c0,0-1.4,0-2.9,1.1
	c0,0-1.5,2.7-1.5,6c0,0,0.9,1.5,3.2,1.6c0,0,0.4-0.5,0.7-0.9c-1.3-0.4-1.8-1.2-1.8-1.2s0.1,0.1,0.3,0.2c0,0,0,0,0,0
	c0,0,0.1,0,0.1,0.1c0.3,0.1,0.5,0.3,0.8,0.4c0.4,0.2,0.9,0.3,1.5,0.4c0.8,0.1,1.7,0.2,2.7,0c0.5-0.1,1-0.2,1.5-0.4
	c0.4-0.1,0.8-0.3,1.2-0.6c0,0-0.5,0.8-1.9,1.2c0.3,0.4,0.7,0.8,0.7,0.8c2.3-0.1,3.2-1.6,3.2-1.6C14.1,7.4,12.6,4.8,12.6,4.8z
	 M6.1,9.8c-0.6,0-1.1-0.5-1.1-1.1c0-0.6,0.5-1.1,1.1-1.1c0.6,0,1.1,0.5,1.1,1.1C7.2,9.3,6.7,9.8,6.1,9.8z M9.9,9.8
	c-0.6,0-1.1-0.5-1.1-1.1c0-0.6,0.5-1.1,1.1-1.1C10.5,7.5,11,8,11,8.6C11,9.3,10.5,9.8,9.9,9.8z"/>
</svg>
