<svg id="Layer_1" data-name="Layer 1" xmlns="http://www.w3.org/2000/svg" viewBox="0 0 40 40"><defs><style>.cls-1{fill:#fff;}</style></defs><title>social-</title><path class="cls-1" d="M7.56,29.33c.37.24.52.35.69.45a16,16,0,0,0,10.83,1.77c8-1.38,13-8.58,13.06-15.82a2,2,0,0,1,.54-1.13c.66-.75,1.39-1.44,2.09-2.15l-.15-.16L32.15,13l2-2.7a14.33,14.33,0,0,0-2.88.84A1.1,1.1,0,0,1,30,10.84,5.27,5.27,0,0,0,24.19,10a5.38,5.38,0,0,0-3.38,5.11c0,.42,0,.83,0,1.29A16.46,16.46,0,0,1,9.26,10.5c-1.28,3-.88,5.41,1.37,7.57L8.3,17.45a4.66,4.66,0,0,0,1.25,3.4c.85.85,1.89,1.28,2.8,2.24H10.57a5.36,5.36,0,0,0,1.92,2.7,24,24,0,0,0,2.93,1.4A11.63,11.63,0,0,1,7.56,29.33Z"/></svg>