<svg id="Layer_1" data-name="Layer 1" xmlns="http://www.w3.org/2000/svg" viewBox="0 0 40 40"><defs><style>.cls-1{fill:#fffdff;fill-rule:evenodd;}</style></defs><title>social-</title><path class="cls-1" d="M20,6.43a13.92,13.92,0,0,0-4.4,27.12c.7.12,1-.31,1-.67s0-1.21,0-2.37c-3.87.84-4.68-1.87-4.68-1.87a3.72,3.72,0,0,0-1.55-2c-1.26-.86.1-.85.1-.85a2.94,2.94,0,0,1,2.13,1.44,3,3,0,0,0,4,1.15,2.93,2.93,0,0,1,.88-1.86c-3.09-.35-6.34-1.54-6.34-6.87a5.4,5.4,0,0,1,1.43-3.74,5,5,0,0,1,.14-3.68s1.17-.37,3.83,1.43a13.12,13.12,0,0,1,7,0c2.66-1.8,3.83-1.43,3.83-1.43a5,5,0,0,1,.14,3.68,5.4,5.4,0,0,1,1.43,3.74c0,5.34-3.26,6.52-6.36,6.86a3.33,3.33,0,0,1,.95,2.58c0,1.86,0,3.36,0,3.82s.25.8,1,.67A13.92,13.92,0,0,0,20,6.43Z"/></svg>